G04 #@! TF.FileFunction,Soldermask,Top*
%FSLAX46Y46*%
G04 Gerber Fmt 4.6, Leading zero omitted, Abs format (unit mm)*
G04 Created by KiCad (PCBNEW 4.0.1-stable) date 07/03/2016 22:46:51*
%MOMM*%
G01*
G04 APERTURE LIST*
%ADD10C,0.100000*%
%ADD11C,0.150000*%
%ADD12C,4.900120*%
%ADD13C,1.400000*%
%ADD14R,2.127200X2.432000*%
%ADD15O,2.127200X2.432000*%
%ADD16R,1.600000X1.300000*%
%ADD17R,1.150000X1.600000*%
%ADD18R,1.200000X1.300000*%
%ADD19R,2.099260X1.598880*%
%ADD20O,2.099260X1.598880*%
%ADD21R,1.300000X1.600000*%
%ADD22R,4.050000X2.450000*%
%ADD23R,2.450000X4.050000*%
%ADD24R,2.432000X2.127200*%
%ADD25O,2.432000X2.127200*%
%ADD26R,1.600000X1.150000*%
%ADD27R,1.700000X1.700000*%
%ADD28C,1.700000*%
%ADD29R,3.600000X1.600000*%
%ADD30C,1.900000*%
%ADD31R,4.900000X1.900000*%
%ADD32R,2.400000X2.000000*%
%ADD33R,2.000000X2.400000*%
%ADD34R,1.598880X2.099260*%
%ADD35O,1.598880X2.099260*%
%ADD36R,1.650000X1.900000*%
%ADD37R,2.400000X2.400000*%
%ADD38C,2.400000*%
%ADD39C,2.099260*%
%ADD40R,2.099260X2.099260*%
%ADD41R,1.700000X0.820000*%
%ADD42R,2.100000X3.245000*%
G04 APERTURE END LIST*
D10*
D11*
X117066000Y-87710000D02*
X123666000Y-87710000D01*
X123666000Y-87710000D02*
X123666000Y-94710000D01*
X123666000Y-94710000D02*
X117066000Y-94710000D01*
X117066000Y-94710000D02*
X117066000Y-87710000D01*
X117066000Y-79910000D02*
X123666000Y-79910000D01*
X123666000Y-79910000D02*
X123666000Y-86910000D01*
X123666000Y-86910000D02*
X117066000Y-86910000D01*
X117066000Y-86910000D02*
X117066000Y-79910000D01*
D12*
X121066000Y-116200000D03*
X121066000Y-76400000D03*
X165866000Y-76400000D03*
X165866000Y-116200000D03*
D13*
X120366000Y-93780000D03*
X122906000Y-91240000D03*
X117826000Y-91240000D03*
D14*
X126366000Y-108550000D03*
D15*
X128906000Y-108550000D03*
X131446000Y-108550000D03*
D13*
X120366000Y-85980000D03*
X122906000Y-83440000D03*
X117826000Y-83440000D03*
D16*
X132966000Y-98650000D03*
X130766000Y-98650000D03*
X132966000Y-101150000D03*
X130766000Y-101150000D03*
D17*
X143766000Y-96600000D03*
X143766000Y-94700000D03*
D18*
X139766000Y-94750000D03*
X140716000Y-92750000D03*
X138816000Y-92750000D03*
X133066000Y-80950000D03*
X134016000Y-78950000D03*
X132116000Y-78950000D03*
D14*
X126366000Y-118550000D03*
D15*
X128906000Y-118550000D03*
X131446000Y-118550000D03*
D13*
X145266000Y-84650000D03*
X140266000Y-84650000D03*
D19*
X167866000Y-110350760D03*
D20*
X167866000Y-108349240D03*
D14*
X131466000Y-113550000D03*
D15*
X128926000Y-113550000D03*
X126386000Y-113550000D03*
D19*
X167866000Y-102050760D03*
D20*
X167866000Y-100049240D03*
D21*
X144066000Y-106250000D03*
X144066000Y-108450000D03*
X141266000Y-106250000D03*
X141266000Y-108450000D03*
X138566000Y-105450000D03*
X138566000Y-103250000D03*
D22*
X160866000Y-107250000D03*
X157566000Y-75350000D03*
D23*
X130166000Y-91150000D03*
D22*
X151066000Y-87800000D03*
D23*
X138666000Y-109650000D03*
X130166000Y-85150000D03*
D24*
X126066000Y-97250000D03*
D25*
X126066000Y-99790000D03*
X126066000Y-102330000D03*
D26*
X144016000Y-103950000D03*
X142116000Y-103950000D03*
D27*
X161036000Y-99314000D03*
D28*
X161036000Y-101814000D03*
D29*
X157266000Y-91250000D03*
X157266000Y-88750000D03*
X157266000Y-86750000D03*
X157266000Y-84250000D03*
D30*
X160966000Y-85250000D03*
X160966000Y-90250000D03*
D31*
X160466000Y-94600000D03*
X160466000Y-80900000D03*
D32*
X144366000Y-100250000D03*
X148366000Y-100250000D03*
D17*
X135266000Y-119500000D03*
X135266000Y-117600000D03*
D33*
X135766000Y-90550000D03*
X135766000Y-94550000D03*
D34*
X134066760Y-74750000D03*
D35*
X132065240Y-74750000D03*
D36*
X147266000Y-94000000D03*
X147266000Y-96500000D03*
D37*
X121166000Y-97850000D03*
D38*
X118626000Y-97850000D03*
D37*
X121166000Y-103850000D03*
D38*
X118626000Y-103850000D03*
D18*
X149066000Y-103250000D03*
X148116000Y-105250000D03*
X150016000Y-105250000D03*
D24*
X155366000Y-109550000D03*
D25*
X155366000Y-107010000D03*
X155366000Y-104470000D03*
D34*
X144566760Y-74750000D03*
D35*
X142565240Y-74750000D03*
D21*
X126366000Y-92250000D03*
X126366000Y-90050000D03*
X126366000Y-84550000D03*
X126366000Y-82350000D03*
D39*
X152168540Y-101510520D03*
D40*
X152168540Y-91350520D03*
D41*
X136408000Y-100357500D03*
X136408000Y-99707500D03*
X136408000Y-99057500D03*
X136408000Y-98407500D03*
X136408000Y-97757500D03*
X136408000Y-97107500D03*
X140919000Y-97107500D03*
X140919000Y-97757500D03*
X140919000Y-98407500D03*
X140919000Y-99057500D03*
X140919000Y-99707500D03*
X140919000Y-100357500D03*
D42*
X138658500Y-98732500D03*
M02*
