G04 #@! TF.FileFunction,Soldermask,Bot*
%FSLAX46Y46*%
G04 Gerber Fmt 4.6, Leading zero omitted, Abs format (unit mm)*
G04 Created by KiCad (PCBNEW 4.0.1-stable) date 07/03/2016 22:46:51*
%MOMM*%
G01*
G04 APERTURE LIST*
%ADD10C,0.100000*%
%ADD11C,4.900120*%
%ADD12C,1.400000*%
%ADD13R,2.127200X2.432000*%
%ADD14O,2.127200X2.432000*%
%ADD15R,2.099260X1.598880*%
%ADD16O,2.099260X1.598880*%
%ADD17R,2.432000X2.127200*%
%ADD18O,2.432000X2.127200*%
%ADD19R,1.700000X1.700000*%
%ADD20C,1.700000*%
%ADD21C,1.900000*%
%ADD22R,4.900000X1.900000*%
%ADD23R,1.598880X2.099260*%
%ADD24O,1.598880X2.099260*%
%ADD25R,2.400000X2.400000*%
%ADD26C,2.400000*%
%ADD27C,2.099260*%
%ADD28R,2.099260X2.099260*%
G04 APERTURE END LIST*
D10*
D11*
X121066000Y-116200000D03*
X121066000Y-76400000D03*
X165866000Y-76400000D03*
X165866000Y-116200000D03*
D12*
X120366000Y-93780000D03*
X122906000Y-91240000D03*
X117826000Y-91240000D03*
D13*
X126366000Y-108550000D03*
D14*
X128906000Y-108550000D03*
X131446000Y-108550000D03*
D12*
X120366000Y-85980000D03*
X122906000Y-83440000D03*
X117826000Y-83440000D03*
D13*
X126366000Y-118550000D03*
D14*
X128906000Y-118550000D03*
X131446000Y-118550000D03*
D12*
X145266000Y-84650000D03*
X140266000Y-84650000D03*
D15*
X167866000Y-110350760D03*
D16*
X167866000Y-108349240D03*
D13*
X131466000Y-113550000D03*
D14*
X128926000Y-113550000D03*
X126386000Y-113550000D03*
D15*
X167866000Y-102050760D03*
D16*
X167866000Y-100049240D03*
D17*
X126066000Y-97250000D03*
D18*
X126066000Y-99790000D03*
X126066000Y-102330000D03*
D19*
X161036000Y-99314000D03*
D20*
X161036000Y-101814000D03*
D21*
X160966000Y-85250000D03*
X160966000Y-90250000D03*
D22*
X160466000Y-94600000D03*
X160466000Y-80900000D03*
D23*
X134066760Y-74750000D03*
D24*
X132065240Y-74750000D03*
D25*
X121166000Y-97850000D03*
D26*
X118626000Y-97850000D03*
D25*
X121166000Y-103850000D03*
D26*
X118626000Y-103850000D03*
D17*
X155366000Y-109550000D03*
D18*
X155366000Y-107010000D03*
X155366000Y-104470000D03*
D23*
X144566760Y-74750000D03*
D24*
X142565240Y-74750000D03*
D27*
X152168540Y-101510520D03*
D28*
X152168540Y-91350520D03*
M02*
