G04 #@! TF.FileFunction,Copper,L2,Bot,Signal*
%FSLAX46Y46*%
G04 Gerber Fmt 4.6, Leading zero omitted, Abs format (unit mm)*
G04 Created by KiCad (PCBNEW 4.0.1-stable) date 16/02/2016 20:02:07*
%MOMM*%
G01*
G04 APERTURE LIST*
%ADD10C,0.100000*%
%ADD11R,1.300000X1.300000*%
%ADD12C,1.300000*%
%ADD13C,4.800600*%
%ADD14R,4.800600X4.800600*%
%ADD15R,2.000000X2.000000*%
%ADD16C,2.000000*%
%ADD17R,2.032000X1.727200*%
%ADD18O,2.032000X1.727200*%
%ADD19R,1.727200X2.032000*%
%ADD20O,1.727200X2.032000*%
%ADD21R,2.235200X2.235200*%
%ADD22C,1.998980*%
%ADD23C,0.600000*%
%ADD24C,0.250000*%
%ADD25C,0.254000*%
G04 APERTURE END LIST*
D10*
D11*
X150622000Y-120142000D03*
D12*
X153122000Y-120142000D03*
D13*
X160274000Y-100076000D03*
D14*
X154178000Y-100076000D03*
D13*
X157988000Y-94996000D03*
D15*
X140970000Y-111760000D03*
D16*
X138430000Y-111760000D03*
D15*
X140970000Y-118110000D03*
D16*
X138430000Y-118110000D03*
D17*
X134366000Y-100330000D03*
D18*
X134366000Y-102870000D03*
X134366000Y-105410000D03*
D19*
X145542000Y-115062000D03*
D20*
X148082000Y-115062000D03*
X150622000Y-115062000D03*
D17*
X139446000Y-100330000D03*
D18*
X139446000Y-102870000D03*
X139446000Y-105410000D03*
D17*
X126746000Y-94234000D03*
D18*
X126746000Y-96774000D03*
X126746000Y-99314000D03*
D17*
X166370000Y-107950000D03*
D18*
X166370000Y-110490000D03*
X166370000Y-113030000D03*
X166370000Y-115570000D03*
X166370000Y-118110000D03*
X166370000Y-120650000D03*
D21*
X147320000Y-94234000D03*
D22*
X134620000Y-111760000D03*
X127000000Y-111760000D03*
X134620000Y-118110000D03*
X127000000Y-118110000D03*
D11*
X146050000Y-100330000D03*
D12*
X148550000Y-100330000D03*
D11*
X155448000Y-110490000D03*
D12*
X157948000Y-110490000D03*
D23*
X144526000Y-103124000D03*
X143764000Y-104902000D03*
X148844000Y-111252000D03*
X147320000Y-104648000D03*
D24*
X139446000Y-105410000D02*
X140462000Y-105410000D01*
X140462000Y-105410000D02*
X142748000Y-103124000D01*
X142748000Y-103124000D02*
X144526000Y-103124000D01*
X134366000Y-105410000D02*
X139446000Y-105410000D01*
X145542000Y-106680000D02*
X145542000Y-115062000D01*
X143764000Y-104902000D02*
X145542000Y-106680000D01*
D25*
G36*
X156270887Y-92421298D02*
X155416298Y-93274396D01*
X154953228Y-94389593D01*
X154952174Y-95597110D01*
X155413298Y-96713113D01*
X155727895Y-97028260D01*
X151777700Y-97028260D01*
X151542383Y-97072538D01*
X151326259Y-97211610D01*
X151181269Y-97423810D01*
X151130260Y-97675700D01*
X151130260Y-102476300D01*
X151174538Y-102711617D01*
X151313610Y-102927741D01*
X151525810Y-103072731D01*
X151777700Y-103123740D01*
X156578300Y-103123740D01*
X156813617Y-103079462D01*
X157029741Y-102940390D01*
X157174731Y-102728190D01*
X157225740Y-102476300D01*
X157225740Y-102239936D01*
X158289670Y-102239936D01*
X158559221Y-102652257D01*
X159675642Y-103112369D01*
X160883157Y-103110221D01*
X161988779Y-102652257D01*
X162258330Y-102239936D01*
X160274000Y-100255605D01*
X158289670Y-102239936D01*
X157225740Y-102239936D01*
X157225740Y-97966056D01*
X157381593Y-98030772D01*
X158049747Y-98031355D01*
X158110063Y-98091671D01*
X157697743Y-98361221D01*
X157237631Y-99477642D01*
X157239779Y-100685157D01*
X157697743Y-101790779D01*
X158110064Y-102060330D01*
X160094395Y-100076000D01*
X160453605Y-100076000D01*
X162437936Y-102060330D01*
X162850257Y-101790779D01*
X163310369Y-100674358D01*
X163308221Y-99466843D01*
X162850257Y-98361221D01*
X162437936Y-98091670D01*
X160453605Y-100076000D01*
X160094395Y-100076000D01*
X160080252Y-100061858D01*
X160259858Y-99882252D01*
X160274000Y-99896395D01*
X162258330Y-97912064D01*
X161988779Y-97499743D01*
X160872358Y-97039631D01*
X160235978Y-97040763D01*
X160559702Y-96717604D01*
X161022772Y-95602407D01*
X161023826Y-94394890D01*
X160562702Y-93278887D01*
X159709604Y-92424298D01*
X159049021Y-92150000D01*
X168454000Y-92150000D01*
X168454000Y-123750000D01*
X124662000Y-123750000D01*
X124662000Y-118433694D01*
X125365226Y-118433694D01*
X125613538Y-119034655D01*
X126072927Y-119494846D01*
X126673453Y-119744206D01*
X127323694Y-119744774D01*
X127924655Y-119496462D01*
X128384846Y-119037073D01*
X128634206Y-118436547D01*
X128634208Y-118433694D01*
X132985226Y-118433694D01*
X133233538Y-119034655D01*
X133692927Y-119494846D01*
X134293453Y-119744206D01*
X134943694Y-119744774D01*
X135544655Y-119496462D01*
X136004846Y-119037073D01*
X136254206Y-118436547D01*
X136254208Y-118433795D01*
X136794716Y-118433795D01*
X137043106Y-119034943D01*
X137502637Y-119495278D01*
X138103352Y-119744716D01*
X138753795Y-119745284D01*
X139354943Y-119496894D01*
X139421574Y-119430379D01*
X139505910Y-119561441D01*
X139718110Y-119706431D01*
X139970000Y-119757440D01*
X141970000Y-119757440D01*
X142205317Y-119713162D01*
X142421441Y-119574090D01*
X142477530Y-119492000D01*
X149324560Y-119492000D01*
X149324560Y-120792000D01*
X149368838Y-121027317D01*
X149507910Y-121243441D01*
X149720110Y-121388431D01*
X149972000Y-121439440D01*
X151272000Y-121439440D01*
X151507317Y-121395162D01*
X151723441Y-121256090D01*
X151868431Y-121043890D01*
X151869012Y-121041016D01*
X152402590Y-121041016D01*
X152458271Y-121271611D01*
X152941078Y-121439622D01*
X153451428Y-121410083D01*
X153785729Y-121271611D01*
X153841410Y-121041016D01*
X153122000Y-120321605D01*
X152402590Y-121041016D01*
X151869012Y-121041016D01*
X151919440Y-120792000D01*
X151919440Y-120629615D01*
X151992389Y-120805729D01*
X152222984Y-120861410D01*
X152942395Y-120142000D01*
X153301605Y-120142000D01*
X154021016Y-120861410D01*
X154251611Y-120805729D01*
X154419622Y-120322922D01*
X154390083Y-119812572D01*
X154251611Y-119478271D01*
X154021016Y-119422590D01*
X153301605Y-120142000D01*
X152942395Y-120142000D01*
X152222984Y-119422590D01*
X151992389Y-119478271D01*
X151919440Y-119687902D01*
X151919440Y-119492000D01*
X151875162Y-119256683D01*
X151866347Y-119242984D01*
X152402590Y-119242984D01*
X153122000Y-119962395D01*
X153841410Y-119242984D01*
X153785729Y-119012389D01*
X153302922Y-118844378D01*
X152792572Y-118873917D01*
X152458271Y-119012389D01*
X152402590Y-119242984D01*
X151866347Y-119242984D01*
X151736090Y-119040559D01*
X151523890Y-118895569D01*
X151272000Y-118844560D01*
X149972000Y-118844560D01*
X149736683Y-118888838D01*
X149520559Y-119027910D01*
X149375569Y-119240110D01*
X149324560Y-119492000D01*
X142477530Y-119492000D01*
X142566431Y-119361890D01*
X142617440Y-119110000D01*
X142617440Y-117110000D01*
X142573162Y-116874683D01*
X142434090Y-116658559D01*
X142221890Y-116513569D01*
X141970000Y-116462560D01*
X139970000Y-116462560D01*
X139734683Y-116506838D01*
X139518559Y-116645910D01*
X139421090Y-116788561D01*
X139357363Y-116724722D01*
X138756648Y-116475284D01*
X138106205Y-116474716D01*
X137505057Y-116723106D01*
X137044722Y-117182637D01*
X136795284Y-117783352D01*
X136794716Y-118433795D01*
X136254208Y-118433795D01*
X136254774Y-117786306D01*
X136006462Y-117185345D01*
X135547073Y-116725154D01*
X134946547Y-116475794D01*
X134296306Y-116475226D01*
X133695345Y-116723538D01*
X133235154Y-117182927D01*
X132985794Y-117783453D01*
X132985226Y-118433694D01*
X128634208Y-118433694D01*
X128634774Y-117786306D01*
X128386462Y-117185345D01*
X127927073Y-116725154D01*
X127326547Y-116475794D01*
X126676306Y-116475226D01*
X126075345Y-116723538D01*
X125615154Y-117182927D01*
X125365794Y-117783453D01*
X125365226Y-118433694D01*
X124662000Y-118433694D01*
X124662000Y-112083694D01*
X125365226Y-112083694D01*
X125613538Y-112684655D01*
X126072927Y-113144846D01*
X126673453Y-113394206D01*
X127323694Y-113394774D01*
X127924655Y-113146462D01*
X128384846Y-112687073D01*
X128634206Y-112086547D01*
X128634208Y-112083694D01*
X132985226Y-112083694D01*
X133233538Y-112684655D01*
X133692927Y-113144846D01*
X134293453Y-113394206D01*
X134943694Y-113394774D01*
X135544655Y-113146462D01*
X136004846Y-112687073D01*
X136254206Y-112086547D01*
X136254208Y-112083795D01*
X136794716Y-112083795D01*
X137043106Y-112684943D01*
X137502637Y-113145278D01*
X138103352Y-113394716D01*
X138753795Y-113395284D01*
X139354943Y-113146894D01*
X139421574Y-113080379D01*
X139505910Y-113211441D01*
X139718110Y-113356431D01*
X139970000Y-113407440D01*
X141970000Y-113407440D01*
X142205317Y-113363162D01*
X142421441Y-113224090D01*
X142566431Y-113011890D01*
X142617440Y-112760000D01*
X142617440Y-110760000D01*
X142573162Y-110524683D01*
X142434090Y-110308559D01*
X142221890Y-110163569D01*
X141970000Y-110112560D01*
X139970000Y-110112560D01*
X139734683Y-110156838D01*
X139518559Y-110295910D01*
X139421090Y-110438561D01*
X139357363Y-110374722D01*
X138756648Y-110125284D01*
X138106205Y-110124716D01*
X137505057Y-110373106D01*
X137044722Y-110832637D01*
X136795284Y-111433352D01*
X136794716Y-112083795D01*
X136254208Y-112083795D01*
X136254774Y-111436306D01*
X136006462Y-110835345D01*
X135547073Y-110375154D01*
X134946547Y-110125794D01*
X134296306Y-110125226D01*
X133695345Y-110373538D01*
X133235154Y-110832927D01*
X132985794Y-111433453D01*
X132985226Y-112083694D01*
X128634208Y-112083694D01*
X128634774Y-111436306D01*
X128386462Y-110835345D01*
X127927073Y-110375154D01*
X127326547Y-110125794D01*
X126676306Y-110125226D01*
X126075345Y-110373538D01*
X125615154Y-110832927D01*
X125365794Y-111433453D01*
X125365226Y-112083694D01*
X124662000Y-112083694D01*
X124662000Y-102870000D01*
X132682655Y-102870000D01*
X132796729Y-103443489D01*
X133121585Y-103929670D01*
X133436366Y-104140000D01*
X133121585Y-104350330D01*
X132796729Y-104836511D01*
X132682655Y-105410000D01*
X132796729Y-105983489D01*
X133121585Y-106469670D01*
X133607766Y-106794526D01*
X134181255Y-106908600D01*
X134550745Y-106908600D01*
X135124234Y-106794526D01*
X135610415Y-106469670D01*
X135810648Y-106170000D01*
X138001352Y-106170000D01*
X138201585Y-106469670D01*
X138687766Y-106794526D01*
X139261255Y-106908600D01*
X139630745Y-106908600D01*
X140204234Y-106794526D01*
X140690415Y-106469670D01*
X141015271Y-105983489D01*
X141028172Y-105918630D01*
X141859635Y-105087167D01*
X142828838Y-105087167D01*
X142970883Y-105430943D01*
X143233673Y-105694192D01*
X143577201Y-105836838D01*
X143624077Y-105836879D01*
X144782000Y-106994802D01*
X144782000Y-113398560D01*
X144678400Y-113398560D01*
X144443083Y-113442838D01*
X144226959Y-113581910D01*
X144081969Y-113794110D01*
X144030960Y-114046000D01*
X144030960Y-116078000D01*
X144075238Y-116313317D01*
X144214310Y-116529441D01*
X144426510Y-116674431D01*
X144678400Y-116725440D01*
X146405600Y-116725440D01*
X146640917Y-116681162D01*
X146857041Y-116542090D01*
X147002031Y-116329890D01*
X147010400Y-116288561D01*
X147022330Y-116306415D01*
X147508511Y-116631271D01*
X148082000Y-116745345D01*
X148655489Y-116631271D01*
X149141670Y-116306415D01*
X149352000Y-115991634D01*
X149562330Y-116306415D01*
X150048511Y-116631271D01*
X150622000Y-116745345D01*
X151195489Y-116631271D01*
X151681670Y-116306415D01*
X152006526Y-115820234D01*
X152120600Y-115246745D01*
X152120600Y-114877255D01*
X152006526Y-114303766D01*
X151681670Y-113817585D01*
X151195489Y-113492729D01*
X150622000Y-113378655D01*
X150048511Y-113492729D01*
X149562330Y-113817585D01*
X149352000Y-114132366D01*
X149141670Y-113817585D01*
X148655489Y-113492729D01*
X148082000Y-113378655D01*
X147508511Y-113492729D01*
X147022330Y-113817585D01*
X147012757Y-113831913D01*
X147008762Y-113810683D01*
X146869690Y-113594559D01*
X146657490Y-113449569D01*
X146405600Y-113398560D01*
X146302000Y-113398560D01*
X146302000Y-109840000D01*
X154150560Y-109840000D01*
X154150560Y-111140000D01*
X154194838Y-111375317D01*
X154333910Y-111591441D01*
X154546110Y-111736431D01*
X154798000Y-111787440D01*
X156098000Y-111787440D01*
X156333317Y-111743162D01*
X156549441Y-111604090D01*
X156694431Y-111391890D01*
X156695012Y-111389016D01*
X157228590Y-111389016D01*
X157284271Y-111619611D01*
X157767078Y-111787622D01*
X158277428Y-111758083D01*
X158611729Y-111619611D01*
X158667410Y-111389016D01*
X157948000Y-110669605D01*
X157228590Y-111389016D01*
X156695012Y-111389016D01*
X156745440Y-111140000D01*
X156745440Y-110977615D01*
X156818389Y-111153729D01*
X157048984Y-111209410D01*
X157768395Y-110490000D01*
X158127605Y-110490000D01*
X158847016Y-111209410D01*
X159077611Y-111153729D01*
X159245622Y-110670922D01*
X159235151Y-110490000D01*
X164686655Y-110490000D01*
X164800729Y-111063489D01*
X165125585Y-111549670D01*
X165440366Y-111760000D01*
X165125585Y-111970330D01*
X164800729Y-112456511D01*
X164686655Y-113030000D01*
X164800729Y-113603489D01*
X165125585Y-114089670D01*
X165440366Y-114300000D01*
X165125585Y-114510330D01*
X164800729Y-114996511D01*
X164686655Y-115570000D01*
X164800729Y-116143489D01*
X165125585Y-116629670D01*
X165440366Y-116840000D01*
X165125585Y-117050330D01*
X164800729Y-117536511D01*
X164686655Y-118110000D01*
X164800729Y-118683489D01*
X165125585Y-119169670D01*
X165440366Y-119380000D01*
X165125585Y-119590330D01*
X164800729Y-120076511D01*
X164686655Y-120650000D01*
X164800729Y-121223489D01*
X165125585Y-121709670D01*
X165611766Y-122034526D01*
X166185255Y-122148600D01*
X166554745Y-122148600D01*
X167128234Y-122034526D01*
X167614415Y-121709670D01*
X167939271Y-121223489D01*
X168053345Y-120650000D01*
X167939271Y-120076511D01*
X167614415Y-119590330D01*
X167299634Y-119380000D01*
X167614415Y-119169670D01*
X167939271Y-118683489D01*
X168053345Y-118110000D01*
X167939271Y-117536511D01*
X167614415Y-117050330D01*
X167299634Y-116840000D01*
X167614415Y-116629670D01*
X167939271Y-116143489D01*
X168053345Y-115570000D01*
X167939271Y-114996511D01*
X167614415Y-114510330D01*
X167299634Y-114300000D01*
X167614415Y-114089670D01*
X167939271Y-113603489D01*
X168053345Y-113030000D01*
X167939271Y-112456511D01*
X167614415Y-111970330D01*
X167299634Y-111760000D01*
X167614415Y-111549670D01*
X167939271Y-111063489D01*
X168053345Y-110490000D01*
X167939271Y-109916511D01*
X167614415Y-109430330D01*
X167600087Y-109420757D01*
X167621317Y-109416762D01*
X167837441Y-109277690D01*
X167982431Y-109065490D01*
X168033440Y-108813600D01*
X168033440Y-107086400D01*
X167989162Y-106851083D01*
X167850090Y-106634959D01*
X167637890Y-106489969D01*
X167386000Y-106438960D01*
X165354000Y-106438960D01*
X165118683Y-106483238D01*
X164902559Y-106622310D01*
X164757569Y-106834510D01*
X164706560Y-107086400D01*
X164706560Y-108813600D01*
X164750838Y-109048917D01*
X164889910Y-109265041D01*
X165102110Y-109410031D01*
X165143439Y-109418400D01*
X165125585Y-109430330D01*
X164800729Y-109916511D01*
X164686655Y-110490000D01*
X159235151Y-110490000D01*
X159216083Y-110160572D01*
X159077611Y-109826271D01*
X158847016Y-109770590D01*
X158127605Y-110490000D01*
X157768395Y-110490000D01*
X157048984Y-109770590D01*
X156818389Y-109826271D01*
X156745440Y-110035902D01*
X156745440Y-109840000D01*
X156701162Y-109604683D01*
X156692347Y-109590984D01*
X157228590Y-109590984D01*
X157948000Y-110310395D01*
X158667410Y-109590984D01*
X158611729Y-109360389D01*
X158128922Y-109192378D01*
X157618572Y-109221917D01*
X157284271Y-109360389D01*
X157228590Y-109590984D01*
X156692347Y-109590984D01*
X156562090Y-109388559D01*
X156349890Y-109243569D01*
X156098000Y-109192560D01*
X154798000Y-109192560D01*
X154562683Y-109236838D01*
X154346559Y-109375910D01*
X154201569Y-109588110D01*
X154150560Y-109840000D01*
X146302000Y-109840000D01*
X146302000Y-106680000D01*
X146244148Y-106389161D01*
X146079401Y-106142599D01*
X144699122Y-104762320D01*
X144699162Y-104716833D01*
X144557117Y-104373057D01*
X144294327Y-104109808D01*
X143950799Y-103967162D01*
X143578833Y-103966838D01*
X143235057Y-104108883D01*
X142971808Y-104371673D01*
X142829162Y-104715201D01*
X142828838Y-105087167D01*
X141859635Y-105087167D01*
X143062802Y-103884000D01*
X143963537Y-103884000D01*
X143995673Y-103916192D01*
X144339201Y-104058838D01*
X144711167Y-104059162D01*
X145054943Y-103917117D01*
X145318192Y-103654327D01*
X145460838Y-103310799D01*
X145461162Y-102938833D01*
X145319117Y-102595057D01*
X145056327Y-102331808D01*
X144712799Y-102189162D01*
X144340833Y-102188838D01*
X143997057Y-102330883D01*
X143963882Y-102364000D01*
X142748000Y-102364000D01*
X142457160Y-102421852D01*
X142210599Y-102586599D01*
X140544419Y-104252779D01*
X140375634Y-104140000D01*
X140690415Y-103929670D01*
X141015271Y-103443489D01*
X141129345Y-102870000D01*
X141015271Y-102296511D01*
X140690415Y-101810330D01*
X140676087Y-101800757D01*
X140697317Y-101796762D01*
X140913441Y-101657690D01*
X141058431Y-101445490D01*
X141109440Y-101193600D01*
X141109440Y-100615750D01*
X144765000Y-100615750D01*
X144765000Y-101106310D01*
X144861673Y-101339699D01*
X145040302Y-101518327D01*
X145273691Y-101615000D01*
X145764250Y-101615000D01*
X145923000Y-101456250D01*
X145923000Y-100457000D01*
X144923750Y-100457000D01*
X144765000Y-100615750D01*
X141109440Y-100615750D01*
X141109440Y-99553690D01*
X144765000Y-99553690D01*
X144765000Y-100044250D01*
X144923750Y-100203000D01*
X145923000Y-100203000D01*
X145923000Y-99203750D01*
X146177000Y-99203750D01*
X146177000Y-100203000D01*
X146197000Y-100203000D01*
X146197000Y-100457000D01*
X146177000Y-100457000D01*
X146177000Y-101456250D01*
X146335750Y-101615000D01*
X146826309Y-101615000D01*
X147059698Y-101518327D01*
X147238327Y-101339699D01*
X147335000Y-101106310D01*
X147335000Y-100754433D01*
X147459995Y-101056943D01*
X147821155Y-101418735D01*
X148293276Y-101614777D01*
X148804481Y-101615223D01*
X149276943Y-101420005D01*
X149638735Y-101058845D01*
X149834777Y-100586724D01*
X149835223Y-100075519D01*
X149640005Y-99603057D01*
X149278845Y-99241265D01*
X148806724Y-99045223D01*
X148295519Y-99044777D01*
X147823057Y-99239995D01*
X147461265Y-99601155D01*
X147335000Y-99905235D01*
X147335000Y-99553690D01*
X147238327Y-99320301D01*
X147059698Y-99141673D01*
X146826309Y-99045000D01*
X146335750Y-99045000D01*
X146177000Y-99203750D01*
X145923000Y-99203750D01*
X145764250Y-99045000D01*
X145273691Y-99045000D01*
X145040302Y-99141673D01*
X144861673Y-99320301D01*
X144765000Y-99553690D01*
X141109440Y-99553690D01*
X141109440Y-99466400D01*
X141065162Y-99231083D01*
X140926090Y-99014959D01*
X140713890Y-98869969D01*
X140462000Y-98818960D01*
X138430000Y-98818960D01*
X138194683Y-98863238D01*
X137978559Y-99002310D01*
X137833569Y-99214510D01*
X137782560Y-99466400D01*
X137782560Y-101193600D01*
X137826838Y-101428917D01*
X137965910Y-101645041D01*
X138178110Y-101790031D01*
X138219439Y-101798400D01*
X138201585Y-101810330D01*
X137876729Y-102296511D01*
X137762655Y-102870000D01*
X137876729Y-103443489D01*
X138201585Y-103929670D01*
X138516366Y-104140000D01*
X138201585Y-104350330D01*
X138001352Y-104650000D01*
X135810648Y-104650000D01*
X135610415Y-104350330D01*
X135295634Y-104140000D01*
X135610415Y-103929670D01*
X135935271Y-103443489D01*
X136049345Y-102870000D01*
X135935271Y-102296511D01*
X135610415Y-101810330D01*
X135596087Y-101800757D01*
X135617317Y-101796762D01*
X135833441Y-101657690D01*
X135978431Y-101445490D01*
X136029440Y-101193600D01*
X136029440Y-99466400D01*
X135985162Y-99231083D01*
X135846090Y-99014959D01*
X135633890Y-98869969D01*
X135382000Y-98818960D01*
X133350000Y-98818960D01*
X133114683Y-98863238D01*
X132898559Y-99002310D01*
X132753569Y-99214510D01*
X132702560Y-99466400D01*
X132702560Y-101193600D01*
X132746838Y-101428917D01*
X132885910Y-101645041D01*
X133098110Y-101790031D01*
X133139439Y-101798400D01*
X133121585Y-101810330D01*
X132796729Y-102296511D01*
X132682655Y-102870000D01*
X124662000Y-102870000D01*
X124662000Y-96774000D01*
X125062655Y-96774000D01*
X125176729Y-97347489D01*
X125501585Y-97833670D01*
X125816366Y-98044000D01*
X125501585Y-98254330D01*
X125176729Y-98740511D01*
X125062655Y-99314000D01*
X125176729Y-99887489D01*
X125501585Y-100373670D01*
X125987766Y-100698526D01*
X126561255Y-100812600D01*
X126930745Y-100812600D01*
X127504234Y-100698526D01*
X127990415Y-100373670D01*
X128315271Y-99887489D01*
X128429345Y-99314000D01*
X128315271Y-98740511D01*
X127990415Y-98254330D01*
X127675634Y-98044000D01*
X127990415Y-97833670D01*
X128315271Y-97347489D01*
X128429345Y-96774000D01*
X128315271Y-96200511D01*
X127990415Y-95714330D01*
X127976087Y-95704757D01*
X127997317Y-95700762D01*
X128213441Y-95561690D01*
X128358431Y-95349490D01*
X128409440Y-95097600D01*
X128409440Y-94519750D01*
X145567400Y-94519750D01*
X145567400Y-95477910D01*
X145664073Y-95711299D01*
X145842702Y-95889927D01*
X146076091Y-95986600D01*
X147034250Y-95986600D01*
X147193000Y-95827850D01*
X147193000Y-94361000D01*
X147447000Y-94361000D01*
X147447000Y-95827850D01*
X147605750Y-95986600D01*
X148563909Y-95986600D01*
X148797298Y-95889927D01*
X148975927Y-95711299D01*
X149072600Y-95477910D01*
X149072600Y-94519750D01*
X148913850Y-94361000D01*
X147447000Y-94361000D01*
X147193000Y-94361000D01*
X145726150Y-94361000D01*
X145567400Y-94519750D01*
X128409440Y-94519750D01*
X128409440Y-93370400D01*
X128365162Y-93135083D01*
X128271862Y-92990090D01*
X145567400Y-92990090D01*
X145567400Y-93948250D01*
X145726150Y-94107000D01*
X147193000Y-94107000D01*
X147193000Y-92640150D01*
X147447000Y-92640150D01*
X147447000Y-94107000D01*
X148913850Y-94107000D01*
X149072600Y-93948250D01*
X149072600Y-92990090D01*
X148975927Y-92756701D01*
X148797298Y-92578073D01*
X148563909Y-92481400D01*
X147605750Y-92481400D01*
X147447000Y-92640150D01*
X147193000Y-92640150D01*
X147034250Y-92481400D01*
X146076091Y-92481400D01*
X145842702Y-92578073D01*
X145664073Y-92756701D01*
X145567400Y-92990090D01*
X128271862Y-92990090D01*
X128226090Y-92918959D01*
X128013890Y-92773969D01*
X127762000Y-92722960D01*
X125730000Y-92722960D01*
X125494683Y-92767238D01*
X125278559Y-92906310D01*
X125133569Y-93118510D01*
X125082560Y-93370400D01*
X125082560Y-95097600D01*
X125126838Y-95332917D01*
X125265910Y-95549041D01*
X125478110Y-95694031D01*
X125519439Y-95702400D01*
X125501585Y-95714330D01*
X125176729Y-96200511D01*
X125062655Y-96774000D01*
X124662000Y-96774000D01*
X124662000Y-92150000D01*
X156927477Y-92150000D01*
X156270887Y-92421298D01*
X156270887Y-92421298D01*
G37*
X156270887Y-92421298D02*
X155416298Y-93274396D01*
X154953228Y-94389593D01*
X154952174Y-95597110D01*
X155413298Y-96713113D01*
X155727895Y-97028260D01*
X151777700Y-97028260D01*
X151542383Y-97072538D01*
X151326259Y-97211610D01*
X151181269Y-97423810D01*
X151130260Y-97675700D01*
X151130260Y-102476300D01*
X151174538Y-102711617D01*
X151313610Y-102927741D01*
X151525810Y-103072731D01*
X151777700Y-103123740D01*
X156578300Y-103123740D01*
X156813617Y-103079462D01*
X157029741Y-102940390D01*
X157174731Y-102728190D01*
X157225740Y-102476300D01*
X157225740Y-102239936D01*
X158289670Y-102239936D01*
X158559221Y-102652257D01*
X159675642Y-103112369D01*
X160883157Y-103110221D01*
X161988779Y-102652257D01*
X162258330Y-102239936D01*
X160274000Y-100255605D01*
X158289670Y-102239936D01*
X157225740Y-102239936D01*
X157225740Y-97966056D01*
X157381593Y-98030772D01*
X158049747Y-98031355D01*
X158110063Y-98091671D01*
X157697743Y-98361221D01*
X157237631Y-99477642D01*
X157239779Y-100685157D01*
X157697743Y-101790779D01*
X158110064Y-102060330D01*
X160094395Y-100076000D01*
X160453605Y-100076000D01*
X162437936Y-102060330D01*
X162850257Y-101790779D01*
X163310369Y-100674358D01*
X163308221Y-99466843D01*
X162850257Y-98361221D01*
X162437936Y-98091670D01*
X160453605Y-100076000D01*
X160094395Y-100076000D01*
X160080252Y-100061858D01*
X160259858Y-99882252D01*
X160274000Y-99896395D01*
X162258330Y-97912064D01*
X161988779Y-97499743D01*
X160872358Y-97039631D01*
X160235978Y-97040763D01*
X160559702Y-96717604D01*
X161022772Y-95602407D01*
X161023826Y-94394890D01*
X160562702Y-93278887D01*
X159709604Y-92424298D01*
X159049021Y-92150000D01*
X168454000Y-92150000D01*
X168454000Y-123750000D01*
X124662000Y-123750000D01*
X124662000Y-118433694D01*
X125365226Y-118433694D01*
X125613538Y-119034655D01*
X126072927Y-119494846D01*
X126673453Y-119744206D01*
X127323694Y-119744774D01*
X127924655Y-119496462D01*
X128384846Y-119037073D01*
X128634206Y-118436547D01*
X128634208Y-118433694D01*
X132985226Y-118433694D01*
X133233538Y-119034655D01*
X133692927Y-119494846D01*
X134293453Y-119744206D01*
X134943694Y-119744774D01*
X135544655Y-119496462D01*
X136004846Y-119037073D01*
X136254206Y-118436547D01*
X136254208Y-118433795D01*
X136794716Y-118433795D01*
X137043106Y-119034943D01*
X137502637Y-119495278D01*
X138103352Y-119744716D01*
X138753795Y-119745284D01*
X139354943Y-119496894D01*
X139421574Y-119430379D01*
X139505910Y-119561441D01*
X139718110Y-119706431D01*
X139970000Y-119757440D01*
X141970000Y-119757440D01*
X142205317Y-119713162D01*
X142421441Y-119574090D01*
X142477530Y-119492000D01*
X149324560Y-119492000D01*
X149324560Y-120792000D01*
X149368838Y-121027317D01*
X149507910Y-121243441D01*
X149720110Y-121388431D01*
X149972000Y-121439440D01*
X151272000Y-121439440D01*
X151507317Y-121395162D01*
X151723441Y-121256090D01*
X151868431Y-121043890D01*
X151869012Y-121041016D01*
X152402590Y-121041016D01*
X152458271Y-121271611D01*
X152941078Y-121439622D01*
X153451428Y-121410083D01*
X153785729Y-121271611D01*
X153841410Y-121041016D01*
X153122000Y-120321605D01*
X152402590Y-121041016D01*
X151869012Y-121041016D01*
X151919440Y-120792000D01*
X151919440Y-120629615D01*
X151992389Y-120805729D01*
X152222984Y-120861410D01*
X152942395Y-120142000D01*
X153301605Y-120142000D01*
X154021016Y-120861410D01*
X154251611Y-120805729D01*
X154419622Y-120322922D01*
X154390083Y-119812572D01*
X154251611Y-119478271D01*
X154021016Y-119422590D01*
X153301605Y-120142000D01*
X152942395Y-120142000D01*
X152222984Y-119422590D01*
X151992389Y-119478271D01*
X151919440Y-119687902D01*
X151919440Y-119492000D01*
X151875162Y-119256683D01*
X151866347Y-119242984D01*
X152402590Y-119242984D01*
X153122000Y-119962395D01*
X153841410Y-119242984D01*
X153785729Y-119012389D01*
X153302922Y-118844378D01*
X152792572Y-118873917D01*
X152458271Y-119012389D01*
X152402590Y-119242984D01*
X151866347Y-119242984D01*
X151736090Y-119040559D01*
X151523890Y-118895569D01*
X151272000Y-118844560D01*
X149972000Y-118844560D01*
X149736683Y-118888838D01*
X149520559Y-119027910D01*
X149375569Y-119240110D01*
X149324560Y-119492000D01*
X142477530Y-119492000D01*
X142566431Y-119361890D01*
X142617440Y-119110000D01*
X142617440Y-117110000D01*
X142573162Y-116874683D01*
X142434090Y-116658559D01*
X142221890Y-116513569D01*
X141970000Y-116462560D01*
X139970000Y-116462560D01*
X139734683Y-116506838D01*
X139518559Y-116645910D01*
X139421090Y-116788561D01*
X139357363Y-116724722D01*
X138756648Y-116475284D01*
X138106205Y-116474716D01*
X137505057Y-116723106D01*
X137044722Y-117182637D01*
X136795284Y-117783352D01*
X136794716Y-118433795D01*
X136254208Y-118433795D01*
X136254774Y-117786306D01*
X136006462Y-117185345D01*
X135547073Y-116725154D01*
X134946547Y-116475794D01*
X134296306Y-116475226D01*
X133695345Y-116723538D01*
X133235154Y-117182927D01*
X132985794Y-117783453D01*
X132985226Y-118433694D01*
X128634208Y-118433694D01*
X128634774Y-117786306D01*
X128386462Y-117185345D01*
X127927073Y-116725154D01*
X127326547Y-116475794D01*
X126676306Y-116475226D01*
X126075345Y-116723538D01*
X125615154Y-117182927D01*
X125365794Y-117783453D01*
X125365226Y-118433694D01*
X124662000Y-118433694D01*
X124662000Y-112083694D01*
X125365226Y-112083694D01*
X125613538Y-112684655D01*
X126072927Y-113144846D01*
X126673453Y-113394206D01*
X127323694Y-113394774D01*
X127924655Y-113146462D01*
X128384846Y-112687073D01*
X128634206Y-112086547D01*
X128634208Y-112083694D01*
X132985226Y-112083694D01*
X133233538Y-112684655D01*
X133692927Y-113144846D01*
X134293453Y-113394206D01*
X134943694Y-113394774D01*
X135544655Y-113146462D01*
X136004846Y-112687073D01*
X136254206Y-112086547D01*
X136254208Y-112083795D01*
X136794716Y-112083795D01*
X137043106Y-112684943D01*
X137502637Y-113145278D01*
X138103352Y-113394716D01*
X138753795Y-113395284D01*
X139354943Y-113146894D01*
X139421574Y-113080379D01*
X139505910Y-113211441D01*
X139718110Y-113356431D01*
X139970000Y-113407440D01*
X141970000Y-113407440D01*
X142205317Y-113363162D01*
X142421441Y-113224090D01*
X142566431Y-113011890D01*
X142617440Y-112760000D01*
X142617440Y-110760000D01*
X142573162Y-110524683D01*
X142434090Y-110308559D01*
X142221890Y-110163569D01*
X141970000Y-110112560D01*
X139970000Y-110112560D01*
X139734683Y-110156838D01*
X139518559Y-110295910D01*
X139421090Y-110438561D01*
X139357363Y-110374722D01*
X138756648Y-110125284D01*
X138106205Y-110124716D01*
X137505057Y-110373106D01*
X137044722Y-110832637D01*
X136795284Y-111433352D01*
X136794716Y-112083795D01*
X136254208Y-112083795D01*
X136254774Y-111436306D01*
X136006462Y-110835345D01*
X135547073Y-110375154D01*
X134946547Y-110125794D01*
X134296306Y-110125226D01*
X133695345Y-110373538D01*
X133235154Y-110832927D01*
X132985794Y-111433453D01*
X132985226Y-112083694D01*
X128634208Y-112083694D01*
X128634774Y-111436306D01*
X128386462Y-110835345D01*
X127927073Y-110375154D01*
X127326547Y-110125794D01*
X126676306Y-110125226D01*
X126075345Y-110373538D01*
X125615154Y-110832927D01*
X125365794Y-111433453D01*
X125365226Y-112083694D01*
X124662000Y-112083694D01*
X124662000Y-102870000D01*
X132682655Y-102870000D01*
X132796729Y-103443489D01*
X133121585Y-103929670D01*
X133436366Y-104140000D01*
X133121585Y-104350330D01*
X132796729Y-104836511D01*
X132682655Y-105410000D01*
X132796729Y-105983489D01*
X133121585Y-106469670D01*
X133607766Y-106794526D01*
X134181255Y-106908600D01*
X134550745Y-106908600D01*
X135124234Y-106794526D01*
X135610415Y-106469670D01*
X135810648Y-106170000D01*
X138001352Y-106170000D01*
X138201585Y-106469670D01*
X138687766Y-106794526D01*
X139261255Y-106908600D01*
X139630745Y-106908600D01*
X140204234Y-106794526D01*
X140690415Y-106469670D01*
X141015271Y-105983489D01*
X141028172Y-105918630D01*
X141859635Y-105087167D01*
X142828838Y-105087167D01*
X142970883Y-105430943D01*
X143233673Y-105694192D01*
X143577201Y-105836838D01*
X143624077Y-105836879D01*
X144782000Y-106994802D01*
X144782000Y-113398560D01*
X144678400Y-113398560D01*
X144443083Y-113442838D01*
X144226959Y-113581910D01*
X144081969Y-113794110D01*
X144030960Y-114046000D01*
X144030960Y-116078000D01*
X144075238Y-116313317D01*
X144214310Y-116529441D01*
X144426510Y-116674431D01*
X144678400Y-116725440D01*
X146405600Y-116725440D01*
X146640917Y-116681162D01*
X146857041Y-116542090D01*
X147002031Y-116329890D01*
X147010400Y-116288561D01*
X147022330Y-116306415D01*
X147508511Y-116631271D01*
X148082000Y-116745345D01*
X148655489Y-116631271D01*
X149141670Y-116306415D01*
X149352000Y-115991634D01*
X149562330Y-116306415D01*
X150048511Y-116631271D01*
X150622000Y-116745345D01*
X151195489Y-116631271D01*
X151681670Y-116306415D01*
X152006526Y-115820234D01*
X152120600Y-115246745D01*
X152120600Y-114877255D01*
X152006526Y-114303766D01*
X151681670Y-113817585D01*
X151195489Y-113492729D01*
X150622000Y-113378655D01*
X150048511Y-113492729D01*
X149562330Y-113817585D01*
X149352000Y-114132366D01*
X149141670Y-113817585D01*
X148655489Y-113492729D01*
X148082000Y-113378655D01*
X147508511Y-113492729D01*
X147022330Y-113817585D01*
X147012757Y-113831913D01*
X147008762Y-113810683D01*
X146869690Y-113594559D01*
X146657490Y-113449569D01*
X146405600Y-113398560D01*
X146302000Y-113398560D01*
X146302000Y-109840000D01*
X154150560Y-109840000D01*
X154150560Y-111140000D01*
X154194838Y-111375317D01*
X154333910Y-111591441D01*
X154546110Y-111736431D01*
X154798000Y-111787440D01*
X156098000Y-111787440D01*
X156333317Y-111743162D01*
X156549441Y-111604090D01*
X156694431Y-111391890D01*
X156695012Y-111389016D01*
X157228590Y-111389016D01*
X157284271Y-111619611D01*
X157767078Y-111787622D01*
X158277428Y-111758083D01*
X158611729Y-111619611D01*
X158667410Y-111389016D01*
X157948000Y-110669605D01*
X157228590Y-111389016D01*
X156695012Y-111389016D01*
X156745440Y-111140000D01*
X156745440Y-110977615D01*
X156818389Y-111153729D01*
X157048984Y-111209410D01*
X157768395Y-110490000D01*
X158127605Y-110490000D01*
X158847016Y-111209410D01*
X159077611Y-111153729D01*
X159245622Y-110670922D01*
X159235151Y-110490000D01*
X164686655Y-110490000D01*
X164800729Y-111063489D01*
X165125585Y-111549670D01*
X165440366Y-111760000D01*
X165125585Y-111970330D01*
X164800729Y-112456511D01*
X164686655Y-113030000D01*
X164800729Y-113603489D01*
X165125585Y-114089670D01*
X165440366Y-114300000D01*
X165125585Y-114510330D01*
X164800729Y-114996511D01*
X164686655Y-115570000D01*
X164800729Y-116143489D01*
X165125585Y-116629670D01*
X165440366Y-116840000D01*
X165125585Y-117050330D01*
X164800729Y-117536511D01*
X164686655Y-118110000D01*
X164800729Y-118683489D01*
X165125585Y-119169670D01*
X165440366Y-119380000D01*
X165125585Y-119590330D01*
X164800729Y-120076511D01*
X164686655Y-120650000D01*
X164800729Y-121223489D01*
X165125585Y-121709670D01*
X165611766Y-122034526D01*
X166185255Y-122148600D01*
X166554745Y-122148600D01*
X167128234Y-122034526D01*
X167614415Y-121709670D01*
X167939271Y-121223489D01*
X168053345Y-120650000D01*
X167939271Y-120076511D01*
X167614415Y-119590330D01*
X167299634Y-119380000D01*
X167614415Y-119169670D01*
X167939271Y-118683489D01*
X168053345Y-118110000D01*
X167939271Y-117536511D01*
X167614415Y-117050330D01*
X167299634Y-116840000D01*
X167614415Y-116629670D01*
X167939271Y-116143489D01*
X168053345Y-115570000D01*
X167939271Y-114996511D01*
X167614415Y-114510330D01*
X167299634Y-114300000D01*
X167614415Y-114089670D01*
X167939271Y-113603489D01*
X168053345Y-113030000D01*
X167939271Y-112456511D01*
X167614415Y-111970330D01*
X167299634Y-111760000D01*
X167614415Y-111549670D01*
X167939271Y-111063489D01*
X168053345Y-110490000D01*
X167939271Y-109916511D01*
X167614415Y-109430330D01*
X167600087Y-109420757D01*
X167621317Y-109416762D01*
X167837441Y-109277690D01*
X167982431Y-109065490D01*
X168033440Y-108813600D01*
X168033440Y-107086400D01*
X167989162Y-106851083D01*
X167850090Y-106634959D01*
X167637890Y-106489969D01*
X167386000Y-106438960D01*
X165354000Y-106438960D01*
X165118683Y-106483238D01*
X164902559Y-106622310D01*
X164757569Y-106834510D01*
X164706560Y-107086400D01*
X164706560Y-108813600D01*
X164750838Y-109048917D01*
X164889910Y-109265041D01*
X165102110Y-109410031D01*
X165143439Y-109418400D01*
X165125585Y-109430330D01*
X164800729Y-109916511D01*
X164686655Y-110490000D01*
X159235151Y-110490000D01*
X159216083Y-110160572D01*
X159077611Y-109826271D01*
X158847016Y-109770590D01*
X158127605Y-110490000D01*
X157768395Y-110490000D01*
X157048984Y-109770590D01*
X156818389Y-109826271D01*
X156745440Y-110035902D01*
X156745440Y-109840000D01*
X156701162Y-109604683D01*
X156692347Y-109590984D01*
X157228590Y-109590984D01*
X157948000Y-110310395D01*
X158667410Y-109590984D01*
X158611729Y-109360389D01*
X158128922Y-109192378D01*
X157618572Y-109221917D01*
X157284271Y-109360389D01*
X157228590Y-109590984D01*
X156692347Y-109590984D01*
X156562090Y-109388559D01*
X156349890Y-109243569D01*
X156098000Y-109192560D01*
X154798000Y-109192560D01*
X154562683Y-109236838D01*
X154346559Y-109375910D01*
X154201569Y-109588110D01*
X154150560Y-109840000D01*
X146302000Y-109840000D01*
X146302000Y-106680000D01*
X146244148Y-106389161D01*
X146079401Y-106142599D01*
X144699122Y-104762320D01*
X144699162Y-104716833D01*
X144557117Y-104373057D01*
X144294327Y-104109808D01*
X143950799Y-103967162D01*
X143578833Y-103966838D01*
X143235057Y-104108883D01*
X142971808Y-104371673D01*
X142829162Y-104715201D01*
X142828838Y-105087167D01*
X141859635Y-105087167D01*
X143062802Y-103884000D01*
X143963537Y-103884000D01*
X143995673Y-103916192D01*
X144339201Y-104058838D01*
X144711167Y-104059162D01*
X145054943Y-103917117D01*
X145318192Y-103654327D01*
X145460838Y-103310799D01*
X145461162Y-102938833D01*
X145319117Y-102595057D01*
X145056327Y-102331808D01*
X144712799Y-102189162D01*
X144340833Y-102188838D01*
X143997057Y-102330883D01*
X143963882Y-102364000D01*
X142748000Y-102364000D01*
X142457160Y-102421852D01*
X142210599Y-102586599D01*
X140544419Y-104252779D01*
X140375634Y-104140000D01*
X140690415Y-103929670D01*
X141015271Y-103443489D01*
X141129345Y-102870000D01*
X141015271Y-102296511D01*
X140690415Y-101810330D01*
X140676087Y-101800757D01*
X140697317Y-101796762D01*
X140913441Y-101657690D01*
X141058431Y-101445490D01*
X141109440Y-101193600D01*
X141109440Y-100615750D01*
X144765000Y-100615750D01*
X144765000Y-101106310D01*
X144861673Y-101339699D01*
X145040302Y-101518327D01*
X145273691Y-101615000D01*
X145764250Y-101615000D01*
X145923000Y-101456250D01*
X145923000Y-100457000D01*
X144923750Y-100457000D01*
X144765000Y-100615750D01*
X141109440Y-100615750D01*
X141109440Y-99553690D01*
X144765000Y-99553690D01*
X144765000Y-100044250D01*
X144923750Y-100203000D01*
X145923000Y-100203000D01*
X145923000Y-99203750D01*
X146177000Y-99203750D01*
X146177000Y-100203000D01*
X146197000Y-100203000D01*
X146197000Y-100457000D01*
X146177000Y-100457000D01*
X146177000Y-101456250D01*
X146335750Y-101615000D01*
X146826309Y-101615000D01*
X147059698Y-101518327D01*
X147238327Y-101339699D01*
X147335000Y-101106310D01*
X147335000Y-100754433D01*
X147459995Y-101056943D01*
X147821155Y-101418735D01*
X148293276Y-101614777D01*
X148804481Y-101615223D01*
X149276943Y-101420005D01*
X149638735Y-101058845D01*
X149834777Y-100586724D01*
X149835223Y-100075519D01*
X149640005Y-99603057D01*
X149278845Y-99241265D01*
X148806724Y-99045223D01*
X148295519Y-99044777D01*
X147823057Y-99239995D01*
X147461265Y-99601155D01*
X147335000Y-99905235D01*
X147335000Y-99553690D01*
X147238327Y-99320301D01*
X147059698Y-99141673D01*
X146826309Y-99045000D01*
X146335750Y-99045000D01*
X146177000Y-99203750D01*
X145923000Y-99203750D01*
X145764250Y-99045000D01*
X145273691Y-99045000D01*
X145040302Y-99141673D01*
X144861673Y-99320301D01*
X144765000Y-99553690D01*
X141109440Y-99553690D01*
X141109440Y-99466400D01*
X141065162Y-99231083D01*
X140926090Y-99014959D01*
X140713890Y-98869969D01*
X140462000Y-98818960D01*
X138430000Y-98818960D01*
X138194683Y-98863238D01*
X137978559Y-99002310D01*
X137833569Y-99214510D01*
X137782560Y-99466400D01*
X137782560Y-101193600D01*
X137826838Y-101428917D01*
X137965910Y-101645041D01*
X138178110Y-101790031D01*
X138219439Y-101798400D01*
X138201585Y-101810330D01*
X137876729Y-102296511D01*
X137762655Y-102870000D01*
X137876729Y-103443489D01*
X138201585Y-103929670D01*
X138516366Y-104140000D01*
X138201585Y-104350330D01*
X138001352Y-104650000D01*
X135810648Y-104650000D01*
X135610415Y-104350330D01*
X135295634Y-104140000D01*
X135610415Y-103929670D01*
X135935271Y-103443489D01*
X136049345Y-102870000D01*
X135935271Y-102296511D01*
X135610415Y-101810330D01*
X135596087Y-101800757D01*
X135617317Y-101796762D01*
X135833441Y-101657690D01*
X135978431Y-101445490D01*
X136029440Y-101193600D01*
X136029440Y-99466400D01*
X135985162Y-99231083D01*
X135846090Y-99014959D01*
X135633890Y-98869969D01*
X135382000Y-98818960D01*
X133350000Y-98818960D01*
X133114683Y-98863238D01*
X132898559Y-99002310D01*
X132753569Y-99214510D01*
X132702560Y-99466400D01*
X132702560Y-101193600D01*
X132746838Y-101428917D01*
X132885910Y-101645041D01*
X133098110Y-101790031D01*
X133139439Y-101798400D01*
X133121585Y-101810330D01*
X132796729Y-102296511D01*
X132682655Y-102870000D01*
X124662000Y-102870000D01*
X124662000Y-96774000D01*
X125062655Y-96774000D01*
X125176729Y-97347489D01*
X125501585Y-97833670D01*
X125816366Y-98044000D01*
X125501585Y-98254330D01*
X125176729Y-98740511D01*
X125062655Y-99314000D01*
X125176729Y-99887489D01*
X125501585Y-100373670D01*
X125987766Y-100698526D01*
X126561255Y-100812600D01*
X126930745Y-100812600D01*
X127504234Y-100698526D01*
X127990415Y-100373670D01*
X128315271Y-99887489D01*
X128429345Y-99314000D01*
X128315271Y-98740511D01*
X127990415Y-98254330D01*
X127675634Y-98044000D01*
X127990415Y-97833670D01*
X128315271Y-97347489D01*
X128429345Y-96774000D01*
X128315271Y-96200511D01*
X127990415Y-95714330D01*
X127976087Y-95704757D01*
X127997317Y-95700762D01*
X128213441Y-95561690D01*
X128358431Y-95349490D01*
X128409440Y-95097600D01*
X128409440Y-94519750D01*
X145567400Y-94519750D01*
X145567400Y-95477910D01*
X145664073Y-95711299D01*
X145842702Y-95889927D01*
X146076091Y-95986600D01*
X147034250Y-95986600D01*
X147193000Y-95827850D01*
X147193000Y-94361000D01*
X147447000Y-94361000D01*
X147447000Y-95827850D01*
X147605750Y-95986600D01*
X148563909Y-95986600D01*
X148797298Y-95889927D01*
X148975927Y-95711299D01*
X149072600Y-95477910D01*
X149072600Y-94519750D01*
X148913850Y-94361000D01*
X147447000Y-94361000D01*
X147193000Y-94361000D01*
X145726150Y-94361000D01*
X145567400Y-94519750D01*
X128409440Y-94519750D01*
X128409440Y-93370400D01*
X128365162Y-93135083D01*
X128271862Y-92990090D01*
X145567400Y-92990090D01*
X145567400Y-93948250D01*
X145726150Y-94107000D01*
X147193000Y-94107000D01*
X147193000Y-92640150D01*
X147447000Y-92640150D01*
X147447000Y-94107000D01*
X148913850Y-94107000D01*
X149072600Y-93948250D01*
X149072600Y-92990090D01*
X148975927Y-92756701D01*
X148797298Y-92578073D01*
X148563909Y-92481400D01*
X147605750Y-92481400D01*
X147447000Y-92640150D01*
X147193000Y-92640150D01*
X147034250Y-92481400D01*
X146076091Y-92481400D01*
X145842702Y-92578073D01*
X145664073Y-92756701D01*
X145567400Y-92990090D01*
X128271862Y-92990090D01*
X128226090Y-92918959D01*
X128013890Y-92773969D01*
X127762000Y-92722960D01*
X125730000Y-92722960D01*
X125494683Y-92767238D01*
X125278559Y-92906310D01*
X125133569Y-93118510D01*
X125082560Y-93370400D01*
X125082560Y-95097600D01*
X125126838Y-95332917D01*
X125265910Y-95549041D01*
X125478110Y-95694031D01*
X125519439Y-95702400D01*
X125501585Y-95714330D01*
X125176729Y-96200511D01*
X125062655Y-96774000D01*
X124662000Y-96774000D01*
X124662000Y-92150000D01*
X156927477Y-92150000D01*
X156270887Y-92421298D01*
M02*
