G04 #@! TF.FileFunction,Legend,Bot*
%FSLAX46Y46*%
G04 Gerber Fmt 4.6, Leading zero omitted, Abs format (unit mm)*
G04 Created by KiCad (PCBNEW 4.0.1-stable) date 02/03/2016 22:00:12*
%MOMM*%
G01*
G04 APERTURE LIST*
%ADD10C,0.100000*%
%ADD11C,0.150000*%
G04 APERTURE END LIST*
D10*
D11*
X169982661Y-72966667D02*
X169982661Y-72266667D01*
X169682661Y-72966667D02*
X169682661Y-72600000D01*
X169715995Y-72533333D01*
X169782661Y-72500000D01*
X169882661Y-72500000D01*
X169949328Y-72533333D01*
X169982661Y-72566667D01*
X169449328Y-72500000D02*
X169182662Y-72500000D01*
X169349328Y-72266667D02*
X169349328Y-72866667D01*
X169315995Y-72933333D01*
X169249328Y-72966667D01*
X169182662Y-72966667D01*
X169049328Y-72500000D02*
X168782662Y-72500000D01*
X168949328Y-72266667D02*
X168949328Y-72866667D01*
X168915995Y-72933333D01*
X168849328Y-72966667D01*
X168782662Y-72966667D01*
X168549328Y-72500000D02*
X168549328Y-73200000D01*
X168549328Y-72533333D02*
X168482662Y-72500000D01*
X168349328Y-72500000D01*
X168282662Y-72533333D01*
X168249328Y-72566667D01*
X168215995Y-72633333D01*
X168215995Y-72833333D01*
X168249328Y-72900000D01*
X168282662Y-72933333D01*
X168349328Y-72966667D01*
X168482662Y-72966667D01*
X168549328Y-72933333D01*
X167949329Y-72933333D02*
X167882662Y-72966667D01*
X167749329Y-72966667D01*
X167682662Y-72933333D01*
X167649329Y-72866667D01*
X167649329Y-72833333D01*
X167682662Y-72766667D01*
X167749329Y-72733333D01*
X167849329Y-72733333D01*
X167915995Y-72700000D01*
X167949329Y-72633333D01*
X167949329Y-72600000D01*
X167915995Y-72533333D01*
X167849329Y-72500000D01*
X167749329Y-72500000D01*
X167682662Y-72533333D01*
X167349328Y-72900000D02*
X167315995Y-72933333D01*
X167349328Y-72966667D01*
X167382662Y-72933333D01*
X167349328Y-72900000D01*
X167349328Y-72966667D01*
X167349328Y-72533333D02*
X167315995Y-72566667D01*
X167349328Y-72600000D01*
X167382662Y-72566667D01*
X167349328Y-72533333D01*
X167349328Y-72600000D01*
X166515995Y-72233333D02*
X167115995Y-73133333D01*
X165782662Y-72233333D02*
X166382662Y-73133333D01*
X165249329Y-72500000D02*
X165249329Y-73066667D01*
X165282663Y-73133333D01*
X165315996Y-73166667D01*
X165382663Y-73200000D01*
X165482663Y-73200000D01*
X165549329Y-73166667D01*
X165249329Y-72933333D02*
X165315996Y-72966667D01*
X165449329Y-72966667D01*
X165515996Y-72933333D01*
X165549329Y-72900000D01*
X165582663Y-72833333D01*
X165582663Y-72633333D01*
X165549329Y-72566667D01*
X165515996Y-72533333D01*
X165449329Y-72500000D01*
X165315996Y-72500000D01*
X165249329Y-72533333D01*
X164915996Y-72966667D02*
X164915996Y-72500000D01*
X164915996Y-72266667D02*
X164949330Y-72300000D01*
X164915996Y-72333333D01*
X164882663Y-72300000D01*
X164915996Y-72266667D01*
X164915996Y-72333333D01*
X164682663Y-72500000D02*
X164415997Y-72500000D01*
X164582663Y-72266667D02*
X164582663Y-72866667D01*
X164549330Y-72933333D01*
X164482663Y-72966667D01*
X164415997Y-72966667D01*
X164182663Y-72966667D02*
X164182663Y-72266667D01*
X163882663Y-72966667D02*
X163882663Y-72600000D01*
X163915997Y-72533333D01*
X163982663Y-72500000D01*
X164082663Y-72500000D01*
X164149330Y-72533333D01*
X164182663Y-72566667D01*
X163249330Y-72500000D02*
X163249330Y-72966667D01*
X163549330Y-72500000D02*
X163549330Y-72866667D01*
X163515997Y-72933333D01*
X163449330Y-72966667D01*
X163349330Y-72966667D01*
X163282664Y-72933333D01*
X163249330Y-72900000D01*
X162915997Y-72966667D02*
X162915997Y-72266667D01*
X162915997Y-72533333D02*
X162849331Y-72500000D01*
X162715997Y-72500000D01*
X162649331Y-72533333D01*
X162615997Y-72566667D01*
X162582664Y-72633333D01*
X162582664Y-72833333D01*
X162615997Y-72900000D01*
X162649331Y-72933333D01*
X162715997Y-72966667D01*
X162849331Y-72966667D01*
X162915997Y-72933333D01*
X162282664Y-72900000D02*
X162249331Y-72933333D01*
X162282664Y-72966667D01*
X162315998Y-72933333D01*
X162282664Y-72900000D01*
X162282664Y-72966667D01*
X161649331Y-72933333D02*
X161715998Y-72966667D01*
X161849331Y-72966667D01*
X161915998Y-72933333D01*
X161949331Y-72900000D01*
X161982665Y-72833333D01*
X161982665Y-72633333D01*
X161949331Y-72566667D01*
X161915998Y-72533333D01*
X161849331Y-72500000D01*
X161715998Y-72500000D01*
X161649331Y-72533333D01*
X161249331Y-72966667D02*
X161315998Y-72933333D01*
X161349331Y-72900000D01*
X161382665Y-72833333D01*
X161382665Y-72633333D01*
X161349331Y-72566667D01*
X161315998Y-72533333D01*
X161249331Y-72500000D01*
X161149331Y-72500000D01*
X161082665Y-72533333D01*
X161049331Y-72566667D01*
X161015998Y-72633333D01*
X161015998Y-72833333D01*
X161049331Y-72900000D01*
X161082665Y-72933333D01*
X161149331Y-72966667D01*
X161249331Y-72966667D01*
X160715998Y-72966667D02*
X160715998Y-72500000D01*
X160715998Y-72566667D02*
X160682665Y-72533333D01*
X160615998Y-72500000D01*
X160515998Y-72500000D01*
X160449332Y-72533333D01*
X160415998Y-72600000D01*
X160415998Y-72966667D01*
X160415998Y-72600000D02*
X160382665Y-72533333D01*
X160315998Y-72500000D01*
X160215998Y-72500000D01*
X160149332Y-72533333D01*
X160115998Y-72600000D01*
X160115998Y-72966667D01*
X159282665Y-72233333D02*
X159882665Y-73133333D01*
X159049332Y-72966667D02*
X159049332Y-72500000D01*
X159049332Y-72566667D02*
X159015999Y-72533333D01*
X158949332Y-72500000D01*
X158849332Y-72500000D01*
X158782666Y-72533333D01*
X158749332Y-72600000D01*
X158749332Y-72966667D01*
X158749332Y-72600000D02*
X158715999Y-72533333D01*
X158649332Y-72500000D01*
X158549332Y-72500000D01*
X158482666Y-72533333D01*
X158449332Y-72600000D01*
X158449332Y-72966667D01*
X157815999Y-72966667D02*
X157815999Y-72600000D01*
X157849333Y-72533333D01*
X157915999Y-72500000D01*
X158049333Y-72500000D01*
X158115999Y-72533333D01*
X157815999Y-72933333D02*
X157882666Y-72966667D01*
X158049333Y-72966667D01*
X158115999Y-72933333D01*
X158149333Y-72866667D01*
X158149333Y-72800000D01*
X158115999Y-72733333D01*
X158049333Y-72700000D01*
X157882666Y-72700000D01*
X157815999Y-72666667D01*
X157382666Y-72966667D02*
X157449333Y-72933333D01*
X157482666Y-72866667D01*
X157482666Y-72266667D01*
X156815999Y-72933333D02*
X156882666Y-72966667D01*
X157015999Y-72966667D01*
X157082666Y-72933333D01*
X157115999Y-72900000D01*
X157149333Y-72833333D01*
X157149333Y-72633333D01*
X157115999Y-72566667D01*
X157082666Y-72533333D01*
X157015999Y-72500000D01*
X156882666Y-72500000D01*
X156815999Y-72533333D01*
X156415999Y-72966667D02*
X156482666Y-72933333D01*
X156515999Y-72900000D01*
X156549333Y-72833333D01*
X156549333Y-72633333D01*
X156515999Y-72566667D01*
X156482666Y-72533333D01*
X156415999Y-72500000D01*
X156315999Y-72500000D01*
X156249333Y-72533333D01*
X156215999Y-72566667D01*
X156182666Y-72633333D01*
X156182666Y-72833333D01*
X156215999Y-72900000D01*
X156249333Y-72933333D01*
X156315999Y-72966667D01*
X156415999Y-72966667D01*
X155782666Y-72966667D02*
X155849333Y-72933333D01*
X155882666Y-72866667D01*
X155882666Y-72266667D01*
X155515999Y-72966667D02*
X155515999Y-72500000D01*
X155515999Y-72566667D02*
X155482666Y-72533333D01*
X155415999Y-72500000D01*
X155315999Y-72500000D01*
X155249333Y-72533333D01*
X155215999Y-72600000D01*
X155215999Y-72966667D01*
X155215999Y-72600000D02*
X155182666Y-72533333D01*
X155115999Y-72500000D01*
X155015999Y-72500000D01*
X154949333Y-72533333D01*
X154915999Y-72600000D01*
X154915999Y-72966667D01*
X154616000Y-72933333D02*
X154549333Y-72966667D01*
X154416000Y-72966667D01*
X154349333Y-72933333D01*
X154316000Y-72866667D01*
X154316000Y-72833333D01*
X154349333Y-72766667D01*
X154416000Y-72733333D01*
X154516000Y-72733333D01*
X154582666Y-72700000D01*
X154616000Y-72633333D01*
X154616000Y-72600000D01*
X154582666Y-72533333D01*
X154516000Y-72500000D01*
X154416000Y-72500000D01*
X154349333Y-72533333D01*
X154015999Y-72500000D02*
X154015999Y-73200000D01*
X154015999Y-72533333D02*
X153949333Y-72500000D01*
X153815999Y-72500000D01*
X153749333Y-72533333D01*
X153715999Y-72566667D01*
X153682666Y-72633333D01*
X153682666Y-72833333D01*
X153715999Y-72900000D01*
X153749333Y-72933333D01*
X153815999Y-72966667D01*
X153949333Y-72966667D01*
X154015999Y-72933333D01*
X153382666Y-72966667D02*
X153382666Y-72500000D01*
X153382666Y-72266667D02*
X153416000Y-72300000D01*
X153382666Y-72333333D01*
X153349333Y-72300000D01*
X153382666Y-72266667D01*
X153382666Y-72333333D01*
X153149333Y-72500000D02*
X152882667Y-72500000D01*
X153049333Y-72266667D02*
X153049333Y-72866667D01*
X153016000Y-72933333D01*
X152949333Y-72966667D01*
X152882667Y-72966667D01*
X152382667Y-72933333D02*
X152449333Y-72966667D01*
X152582667Y-72966667D01*
X152649333Y-72933333D01*
X152682667Y-72866667D01*
X152682667Y-72600000D01*
X152649333Y-72533333D01*
X152582667Y-72500000D01*
X152449333Y-72500000D01*
X152382667Y-72533333D01*
X152349333Y-72600000D01*
X152349333Y-72666667D01*
X152682667Y-72733333D01*
X152049333Y-72966667D02*
X152049333Y-72500000D01*
X152049333Y-72633333D02*
X152016000Y-72566667D01*
X151982667Y-72533333D01*
X151916000Y-72500000D01*
X151849333Y-72500000D01*
X151616000Y-72966667D02*
X151616000Y-72500000D01*
X151616000Y-72266667D02*
X151649334Y-72300000D01*
X151616000Y-72333333D01*
X151582667Y-72300000D01*
X151616000Y-72266667D01*
X151616000Y-72333333D01*
X150782667Y-72233333D02*
X151382667Y-73133333D01*
X150616001Y-72500000D02*
X150482668Y-72966667D01*
X150349334Y-72633333D01*
X150216001Y-72966667D01*
X150082668Y-72500000D01*
X149549335Y-72933333D02*
X149616001Y-72966667D01*
X149749335Y-72966667D01*
X149816001Y-72933333D01*
X149849335Y-72866667D01*
X149849335Y-72600000D01*
X149816001Y-72533333D01*
X149749335Y-72500000D01*
X149616001Y-72500000D01*
X149549335Y-72533333D01*
X149516001Y-72600000D01*
X149516001Y-72666667D01*
X149849335Y-72733333D01*
X148916001Y-72966667D02*
X148916001Y-72600000D01*
X148949335Y-72533333D01*
X149016001Y-72500000D01*
X149149335Y-72500000D01*
X149216001Y-72533333D01*
X148916001Y-72933333D02*
X148982668Y-72966667D01*
X149149335Y-72966667D01*
X149216001Y-72933333D01*
X149249335Y-72866667D01*
X149249335Y-72800000D01*
X149216001Y-72733333D01*
X149149335Y-72700000D01*
X148982668Y-72700000D01*
X148916001Y-72666667D01*
X148682668Y-72500000D02*
X148416002Y-72500000D01*
X148582668Y-72266667D02*
X148582668Y-72866667D01*
X148549335Y-72933333D01*
X148482668Y-72966667D01*
X148416002Y-72966667D01*
X148182668Y-72966667D02*
X148182668Y-72266667D01*
X147882668Y-72966667D02*
X147882668Y-72600000D01*
X147916002Y-72533333D01*
X147982668Y-72500000D01*
X148082668Y-72500000D01*
X148149335Y-72533333D01*
X148182668Y-72566667D01*
X147282669Y-72933333D02*
X147349335Y-72966667D01*
X147482669Y-72966667D01*
X147549335Y-72933333D01*
X147582669Y-72866667D01*
X147582669Y-72600000D01*
X147549335Y-72533333D01*
X147482669Y-72500000D01*
X147349335Y-72500000D01*
X147282669Y-72533333D01*
X147249335Y-72600000D01*
X147249335Y-72666667D01*
X147582669Y-72733333D01*
X146949335Y-72966667D02*
X146949335Y-72500000D01*
X146949335Y-72633333D02*
X146916002Y-72566667D01*
X146882669Y-72533333D01*
X146816002Y-72500000D01*
X146749335Y-72500000D01*
X146549336Y-72933333D02*
X146482669Y-72966667D01*
X146349336Y-72966667D01*
X146282669Y-72933333D01*
X146249336Y-72866667D01*
X146249336Y-72833333D01*
X146282669Y-72766667D01*
X146349336Y-72733333D01*
X146449336Y-72733333D01*
X146516002Y-72700000D01*
X146549336Y-72633333D01*
X146549336Y-72600000D01*
X146516002Y-72533333D01*
X146449336Y-72500000D01*
X146349336Y-72500000D01*
X146282669Y-72533333D01*
X146049335Y-72500000D02*
X145782669Y-72500000D01*
X145949335Y-72266667D02*
X145949335Y-72866667D01*
X145916002Y-72933333D01*
X145849335Y-72966667D01*
X145782669Y-72966667D01*
X145249335Y-72966667D02*
X145249335Y-72600000D01*
X145282669Y-72533333D01*
X145349335Y-72500000D01*
X145482669Y-72500000D01*
X145549335Y-72533333D01*
X145249335Y-72933333D02*
X145316002Y-72966667D01*
X145482669Y-72966667D01*
X145549335Y-72933333D01*
X145582669Y-72866667D01*
X145582669Y-72800000D01*
X145549335Y-72733333D01*
X145482669Y-72700000D01*
X145316002Y-72700000D01*
X145249335Y-72666667D01*
X145016002Y-72500000D02*
X144749336Y-72500000D01*
X144916002Y-72266667D02*
X144916002Y-72866667D01*
X144882669Y-72933333D01*
X144816002Y-72966667D01*
X144749336Y-72966667D01*
X144516002Y-72966667D02*
X144516002Y-72500000D01*
X144516002Y-72266667D02*
X144549336Y-72300000D01*
X144516002Y-72333333D01*
X144482669Y-72300000D01*
X144516002Y-72266667D01*
X144516002Y-72333333D01*
X144082669Y-72966667D02*
X144149336Y-72933333D01*
X144182669Y-72900000D01*
X144216003Y-72833333D01*
X144216003Y-72633333D01*
X144182669Y-72566667D01*
X144149336Y-72533333D01*
X144082669Y-72500000D01*
X143982669Y-72500000D01*
X143916003Y-72533333D01*
X143882669Y-72566667D01*
X143849336Y-72633333D01*
X143849336Y-72833333D01*
X143882669Y-72900000D01*
X143916003Y-72933333D01*
X143982669Y-72966667D01*
X144082669Y-72966667D01*
X143549336Y-72500000D02*
X143549336Y-72966667D01*
X143549336Y-72566667D02*
X143516003Y-72533333D01*
X143449336Y-72500000D01*
X143349336Y-72500000D01*
X143282670Y-72533333D01*
X143249336Y-72600000D01*
X143249336Y-72966667D01*
X142416003Y-72233333D02*
X143016003Y-73133333D01*
X142282670Y-72500000D02*
X142016004Y-72500000D01*
X142182670Y-72266667D02*
X142182670Y-72866667D01*
X142149337Y-72933333D01*
X142082670Y-72966667D01*
X142016004Y-72966667D01*
X141782670Y-72966667D02*
X141782670Y-72500000D01*
X141782670Y-72633333D02*
X141749337Y-72566667D01*
X141716004Y-72533333D01*
X141649337Y-72500000D01*
X141582670Y-72500000D01*
X141082671Y-72933333D02*
X141149337Y-72966667D01*
X141282671Y-72966667D01*
X141349337Y-72933333D01*
X141382671Y-72866667D01*
X141382671Y-72600000D01*
X141349337Y-72533333D01*
X141282671Y-72500000D01*
X141149337Y-72500000D01*
X141082671Y-72533333D01*
X141049337Y-72600000D01*
X141049337Y-72666667D01*
X141382671Y-72733333D01*
X140482671Y-72933333D02*
X140549337Y-72966667D01*
X140682671Y-72966667D01*
X140749337Y-72933333D01*
X140782671Y-72866667D01*
X140782671Y-72600000D01*
X140749337Y-72533333D01*
X140682671Y-72500000D01*
X140549337Y-72500000D01*
X140482671Y-72533333D01*
X140449337Y-72600000D01*
X140449337Y-72666667D01*
X140782671Y-72733333D01*
X139649337Y-72233333D02*
X140249337Y-73133333D01*
X139416004Y-72966667D02*
X139416004Y-72500000D01*
X139416004Y-72566667D02*
X139382671Y-72533333D01*
X139316004Y-72500000D01*
X139216004Y-72500000D01*
X139149338Y-72533333D01*
X139116004Y-72600000D01*
X139116004Y-72966667D01*
X139116004Y-72600000D02*
X139082671Y-72533333D01*
X139016004Y-72500000D01*
X138916004Y-72500000D01*
X138849338Y-72533333D01*
X138816004Y-72600000D01*
X138816004Y-72966667D01*
X138182671Y-72966667D02*
X138182671Y-72600000D01*
X138216005Y-72533333D01*
X138282671Y-72500000D01*
X138416005Y-72500000D01*
X138482671Y-72533333D01*
X138182671Y-72933333D02*
X138249338Y-72966667D01*
X138416005Y-72966667D01*
X138482671Y-72933333D01*
X138516005Y-72866667D01*
X138516005Y-72800000D01*
X138482671Y-72733333D01*
X138416005Y-72700000D01*
X138249338Y-72700000D01*
X138182671Y-72666667D01*
X137882672Y-72933333D02*
X137816005Y-72966667D01*
X137682672Y-72966667D01*
X137616005Y-72933333D01*
X137582672Y-72866667D01*
X137582672Y-72833333D01*
X137616005Y-72766667D01*
X137682672Y-72733333D01*
X137782672Y-72733333D01*
X137849338Y-72700000D01*
X137882672Y-72633333D01*
X137882672Y-72600000D01*
X137849338Y-72533333D01*
X137782672Y-72500000D01*
X137682672Y-72500000D01*
X137616005Y-72533333D01*
X137382671Y-72500000D02*
X137116005Y-72500000D01*
X137282671Y-72266667D02*
X137282671Y-72866667D01*
X137249338Y-72933333D01*
X137182671Y-72966667D01*
X137116005Y-72966667D01*
X136616005Y-72933333D02*
X136682671Y-72966667D01*
X136816005Y-72966667D01*
X136882671Y-72933333D01*
X136916005Y-72866667D01*
X136916005Y-72600000D01*
X136882671Y-72533333D01*
X136816005Y-72500000D01*
X136682671Y-72500000D01*
X136616005Y-72533333D01*
X136582671Y-72600000D01*
X136582671Y-72666667D01*
X136916005Y-72733333D01*
X136282671Y-72966667D02*
X136282671Y-72500000D01*
X136282671Y-72633333D02*
X136249338Y-72566667D01*
X136216005Y-72533333D01*
X136149338Y-72500000D01*
X136082671Y-72500000D01*
X135349338Y-72233333D02*
X135949338Y-73133333D01*
X135016005Y-72966667D02*
X135082672Y-72933333D01*
X135116005Y-72866667D01*
X135116005Y-72266667D01*
X134849338Y-72500000D02*
X134582672Y-72500000D01*
X134749338Y-72266667D02*
X134749338Y-72866667D01*
X134716005Y-72933333D01*
X134649338Y-72966667D01*
X134582672Y-72966667D01*
X134416005Y-72266667D02*
X133982672Y-72266667D01*
X134216005Y-72533333D01*
X134116005Y-72533333D01*
X134049338Y-72566667D01*
X134016005Y-72600000D01*
X133982672Y-72666667D01*
X133982672Y-72833333D01*
X134016005Y-72900000D01*
X134049338Y-72933333D01*
X134116005Y-72966667D01*
X134316005Y-72966667D01*
X134382672Y-72933333D01*
X134416005Y-72900000D01*
X133382671Y-72266667D02*
X133516005Y-72266667D01*
X133582671Y-72300000D01*
X133616005Y-72333333D01*
X133682671Y-72433333D01*
X133716005Y-72566667D01*
X133716005Y-72833333D01*
X133682671Y-72900000D01*
X133649338Y-72933333D01*
X133582671Y-72966667D01*
X133449338Y-72966667D01*
X133382671Y-72933333D01*
X133349338Y-72900000D01*
X133316005Y-72833333D01*
X133316005Y-72666667D01*
X133349338Y-72600000D01*
X133382671Y-72566667D01*
X133449338Y-72533333D01*
X133582671Y-72533333D01*
X133649338Y-72566667D01*
X133682671Y-72600000D01*
X133716005Y-72666667D01*
X132682671Y-72266667D02*
X133016004Y-72266667D01*
X133049338Y-72600000D01*
X133016004Y-72566667D01*
X132949338Y-72533333D01*
X132782671Y-72533333D01*
X132716004Y-72566667D01*
X132682671Y-72600000D01*
X132649338Y-72666667D01*
X132649338Y-72833333D01*
X132682671Y-72900000D01*
X132716004Y-72933333D01*
X132782671Y-72966667D01*
X132949338Y-72966667D01*
X133016004Y-72933333D01*
X133049338Y-72900000D01*
X132382671Y-72333333D02*
X132349337Y-72300000D01*
X132282671Y-72266667D01*
X132116004Y-72266667D01*
X132049337Y-72300000D01*
X132016004Y-72333333D01*
X131982671Y-72400000D01*
X131982671Y-72466667D01*
X132016004Y-72566667D01*
X132416004Y-72966667D01*
X131982671Y-72966667D01*
X131849337Y-73033333D02*
X131316004Y-73033333D01*
X131149337Y-72966667D02*
X131149337Y-72266667D01*
X131149337Y-72533333D02*
X131082671Y-72500000D01*
X130949337Y-72500000D01*
X130882671Y-72533333D01*
X130849337Y-72566667D01*
X130816004Y-72633333D01*
X130816004Y-72833333D01*
X130849337Y-72900000D01*
X130882671Y-72933333D01*
X130949337Y-72966667D01*
X131082671Y-72966667D01*
X131149337Y-72933333D01*
X130516004Y-72966667D02*
X130516004Y-72500000D01*
X130516004Y-72633333D02*
X130482671Y-72566667D01*
X130449338Y-72533333D01*
X130382671Y-72500000D01*
X130316004Y-72500000D01*
X129816005Y-72933333D02*
X129882671Y-72966667D01*
X130016005Y-72966667D01*
X130082671Y-72933333D01*
X130116005Y-72866667D01*
X130116005Y-72600000D01*
X130082671Y-72533333D01*
X130016005Y-72500000D01*
X129882671Y-72500000D01*
X129816005Y-72533333D01*
X129782671Y-72600000D01*
X129782671Y-72666667D01*
X130116005Y-72733333D01*
X129182671Y-72966667D02*
X129182671Y-72600000D01*
X129216005Y-72533333D01*
X129282671Y-72500000D01*
X129416005Y-72500000D01*
X129482671Y-72533333D01*
X129182671Y-72933333D02*
X129249338Y-72966667D01*
X129416005Y-72966667D01*
X129482671Y-72933333D01*
X129516005Y-72866667D01*
X129516005Y-72800000D01*
X129482671Y-72733333D01*
X129416005Y-72700000D01*
X129249338Y-72700000D01*
X129182671Y-72666667D01*
X128849338Y-72966667D02*
X128849338Y-72266667D01*
X128782672Y-72700000D02*
X128582672Y-72966667D01*
X128582672Y-72500000D02*
X128849338Y-72766667D01*
X128182671Y-72966667D02*
X128249338Y-72933333D01*
X128282671Y-72900000D01*
X128316005Y-72833333D01*
X128316005Y-72633333D01*
X128282671Y-72566667D01*
X128249338Y-72533333D01*
X128182671Y-72500000D01*
X128082671Y-72500000D01*
X128016005Y-72533333D01*
X127982671Y-72566667D01*
X127949338Y-72633333D01*
X127949338Y-72833333D01*
X127982671Y-72900000D01*
X128016005Y-72933333D01*
X128082671Y-72966667D01*
X128182671Y-72966667D01*
X127349338Y-72500000D02*
X127349338Y-72966667D01*
X127649338Y-72500000D02*
X127649338Y-72866667D01*
X127616005Y-72933333D01*
X127549338Y-72966667D01*
X127449338Y-72966667D01*
X127382672Y-72933333D01*
X127349338Y-72900000D01*
X127116005Y-72500000D02*
X126849339Y-72500000D01*
X127016005Y-72266667D02*
X127016005Y-72866667D01*
X126982672Y-72933333D01*
X126916005Y-72966667D01*
X126849339Y-72966667D01*
M02*
