G04 #@! TF.FileFunction,Soldermask,Top*
%FSLAX46Y46*%
G04 Gerber Fmt 4.6, Leading zero omitted, Abs format (unit mm)*
G04 Created by KiCad (PCBNEW 4.0.1-stable) date 16/02/2016 20:02:07*
%MOMM*%
G01*
G04 APERTURE LIST*
%ADD10C,0.100000*%
%ADD11R,1.700000X1.700000*%
%ADD12C,1.700000*%
%ADD13C,5.200600*%
%ADD14R,5.200600X5.200600*%
%ADD15R,2.400000X2.400000*%
%ADD16C,2.400000*%
%ADD17R,2.432000X2.127200*%
%ADD18O,2.432000X2.127200*%
%ADD19R,2.127200X2.432000*%
%ADD20O,2.127200X2.432000*%
%ADD21R,2.635200X2.635200*%
%ADD22C,2.398980*%
%ADD23R,1.289000X0.820000*%
%ADD24R,2.051000X3.245000*%
G04 APERTURE END LIST*
D10*
D11*
X150622000Y-120142000D03*
D12*
X153122000Y-120142000D03*
D13*
X160274000Y-100076000D03*
D14*
X154178000Y-100076000D03*
D13*
X157988000Y-94996000D03*
D15*
X140970000Y-111760000D03*
D16*
X138430000Y-111760000D03*
D15*
X140970000Y-118110000D03*
D16*
X138430000Y-118110000D03*
D17*
X134366000Y-100330000D03*
D18*
X134366000Y-102870000D03*
X134366000Y-105410000D03*
D19*
X145542000Y-115062000D03*
D20*
X148082000Y-115062000D03*
X150622000Y-115062000D03*
D17*
X139446000Y-100330000D03*
D18*
X139446000Y-102870000D03*
X139446000Y-105410000D03*
D17*
X126746000Y-94234000D03*
D18*
X126746000Y-96774000D03*
X126746000Y-99314000D03*
D17*
X166370000Y-107950000D03*
D18*
X166370000Y-110490000D03*
X166370000Y-113030000D03*
X166370000Y-115570000D03*
X166370000Y-118110000D03*
X166370000Y-120650000D03*
D21*
X147320000Y-94234000D03*
D22*
X134620000Y-111760000D03*
X127000000Y-111760000D03*
X134620000Y-118110000D03*
X127000000Y-118110000D03*
D23*
X145307500Y-109557500D03*
X145307500Y-108907500D03*
X145307500Y-108257500D03*
X145307500Y-107607500D03*
X145307500Y-106957500D03*
X145307500Y-106307500D03*
X149407500Y-106307500D03*
X149407500Y-106957500D03*
X149407500Y-107607500D03*
X149407500Y-108257500D03*
X149407500Y-108907500D03*
X149407500Y-109557500D03*
D24*
X147332500Y-107912500D03*
D11*
X146050000Y-100330000D03*
D12*
X148550000Y-100330000D03*
D11*
X155448000Y-110490000D03*
D12*
X157948000Y-110490000D03*
M02*
