G04 #@! TF.FileFunction,Legend,Top*
%FSLAX46Y46*%
G04 Gerber Fmt 4.6, Leading zero omitted, Abs format (unit mm)*
G04 Created by KiCad (PCBNEW 4.0.1-stable) date 02/03/2016 22:00:12*
%MOMM*%
G01*
G04 APERTURE LIST*
%ADD10C,0.100000*%
%ADD11C,0.200000*%
%ADD12C,0.150000*%
%ADD13C,0.381000*%
%ADD14C,0.075000*%
G04 APERTURE END LIST*
D10*
X152130286Y-105519047D02*
X152154095Y-105447618D01*
X152177905Y-105423809D01*
X152225524Y-105399999D01*
X152296952Y-105399999D01*
X152344571Y-105423809D01*
X152368381Y-105447618D01*
X152392190Y-105495237D01*
X152392190Y-105685713D01*
X151892190Y-105685713D01*
X151892190Y-105519047D01*
X151916000Y-105471428D01*
X151939810Y-105447618D01*
X151987429Y-105423809D01*
X152035048Y-105423809D01*
X152082667Y-105447618D01*
X152106476Y-105471428D01*
X152130286Y-105519047D01*
X152130286Y-105685713D01*
X152249333Y-105209523D02*
X152249333Y-104971428D01*
X152392190Y-105257142D02*
X151892190Y-105090475D01*
X152392190Y-104923809D01*
X151892190Y-104828571D02*
X151892190Y-104542857D01*
X152392190Y-104685714D02*
X151892190Y-104685714D01*
X151892190Y-100497619D02*
X152392190Y-100330952D01*
X151892190Y-100164286D01*
X152392190Y-99997619D02*
X151892190Y-99997619D01*
X152392190Y-99759524D02*
X151892190Y-99759524D01*
X152392190Y-99473810D01*
X151892190Y-99473810D01*
X118758857Y-100828571D02*
X118735047Y-100852381D01*
X118663619Y-100876190D01*
X118616000Y-100876190D01*
X118544571Y-100852381D01*
X118496952Y-100804762D01*
X118473143Y-100757143D01*
X118449333Y-100661905D01*
X118449333Y-100590476D01*
X118473143Y-100495238D01*
X118496952Y-100447619D01*
X118544571Y-100400000D01*
X118616000Y-100376190D01*
X118663619Y-100376190D01*
X118735047Y-100400000D01*
X118758857Y-100423810D01*
X118973143Y-100876190D02*
X118973143Y-100376190D01*
X118973143Y-100614286D02*
X119258857Y-100614286D01*
X119258857Y-100876190D02*
X119258857Y-100376190D01*
X119782667Y-100876190D02*
X119616000Y-100638095D01*
X119496953Y-100876190D02*
X119496953Y-100376190D01*
X119687429Y-100376190D01*
X119735048Y-100400000D01*
X119758857Y-100423810D01*
X119782667Y-100471429D01*
X119782667Y-100542857D01*
X119758857Y-100590476D01*
X119735048Y-100614286D01*
X119687429Y-100638095D01*
X119496953Y-100638095D01*
X120258857Y-100400000D02*
X120211238Y-100376190D01*
X120139810Y-100376190D01*
X120068381Y-100400000D01*
X120020762Y-100447619D01*
X119996953Y-100495238D01*
X119973143Y-100590476D01*
X119973143Y-100661905D01*
X119996953Y-100757143D01*
X120020762Y-100804762D01*
X120068381Y-100852381D01*
X120139810Y-100876190D01*
X120187429Y-100876190D01*
X120258857Y-100852381D01*
X120282667Y-100828571D01*
X120282667Y-100661905D01*
X120187429Y-100661905D01*
X118568381Y-106614286D02*
X118401715Y-106614286D01*
X118401715Y-106876190D02*
X118401715Y-106376190D01*
X118639810Y-106376190D01*
X118806476Y-106733333D02*
X119044571Y-106733333D01*
X118758857Y-106876190D02*
X118925524Y-106376190D01*
X119092190Y-106876190D01*
X119258857Y-106376190D02*
X119258857Y-106780952D01*
X119282666Y-106828571D01*
X119306476Y-106852381D01*
X119354095Y-106876190D01*
X119449333Y-106876190D01*
X119496952Y-106852381D01*
X119520761Y-106828571D01*
X119544571Y-106780952D01*
X119544571Y-106376190D01*
X120020762Y-106876190D02*
X119782667Y-106876190D01*
X119782667Y-106376190D01*
X120116000Y-106376190D02*
X120401714Y-106376190D01*
X120258857Y-106876190D02*
X120258857Y-106376190D01*
X125944572Y-116528571D02*
X125920762Y-116552381D01*
X125849334Y-116576190D01*
X125801715Y-116576190D01*
X125730286Y-116552381D01*
X125682667Y-116504762D01*
X125658858Y-116457143D01*
X125635048Y-116361905D01*
X125635048Y-116290476D01*
X125658858Y-116195238D01*
X125682667Y-116147619D01*
X125730286Y-116100000D01*
X125801715Y-116076190D01*
X125849334Y-116076190D01*
X125920762Y-116100000D01*
X125944572Y-116123810D01*
X126420762Y-116576190D02*
X126135048Y-116576190D01*
X126277905Y-116576190D02*
X126277905Y-116076190D01*
X126230286Y-116147619D01*
X126182667Y-116195238D01*
X126135048Y-116219048D01*
X126730286Y-116076190D02*
X126777905Y-116076190D01*
X126825524Y-116100000D01*
X126849333Y-116123810D01*
X126873143Y-116171429D01*
X126896952Y-116266667D01*
X126896952Y-116385714D01*
X126873143Y-116480952D01*
X126849333Y-116528571D01*
X126825524Y-116552381D01*
X126777905Y-116576190D01*
X126730286Y-116576190D01*
X126682667Y-116552381D01*
X126658857Y-116528571D01*
X126635048Y-116480952D01*
X126611238Y-116385714D01*
X126611238Y-116266667D01*
X126635048Y-116171429D01*
X126658857Y-116123810D01*
X126682667Y-116100000D01*
X126730286Y-116076190D01*
X130787429Y-116076190D02*
X131096952Y-116076190D01*
X130930286Y-116266667D01*
X131001714Y-116266667D01*
X131049333Y-116290476D01*
X131073143Y-116314286D01*
X131096952Y-116361905D01*
X131096952Y-116480952D01*
X131073143Y-116528571D01*
X131049333Y-116552381D01*
X131001714Y-116576190D01*
X130858857Y-116576190D01*
X130811238Y-116552381D01*
X130787429Y-116528571D01*
X131311238Y-116576190D02*
X131311238Y-116076190D01*
X131311238Y-116314286D02*
X131596952Y-116314286D01*
X131596952Y-116576190D02*
X131596952Y-116076190D01*
X132120762Y-116576190D02*
X131954095Y-116338095D01*
X131835048Y-116576190D02*
X131835048Y-116076190D01*
X132025524Y-116076190D01*
X132073143Y-116100000D01*
X132096952Y-116123810D01*
X132120762Y-116171429D01*
X132120762Y-116242857D01*
X132096952Y-116290476D01*
X132073143Y-116314286D01*
X132025524Y-116338095D01*
X131835048Y-116338095D01*
D11*
X138523143Y-113812857D02*
X137951714Y-113812857D01*
X137951714Y-112612857D01*
X138751715Y-112612857D02*
X139437429Y-112612857D01*
X139094572Y-113812857D02*
X139094572Y-112612857D01*
X139723144Y-112612857D02*
X140466001Y-112612857D01*
X140066001Y-113070000D01*
X140237429Y-113070000D01*
X140351715Y-113127143D01*
X140408858Y-113184286D01*
X140466001Y-113298571D01*
X140466001Y-113584286D01*
X140408858Y-113698571D01*
X140351715Y-113755714D01*
X140237429Y-113812857D01*
X139894572Y-113812857D01*
X139780286Y-113755714D01*
X139723144Y-113698571D01*
X141494572Y-112612857D02*
X141266001Y-112612857D01*
X141151715Y-112670000D01*
X141094572Y-112727143D01*
X140980286Y-112898571D01*
X140923143Y-113127143D01*
X140923143Y-113584286D01*
X140980286Y-113698571D01*
X141037429Y-113755714D01*
X141151715Y-113812857D01*
X141380286Y-113812857D01*
X141494572Y-113755714D01*
X141551715Y-113698571D01*
X141608858Y-113584286D01*
X141608858Y-113298571D01*
X141551715Y-113184286D01*
X141494572Y-113127143D01*
X141380286Y-113070000D01*
X141151715Y-113070000D01*
X141037429Y-113127143D01*
X140980286Y-113184286D01*
X140923143Y-113298571D01*
X142694572Y-112612857D02*
X142123143Y-112612857D01*
X142066000Y-113184286D01*
X142123143Y-113127143D01*
X142237429Y-113070000D01*
X142523143Y-113070000D01*
X142637429Y-113127143D01*
X142694572Y-113184286D01*
X142751715Y-113298571D01*
X142751715Y-113584286D01*
X142694572Y-113698571D01*
X142637429Y-113755714D01*
X142523143Y-113812857D01*
X142237429Y-113812857D01*
X142123143Y-113755714D01*
X142066000Y-113698571D01*
X143208857Y-112727143D02*
X143266000Y-112670000D01*
X143380286Y-112612857D01*
X143666000Y-112612857D01*
X143780286Y-112670000D01*
X143837429Y-112727143D01*
X143894572Y-112841429D01*
X143894572Y-112955714D01*
X143837429Y-113127143D01*
X143151715Y-113812857D01*
X143894572Y-113812857D01*
X137894571Y-115635714D02*
X138066000Y-115692857D01*
X138351714Y-115692857D01*
X138466000Y-115635714D01*
X138523143Y-115578571D01*
X138580286Y-115464286D01*
X138580286Y-115350000D01*
X138523143Y-115235714D01*
X138466000Y-115178571D01*
X138351714Y-115121429D01*
X138123143Y-115064286D01*
X138008857Y-115007143D01*
X137951714Y-114950000D01*
X137894571Y-114835714D01*
X137894571Y-114721429D01*
X137951714Y-114607143D01*
X138008857Y-114550000D01*
X138123143Y-114492857D01*
X138408857Y-114492857D01*
X138580286Y-114550000D01*
X139266000Y-115692857D02*
X139151714Y-115635714D01*
X139094571Y-115578571D01*
X139037428Y-115464286D01*
X139037428Y-115121429D01*
X139094571Y-115007143D01*
X139151714Y-114950000D01*
X139266000Y-114892857D01*
X139437428Y-114892857D01*
X139551714Y-114950000D01*
X139608857Y-115007143D01*
X139666000Y-115121429D01*
X139666000Y-115464286D01*
X139608857Y-115578571D01*
X139551714Y-115635714D01*
X139437428Y-115692857D01*
X139266000Y-115692857D01*
X140351714Y-115692857D02*
X140237428Y-115635714D01*
X140180285Y-115521429D01*
X140180285Y-114492857D01*
X141323142Y-115692857D02*
X141323142Y-115064286D01*
X141265999Y-114950000D01*
X141151713Y-114892857D01*
X140923142Y-114892857D01*
X140808856Y-114950000D01*
X141323142Y-115635714D02*
X141208856Y-115692857D01*
X140923142Y-115692857D01*
X140808856Y-115635714D01*
X140751713Y-115521429D01*
X140751713Y-115407143D01*
X140808856Y-115292857D01*
X140923142Y-115235714D01*
X141208856Y-115235714D01*
X141323142Y-115178571D01*
X141894570Y-115692857D02*
X141894570Y-114892857D01*
X141894570Y-115121429D02*
X141951713Y-115007143D01*
X142008856Y-114950000D01*
X142123142Y-114892857D01*
X142237427Y-114892857D01*
X144237428Y-115578571D02*
X144180285Y-115635714D01*
X144008856Y-115692857D01*
X143894570Y-115692857D01*
X143723142Y-115635714D01*
X143608856Y-115521429D01*
X143551713Y-115407143D01*
X143494570Y-115178571D01*
X143494570Y-115007143D01*
X143551713Y-114778571D01*
X143608856Y-114664286D01*
X143723142Y-114550000D01*
X143894570Y-114492857D01*
X144008856Y-114492857D01*
X144180285Y-114550000D01*
X144237428Y-114607143D01*
X144751713Y-115692857D02*
X144751713Y-114492857D01*
X145265999Y-115692857D02*
X145265999Y-115064286D01*
X145208856Y-114950000D01*
X145094570Y-114892857D01*
X144923142Y-114892857D01*
X144808856Y-114950000D01*
X144751713Y-115007143D01*
X146351713Y-115692857D02*
X146351713Y-115064286D01*
X146294570Y-114950000D01*
X146180284Y-114892857D01*
X145951713Y-114892857D01*
X145837427Y-114950000D01*
X146351713Y-115635714D02*
X146237427Y-115692857D01*
X145951713Y-115692857D01*
X145837427Y-115635714D01*
X145780284Y-115521429D01*
X145780284Y-115407143D01*
X145837427Y-115292857D01*
X145951713Y-115235714D01*
X146237427Y-115235714D01*
X146351713Y-115178571D01*
X146923141Y-115692857D02*
X146923141Y-114892857D01*
X146923141Y-115121429D02*
X146980284Y-115007143D01*
X147037427Y-114950000D01*
X147151713Y-114892857D01*
X147265998Y-114892857D01*
X148180284Y-114892857D02*
X148180284Y-115864286D01*
X148123141Y-115978571D01*
X148065998Y-116035714D01*
X147951713Y-116092857D01*
X147780284Y-116092857D01*
X147665998Y-116035714D01*
X148180284Y-115635714D02*
X148065998Y-115692857D01*
X147837427Y-115692857D01*
X147723141Y-115635714D01*
X147665998Y-115578571D01*
X147608855Y-115464286D01*
X147608855Y-115121429D01*
X147665998Y-115007143D01*
X147723141Y-114950000D01*
X147837427Y-114892857D01*
X148065998Y-114892857D01*
X148180284Y-114950000D01*
X149208855Y-115635714D02*
X149094569Y-115692857D01*
X148865998Y-115692857D01*
X148751712Y-115635714D01*
X148694569Y-115521429D01*
X148694569Y-115064286D01*
X148751712Y-114950000D01*
X148865998Y-114892857D01*
X149094569Y-114892857D01*
X149208855Y-114950000D01*
X149265998Y-115064286D01*
X149265998Y-115178571D01*
X148694569Y-115292857D01*
X149780283Y-115692857D02*
X149780283Y-114892857D01*
X149780283Y-115121429D02*
X149837426Y-115007143D01*
X149894569Y-114950000D01*
X150008855Y-114892857D01*
X150123140Y-114892857D01*
X138637429Y-117572857D02*
X138237429Y-117001429D01*
X137951714Y-117572857D02*
X137951714Y-116372857D01*
X138408857Y-116372857D01*
X138523143Y-116430000D01*
X138580286Y-116487143D01*
X138637429Y-116601429D01*
X138637429Y-116772857D01*
X138580286Y-116887143D01*
X138523143Y-116944286D01*
X138408857Y-117001429D01*
X137951714Y-117001429D01*
X139608857Y-117515714D02*
X139494571Y-117572857D01*
X139266000Y-117572857D01*
X139151714Y-117515714D01*
X139094571Y-117401429D01*
X139094571Y-116944286D01*
X139151714Y-116830000D01*
X139266000Y-116772857D01*
X139494571Y-116772857D01*
X139608857Y-116830000D01*
X139666000Y-116944286D01*
X139666000Y-117058571D01*
X139094571Y-117172857D01*
X140066000Y-116772857D02*
X140351714Y-117572857D01*
X140637428Y-116772857D01*
X142237429Y-116372857D02*
X142351714Y-116372857D01*
X142466000Y-116430000D01*
X142523143Y-116487143D01*
X142580286Y-116601429D01*
X142637429Y-116830000D01*
X142637429Y-117115714D01*
X142580286Y-117344286D01*
X142523143Y-117458571D01*
X142466000Y-117515714D01*
X142351714Y-117572857D01*
X142237429Y-117572857D01*
X142123143Y-117515714D01*
X142066000Y-117458571D01*
X142008857Y-117344286D01*
X141951714Y-117115714D01*
X141951714Y-116830000D01*
X142008857Y-116601429D01*
X142066000Y-116487143D01*
X142123143Y-116430000D01*
X142237429Y-116372857D01*
X143151714Y-117458571D02*
X143208857Y-117515714D01*
X143151714Y-117572857D01*
X143094571Y-117515714D01*
X143151714Y-117458571D01*
X143151714Y-117572857D01*
X143666000Y-116487143D02*
X143723143Y-116430000D01*
X143837429Y-116372857D01*
X144123143Y-116372857D01*
X144237429Y-116430000D01*
X144294572Y-116487143D01*
X144351715Y-116601429D01*
X144351715Y-116715714D01*
X144294572Y-116887143D01*
X143608858Y-117572857D01*
X144351715Y-117572857D01*
D12*
X127636000Y-109820000D02*
X132716000Y-109820000D01*
X132716000Y-109820000D02*
X132716000Y-107280000D01*
X132716000Y-107280000D02*
X127636000Y-107280000D01*
X124816000Y-107000000D02*
X126366000Y-107000000D01*
X127636000Y-107280000D02*
X127636000Y-109820000D01*
X126366000Y-110100000D02*
X124816000Y-110100000D01*
X124816000Y-110100000D02*
X124816000Y-107000000D01*
X131366000Y-97975000D02*
X132366000Y-97975000D01*
X132366000Y-99325000D02*
X131366000Y-99325000D01*
X131366000Y-100475000D02*
X132366000Y-100475000D01*
X132366000Y-101825000D02*
X131366000Y-101825000D01*
X143166000Y-96000000D02*
X143166000Y-95300000D01*
X144366000Y-95300000D02*
X144366000Y-96000000D01*
X139766000Y-93050000D02*
X138266000Y-93050000D01*
X138266000Y-93050000D02*
X138266000Y-94450000D01*
X138266000Y-94450000D02*
X141266000Y-94450000D01*
X141266000Y-94450000D02*
X141266000Y-93050000D01*
X141266000Y-93050000D02*
X139766000Y-93050000D01*
X139766000Y-93050000D02*
X139716000Y-93050000D01*
X133466000Y-80050000D02*
X133466000Y-81550000D01*
X133466000Y-81550000D02*
X134866000Y-81550000D01*
X134866000Y-81550000D02*
X134866000Y-78550000D01*
X134866000Y-78550000D02*
X133466000Y-78550000D01*
X133466000Y-78550000D02*
X133466000Y-80050000D01*
X133466000Y-80050000D02*
X133466000Y-80100000D01*
X127636000Y-119820000D02*
X132716000Y-119820000D01*
X132716000Y-119820000D02*
X132716000Y-117280000D01*
X132716000Y-117280000D02*
X127636000Y-117280000D01*
X124816000Y-117000000D02*
X126366000Y-117000000D01*
X127636000Y-117280000D02*
X127636000Y-119820000D01*
X126366000Y-120100000D02*
X124816000Y-120100000D01*
X124816000Y-120100000D02*
X124816000Y-117000000D01*
X147516000Y-84650000D02*
G75*
G03X147516000Y-84650000I-4750000J0D01*
G01*
D13*
X170167240Y-109449060D02*
X169666860Y-109449060D01*
X169666860Y-109449060D02*
X169666860Y-109250940D01*
X169666860Y-109250940D02*
X170167240Y-109250940D01*
X167365620Y-106350260D02*
X167365620Y-106850640D01*
X168666100Y-106850640D02*
X168666100Y-106350260D01*
X168666100Y-111849360D02*
X168666100Y-112349740D01*
X167365620Y-111849360D02*
X167365620Y-112349740D01*
X166166740Y-109850380D02*
X166667120Y-109850380D01*
X166667120Y-109850380D02*
X166667120Y-111849360D01*
X166667120Y-111849360D02*
X170167240Y-111849360D01*
X170167240Y-111849360D02*
X170167240Y-106850640D01*
X170167240Y-106850640D02*
X166667120Y-106850640D01*
X166667120Y-106850640D02*
X166667120Y-108849620D01*
X166667120Y-108849620D02*
X166166740Y-108849620D01*
X166166740Y-112349740D02*
X170665080Y-112349740D01*
X166166740Y-106350260D02*
X170665080Y-106350260D01*
X166166740Y-110650480D02*
X165966080Y-110650480D01*
X165966080Y-110650480D02*
X165966080Y-110950200D01*
X165966080Y-110950200D02*
X166166740Y-110950200D01*
X166166740Y-106350260D02*
X166166740Y-112349740D01*
X170665080Y-112349740D02*
X170665080Y-106350260D01*
D12*
X130196000Y-112280000D02*
X125116000Y-112280000D01*
X125116000Y-112280000D02*
X125116000Y-114820000D01*
X125116000Y-114820000D02*
X130196000Y-114820000D01*
X133016000Y-115100000D02*
X131466000Y-115100000D01*
X130196000Y-114820000D02*
X130196000Y-112280000D01*
X131466000Y-112000000D02*
X133016000Y-112000000D01*
X133016000Y-112000000D02*
X133016000Y-115100000D01*
D13*
X170167240Y-101149060D02*
X169666860Y-101149060D01*
X169666860Y-101149060D02*
X169666860Y-100950940D01*
X169666860Y-100950940D02*
X170167240Y-100950940D01*
X167365620Y-98050260D02*
X167365620Y-98550640D01*
X168666100Y-98550640D02*
X168666100Y-98050260D01*
X168666100Y-103549360D02*
X168666100Y-104049740D01*
X167365620Y-103549360D02*
X167365620Y-104049740D01*
X166166740Y-101550380D02*
X166667120Y-101550380D01*
X166667120Y-101550380D02*
X166667120Y-103549360D01*
X166667120Y-103549360D02*
X170167240Y-103549360D01*
X170167240Y-103549360D02*
X170167240Y-98550640D01*
X170167240Y-98550640D02*
X166667120Y-98550640D01*
X166667120Y-98550640D02*
X166667120Y-100549620D01*
X166667120Y-100549620D02*
X166166740Y-100549620D01*
X166166740Y-104049740D02*
X170665080Y-104049740D01*
X166166740Y-98050260D02*
X170665080Y-98050260D01*
X166166740Y-102350480D02*
X165966080Y-102350480D01*
X165966080Y-102350480D02*
X165966080Y-102650200D01*
X165966080Y-102650200D02*
X166166740Y-102650200D01*
X166166740Y-98050260D02*
X166166740Y-104049740D01*
X170665080Y-104049740D02*
X170665080Y-98050260D01*
D12*
X143391000Y-107850000D02*
X143391000Y-106850000D01*
X144741000Y-106850000D02*
X144741000Y-107850000D01*
X140591000Y-107850000D02*
X140591000Y-106850000D01*
X141941000Y-106850000D02*
X141941000Y-107850000D01*
X139241000Y-103850000D02*
X139241000Y-104850000D01*
X137891000Y-104850000D02*
X137891000Y-103850000D01*
X124796000Y-98520000D02*
X124796000Y-103600000D01*
X124796000Y-103600000D02*
X127336000Y-103600000D01*
X127336000Y-103600000D02*
X127336000Y-98520000D01*
X127616000Y-95700000D02*
X127616000Y-97250000D01*
X127336000Y-98520000D02*
X124796000Y-98520000D01*
X124516000Y-97250000D02*
X124516000Y-95700000D01*
X124516000Y-95700000D02*
X127616000Y-95700000D01*
X143416000Y-104550000D02*
X142716000Y-104550000D01*
X142716000Y-103350000D02*
X143416000Y-103350000D01*
X163535000Y-100639000D02*
X158537000Y-100639000D01*
X163527000Y-100779000D02*
X158545000Y-100779000D01*
X163511000Y-100919000D02*
X161131000Y-100919000D01*
X160941000Y-100919000D02*
X158561000Y-100919000D01*
X163487000Y-101059000D02*
X161526000Y-101059000D01*
X160546000Y-101059000D02*
X158585000Y-101059000D01*
X163454000Y-101199000D02*
X161693000Y-101199000D01*
X160379000Y-101199000D02*
X158618000Y-101199000D01*
X163413000Y-101339000D02*
X161800000Y-101339000D01*
X160272000Y-101339000D02*
X158659000Y-101339000D01*
X163363000Y-101479000D02*
X161871000Y-101479000D01*
X160201000Y-101479000D02*
X158709000Y-101479000D01*
X163302000Y-101619000D02*
X161915000Y-101619000D01*
X160157000Y-101619000D02*
X158770000Y-101619000D01*
X163232000Y-101759000D02*
X161934000Y-101759000D01*
X160138000Y-101759000D02*
X158840000Y-101759000D01*
X163150000Y-101899000D02*
X161932000Y-101899000D01*
X160140000Y-101899000D02*
X158922000Y-101899000D01*
X163055000Y-102039000D02*
X161907000Y-102039000D01*
X160165000Y-102039000D02*
X159017000Y-102039000D01*
X162944000Y-102179000D02*
X161859000Y-102179000D01*
X160213000Y-102179000D02*
X159128000Y-102179000D01*
X162816000Y-102319000D02*
X161781000Y-102319000D01*
X160291000Y-102319000D02*
X159256000Y-102319000D01*
X162667000Y-102459000D02*
X161664000Y-102459000D01*
X160408000Y-102459000D02*
X159405000Y-102459000D01*
X162488000Y-102599000D02*
X161476000Y-102599000D01*
X160596000Y-102599000D02*
X159584000Y-102599000D01*
X162269000Y-102739000D02*
X159803000Y-102739000D01*
X161980000Y-102879000D02*
X160092000Y-102879000D01*
X161508000Y-103019000D02*
X160564000Y-103019000D01*
X161936000Y-101814000D02*
G75*
G03X161936000Y-101814000I-900000J0D01*
G01*
X163573500Y-100564000D02*
G75*
G03X163573500Y-100564000I-2537500J0D01*
G01*
X157966000Y-95650000D02*
X170916000Y-95650000D01*
X158066000Y-80000000D02*
X170916000Y-80000000D01*
X170916000Y-80000000D02*
X170916000Y-89000000D01*
X158066000Y-80000000D02*
X158066000Y-83500000D01*
X170916000Y-95600000D02*
X170916000Y-90600000D01*
X157966000Y-95650000D02*
X157966000Y-92050000D01*
X170916000Y-90600000D02*
X170916000Y-89000000D01*
X147366000Y-99225000D02*
X145366000Y-99225000D01*
X145366000Y-101275000D02*
X147366000Y-101275000D01*
X134666000Y-118900000D02*
X134666000Y-118200000D01*
X135866000Y-118200000D02*
X135866000Y-118900000D01*
X136791000Y-93550000D02*
X136791000Y-91550000D01*
X134741000Y-91550000D02*
X134741000Y-93550000D01*
D13*
X133165060Y-72448760D02*
X133165060Y-72949140D01*
X133165060Y-72949140D02*
X132966940Y-72949140D01*
X132966940Y-72949140D02*
X132966940Y-72448760D01*
X130066260Y-75250380D02*
X130566640Y-75250380D01*
X130566640Y-73949900D02*
X130066260Y-73949900D01*
X135565360Y-73949900D02*
X136065740Y-73949900D01*
X135565360Y-75250380D02*
X136065740Y-75250380D01*
X133566380Y-76449260D02*
X133566380Y-75948880D01*
X133566380Y-75948880D02*
X135565360Y-75948880D01*
X135565360Y-75948880D02*
X135565360Y-72448760D01*
X135565360Y-72448760D02*
X130566640Y-72448760D01*
X130566640Y-72448760D02*
X130566640Y-75948880D01*
X130566640Y-75948880D02*
X132565620Y-75948880D01*
X132565620Y-75948880D02*
X132565620Y-76449260D01*
X136065740Y-76449260D02*
X136065740Y-71950920D01*
X130066260Y-76449260D02*
X130066260Y-71950920D01*
X134366480Y-76449260D02*
X134366480Y-76649920D01*
X134366480Y-76649920D02*
X134666200Y-76649920D01*
X134666200Y-76649920D02*
X134666200Y-76449260D01*
X130066260Y-76449260D02*
X136065740Y-76449260D01*
X136065740Y-71950920D02*
X130066260Y-71950920D01*
D12*
X148116000Y-95750000D02*
X148116000Y-94750000D01*
X146416000Y-94750000D02*
X146416000Y-95750000D01*
X121365000Y-96536000D02*
X121365000Y-96736000D01*
X121365000Y-99130000D02*
X121365000Y-98950000D01*
X118137256Y-98819643D02*
G75*
G03X121365000Y-99136000I1727744J1003643D01*
G01*
X118812994Y-98949068D02*
G75*
G03X120916000Y-98950000I1052006J1133068D01*
G01*
X121352220Y-96509274D02*
G75*
G03X118115000Y-96856000I-1497220J-1306726D01*
G01*
X120878889Y-96736747D02*
G75*
G03X118831000Y-96756000I-1013889J-1079253D01*
G01*
X121365000Y-102536000D02*
X121365000Y-102736000D01*
X121365000Y-105130000D02*
X121365000Y-104950000D01*
X118137256Y-104819643D02*
G75*
G03X121365000Y-105136000I1727744J1003643D01*
G01*
X118812994Y-104949068D02*
G75*
G03X120916000Y-104950000I1052006J1133068D01*
G01*
X121352220Y-102509274D02*
G75*
G03X118115000Y-102856000I-1497220J-1306726D01*
G01*
X120878889Y-102736747D02*
G75*
G03X118831000Y-102756000I-1013889J-1079253D01*
G01*
X152166000Y-92874000D02*
X151150000Y-93636000D01*
X152166000Y-92874000D02*
X153182000Y-93636000D01*
X153182000Y-92874000D02*
X151150000Y-92874000D01*
X153182000Y-93636000D02*
X151150000Y-93636000D01*
X149066000Y-104950000D02*
X150566000Y-104950000D01*
X150566000Y-104950000D02*
X150566000Y-103550000D01*
X150566000Y-103550000D02*
X147566000Y-103550000D01*
X147566000Y-103550000D02*
X147566000Y-104950000D01*
X147566000Y-104950000D02*
X149066000Y-104950000D01*
X149066000Y-104950000D02*
X149116000Y-104950000D01*
X155702000Y-103886000D02*
X155702000Y-98806000D01*
X155702000Y-98806000D02*
X153162000Y-98806000D01*
X153162000Y-98806000D02*
X153162000Y-103886000D01*
X152882000Y-106706000D02*
X152882000Y-105156000D01*
X153162000Y-103886000D02*
X155702000Y-103886000D01*
X155982000Y-105156000D02*
X155982000Y-106706000D01*
X155982000Y-106706000D02*
X152882000Y-106706000D01*
X159434780Y-117639860D02*
X159795460Y-119110520D01*
X159795460Y-119110520D02*
X160074860Y-118048800D01*
X160074860Y-118048800D02*
X160384740Y-119120680D01*
X160384740Y-119120680D02*
X160725100Y-117670340D01*
X158014920Y-118330740D02*
X158804860Y-118320580D01*
X158804860Y-118320580D02*
X158815020Y-118330740D01*
X158815020Y-118330740D02*
X158815020Y-118320580D01*
X158855660Y-117609380D02*
X158855660Y-119151160D01*
X157966660Y-117599220D02*
X157966660Y-119168940D01*
X157966660Y-119168940D02*
X157976820Y-119158780D01*
X157415480Y-117700820D02*
X157064960Y-117619540D01*
X157064960Y-117619540D02*
X156744920Y-117609380D01*
X156744920Y-117609380D02*
X156506160Y-117810040D01*
X156506160Y-117810040D02*
X156475680Y-118079280D01*
X156475680Y-118079280D02*
X156716980Y-118320580D01*
X156716980Y-118320580D02*
X157105600Y-118450120D01*
X157105600Y-118450120D02*
X157285940Y-118610140D01*
X157285940Y-118610140D02*
X157326580Y-118909860D01*
X157326580Y-118909860D02*
X157095440Y-119130840D01*
X157095440Y-119130840D02*
X156775400Y-119158780D01*
X156775400Y-119158780D02*
X156424880Y-119049560D01*
X155386020Y-117599220D02*
X155137100Y-117619540D01*
X155137100Y-117619540D02*
X154895800Y-117860840D01*
X154895800Y-117860840D02*
X154806900Y-118351060D01*
X154806900Y-118351060D02*
X154834840Y-118699040D01*
X154834840Y-118699040D02*
X155035500Y-119019080D01*
X155035500Y-119019080D02*
X155286960Y-119141000D01*
X155286960Y-119141000D02*
X155596840Y-119069880D01*
X155596840Y-119069880D02*
X155815280Y-118889540D01*
X155815280Y-118889540D02*
X155886400Y-118429800D01*
X155886400Y-118429800D02*
X155835600Y-118020860D01*
X155835600Y-118020860D02*
X155726380Y-117738920D01*
X155726380Y-117738920D02*
X155365700Y-117609380D01*
X155985460Y-115879640D02*
X155726380Y-116440980D01*
X155726380Y-116440980D02*
X156264860Y-116959140D01*
X156264860Y-116959140D02*
X156785560Y-116689900D01*
X156785560Y-116689900D02*
X157064960Y-116849920D01*
X158505140Y-116829600D02*
X158835340Y-116639100D01*
X158835340Y-116639100D02*
X159274760Y-116969300D01*
X159274760Y-116969300D02*
X159747200Y-116479080D01*
X159747200Y-116479080D02*
X159465260Y-115999020D01*
X159465260Y-115999020D02*
X159655760Y-115529120D01*
X159655760Y-115529120D02*
X160265360Y-115341160D01*
X160265360Y-115341160D02*
X160265360Y-114660440D01*
X160265360Y-114660440D02*
X159706560Y-114520740D01*
X159706560Y-114520740D02*
X159505900Y-113949240D01*
X159505900Y-113949240D02*
X159775140Y-113479340D01*
X159775140Y-113479340D02*
X159305240Y-112968800D01*
X159305240Y-112968800D02*
X158787080Y-113230420D01*
X158787080Y-113230420D02*
X158317180Y-113029760D01*
X158317180Y-113029760D02*
X158147000Y-112488740D01*
X158147000Y-112488740D02*
X157456120Y-112470960D01*
X157456120Y-112470960D02*
X157245300Y-113019600D01*
X157245300Y-113019600D02*
X156826200Y-113189780D01*
X156826200Y-113189780D02*
X156275020Y-112920540D01*
X156275020Y-112920540D02*
X155756860Y-113448860D01*
X155756860Y-113448860D02*
X156005780Y-113989880D01*
X156005780Y-113989880D02*
X155835600Y-114469940D01*
X155835600Y-114469940D02*
X155286960Y-114569000D01*
X155286960Y-114569000D02*
X155276800Y-115270040D01*
X155276800Y-115270040D02*
X155835600Y-115470700D01*
X155835600Y-115470700D02*
X155975300Y-115869480D01*
X158116520Y-115849160D02*
X158416240Y-115699300D01*
X158416240Y-115699300D02*
X158616900Y-115501180D01*
X158616900Y-115501180D02*
X158766760Y-115099860D01*
X158766760Y-115099860D02*
X158766760Y-114701080D01*
X158766760Y-114701080D02*
X158616900Y-114350560D01*
X158616900Y-114350560D02*
X158164780Y-114000040D01*
X158164780Y-114000040D02*
X157715200Y-113949240D01*
X157715200Y-113949240D02*
X157316420Y-114050840D01*
X157316420Y-114050840D02*
X156915100Y-114398820D01*
X156915100Y-114398820D02*
X156765240Y-114850940D01*
X156765240Y-114850940D02*
X156816040Y-115348780D01*
X156816040Y-115348780D02*
X157064960Y-115651040D01*
X157064960Y-115651040D02*
X157415480Y-115849160D01*
X157415480Y-115849160D02*
X157064960Y-116849920D01*
X158116520Y-115849160D02*
X158515300Y-116849920D01*
D10*
X124692190Y-88947618D02*
X124454095Y-89114285D01*
X124692190Y-89233332D02*
X124192190Y-89233332D01*
X124192190Y-89042856D01*
X124216000Y-88995237D01*
X124239810Y-88971428D01*
X124287429Y-88947618D01*
X124358857Y-88947618D01*
X124406476Y-88971428D01*
X124430286Y-88995237D01*
X124454095Y-89042856D01*
X124454095Y-89233332D01*
X124192190Y-88804761D02*
X124692190Y-88638094D01*
X124192190Y-88471428D01*
X124239810Y-88328571D02*
X124216000Y-88304761D01*
X124192190Y-88257142D01*
X124192190Y-88138095D01*
X124216000Y-88090476D01*
X124239810Y-88066666D01*
X124287429Y-88042857D01*
X124335048Y-88042857D01*
X124406476Y-88066666D01*
X124692190Y-88352380D01*
X124692190Y-88042857D01*
X133592190Y-108966666D02*
X133949333Y-108966666D01*
X134020762Y-108990476D01*
X134068381Y-109038095D01*
X134092190Y-109109523D01*
X134092190Y-109157142D01*
X134092190Y-108728571D02*
X133592190Y-108728571D01*
X133592190Y-108538095D01*
X133616000Y-108490476D01*
X133639810Y-108466667D01*
X133687429Y-108442857D01*
X133758857Y-108442857D01*
X133806476Y-108466667D01*
X133830286Y-108490476D01*
X133854095Y-108538095D01*
X133854095Y-108728571D01*
X133639810Y-108252381D02*
X133616000Y-108228571D01*
X133592190Y-108180952D01*
X133592190Y-108061905D01*
X133616000Y-108014286D01*
X133639810Y-107990476D01*
X133687429Y-107966667D01*
X133735048Y-107966667D01*
X133806476Y-107990476D01*
X134092190Y-108276190D01*
X134092190Y-107966667D01*
D14*
X136085048Y-100976190D02*
X136085048Y-101380952D01*
X136108857Y-101428571D01*
X136132667Y-101452381D01*
X136180286Y-101476190D01*
X136275524Y-101476190D01*
X136323143Y-101452381D01*
X136346952Y-101428571D01*
X136370762Y-101380952D01*
X136370762Y-100976190D01*
X136870762Y-101476190D02*
X136585048Y-101476190D01*
X136727905Y-101476190D02*
X136727905Y-100976190D01*
X136680286Y-101047619D01*
X136632667Y-101095238D01*
X136585048Y-101119048D01*
D10*
X124692190Y-81047618D02*
X124454095Y-81214285D01*
X124692190Y-81333332D02*
X124192190Y-81333332D01*
X124192190Y-81142856D01*
X124216000Y-81095237D01*
X124239810Y-81071428D01*
X124287429Y-81047618D01*
X124358857Y-81047618D01*
X124406476Y-81071428D01*
X124430286Y-81095237D01*
X124454095Y-81142856D01*
X124454095Y-81333332D01*
X124192190Y-80904761D02*
X124692190Y-80738094D01*
X124192190Y-80571428D01*
X124692190Y-80142857D02*
X124692190Y-80428571D01*
X124692190Y-80285714D02*
X124192190Y-80285714D01*
X124263619Y-80333333D01*
X124311238Y-80380952D01*
X124335048Y-80428571D01*
X129692190Y-99133333D02*
X129454095Y-99300000D01*
X129692190Y-99419047D02*
X129192190Y-99419047D01*
X129192190Y-99228571D01*
X129216000Y-99180952D01*
X129239810Y-99157143D01*
X129287429Y-99133333D01*
X129358857Y-99133333D01*
X129406476Y-99157143D01*
X129430286Y-99180952D01*
X129454095Y-99228571D01*
X129454095Y-99419047D01*
X129692190Y-98657143D02*
X129692190Y-98942857D01*
X129692190Y-98800000D02*
X129192190Y-98800000D01*
X129263619Y-98847619D01*
X129311238Y-98895238D01*
X129335048Y-98942857D01*
X129692190Y-101633333D02*
X129454095Y-101800000D01*
X129692190Y-101919047D02*
X129192190Y-101919047D01*
X129192190Y-101728571D01*
X129216000Y-101680952D01*
X129239810Y-101657143D01*
X129287429Y-101633333D01*
X129358857Y-101633333D01*
X129406476Y-101657143D01*
X129430286Y-101680952D01*
X129454095Y-101728571D01*
X129454095Y-101919047D01*
X129239810Y-101442857D02*
X129216000Y-101419047D01*
X129192190Y-101371428D01*
X129192190Y-101252381D01*
X129216000Y-101204762D01*
X129239810Y-101180952D01*
X129287429Y-101157143D01*
X129335048Y-101157143D01*
X129406476Y-101180952D01*
X129692190Y-101466666D01*
X129692190Y-101157143D01*
X142644571Y-96161904D02*
X142668381Y-96185714D01*
X142692190Y-96257142D01*
X142692190Y-96304761D01*
X142668381Y-96376190D01*
X142620762Y-96423809D01*
X142573143Y-96447618D01*
X142477905Y-96471428D01*
X142406476Y-96471428D01*
X142311238Y-96447618D01*
X142263619Y-96423809D01*
X142216000Y-96376190D01*
X142192190Y-96304761D01*
X142192190Y-96257142D01*
X142216000Y-96185714D01*
X142239810Y-96161904D01*
X142692190Y-95947618D02*
X142192190Y-95947618D01*
X142382667Y-95947618D02*
X142358857Y-95899999D01*
X142358857Y-95804761D01*
X142382667Y-95757142D01*
X142406476Y-95733333D01*
X142454095Y-95709523D01*
X142596952Y-95709523D01*
X142644571Y-95733333D01*
X142668381Y-95757142D01*
X142692190Y-95804761D01*
X142692190Y-95899999D01*
X142668381Y-95947618D01*
X142668381Y-95519047D02*
X142692190Y-95471428D01*
X142692190Y-95376190D01*
X142668381Y-95328571D01*
X142620762Y-95304761D01*
X142596952Y-95304761D01*
X142549333Y-95328571D01*
X142525524Y-95376190D01*
X142525524Y-95447618D01*
X142501714Y-95495237D01*
X142454095Y-95519047D01*
X142430286Y-95519047D01*
X142382667Y-95495237D01*
X142358857Y-95447618D01*
X142358857Y-95376190D01*
X142382667Y-95328571D01*
X142692190Y-94828571D02*
X142692190Y-95114285D01*
X142692190Y-94971428D02*
X142192190Y-94971428D01*
X142263619Y-95019047D01*
X142311238Y-95066666D01*
X142335048Y-95114285D01*
X138804096Y-91876190D02*
X138804096Y-91376190D01*
X138923143Y-91376190D01*
X138994572Y-91400000D01*
X139042191Y-91447619D01*
X139066000Y-91495238D01*
X139089810Y-91590476D01*
X139089810Y-91661905D01*
X139066000Y-91757143D01*
X139042191Y-91804762D01*
X138994572Y-91852381D01*
X138923143Y-91876190D01*
X138804096Y-91876190D01*
X139232667Y-91542857D02*
X139423143Y-91542857D01*
X139304096Y-91876190D02*
X139304096Y-91447619D01*
X139327905Y-91400000D01*
X139375524Y-91376190D01*
X139423143Y-91376190D01*
X139661238Y-91876190D02*
X139613619Y-91852381D01*
X139589810Y-91804762D01*
X139589810Y-91376190D01*
X139804096Y-91542857D02*
X139923143Y-91876190D01*
X140042191Y-91542857D02*
X139923143Y-91876190D01*
X139875524Y-91995238D01*
X139851715Y-92019048D01*
X139804096Y-92042857D01*
X140232667Y-91876190D02*
X140232667Y-91376190D01*
X140232667Y-91566667D02*
X140280286Y-91542857D01*
X140375524Y-91542857D01*
X140423143Y-91566667D01*
X140446952Y-91590476D01*
X140470762Y-91638095D01*
X140470762Y-91780952D01*
X140446952Y-91828571D01*
X140423143Y-91852381D01*
X140375524Y-91876190D01*
X140280286Y-91876190D01*
X140232667Y-91852381D01*
X140685048Y-91876190D02*
X140685048Y-91376190D01*
X140732667Y-91685714D02*
X140875524Y-91876190D01*
X140875524Y-91542857D02*
X140685048Y-91733333D01*
X141351714Y-91876190D02*
X141066000Y-91876190D01*
X141208857Y-91876190D02*
X141208857Y-91376190D01*
X141161238Y-91447619D01*
X141113619Y-91495238D01*
X141066000Y-91519048D01*
X132292190Y-80354761D02*
X131792190Y-80354761D01*
X131792190Y-80235714D01*
X131816000Y-80164285D01*
X131863619Y-80116666D01*
X131911238Y-80092857D01*
X132006476Y-80069047D01*
X132077905Y-80069047D01*
X132173143Y-80092857D01*
X132220762Y-80116666D01*
X132268381Y-80164285D01*
X132292190Y-80235714D01*
X132292190Y-80354761D01*
X131958857Y-79902380D02*
X132292190Y-79783333D01*
X131958857Y-79664285D01*
X132292190Y-79473809D02*
X131958857Y-79473809D01*
X131792190Y-79473809D02*
X131816000Y-79497619D01*
X131839810Y-79473809D01*
X131816000Y-79450000D01*
X131792190Y-79473809D01*
X131839810Y-79473809D01*
X131958857Y-79235714D02*
X132292190Y-79235714D01*
X132006476Y-79235714D02*
X131982667Y-79211905D01*
X131958857Y-79164286D01*
X131958857Y-79092857D01*
X131982667Y-79045238D01*
X132030286Y-79021429D01*
X132292190Y-79021429D01*
X132292190Y-78521429D02*
X132292190Y-78807143D01*
X132292190Y-78664286D02*
X131792190Y-78664286D01*
X131863619Y-78711905D01*
X131911238Y-78759524D01*
X131935048Y-78807143D01*
X123792190Y-118966666D02*
X124149333Y-118966666D01*
X124220762Y-118990476D01*
X124268381Y-119038095D01*
X124292190Y-119109523D01*
X124292190Y-119157142D01*
X124292190Y-118728571D02*
X123792190Y-118728571D01*
X123792190Y-118538095D01*
X123816000Y-118490476D01*
X123839810Y-118466667D01*
X123887429Y-118442857D01*
X123958857Y-118442857D01*
X124006476Y-118466667D01*
X124030286Y-118490476D01*
X124054095Y-118538095D01*
X124054095Y-118728571D01*
X124292190Y-117966667D02*
X124292190Y-118252381D01*
X124292190Y-118109524D02*
X123792190Y-118109524D01*
X123863619Y-118157143D01*
X123911238Y-118204762D01*
X123935048Y-118252381D01*
X137592190Y-85197619D02*
X137592190Y-85435714D01*
X137092190Y-85435714D01*
X137568381Y-85054762D02*
X137592190Y-85007143D01*
X137592190Y-84911905D01*
X137568381Y-84864286D01*
X137520762Y-84840476D01*
X137496952Y-84840476D01*
X137449333Y-84864286D01*
X137425524Y-84911905D01*
X137425524Y-84983333D01*
X137401714Y-85030952D01*
X137354095Y-85054762D01*
X137330286Y-85054762D01*
X137282667Y-85030952D01*
X137258857Y-84983333D01*
X137258857Y-84911905D01*
X137282667Y-84864286D01*
X137258857Y-84673809D02*
X137592190Y-84578571D01*
X137354095Y-84483333D01*
X137592190Y-84388095D01*
X137258857Y-84292857D01*
X137592190Y-83840476D02*
X137592190Y-84126190D01*
X137592190Y-83983333D02*
X137092190Y-83983333D01*
X137163619Y-84030952D01*
X137211238Y-84078571D01*
X137235048Y-84126190D01*
X165792190Y-108214285D02*
X165292190Y-108214285D01*
X165292190Y-108023809D01*
X165316000Y-107976190D01*
X165339810Y-107952381D01*
X165387429Y-107928571D01*
X165458857Y-107928571D01*
X165506476Y-107952381D01*
X165530286Y-107976190D01*
X165554095Y-108023809D01*
X165554095Y-108214285D01*
X165792190Y-107714285D02*
X165292190Y-107714285D01*
X165482667Y-107714285D02*
X165458857Y-107666666D01*
X165458857Y-107571428D01*
X165482667Y-107523809D01*
X165506476Y-107500000D01*
X165554095Y-107476190D01*
X165696952Y-107476190D01*
X165744571Y-107500000D01*
X165768381Y-107523809D01*
X165792190Y-107571428D01*
X165792190Y-107666666D01*
X165768381Y-107714285D01*
X165792190Y-107047619D02*
X165530286Y-107047619D01*
X165482667Y-107071428D01*
X165458857Y-107119047D01*
X165458857Y-107214285D01*
X165482667Y-107261904D01*
X165768381Y-107047619D02*
X165792190Y-107095238D01*
X165792190Y-107214285D01*
X165768381Y-107261904D01*
X165720762Y-107285714D01*
X165673143Y-107285714D01*
X165625524Y-107261904D01*
X165601714Y-107214285D01*
X165601714Y-107095238D01*
X165577905Y-107047619D01*
X165458857Y-106880952D02*
X165458857Y-106690476D01*
X165292190Y-106809523D02*
X165720762Y-106809523D01*
X165768381Y-106785714D01*
X165792190Y-106738095D01*
X165792190Y-106690476D01*
X165792190Y-106261905D02*
X165792190Y-106547619D01*
X165792190Y-106404762D02*
X165292190Y-106404762D01*
X165363619Y-106452381D01*
X165411238Y-106500000D01*
X165435048Y-106547619D01*
X134092190Y-114490475D02*
X133592190Y-114490475D01*
X133592190Y-114299999D01*
X133616000Y-114252380D01*
X133639810Y-114228571D01*
X133687429Y-114204761D01*
X133758857Y-114204761D01*
X133806476Y-114228571D01*
X133830286Y-114252380D01*
X133854095Y-114299999D01*
X133854095Y-114490475D01*
X134092190Y-113919047D02*
X134068381Y-113966666D01*
X134020762Y-113990475D01*
X133592190Y-113990475D01*
X134068381Y-113538094D02*
X134092190Y-113585713D01*
X134092190Y-113680951D01*
X134068381Y-113728570D01*
X134020762Y-113752380D01*
X133830286Y-113752380D01*
X133782667Y-113728570D01*
X133758857Y-113680951D01*
X133758857Y-113585713D01*
X133782667Y-113538094D01*
X133830286Y-113514285D01*
X133877905Y-113514285D01*
X133925524Y-113752380D01*
X134092190Y-113085714D02*
X133592190Y-113085714D01*
X134068381Y-113085714D02*
X134092190Y-113133333D01*
X134092190Y-113228571D01*
X134068381Y-113276190D01*
X134044571Y-113299999D01*
X133996952Y-113323809D01*
X133854095Y-113323809D01*
X133806476Y-113299999D01*
X133782667Y-113276190D01*
X133758857Y-113228571D01*
X133758857Y-113133333D01*
X133782667Y-113085714D01*
X134092190Y-112585714D02*
X134092190Y-112871428D01*
X134092190Y-112728571D02*
X133592190Y-112728571D01*
X133663619Y-112776190D01*
X133711238Y-112823809D01*
X133735048Y-112871428D01*
X165792190Y-100228571D02*
X165292190Y-100228571D01*
X165292190Y-100038095D01*
X165316000Y-99990476D01*
X165339810Y-99966667D01*
X165387429Y-99942857D01*
X165458857Y-99942857D01*
X165506476Y-99966667D01*
X165530286Y-99990476D01*
X165554095Y-100038095D01*
X165554095Y-100228571D01*
X165792190Y-99657143D02*
X165768381Y-99704762D01*
X165720762Y-99728571D01*
X165292190Y-99728571D01*
X165792190Y-99395238D02*
X165768381Y-99442857D01*
X165744571Y-99466666D01*
X165696952Y-99490476D01*
X165554095Y-99490476D01*
X165506476Y-99466666D01*
X165482667Y-99442857D01*
X165458857Y-99395238D01*
X165458857Y-99323809D01*
X165482667Y-99276190D01*
X165506476Y-99252381D01*
X165554095Y-99228571D01*
X165696952Y-99228571D01*
X165744571Y-99252381D01*
X165768381Y-99276190D01*
X165792190Y-99323809D01*
X165792190Y-99395238D01*
X165792190Y-98800000D02*
X165530286Y-98800000D01*
X165482667Y-98823809D01*
X165458857Y-98871428D01*
X165458857Y-98966666D01*
X165482667Y-99014285D01*
X165768381Y-98800000D02*
X165792190Y-98847619D01*
X165792190Y-98966666D01*
X165768381Y-99014285D01*
X165720762Y-99038095D01*
X165673143Y-99038095D01*
X165625524Y-99014285D01*
X165601714Y-98966666D01*
X165601714Y-98847619D01*
X165577905Y-98800000D01*
X165792190Y-98347619D02*
X165292190Y-98347619D01*
X165768381Y-98347619D02*
X165792190Y-98395238D01*
X165792190Y-98490476D01*
X165768381Y-98538095D01*
X165744571Y-98561904D01*
X165696952Y-98585714D01*
X165554095Y-98585714D01*
X165506476Y-98561904D01*
X165482667Y-98538095D01*
X165458857Y-98490476D01*
X165458857Y-98395238D01*
X165482667Y-98347619D01*
X165792190Y-97847619D02*
X165792190Y-98133333D01*
X165792190Y-97990476D02*
X165292190Y-97990476D01*
X165363619Y-98038095D01*
X165411238Y-98085714D01*
X165435048Y-98133333D01*
X143613620Y-110076190D02*
X143446953Y-109838095D01*
X143327906Y-110076190D02*
X143327906Y-109576190D01*
X143518382Y-109576190D01*
X143566001Y-109600000D01*
X143589810Y-109623810D01*
X143613620Y-109671429D01*
X143613620Y-109742857D01*
X143589810Y-109790476D01*
X143566001Y-109814286D01*
X143518382Y-109838095D01*
X143327906Y-109838095D01*
X143756477Y-109742857D02*
X143946953Y-109742857D01*
X143827906Y-110076190D02*
X143827906Y-109647619D01*
X143851715Y-109600000D01*
X143899334Y-109576190D01*
X143946953Y-109576190D01*
X144113620Y-110076190D02*
X144113620Y-109576190D01*
X144113620Y-109766667D02*
X144161239Y-109742857D01*
X144256477Y-109742857D01*
X144304096Y-109766667D01*
X144327905Y-109790476D01*
X144351715Y-109838095D01*
X144351715Y-109980952D01*
X144327905Y-110028571D01*
X144304096Y-110052381D01*
X144256477Y-110076190D01*
X144161239Y-110076190D01*
X144113620Y-110052381D01*
X144827905Y-110076190D02*
X144542191Y-110076190D01*
X144685048Y-110076190D02*
X144685048Y-109576190D01*
X144637429Y-109647619D01*
X144589810Y-109695238D01*
X144542191Y-109719048D01*
X140813620Y-110076190D02*
X140646953Y-109838095D01*
X140527906Y-110076190D02*
X140527906Y-109576190D01*
X140718382Y-109576190D01*
X140766001Y-109600000D01*
X140789810Y-109623810D01*
X140813620Y-109671429D01*
X140813620Y-109742857D01*
X140789810Y-109790476D01*
X140766001Y-109814286D01*
X140718382Y-109838095D01*
X140527906Y-109838095D01*
X140956477Y-109742857D02*
X141146953Y-109742857D01*
X141027906Y-110076190D02*
X141027906Y-109647619D01*
X141051715Y-109600000D01*
X141099334Y-109576190D01*
X141146953Y-109576190D01*
X141313620Y-110076190D02*
X141313620Y-109576190D01*
X141313620Y-109766667D02*
X141361239Y-109742857D01*
X141456477Y-109742857D01*
X141504096Y-109766667D01*
X141527905Y-109790476D01*
X141551715Y-109838095D01*
X141551715Y-109980952D01*
X141527905Y-110028571D01*
X141504096Y-110052381D01*
X141456477Y-110076190D01*
X141361239Y-110076190D01*
X141313620Y-110052381D01*
X141742191Y-109623810D02*
X141766001Y-109600000D01*
X141813620Y-109576190D01*
X141932667Y-109576190D01*
X141980286Y-109600000D01*
X142004096Y-109623810D01*
X142027905Y-109671429D01*
X142027905Y-109719048D01*
X142004096Y-109790476D01*
X141718382Y-110076190D01*
X142027905Y-110076190D01*
X138113620Y-107076190D02*
X137946953Y-106838095D01*
X137827906Y-107076190D02*
X137827906Y-106576190D01*
X138018382Y-106576190D01*
X138066001Y-106600000D01*
X138089810Y-106623810D01*
X138113620Y-106671429D01*
X138113620Y-106742857D01*
X138089810Y-106790476D01*
X138066001Y-106814286D01*
X138018382Y-106838095D01*
X137827906Y-106838095D01*
X138256477Y-106742857D02*
X138446953Y-106742857D01*
X138327906Y-107076190D02*
X138327906Y-106647619D01*
X138351715Y-106600000D01*
X138399334Y-106576190D01*
X138446953Y-106576190D01*
X138613620Y-107076190D02*
X138613620Y-106576190D01*
X138613620Y-106766667D02*
X138661239Y-106742857D01*
X138756477Y-106742857D01*
X138804096Y-106766667D01*
X138827905Y-106790476D01*
X138851715Y-106838095D01*
X138851715Y-106980952D01*
X138827905Y-107028571D01*
X138804096Y-107052381D01*
X138756477Y-107076190D01*
X138661239Y-107076190D01*
X138613620Y-107052381D01*
X139018382Y-106576190D02*
X139327905Y-106576190D01*
X139161239Y-106766667D01*
X139232667Y-106766667D01*
X139280286Y-106790476D01*
X139304096Y-106814286D01*
X139327905Y-106861905D01*
X139327905Y-106980952D01*
X139304096Y-107028571D01*
X139280286Y-107052381D01*
X139232667Y-107076190D01*
X139089810Y-107076190D01*
X139042191Y-107052381D01*
X139018382Y-107028571D01*
X156692190Y-109997618D02*
X157192190Y-109878571D01*
X156835048Y-109783333D01*
X157192190Y-109688095D01*
X156692190Y-109569047D01*
X157192190Y-109378570D02*
X156692190Y-109378570D01*
X156882667Y-109378570D02*
X156858857Y-109330951D01*
X156858857Y-109235713D01*
X156882667Y-109188094D01*
X156906476Y-109164285D01*
X156954095Y-109140475D01*
X157096952Y-109140475D01*
X157144571Y-109164285D01*
X157168381Y-109188094D01*
X157192190Y-109235713D01*
X157192190Y-109330951D01*
X157168381Y-109378570D01*
X157192190Y-108711904D02*
X156930286Y-108711904D01*
X156882667Y-108735713D01*
X156858857Y-108783332D01*
X156858857Y-108878570D01*
X156882667Y-108926189D01*
X157168381Y-108711904D02*
X157192190Y-108759523D01*
X157192190Y-108878570D01*
X157168381Y-108926189D01*
X157120762Y-108949999D01*
X157073143Y-108949999D01*
X157025524Y-108926189D01*
X157001714Y-108878570D01*
X157001714Y-108759523D01*
X156977905Y-108711904D01*
X156858857Y-108545237D02*
X156858857Y-108354761D01*
X156692190Y-108473808D02*
X157120762Y-108473808D01*
X157168381Y-108449999D01*
X157192190Y-108402380D01*
X157192190Y-108354761D01*
X157192190Y-107926190D02*
X157192190Y-108211904D01*
X157192190Y-108069047D02*
X156692190Y-108069047D01*
X156763619Y-108116666D01*
X156811238Y-108164285D01*
X156835048Y-108211904D01*
X159592190Y-76580952D02*
X160092190Y-76461905D01*
X159735048Y-76366667D01*
X160092190Y-76271429D01*
X159592190Y-76152381D01*
X159758857Y-75747619D02*
X160163619Y-75747619D01*
X160211238Y-75771428D01*
X160235048Y-75795238D01*
X160258857Y-75842857D01*
X160258857Y-75914285D01*
X160235048Y-75961904D01*
X160068381Y-75747619D02*
X160092190Y-75795238D01*
X160092190Y-75890476D01*
X160068381Y-75938095D01*
X160044571Y-75961904D01*
X159996952Y-75985714D01*
X159854095Y-75985714D01*
X159806476Y-75961904D01*
X159782667Y-75938095D01*
X159758857Y-75890476D01*
X159758857Y-75795238D01*
X159782667Y-75747619D01*
X159758857Y-75509523D02*
X160092190Y-75509523D01*
X159806476Y-75509523D02*
X159782667Y-75485714D01*
X159758857Y-75438095D01*
X159758857Y-75366666D01*
X159782667Y-75319047D01*
X159830286Y-75295238D01*
X160092190Y-75295238D01*
X160092190Y-74842857D02*
X159592190Y-74842857D01*
X160068381Y-74842857D02*
X160092190Y-74890476D01*
X160092190Y-74985714D01*
X160068381Y-75033333D01*
X160044571Y-75057142D01*
X159996952Y-75080952D01*
X159854095Y-75080952D01*
X159806476Y-75057142D01*
X159782667Y-75033333D01*
X159758857Y-74985714D01*
X159758857Y-74890476D01*
X159782667Y-74842857D01*
X160092190Y-74342857D02*
X160092190Y-74628571D01*
X160092190Y-74485714D02*
X159592190Y-74485714D01*
X159663619Y-74533333D01*
X159711238Y-74580952D01*
X159735048Y-74628571D01*
X126432667Y-93476190D02*
X126551714Y-93976190D01*
X126646952Y-93619048D01*
X126742190Y-93976190D01*
X126861238Y-93476190D01*
X127027905Y-93952381D02*
X127075524Y-93976190D01*
X127170762Y-93976190D01*
X127218381Y-93952381D01*
X127242191Y-93904762D01*
X127242191Y-93880952D01*
X127218381Y-93833333D01*
X127170762Y-93809524D01*
X127099334Y-93809524D01*
X127051715Y-93785714D01*
X127027905Y-93738095D01*
X127027905Y-93714286D01*
X127051715Y-93666667D01*
X127099334Y-93642857D01*
X127170762Y-93642857D01*
X127218381Y-93666667D01*
X127456477Y-93976190D02*
X127456477Y-93476190D01*
X127670762Y-93976190D02*
X127670762Y-93714286D01*
X127646953Y-93666667D01*
X127599334Y-93642857D01*
X127527905Y-93642857D01*
X127480286Y-93666667D01*
X127456477Y-93690476D01*
X128123143Y-93976190D02*
X128123143Y-93476190D01*
X128123143Y-93952381D02*
X128075524Y-93976190D01*
X127980286Y-93976190D01*
X127932667Y-93952381D01*
X127908858Y-93928571D01*
X127885048Y-93880952D01*
X127885048Y-93738095D01*
X127908858Y-93690476D01*
X127932667Y-93666667D01*
X127980286Y-93642857D01*
X128075524Y-93642857D01*
X128123143Y-93666667D01*
X128361239Y-93642857D02*
X128361239Y-93976190D01*
X128361239Y-93690476D02*
X128385048Y-93666667D01*
X128432667Y-93642857D01*
X128504096Y-93642857D01*
X128551715Y-93666667D01*
X128575524Y-93714286D01*
X128575524Y-93976190D01*
X129075524Y-93976190D02*
X128789810Y-93976190D01*
X128932667Y-93976190D02*
X128932667Y-93476190D01*
X128885048Y-93547619D01*
X128837429Y-93595238D01*
X128789810Y-93619048D01*
X153292190Y-88716666D02*
X153792190Y-88597619D01*
X153435048Y-88502381D01*
X153792190Y-88407143D01*
X153292190Y-88288095D01*
X153768381Y-88121428D02*
X153792190Y-88073809D01*
X153792190Y-87978571D01*
X153768381Y-87930952D01*
X153720762Y-87907142D01*
X153696952Y-87907142D01*
X153649333Y-87930952D01*
X153625524Y-87978571D01*
X153625524Y-88049999D01*
X153601714Y-88097618D01*
X153554095Y-88121428D01*
X153530286Y-88121428D01*
X153482667Y-88097618D01*
X153458857Y-88049999D01*
X153458857Y-87978571D01*
X153482667Y-87930952D01*
X153458857Y-87740475D02*
X153792190Y-87645237D01*
X153554095Y-87549999D01*
X153792190Y-87454761D01*
X153458857Y-87359523D01*
X153792190Y-86907142D02*
X153792190Y-87192856D01*
X153792190Y-87049999D02*
X153292190Y-87049999D01*
X153363619Y-87097618D01*
X153411238Y-87145237D01*
X153435048Y-87192856D01*
X140092190Y-110661904D02*
X140592190Y-110542857D01*
X140235048Y-110447619D01*
X140592190Y-110352381D01*
X140092190Y-110233333D01*
X140258857Y-110090475D02*
X140592190Y-109971428D01*
X140258857Y-109852380D01*
X140258857Y-109733333D02*
X140258857Y-109542857D01*
X140592190Y-109661904D02*
X140163619Y-109661904D01*
X140116000Y-109638095D01*
X140092190Y-109590476D01*
X140092190Y-109542857D01*
X140592190Y-109376190D02*
X140092190Y-109376190D01*
X140282667Y-109376190D02*
X140258857Y-109328571D01*
X140258857Y-109233333D01*
X140282667Y-109185714D01*
X140306476Y-109161905D01*
X140354095Y-109138095D01*
X140496952Y-109138095D01*
X140544571Y-109161905D01*
X140568381Y-109185714D01*
X140592190Y-109233333D01*
X140592190Y-109328571D01*
X140568381Y-109376190D01*
X140592190Y-108661905D02*
X140592190Y-108947619D01*
X140592190Y-108804762D02*
X140092190Y-108804762D01*
X140163619Y-108852381D01*
X140211238Y-108900000D01*
X140235048Y-108947619D01*
X126827906Y-85676190D02*
X126946953Y-86176190D01*
X127042191Y-85819048D01*
X127137429Y-86176190D01*
X127256477Y-85676190D01*
X127399335Y-85842857D02*
X127518382Y-86176190D01*
X127637430Y-85842857D01*
X127827906Y-86176190D02*
X127827906Y-85842857D01*
X127827906Y-85938095D02*
X127851715Y-85890476D01*
X127875525Y-85866667D01*
X127923144Y-85842857D01*
X127970763Y-85842857D01*
X128327906Y-86152381D02*
X128280287Y-86176190D01*
X128185049Y-86176190D01*
X128137430Y-86152381D01*
X128113620Y-86104762D01*
X128113620Y-85914286D01*
X128137430Y-85866667D01*
X128185049Y-85842857D01*
X128280287Y-85842857D01*
X128327906Y-85866667D01*
X128351715Y-85914286D01*
X128351715Y-85961905D01*
X128113620Y-86009524D01*
X128780286Y-85842857D02*
X128780286Y-86247619D01*
X128756477Y-86295238D01*
X128732667Y-86319048D01*
X128685048Y-86342857D01*
X128613620Y-86342857D01*
X128566001Y-86319048D01*
X128780286Y-86152381D02*
X128732667Y-86176190D01*
X128637429Y-86176190D01*
X128589810Y-86152381D01*
X128566001Y-86128571D01*
X128542191Y-86080952D01*
X128542191Y-85938095D01*
X128566001Y-85890476D01*
X128589810Y-85866667D01*
X128637429Y-85842857D01*
X128732667Y-85842857D01*
X128780286Y-85866667D01*
X129280286Y-86176190D02*
X128994572Y-86176190D01*
X129137429Y-86176190D02*
X129137429Y-85676190D01*
X129089810Y-85747619D01*
X129042191Y-85795238D01*
X128994572Y-85819048D01*
X128092190Y-97666666D02*
X128449333Y-97666666D01*
X128520762Y-97690476D01*
X128568381Y-97738095D01*
X128592190Y-97809523D01*
X128592190Y-97857142D01*
X128592190Y-97428571D02*
X128092190Y-97428571D01*
X128092190Y-97238095D01*
X128116000Y-97190476D01*
X128139810Y-97166667D01*
X128187429Y-97142857D01*
X128258857Y-97142857D01*
X128306476Y-97166667D01*
X128330286Y-97190476D01*
X128354095Y-97238095D01*
X128354095Y-97428571D01*
X128092190Y-96976190D02*
X128092190Y-96666667D01*
X128282667Y-96833333D01*
X128282667Y-96761905D01*
X128306476Y-96714286D01*
X128330286Y-96690476D01*
X128377905Y-96666667D01*
X128496952Y-96666667D01*
X128544571Y-96690476D01*
X128568381Y-96714286D01*
X128592190Y-96761905D01*
X128592190Y-96904762D01*
X128568381Y-96952381D01*
X128544571Y-96976190D01*
X142654096Y-103028571D02*
X142630286Y-103052381D01*
X142558858Y-103076190D01*
X142511239Y-103076190D01*
X142439810Y-103052381D01*
X142392191Y-103004762D01*
X142368382Y-102957143D01*
X142344572Y-102861905D01*
X142344572Y-102790476D01*
X142368382Y-102695238D01*
X142392191Y-102647619D01*
X142439810Y-102600000D01*
X142511239Y-102576190D01*
X142558858Y-102576190D01*
X142630286Y-102600000D01*
X142654096Y-102623810D01*
X142820763Y-102742857D02*
X142939810Y-103076190D01*
X143058858Y-102742857D01*
X143177905Y-102742857D02*
X143368381Y-102742857D01*
X143249334Y-103076190D02*
X143249334Y-102647619D01*
X143273143Y-102600000D01*
X143320762Y-102576190D01*
X143368381Y-102576190D01*
X143535048Y-103076190D02*
X143535048Y-102576190D01*
X143535048Y-102766667D02*
X143582667Y-102742857D01*
X143677905Y-102742857D01*
X143725524Y-102766667D01*
X143749333Y-102790476D01*
X143773143Y-102838095D01*
X143773143Y-102980952D01*
X143749333Y-103028571D01*
X143725524Y-103052381D01*
X143677905Y-103076190D01*
X143582667Y-103076190D01*
X143535048Y-103052381D01*
X144201714Y-103076190D02*
X144201714Y-102814286D01*
X144177905Y-102766667D01*
X144130286Y-102742857D01*
X144035048Y-102742857D01*
X143987429Y-102766667D01*
X144201714Y-103052381D02*
X144154095Y-103076190D01*
X144035048Y-103076190D01*
X143987429Y-103052381D01*
X143963619Y-103004762D01*
X143963619Y-102957143D01*
X143987429Y-102909524D01*
X144035048Y-102885714D01*
X144154095Y-102885714D01*
X144201714Y-102861905D01*
X144368381Y-102742857D02*
X144558857Y-102742857D01*
X144439810Y-102576190D02*
X144439810Y-103004762D01*
X144463619Y-103052381D01*
X144511238Y-103076190D01*
X144558857Y-103076190D01*
X144987428Y-103076190D02*
X144701714Y-103076190D01*
X144844571Y-103076190D02*
X144844571Y-102576190D01*
X144796952Y-102647619D01*
X144749333Y-102695238D01*
X144701714Y-102719048D01*
X164514571Y-101192571D02*
X164538381Y-101216381D01*
X164562190Y-101287809D01*
X164562190Y-101335428D01*
X164538381Y-101406857D01*
X164490762Y-101454476D01*
X164443143Y-101478285D01*
X164347905Y-101502095D01*
X164276476Y-101502095D01*
X164181238Y-101478285D01*
X164133619Y-101454476D01*
X164086000Y-101406857D01*
X164062190Y-101335428D01*
X164062190Y-101287809D01*
X164086000Y-101216381D01*
X164109810Y-101192571D01*
X164562190Y-100978285D02*
X164062190Y-100978285D01*
X164252667Y-100978285D02*
X164228857Y-100930666D01*
X164228857Y-100835428D01*
X164252667Y-100787809D01*
X164276476Y-100764000D01*
X164324095Y-100740190D01*
X164466952Y-100740190D01*
X164514571Y-100764000D01*
X164538381Y-100787809D01*
X164562190Y-100835428D01*
X164562190Y-100930666D01*
X164538381Y-100978285D01*
X164562190Y-100311619D02*
X164300286Y-100311619D01*
X164252667Y-100335428D01*
X164228857Y-100383047D01*
X164228857Y-100478285D01*
X164252667Y-100525904D01*
X164538381Y-100311619D02*
X164562190Y-100359238D01*
X164562190Y-100478285D01*
X164538381Y-100525904D01*
X164490762Y-100549714D01*
X164443143Y-100549714D01*
X164395524Y-100525904D01*
X164371714Y-100478285D01*
X164371714Y-100359238D01*
X164347905Y-100311619D01*
X164228857Y-100144952D02*
X164228857Y-99954476D01*
X164062190Y-100073523D02*
X164490762Y-100073523D01*
X164538381Y-100049714D01*
X164562190Y-100002095D01*
X164562190Y-99954476D01*
X164562190Y-99525905D02*
X164562190Y-99811619D01*
X164562190Y-99668762D02*
X164062190Y-99668762D01*
X164133619Y-99716381D01*
X164181238Y-99764000D01*
X164205048Y-99811619D01*
D12*
X158208857Y-79602381D02*
X158208857Y-78602381D01*
X158589810Y-78602381D01*
X158685048Y-78650000D01*
X158732667Y-78697619D01*
X158780286Y-78792857D01*
X158780286Y-78935714D01*
X158732667Y-79030952D01*
X158685048Y-79078571D01*
X158589810Y-79126190D01*
X158208857Y-79126190D01*
X159351714Y-79602381D02*
X159256476Y-79554762D01*
X159208857Y-79459524D01*
X159208857Y-78602381D01*
X159875524Y-79602381D02*
X159780286Y-79554762D01*
X159732667Y-79507143D01*
X159685048Y-79411905D01*
X159685048Y-79126190D01*
X159732667Y-79030952D01*
X159780286Y-78983333D01*
X159875524Y-78935714D01*
X160018382Y-78935714D01*
X160113620Y-78983333D01*
X160161239Y-79030952D01*
X160208858Y-79126190D01*
X160208858Y-79411905D01*
X160161239Y-79507143D01*
X160113620Y-79554762D01*
X160018382Y-79602381D01*
X159875524Y-79602381D01*
X161066001Y-79602381D02*
X161066001Y-79078571D01*
X161018382Y-78983333D01*
X160923144Y-78935714D01*
X160732667Y-78935714D01*
X160637429Y-78983333D01*
X161066001Y-79554762D02*
X160970763Y-79602381D01*
X160732667Y-79602381D01*
X160637429Y-79554762D01*
X160589810Y-79459524D01*
X160589810Y-79364286D01*
X160637429Y-79269048D01*
X160732667Y-79221429D01*
X160970763Y-79221429D01*
X161066001Y-79173810D01*
X161970763Y-79602381D02*
X161970763Y-78602381D01*
X161970763Y-79554762D02*
X161875525Y-79602381D01*
X161685048Y-79602381D01*
X161589810Y-79554762D01*
X161542191Y-79507143D01*
X161494572Y-79411905D01*
X161494572Y-79126190D01*
X161542191Y-79030952D01*
X161589810Y-78983333D01*
X161685048Y-78935714D01*
X161875525Y-78935714D01*
X161970763Y-78983333D01*
X162399334Y-78697619D02*
X162446953Y-78650000D01*
X162542191Y-78602381D01*
X162780287Y-78602381D01*
X162875525Y-78650000D01*
X162923144Y-78697619D01*
X162970763Y-78792857D01*
X162970763Y-78888095D01*
X162923144Y-79030952D01*
X162351715Y-79602381D01*
X162970763Y-79602381D01*
D10*
X150444571Y-100333333D02*
X150468381Y-100357143D01*
X150492190Y-100428571D01*
X150492190Y-100476190D01*
X150468381Y-100547619D01*
X150420762Y-100595238D01*
X150373143Y-100619047D01*
X150277905Y-100642857D01*
X150206476Y-100642857D01*
X150111238Y-100619047D01*
X150063619Y-100595238D01*
X150016000Y-100547619D01*
X149992190Y-100476190D01*
X149992190Y-100428571D01*
X150016000Y-100357143D01*
X150039810Y-100333333D01*
X149992190Y-100166666D02*
X149992190Y-99857143D01*
X150182667Y-100023809D01*
X150182667Y-99952381D01*
X150206476Y-99904762D01*
X150230286Y-99880952D01*
X150277905Y-99857143D01*
X150396952Y-99857143D01*
X150444571Y-99880952D01*
X150468381Y-99904762D01*
X150492190Y-99952381D01*
X150492190Y-100095238D01*
X150468381Y-100142857D01*
X150444571Y-100166666D01*
X134244571Y-119264285D02*
X134268381Y-119288095D01*
X134292190Y-119359523D01*
X134292190Y-119407142D01*
X134268381Y-119478571D01*
X134220762Y-119526190D01*
X134173143Y-119549999D01*
X134077905Y-119573809D01*
X134006476Y-119573809D01*
X133911238Y-119549999D01*
X133863619Y-119526190D01*
X133816000Y-119478571D01*
X133792190Y-119407142D01*
X133792190Y-119359523D01*
X133816000Y-119288095D01*
X133839810Y-119264285D01*
X133958857Y-119121428D02*
X133958857Y-118930952D01*
X133792190Y-119049999D02*
X134220762Y-119049999D01*
X134268381Y-119026190D01*
X134292190Y-118978571D01*
X134292190Y-118930952D01*
X134292190Y-118764285D02*
X133958857Y-118764285D01*
X134006476Y-118764285D02*
X133982667Y-118740476D01*
X133958857Y-118692857D01*
X133958857Y-118621428D01*
X133982667Y-118573809D01*
X134030286Y-118550000D01*
X134292190Y-118550000D01*
X134030286Y-118550000D02*
X133982667Y-118526190D01*
X133958857Y-118478571D01*
X133958857Y-118407143D01*
X133982667Y-118359523D01*
X134030286Y-118335714D01*
X134292190Y-118335714D01*
X134292190Y-118097618D02*
X133958857Y-118097618D01*
X134054095Y-118097618D02*
X134006476Y-118073809D01*
X133982667Y-118049999D01*
X133958857Y-118002380D01*
X133958857Y-117954761D01*
X134292190Y-117526190D02*
X134292190Y-117811904D01*
X134292190Y-117669047D02*
X133792190Y-117669047D01*
X133863619Y-117716666D01*
X133911238Y-117764285D01*
X133935048Y-117811904D01*
X134344571Y-95469047D02*
X134368381Y-95492857D01*
X134392190Y-95564285D01*
X134392190Y-95611904D01*
X134368381Y-95683333D01*
X134320762Y-95730952D01*
X134273143Y-95754761D01*
X134177905Y-95778571D01*
X134106476Y-95778571D01*
X134011238Y-95754761D01*
X133963619Y-95730952D01*
X133916000Y-95683333D01*
X133892190Y-95611904D01*
X133892190Y-95564285D01*
X133916000Y-95492857D01*
X133939810Y-95469047D01*
X134058857Y-95302380D02*
X134392190Y-95183333D01*
X134058857Y-95064285D01*
X134392190Y-94873809D02*
X134058857Y-94873809D01*
X133892190Y-94873809D02*
X133916000Y-94897619D01*
X133939810Y-94873809D01*
X133916000Y-94850000D01*
X133892190Y-94873809D01*
X133939810Y-94873809D01*
X134058857Y-94635714D02*
X134392190Y-94635714D01*
X134106476Y-94635714D02*
X134082667Y-94611905D01*
X134058857Y-94564286D01*
X134058857Y-94492857D01*
X134082667Y-94445238D01*
X134130286Y-94421429D01*
X134392190Y-94421429D01*
X133939810Y-94207143D02*
X133916000Y-94183333D01*
X133892190Y-94135714D01*
X133892190Y-94016667D01*
X133916000Y-93969048D01*
X133939810Y-93945238D01*
X133987429Y-93921429D01*
X134035048Y-93921429D01*
X134106476Y-93945238D01*
X134392190Y-94230952D01*
X134392190Y-93921429D01*
X132208858Y-77376190D02*
X132208858Y-76876190D01*
X132399334Y-76876190D01*
X132446953Y-76900000D01*
X132470762Y-76923810D01*
X132494572Y-76971429D01*
X132494572Y-77042857D01*
X132470762Y-77090476D01*
X132446953Y-77114286D01*
X132399334Y-77138095D01*
X132208858Y-77138095D01*
X132685048Y-77352381D02*
X132732667Y-77376190D01*
X132827905Y-77376190D01*
X132875524Y-77352381D01*
X132899334Y-77304762D01*
X132899334Y-77280952D01*
X132875524Y-77233333D01*
X132827905Y-77209524D01*
X132756477Y-77209524D01*
X132708858Y-77185714D01*
X132685048Y-77138095D01*
X132685048Y-77114286D01*
X132708858Y-77066667D01*
X132756477Y-77042857D01*
X132827905Y-77042857D01*
X132875524Y-77066667D01*
X133185048Y-77376190D02*
X133137429Y-77352381D01*
X133113620Y-77304762D01*
X133113620Y-76876190D01*
X133375525Y-77376190D02*
X133375525Y-77042857D01*
X133375525Y-77138095D02*
X133399334Y-77090476D01*
X133423144Y-77066667D01*
X133470763Y-77042857D01*
X133518382Y-77042857D01*
X133946953Y-77376190D02*
X133661239Y-77376190D01*
X133804096Y-77376190D02*
X133804096Y-76876190D01*
X133756477Y-76947619D01*
X133708858Y-76995238D01*
X133661239Y-77019048D01*
X148992190Y-96392856D02*
X148754095Y-96559523D01*
X148992190Y-96678570D02*
X148492190Y-96678570D01*
X148492190Y-96488094D01*
X148516000Y-96440475D01*
X148539810Y-96416666D01*
X148587429Y-96392856D01*
X148658857Y-96392856D01*
X148706476Y-96416666D01*
X148730286Y-96440475D01*
X148754095Y-96488094D01*
X148754095Y-96678570D01*
X148968381Y-96202380D02*
X148992190Y-96154761D01*
X148992190Y-96059523D01*
X148968381Y-96011904D01*
X148920762Y-95988094D01*
X148896952Y-95988094D01*
X148849333Y-96011904D01*
X148825524Y-96059523D01*
X148825524Y-96130951D01*
X148801714Y-96178570D01*
X148754095Y-96202380D01*
X148730286Y-96202380D01*
X148682667Y-96178570D01*
X148658857Y-96130951D01*
X148658857Y-96059523D01*
X148682667Y-96011904D01*
X148968381Y-95583332D02*
X148992190Y-95630951D01*
X148992190Y-95726189D01*
X148968381Y-95773808D01*
X148920762Y-95797618D01*
X148730286Y-95797618D01*
X148682667Y-95773808D01*
X148658857Y-95726189D01*
X148658857Y-95630951D01*
X148682667Y-95583332D01*
X148730286Y-95559523D01*
X148777905Y-95559523D01*
X148825524Y-95797618D01*
X148658857Y-95345237D02*
X148992190Y-95345237D01*
X148706476Y-95345237D02*
X148682667Y-95321428D01*
X148658857Y-95273809D01*
X148658857Y-95202380D01*
X148682667Y-95154761D01*
X148730286Y-95130952D01*
X148992190Y-95130952D01*
X148968381Y-94916666D02*
X148992190Y-94869047D01*
X148992190Y-94773809D01*
X148968381Y-94726190D01*
X148920762Y-94702380D01*
X148896952Y-94702380D01*
X148849333Y-94726190D01*
X148825524Y-94773809D01*
X148825524Y-94845237D01*
X148801714Y-94892856D01*
X148754095Y-94916666D01*
X148730286Y-94916666D01*
X148682667Y-94892856D01*
X148658857Y-94845237D01*
X148658857Y-94773809D01*
X148682667Y-94726190D01*
X148968381Y-94297618D02*
X148992190Y-94345237D01*
X148992190Y-94440475D01*
X148968381Y-94488094D01*
X148920762Y-94511904D01*
X148730286Y-94511904D01*
X148682667Y-94488094D01*
X148658857Y-94440475D01*
X148658857Y-94345237D01*
X148682667Y-94297618D01*
X148730286Y-94273809D01*
X148777905Y-94273809D01*
X148825524Y-94511904D01*
X148992190Y-93797619D02*
X148992190Y-94083333D01*
X148992190Y-93940476D02*
X148492190Y-93940476D01*
X148563619Y-93988095D01*
X148611238Y-94035714D01*
X148635048Y-94083333D01*
X117496953Y-96076190D02*
X117496953Y-95576190D01*
X117616000Y-95576190D01*
X117687429Y-95600000D01*
X117735048Y-95647619D01*
X117758857Y-95695238D01*
X117782667Y-95790476D01*
X117782667Y-95861905D01*
X117758857Y-95957143D01*
X117735048Y-96004762D01*
X117687429Y-96052381D01*
X117616000Y-96076190D01*
X117496953Y-96076190D01*
X118258857Y-96076190D02*
X117973143Y-96076190D01*
X118116000Y-96076190D02*
X118116000Y-95576190D01*
X118068381Y-95647619D01*
X118020762Y-95695238D01*
X117973143Y-95719048D01*
X122725048Y-96336190D02*
X122725048Y-95836190D01*
X123010762Y-96336190D02*
X122796476Y-96050476D01*
X123010762Y-95836190D02*
X122725048Y-96121905D01*
X117496953Y-102176190D02*
X117496953Y-101676190D01*
X117616000Y-101676190D01*
X117687429Y-101700000D01*
X117735048Y-101747619D01*
X117758857Y-101795238D01*
X117782667Y-101890476D01*
X117782667Y-101961905D01*
X117758857Y-102057143D01*
X117735048Y-102104762D01*
X117687429Y-102152381D01*
X117616000Y-102176190D01*
X117496953Y-102176190D01*
X117973143Y-101723810D02*
X117996953Y-101700000D01*
X118044572Y-101676190D01*
X118163619Y-101676190D01*
X118211238Y-101700000D01*
X118235048Y-101723810D01*
X118258857Y-101771429D01*
X118258857Y-101819048D01*
X118235048Y-101890476D01*
X117949334Y-102176190D01*
X118258857Y-102176190D01*
X122725048Y-102336190D02*
X122725048Y-101836190D01*
X123010762Y-102336190D02*
X122796476Y-102050476D01*
X123010762Y-101836190D02*
X122725048Y-102121905D01*
X154092190Y-92885713D02*
X153592190Y-92885713D01*
X153592190Y-92766666D01*
X153616000Y-92695237D01*
X153663619Y-92647618D01*
X153711238Y-92623809D01*
X153806476Y-92599999D01*
X153877905Y-92599999D01*
X153973143Y-92623809D01*
X154020762Y-92647618D01*
X154068381Y-92695237D01*
X154092190Y-92766666D01*
X154092190Y-92885713D01*
X154092190Y-92385713D02*
X153592190Y-92385713D01*
X153782667Y-92385713D02*
X153758857Y-92338094D01*
X153758857Y-92242856D01*
X153782667Y-92195237D01*
X153806476Y-92171428D01*
X153854095Y-92147618D01*
X153996952Y-92147618D01*
X154044571Y-92171428D01*
X154068381Y-92195237D01*
X154092190Y-92242856D01*
X154092190Y-92338094D01*
X154068381Y-92385713D01*
X154092190Y-91719047D02*
X153830286Y-91719047D01*
X153782667Y-91742856D01*
X153758857Y-91790475D01*
X153758857Y-91885713D01*
X153782667Y-91933332D01*
X154068381Y-91719047D02*
X154092190Y-91766666D01*
X154092190Y-91885713D01*
X154068381Y-91933332D01*
X154020762Y-91957142D01*
X153973143Y-91957142D01*
X153925524Y-91933332D01*
X153901714Y-91885713D01*
X153901714Y-91766666D01*
X153877905Y-91719047D01*
X153758857Y-91552380D02*
X153758857Y-91361904D01*
X153592190Y-91480951D02*
X154020762Y-91480951D01*
X154068381Y-91457142D01*
X154092190Y-91409523D01*
X154092190Y-91361904D01*
X154092190Y-91195237D02*
X153592190Y-91195237D01*
X153782667Y-91195237D02*
X153758857Y-91147618D01*
X153758857Y-91052380D01*
X153782667Y-91004761D01*
X153806476Y-90980952D01*
X153854095Y-90957142D01*
X153996952Y-90957142D01*
X154044571Y-90980952D01*
X154068381Y-91004761D01*
X154092190Y-91052380D01*
X154092190Y-91147618D01*
X154068381Y-91195237D01*
X154068381Y-90766666D02*
X154092190Y-90719047D01*
X154092190Y-90623809D01*
X154068381Y-90576190D01*
X154020762Y-90552380D01*
X153996952Y-90552380D01*
X153949333Y-90576190D01*
X153925524Y-90623809D01*
X153925524Y-90695237D01*
X153901714Y-90742856D01*
X153854095Y-90766666D01*
X153830286Y-90766666D01*
X153782667Y-90742856D01*
X153758857Y-90695237D01*
X153758857Y-90623809D01*
X153782667Y-90576190D01*
X153758857Y-90409523D02*
X153758857Y-90219047D01*
X153592190Y-90338094D02*
X154020762Y-90338094D01*
X154068381Y-90314285D01*
X154092190Y-90266666D01*
X154092190Y-90219047D01*
X154092190Y-89790476D02*
X154092190Y-90076190D01*
X154092190Y-89933333D02*
X153592190Y-89933333D01*
X153663619Y-89980952D01*
X153711238Y-90028571D01*
X153735048Y-90076190D01*
X150598333Y-94263047D02*
X150598333Y-94024952D01*
X150741190Y-94310666D02*
X150241190Y-94143999D01*
X150741190Y-93977333D01*
X147716001Y-106816667D02*
X147716001Y-106116667D01*
X147882667Y-106116667D01*
X147982667Y-106150000D01*
X148049334Y-106216667D01*
X148082667Y-106283333D01*
X148116001Y-106416667D01*
X148116001Y-106516667D01*
X148082667Y-106650000D01*
X148049334Y-106716667D01*
X147982667Y-106783333D01*
X147882667Y-106816667D01*
X147716001Y-106816667D01*
X148416001Y-106816667D02*
X148416001Y-106116667D01*
X148416001Y-106383333D02*
X148482667Y-106350000D01*
X148616001Y-106350000D01*
X148682667Y-106383333D01*
X148716001Y-106416667D01*
X148749334Y-106483333D01*
X148749334Y-106683333D01*
X148716001Y-106750000D01*
X148682667Y-106783333D01*
X148616001Y-106816667D01*
X148482667Y-106816667D01*
X148416001Y-106783333D01*
X149349334Y-106816667D02*
X149349334Y-106450000D01*
X149316000Y-106383333D01*
X149249334Y-106350000D01*
X149116000Y-106350000D01*
X149049334Y-106383333D01*
X149349334Y-106783333D02*
X149282667Y-106816667D01*
X149116000Y-106816667D01*
X149049334Y-106783333D01*
X149016000Y-106716667D01*
X149016000Y-106650000D01*
X149049334Y-106583333D01*
X149116000Y-106550000D01*
X149282667Y-106550000D01*
X149349334Y-106516667D01*
X149582667Y-106350000D02*
X149849333Y-106350000D01*
X149682667Y-106116667D02*
X149682667Y-106716667D01*
X149716000Y-106783333D01*
X149782667Y-106816667D01*
X149849333Y-106816667D01*
X150449333Y-106816667D02*
X150049333Y-106816667D01*
X150249333Y-106816667D02*
X150249333Y-106116667D01*
X150182667Y-106216667D01*
X150116000Y-106283333D01*
X150049333Y-106316667D01*
X156492190Y-106376190D02*
X156849333Y-106376190D01*
X156920762Y-106400000D01*
X156968381Y-106447619D01*
X156992190Y-106519047D01*
X156992190Y-106566666D01*
X156992190Y-106138095D02*
X156492190Y-106138095D01*
X156492190Y-105947619D01*
X156516000Y-105900000D01*
X156539810Y-105876191D01*
X156587429Y-105852381D01*
X156658857Y-105852381D01*
X156706476Y-105876191D01*
X156730286Y-105900000D01*
X156754095Y-105947619D01*
X156754095Y-106138095D01*
X156992190Y-105566667D02*
X156968381Y-105614286D01*
X156920762Y-105638095D01*
X156492190Y-105638095D01*
X156992190Y-105304762D02*
X156968381Y-105352381D01*
X156944571Y-105376190D01*
X156896952Y-105400000D01*
X156754095Y-105400000D01*
X156706476Y-105376190D01*
X156682667Y-105352381D01*
X156658857Y-105304762D01*
X156658857Y-105233333D01*
X156682667Y-105185714D01*
X156706476Y-105161905D01*
X156754095Y-105138095D01*
X156896952Y-105138095D01*
X156944571Y-105161905D01*
X156968381Y-105185714D01*
X156992190Y-105233333D01*
X156992190Y-105304762D01*
X156992190Y-104709524D02*
X156730286Y-104709524D01*
X156682667Y-104733333D01*
X156658857Y-104780952D01*
X156658857Y-104876190D01*
X156682667Y-104923809D01*
X156968381Y-104709524D02*
X156992190Y-104757143D01*
X156992190Y-104876190D01*
X156968381Y-104923809D01*
X156920762Y-104947619D01*
X156873143Y-104947619D01*
X156825524Y-104923809D01*
X156801714Y-104876190D01*
X156801714Y-104757143D01*
X156777905Y-104709524D01*
X156992190Y-104257143D02*
X156492190Y-104257143D01*
X156968381Y-104257143D02*
X156992190Y-104304762D01*
X156992190Y-104400000D01*
X156968381Y-104447619D01*
X156944571Y-104471428D01*
X156896952Y-104495238D01*
X156754095Y-104495238D01*
X156706476Y-104471428D01*
X156682667Y-104447619D01*
X156658857Y-104400000D01*
X156658857Y-104304762D01*
X156682667Y-104257143D01*
X156992190Y-103757143D02*
X156992190Y-104042857D01*
X156992190Y-103900000D02*
X156492190Y-103900000D01*
X156563619Y-103947619D01*
X156611238Y-103995238D01*
X156635048Y-104042857D01*
D12*
M02*
