M48
;DRILL file {KiCad 4.0.1-stable} date 16/02/2016 20:02:14
;FORMAT={3:3/ absolute / metric / suppress leading zeros}
FMAT,2
METRIC,TZ
T1C0.400
T2C0.800
T3C0.800
T4C1.001
T5C1.016
%
G90
G05
M71
T1
X143764Y-104902
X144526Y-103124
X147320Y-104648
X148844Y-111252
T2
X146050Y-100330
X150622Y-120142
X155448Y-110490
T3
X148550Y-100330
X153122Y-120142
X157948Y-110490
T4
X127000Y-111760
X127000Y-118110
X134620Y-111760
X134620Y-118110
X138430Y-111760
X138430Y-118110
X140970Y-111760
X140970Y-118110
T5
X126746Y-94234
X126746Y-96774
X126746Y-99314
X134366Y-100330
X134366Y-102870
X134366Y-105410
X139446Y-100330
X139446Y-102870
X139446Y-105410
X145542Y-115062
X147320Y-94234
X148082Y-115062
X150622Y-115062
X166370Y-107950
X166370Y-110490
X166370Y-113030
X166370Y-115570
X166370Y-118110
X166370Y-120650
T5
X154178Y-100838G85X154178Y-99314
G05
X158750Y-94996G85X157226Y-94996
G05
X160274Y-100838G85X160274Y-99314
G05
T0
M30
