G04 #@! TF.FileFunction,Legend,Bot*
%FSLAX46Y46*%
G04 Gerber Fmt 4.6, Leading zero omitted, Abs format (unit mm)*
G04 Created by KiCad (PCBNEW 4.0.1-stable) date 07/03/2016 22:46:51*
%MOMM*%
G01*
G04 APERTURE LIST*
%ADD10C,0.100000*%
%ADD11C,0.150000*%
G04 APERTURE END LIST*
D10*
D11*
X148317667Y-73916667D02*
X148884333Y-73916667D01*
X148951000Y-73950000D01*
X148984333Y-73983333D01*
X149017667Y-74050000D01*
X149017667Y-74183333D01*
X148984333Y-74250000D01*
X148951000Y-74283333D01*
X148884333Y-74316667D01*
X148317667Y-74316667D01*
X149017667Y-74650000D02*
X148551000Y-74650000D01*
X148684333Y-74650000D02*
X148617667Y-74683333D01*
X148584333Y-74716666D01*
X148551000Y-74783333D01*
X148551000Y-74850000D01*
X149017667Y-75183333D02*
X148984333Y-75116666D01*
X148917667Y-75083333D01*
X148317667Y-75083333D01*
X148951000Y-75450000D02*
X148984333Y-75483333D01*
X149017667Y-75450000D01*
X148984333Y-75416666D01*
X148951000Y-75450000D01*
X149017667Y-75450000D01*
X148584333Y-75450000D02*
X148617667Y-75483333D01*
X148651000Y-75450000D01*
X148617667Y-75416666D01*
X148584333Y-75450000D01*
X148651000Y-75450000D01*
X149017667Y-76316666D02*
X148317667Y-76316666D01*
X149017667Y-76616666D02*
X148651000Y-76616666D01*
X148584333Y-76583332D01*
X148551000Y-76516666D01*
X148551000Y-76416666D01*
X148584333Y-76349999D01*
X148617667Y-76316666D01*
X148551000Y-76849999D02*
X148551000Y-77116665D01*
X148317667Y-76949999D02*
X148917667Y-76949999D01*
X148984333Y-76983332D01*
X149017667Y-77049999D01*
X149017667Y-77116665D01*
X148551000Y-77249999D02*
X148551000Y-77516665D01*
X148317667Y-77349999D02*
X148917667Y-77349999D01*
X148984333Y-77383332D01*
X149017667Y-77449999D01*
X149017667Y-77516665D01*
X148551000Y-77749999D02*
X149251000Y-77749999D01*
X148584333Y-77749999D02*
X148551000Y-77816665D01*
X148551000Y-77949999D01*
X148584333Y-78016665D01*
X148617667Y-78049999D01*
X148684333Y-78083332D01*
X148884333Y-78083332D01*
X148951000Y-78049999D01*
X148984333Y-78016665D01*
X149017667Y-77949999D01*
X149017667Y-77816665D01*
X148984333Y-77749999D01*
X148984333Y-78349998D02*
X149017667Y-78416665D01*
X149017667Y-78549998D01*
X148984333Y-78616665D01*
X148917667Y-78649998D01*
X148884333Y-78649998D01*
X148817667Y-78616665D01*
X148784333Y-78549998D01*
X148784333Y-78449998D01*
X148751000Y-78383332D01*
X148684333Y-78349998D01*
X148651000Y-78349998D01*
X148584333Y-78383332D01*
X148551000Y-78449998D01*
X148551000Y-78549998D01*
X148584333Y-78616665D01*
X148951000Y-78949999D02*
X148984333Y-78983332D01*
X149017667Y-78949999D01*
X148984333Y-78916665D01*
X148951000Y-78949999D01*
X149017667Y-78949999D01*
X148584333Y-78949999D02*
X148617667Y-78983332D01*
X148651000Y-78949999D01*
X148617667Y-78916665D01*
X148584333Y-78949999D01*
X148651000Y-78949999D01*
X148284333Y-79783332D02*
X149184333Y-79183332D01*
X148284333Y-80516665D02*
X149184333Y-79916665D01*
X148551000Y-81049998D02*
X149117667Y-81049998D01*
X149184333Y-81016664D01*
X149217667Y-80983331D01*
X149251000Y-80916664D01*
X149251000Y-80816664D01*
X149217667Y-80749998D01*
X148984333Y-81049998D02*
X149017667Y-80983331D01*
X149017667Y-80849998D01*
X148984333Y-80783331D01*
X148951000Y-80749998D01*
X148884333Y-80716664D01*
X148684333Y-80716664D01*
X148617667Y-80749998D01*
X148584333Y-80783331D01*
X148551000Y-80849998D01*
X148551000Y-80983331D01*
X148584333Y-81049998D01*
X149017667Y-81383331D02*
X148551000Y-81383331D01*
X148317667Y-81383331D02*
X148351000Y-81349997D01*
X148384333Y-81383331D01*
X148351000Y-81416664D01*
X148317667Y-81383331D01*
X148384333Y-81383331D01*
X148551000Y-81616664D02*
X148551000Y-81883330D01*
X148317667Y-81716664D02*
X148917667Y-81716664D01*
X148984333Y-81749997D01*
X149017667Y-81816664D01*
X149017667Y-81883330D01*
X149017667Y-82116664D02*
X148317667Y-82116664D01*
X149017667Y-82416664D02*
X148651000Y-82416664D01*
X148584333Y-82383330D01*
X148551000Y-82316664D01*
X148551000Y-82216664D01*
X148584333Y-82149997D01*
X148617667Y-82116664D01*
X148551000Y-83049997D02*
X149017667Y-83049997D01*
X148551000Y-82749997D02*
X148917667Y-82749997D01*
X148984333Y-82783330D01*
X149017667Y-82849997D01*
X149017667Y-82949997D01*
X148984333Y-83016663D01*
X148951000Y-83049997D01*
X149017667Y-83383330D02*
X148317667Y-83383330D01*
X148584333Y-83383330D02*
X148551000Y-83449996D01*
X148551000Y-83583330D01*
X148584333Y-83649996D01*
X148617667Y-83683330D01*
X148684333Y-83716663D01*
X148884333Y-83716663D01*
X148951000Y-83683330D01*
X148984333Y-83649996D01*
X149017667Y-83583330D01*
X149017667Y-83449996D01*
X148984333Y-83383330D01*
X148951000Y-84016663D02*
X148984333Y-84049996D01*
X149017667Y-84016663D01*
X148984333Y-83983329D01*
X148951000Y-84016663D01*
X149017667Y-84016663D01*
X148984333Y-84649996D02*
X149017667Y-84583329D01*
X149017667Y-84449996D01*
X148984333Y-84383329D01*
X148951000Y-84349996D01*
X148884333Y-84316662D01*
X148684333Y-84316662D01*
X148617667Y-84349996D01*
X148584333Y-84383329D01*
X148551000Y-84449996D01*
X148551000Y-84583329D01*
X148584333Y-84649996D01*
X149017667Y-85049996D02*
X148984333Y-84983329D01*
X148951000Y-84949996D01*
X148884333Y-84916662D01*
X148684333Y-84916662D01*
X148617667Y-84949996D01*
X148584333Y-84983329D01*
X148551000Y-85049996D01*
X148551000Y-85149996D01*
X148584333Y-85216662D01*
X148617667Y-85249996D01*
X148684333Y-85283329D01*
X148884333Y-85283329D01*
X148951000Y-85249996D01*
X148984333Y-85216662D01*
X149017667Y-85149996D01*
X149017667Y-85049996D01*
X149017667Y-85583329D02*
X148551000Y-85583329D01*
X148617667Y-85583329D02*
X148584333Y-85616662D01*
X148551000Y-85683329D01*
X148551000Y-85783329D01*
X148584333Y-85849995D01*
X148651000Y-85883329D01*
X149017667Y-85883329D01*
X148651000Y-85883329D02*
X148584333Y-85916662D01*
X148551000Y-85983329D01*
X148551000Y-86083329D01*
X148584333Y-86149995D01*
X148651000Y-86183329D01*
X149017667Y-86183329D01*
X148284333Y-87016662D02*
X149184333Y-86416662D01*
X149017667Y-87249995D02*
X148551000Y-87249995D01*
X148617667Y-87249995D02*
X148584333Y-87283328D01*
X148551000Y-87349995D01*
X148551000Y-87449995D01*
X148584333Y-87516661D01*
X148651000Y-87549995D01*
X149017667Y-87549995D01*
X148651000Y-87549995D02*
X148584333Y-87583328D01*
X148551000Y-87649995D01*
X148551000Y-87749995D01*
X148584333Y-87816661D01*
X148651000Y-87849995D01*
X149017667Y-87849995D01*
X149017667Y-88483328D02*
X148651000Y-88483328D01*
X148584333Y-88449994D01*
X148551000Y-88383328D01*
X148551000Y-88249994D01*
X148584333Y-88183328D01*
X148984333Y-88483328D02*
X149017667Y-88416661D01*
X149017667Y-88249994D01*
X148984333Y-88183328D01*
X148917667Y-88149994D01*
X148851000Y-88149994D01*
X148784333Y-88183328D01*
X148751000Y-88249994D01*
X148751000Y-88416661D01*
X148717667Y-88483328D01*
X149017667Y-88916661D02*
X148984333Y-88849994D01*
X148917667Y-88816661D01*
X148317667Y-88816661D01*
X148984333Y-89483328D02*
X149017667Y-89416661D01*
X149017667Y-89283328D01*
X148984333Y-89216661D01*
X148951000Y-89183328D01*
X148884333Y-89149994D01*
X148684333Y-89149994D01*
X148617667Y-89183328D01*
X148584333Y-89216661D01*
X148551000Y-89283328D01*
X148551000Y-89416661D01*
X148584333Y-89483328D01*
X149017667Y-89883328D02*
X148984333Y-89816661D01*
X148951000Y-89783328D01*
X148884333Y-89749994D01*
X148684333Y-89749994D01*
X148617667Y-89783328D01*
X148584333Y-89816661D01*
X148551000Y-89883328D01*
X148551000Y-89983328D01*
X148584333Y-90049994D01*
X148617667Y-90083328D01*
X148684333Y-90116661D01*
X148884333Y-90116661D01*
X148951000Y-90083328D01*
X148984333Y-90049994D01*
X149017667Y-89983328D01*
X149017667Y-89883328D01*
X149017667Y-90516661D02*
X148984333Y-90449994D01*
X148917667Y-90416661D01*
X148317667Y-90416661D01*
X149017667Y-90783328D02*
X148551000Y-90783328D01*
X148617667Y-90783328D02*
X148584333Y-90816661D01*
X148551000Y-90883328D01*
X148551000Y-90983328D01*
X148584333Y-91049994D01*
X148651000Y-91083328D01*
X149017667Y-91083328D01*
X148651000Y-91083328D02*
X148584333Y-91116661D01*
X148551000Y-91183328D01*
X148551000Y-91283328D01*
X148584333Y-91349994D01*
X148651000Y-91383328D01*
X149017667Y-91383328D01*
X148984333Y-91683327D02*
X149017667Y-91749994D01*
X149017667Y-91883327D01*
X148984333Y-91949994D01*
X148917667Y-91983327D01*
X148884333Y-91983327D01*
X148817667Y-91949994D01*
X148784333Y-91883327D01*
X148784333Y-91783327D01*
X148751000Y-91716661D01*
X148684333Y-91683327D01*
X148651000Y-91683327D01*
X148584333Y-91716661D01*
X148551000Y-91783327D01*
X148551000Y-91883327D01*
X148584333Y-91949994D01*
X148551000Y-92283328D02*
X149251000Y-92283328D01*
X148584333Y-92283328D02*
X148551000Y-92349994D01*
X148551000Y-92483328D01*
X148584333Y-92549994D01*
X148617667Y-92583328D01*
X148684333Y-92616661D01*
X148884333Y-92616661D01*
X148951000Y-92583328D01*
X148984333Y-92549994D01*
X149017667Y-92483328D01*
X149017667Y-92349994D01*
X148984333Y-92283328D01*
X149017667Y-92916661D02*
X148551000Y-92916661D01*
X148317667Y-92916661D02*
X148351000Y-92883327D01*
X148384333Y-92916661D01*
X148351000Y-92949994D01*
X148317667Y-92916661D01*
X148384333Y-92916661D01*
X148551000Y-93149994D02*
X148551000Y-93416660D01*
X148317667Y-93249994D02*
X148917667Y-93249994D01*
X148984333Y-93283327D01*
X149017667Y-93349994D01*
X149017667Y-93416660D01*
X148984333Y-93916660D02*
X149017667Y-93849994D01*
X149017667Y-93716660D01*
X148984333Y-93649994D01*
X148917667Y-93616660D01*
X148651000Y-93616660D01*
X148584333Y-93649994D01*
X148551000Y-93716660D01*
X148551000Y-93849994D01*
X148584333Y-93916660D01*
X148651000Y-93949994D01*
X148717667Y-93949994D01*
X148784333Y-93616660D01*
X149017667Y-94249994D02*
X148551000Y-94249994D01*
X148684333Y-94249994D02*
X148617667Y-94283327D01*
X148584333Y-94316660D01*
X148551000Y-94383327D01*
X148551000Y-94449994D01*
X149017667Y-94683327D02*
X148551000Y-94683327D01*
X148317667Y-94683327D02*
X148351000Y-94649993D01*
X148384333Y-94683327D01*
X148351000Y-94716660D01*
X148317667Y-94683327D01*
X148384333Y-94683327D01*
X148284333Y-95516660D02*
X149184333Y-94916660D01*
X148551000Y-95683326D02*
X149017667Y-95816659D01*
X148684333Y-95949993D01*
X149017667Y-96083326D01*
X148551000Y-96216659D01*
X148984333Y-96749992D02*
X149017667Y-96683326D01*
X149017667Y-96549992D01*
X148984333Y-96483326D01*
X148917667Y-96449992D01*
X148651000Y-96449992D01*
X148584333Y-96483326D01*
X148551000Y-96549992D01*
X148551000Y-96683326D01*
X148584333Y-96749992D01*
X148651000Y-96783326D01*
X148717667Y-96783326D01*
X148784333Y-96449992D01*
X149017667Y-97383326D02*
X148651000Y-97383326D01*
X148584333Y-97349992D01*
X148551000Y-97283326D01*
X148551000Y-97149992D01*
X148584333Y-97083326D01*
X148984333Y-97383326D02*
X149017667Y-97316659D01*
X149017667Y-97149992D01*
X148984333Y-97083326D01*
X148917667Y-97049992D01*
X148851000Y-97049992D01*
X148784333Y-97083326D01*
X148751000Y-97149992D01*
X148751000Y-97316659D01*
X148717667Y-97383326D01*
X148551000Y-97616659D02*
X148551000Y-97883325D01*
X148317667Y-97716659D02*
X148917667Y-97716659D01*
X148984333Y-97749992D01*
X149017667Y-97816659D01*
X149017667Y-97883325D01*
X149017667Y-98116659D02*
X148317667Y-98116659D01*
X149017667Y-98416659D02*
X148651000Y-98416659D01*
X148584333Y-98383325D01*
X148551000Y-98316659D01*
X148551000Y-98216659D01*
X148584333Y-98149992D01*
X148617667Y-98116659D01*
X148984333Y-99016658D02*
X149017667Y-98949992D01*
X149017667Y-98816658D01*
X148984333Y-98749992D01*
X148917667Y-98716658D01*
X148651000Y-98716658D01*
X148584333Y-98749992D01*
X148551000Y-98816658D01*
X148551000Y-98949992D01*
X148584333Y-99016658D01*
X148651000Y-99049992D01*
X148717667Y-99049992D01*
X148784333Y-98716658D01*
X149017667Y-99349992D02*
X148551000Y-99349992D01*
X148684333Y-99349992D02*
X148617667Y-99383325D01*
X148584333Y-99416658D01*
X148551000Y-99483325D01*
X148551000Y-99549992D01*
X148984333Y-99749991D02*
X149017667Y-99816658D01*
X149017667Y-99949991D01*
X148984333Y-100016658D01*
X148917667Y-100049991D01*
X148884333Y-100049991D01*
X148817667Y-100016658D01*
X148784333Y-99949991D01*
X148784333Y-99849991D01*
X148751000Y-99783325D01*
X148684333Y-99749991D01*
X148651000Y-99749991D01*
X148584333Y-99783325D01*
X148551000Y-99849991D01*
X148551000Y-99949991D01*
X148584333Y-100016658D01*
X148551000Y-100249992D02*
X148551000Y-100516658D01*
X148317667Y-100349992D02*
X148917667Y-100349992D01*
X148984333Y-100383325D01*
X149017667Y-100449992D01*
X149017667Y-100516658D01*
X149017667Y-101049992D02*
X148651000Y-101049992D01*
X148584333Y-101016658D01*
X148551000Y-100949992D01*
X148551000Y-100816658D01*
X148584333Y-100749992D01*
X148984333Y-101049992D02*
X149017667Y-100983325D01*
X149017667Y-100816658D01*
X148984333Y-100749992D01*
X148917667Y-100716658D01*
X148851000Y-100716658D01*
X148784333Y-100749992D01*
X148751000Y-100816658D01*
X148751000Y-100983325D01*
X148717667Y-101049992D01*
X148551000Y-101283325D02*
X148551000Y-101549991D01*
X148317667Y-101383325D02*
X148917667Y-101383325D01*
X148984333Y-101416658D01*
X149017667Y-101483325D01*
X149017667Y-101549991D01*
X149017667Y-101783325D02*
X148551000Y-101783325D01*
X148317667Y-101783325D02*
X148351000Y-101749991D01*
X148384333Y-101783325D01*
X148351000Y-101816658D01*
X148317667Y-101783325D01*
X148384333Y-101783325D01*
X149017667Y-102216658D02*
X148984333Y-102149991D01*
X148951000Y-102116658D01*
X148884333Y-102083324D01*
X148684333Y-102083324D01*
X148617667Y-102116658D01*
X148584333Y-102149991D01*
X148551000Y-102216658D01*
X148551000Y-102316658D01*
X148584333Y-102383324D01*
X148617667Y-102416658D01*
X148684333Y-102449991D01*
X148884333Y-102449991D01*
X148951000Y-102416658D01*
X148984333Y-102383324D01*
X149017667Y-102316658D01*
X149017667Y-102216658D01*
X148551000Y-102749991D02*
X149017667Y-102749991D01*
X148617667Y-102749991D02*
X148584333Y-102783324D01*
X148551000Y-102849991D01*
X148551000Y-102949991D01*
X148584333Y-103016657D01*
X148651000Y-103049991D01*
X149017667Y-103049991D01*
X148284333Y-103883324D02*
X149184333Y-103283324D01*
X148551000Y-104016657D02*
X148551000Y-104283323D01*
X148317667Y-104116657D02*
X148917667Y-104116657D01*
X148984333Y-104149990D01*
X149017667Y-104216657D01*
X149017667Y-104283323D01*
X149017667Y-104516657D02*
X148551000Y-104516657D01*
X148684333Y-104516657D02*
X148617667Y-104549990D01*
X148584333Y-104583323D01*
X148551000Y-104649990D01*
X148551000Y-104716657D01*
X148984333Y-105216656D02*
X149017667Y-105149990D01*
X149017667Y-105016656D01*
X148984333Y-104949990D01*
X148917667Y-104916656D01*
X148651000Y-104916656D01*
X148584333Y-104949990D01*
X148551000Y-105016656D01*
X148551000Y-105149990D01*
X148584333Y-105216656D01*
X148651000Y-105249990D01*
X148717667Y-105249990D01*
X148784333Y-104916656D01*
X148984333Y-105816656D02*
X149017667Y-105749990D01*
X149017667Y-105616656D01*
X148984333Y-105549990D01*
X148917667Y-105516656D01*
X148651000Y-105516656D01*
X148584333Y-105549990D01*
X148551000Y-105616656D01*
X148551000Y-105749990D01*
X148584333Y-105816656D01*
X148651000Y-105849990D01*
X148717667Y-105849990D01*
X148784333Y-105516656D01*
X148284333Y-106649990D02*
X149184333Y-106049990D01*
X149017667Y-106883323D02*
X148551000Y-106883323D01*
X148617667Y-106883323D02*
X148584333Y-106916656D01*
X148551000Y-106983323D01*
X148551000Y-107083323D01*
X148584333Y-107149989D01*
X148651000Y-107183323D01*
X149017667Y-107183323D01*
X148651000Y-107183323D02*
X148584333Y-107216656D01*
X148551000Y-107283323D01*
X148551000Y-107383323D01*
X148584333Y-107449989D01*
X148651000Y-107483323D01*
X149017667Y-107483323D01*
X149017667Y-108116656D02*
X148651000Y-108116656D01*
X148584333Y-108083322D01*
X148551000Y-108016656D01*
X148551000Y-107883322D01*
X148584333Y-107816656D01*
X148984333Y-108116656D02*
X149017667Y-108049989D01*
X149017667Y-107883322D01*
X148984333Y-107816656D01*
X148917667Y-107783322D01*
X148851000Y-107783322D01*
X148784333Y-107816656D01*
X148751000Y-107883322D01*
X148751000Y-108049989D01*
X148717667Y-108116656D01*
X148984333Y-108416655D02*
X149017667Y-108483322D01*
X149017667Y-108616655D01*
X148984333Y-108683322D01*
X148917667Y-108716655D01*
X148884333Y-108716655D01*
X148817667Y-108683322D01*
X148784333Y-108616655D01*
X148784333Y-108516655D01*
X148751000Y-108449989D01*
X148684333Y-108416655D01*
X148651000Y-108416655D01*
X148584333Y-108449989D01*
X148551000Y-108516655D01*
X148551000Y-108616655D01*
X148584333Y-108683322D01*
X148551000Y-108916656D02*
X148551000Y-109183322D01*
X148317667Y-109016656D02*
X148917667Y-109016656D01*
X148984333Y-109049989D01*
X149017667Y-109116656D01*
X149017667Y-109183322D01*
X148984333Y-109683322D02*
X149017667Y-109616656D01*
X149017667Y-109483322D01*
X148984333Y-109416656D01*
X148917667Y-109383322D01*
X148651000Y-109383322D01*
X148584333Y-109416656D01*
X148551000Y-109483322D01*
X148551000Y-109616656D01*
X148584333Y-109683322D01*
X148651000Y-109716656D01*
X148717667Y-109716656D01*
X148784333Y-109383322D01*
X149017667Y-110016656D02*
X148551000Y-110016656D01*
X148684333Y-110016656D02*
X148617667Y-110049989D01*
X148584333Y-110083322D01*
X148551000Y-110149989D01*
X148551000Y-110216656D01*
X148284333Y-110949989D02*
X149184333Y-110349989D01*
X149017667Y-111283322D02*
X148984333Y-111216655D01*
X148917667Y-111183322D01*
X148317667Y-111183322D01*
X148551000Y-111449989D02*
X148551000Y-111716655D01*
X148317667Y-111549989D02*
X148917667Y-111549989D01*
X148984333Y-111583322D01*
X149017667Y-111649989D01*
X149017667Y-111716655D01*
X148317667Y-111883322D02*
X148317667Y-112316655D01*
X148584333Y-112083322D01*
X148584333Y-112183322D01*
X148617667Y-112249989D01*
X148651000Y-112283322D01*
X148717667Y-112316655D01*
X148884333Y-112316655D01*
X148951000Y-112283322D01*
X148984333Y-112249989D01*
X149017667Y-112183322D01*
X149017667Y-111983322D01*
X148984333Y-111916655D01*
X148951000Y-111883322D01*
X148317667Y-112916656D02*
X148317667Y-112783322D01*
X148351000Y-112716656D01*
X148384333Y-112683322D01*
X148484333Y-112616656D01*
X148617667Y-112583322D01*
X148884333Y-112583322D01*
X148951000Y-112616656D01*
X148984333Y-112649989D01*
X149017667Y-112716656D01*
X149017667Y-112849989D01*
X148984333Y-112916656D01*
X148951000Y-112949989D01*
X148884333Y-112983322D01*
X148717667Y-112983322D01*
X148651000Y-112949989D01*
X148617667Y-112916656D01*
X148584333Y-112849989D01*
X148584333Y-112716656D01*
X148617667Y-112649989D01*
X148651000Y-112616656D01*
X148717667Y-112583322D01*
X148317667Y-113616656D02*
X148317667Y-113283323D01*
X148651000Y-113249989D01*
X148617667Y-113283323D01*
X148584333Y-113349989D01*
X148584333Y-113516656D01*
X148617667Y-113583323D01*
X148651000Y-113616656D01*
X148717667Y-113649989D01*
X148884333Y-113649989D01*
X148951000Y-113616656D01*
X148984333Y-113583323D01*
X149017667Y-113516656D01*
X149017667Y-113349989D01*
X148984333Y-113283323D01*
X148951000Y-113249989D01*
X148384333Y-113916656D02*
X148351000Y-113949990D01*
X148317667Y-114016656D01*
X148317667Y-114183323D01*
X148351000Y-114249990D01*
X148384333Y-114283323D01*
X148451000Y-114316656D01*
X148517667Y-114316656D01*
X148617667Y-114283323D01*
X149017667Y-113883323D01*
X149017667Y-114316656D01*
X149084333Y-114449990D02*
X149084333Y-114983323D01*
X149017667Y-115149990D02*
X148317667Y-115149990D01*
X148584333Y-115149990D02*
X148551000Y-115216656D01*
X148551000Y-115349990D01*
X148584333Y-115416656D01*
X148617667Y-115449990D01*
X148684333Y-115483323D01*
X148884333Y-115483323D01*
X148951000Y-115449990D01*
X148984333Y-115416656D01*
X149017667Y-115349990D01*
X149017667Y-115216656D01*
X148984333Y-115149990D01*
X149017667Y-115783323D02*
X148551000Y-115783323D01*
X148684333Y-115783323D02*
X148617667Y-115816656D01*
X148584333Y-115849989D01*
X148551000Y-115916656D01*
X148551000Y-115983323D01*
X148984333Y-116483322D02*
X149017667Y-116416656D01*
X149017667Y-116283322D01*
X148984333Y-116216656D01*
X148917667Y-116183322D01*
X148651000Y-116183322D01*
X148584333Y-116216656D01*
X148551000Y-116283322D01*
X148551000Y-116416656D01*
X148584333Y-116483322D01*
X148651000Y-116516656D01*
X148717667Y-116516656D01*
X148784333Y-116183322D01*
X149017667Y-117116656D02*
X148651000Y-117116656D01*
X148584333Y-117083322D01*
X148551000Y-117016656D01*
X148551000Y-116883322D01*
X148584333Y-116816656D01*
X148984333Y-117116656D02*
X149017667Y-117049989D01*
X149017667Y-116883322D01*
X148984333Y-116816656D01*
X148917667Y-116783322D01*
X148851000Y-116783322D01*
X148784333Y-116816656D01*
X148751000Y-116883322D01*
X148751000Y-117049989D01*
X148717667Y-117116656D01*
X149017667Y-117449989D02*
X148317667Y-117449989D01*
X148751000Y-117516655D02*
X149017667Y-117716655D01*
X148551000Y-117716655D02*
X148817667Y-117449989D01*
X149017667Y-118116656D02*
X148984333Y-118049989D01*
X148951000Y-118016656D01*
X148884333Y-117983322D01*
X148684333Y-117983322D01*
X148617667Y-118016656D01*
X148584333Y-118049989D01*
X148551000Y-118116656D01*
X148551000Y-118216656D01*
X148584333Y-118283322D01*
X148617667Y-118316656D01*
X148684333Y-118349989D01*
X148884333Y-118349989D01*
X148951000Y-118316656D01*
X148984333Y-118283322D01*
X149017667Y-118216656D01*
X149017667Y-118116656D01*
X148551000Y-118949989D02*
X149017667Y-118949989D01*
X148551000Y-118649989D02*
X148917667Y-118649989D01*
X148984333Y-118683322D01*
X149017667Y-118749989D01*
X149017667Y-118849989D01*
X148984333Y-118916655D01*
X148951000Y-118949989D01*
X148551000Y-119183322D02*
X148551000Y-119449988D01*
X148317667Y-119283322D02*
X148917667Y-119283322D01*
X148984333Y-119316655D01*
X149017667Y-119383322D01*
X149017667Y-119449988D01*
X150147667Y-73916667D02*
X149447667Y-73916667D01*
X149447667Y-74083333D01*
X149481000Y-74183333D01*
X149547667Y-74250000D01*
X149614333Y-74283333D01*
X149747667Y-74316667D01*
X149847667Y-74316667D01*
X149981000Y-74283333D01*
X150047667Y-74250000D01*
X150114333Y-74183333D01*
X150147667Y-74083333D01*
X150147667Y-73916667D01*
X150147667Y-74916667D02*
X149781000Y-74916667D01*
X149714333Y-74883333D01*
X149681000Y-74816667D01*
X149681000Y-74683333D01*
X149714333Y-74616667D01*
X150114333Y-74916667D02*
X150147667Y-74850000D01*
X150147667Y-74683333D01*
X150114333Y-74616667D01*
X150047667Y-74583333D01*
X149981000Y-74583333D01*
X149914333Y-74616667D01*
X149881000Y-74683333D01*
X149881000Y-74850000D01*
X149847667Y-74916667D01*
X149681000Y-75150000D02*
X149681000Y-75416666D01*
X149447667Y-75250000D02*
X150047667Y-75250000D01*
X150114333Y-75283333D01*
X150147667Y-75350000D01*
X150147667Y-75416666D01*
X150114333Y-75916666D02*
X150147667Y-75850000D01*
X150147667Y-75716666D01*
X150114333Y-75650000D01*
X150047667Y-75616666D01*
X149781000Y-75616666D01*
X149714333Y-75650000D01*
X149681000Y-75716666D01*
X149681000Y-75850000D01*
X149714333Y-75916666D01*
X149781000Y-75950000D01*
X149847667Y-75950000D01*
X149914333Y-75616666D01*
X150081000Y-76250000D02*
X150114333Y-76283333D01*
X150147667Y-76250000D01*
X150114333Y-76216666D01*
X150081000Y-76250000D01*
X150147667Y-76250000D01*
X149714333Y-76250000D02*
X149747667Y-76283333D01*
X149781000Y-76250000D01*
X149747667Y-76216666D01*
X149714333Y-76250000D01*
X149781000Y-76250000D01*
X149447667Y-77249999D02*
X149447667Y-77316666D01*
X149481000Y-77383332D01*
X149514333Y-77416666D01*
X149581000Y-77449999D01*
X149714333Y-77483332D01*
X149881000Y-77483332D01*
X150014333Y-77449999D01*
X150081000Y-77416666D01*
X150114333Y-77383332D01*
X150147667Y-77316666D01*
X150147667Y-77249999D01*
X150114333Y-77183332D01*
X150081000Y-77149999D01*
X150014333Y-77116666D01*
X149881000Y-77083332D01*
X149714333Y-77083332D01*
X149581000Y-77116666D01*
X149514333Y-77149999D01*
X149481000Y-77183332D01*
X149447667Y-77249999D01*
X149447667Y-78083333D02*
X149447667Y-77949999D01*
X149481000Y-77883333D01*
X149514333Y-77849999D01*
X149614333Y-77783333D01*
X149747667Y-77749999D01*
X150014333Y-77749999D01*
X150081000Y-77783333D01*
X150114333Y-77816666D01*
X150147667Y-77883333D01*
X150147667Y-78016666D01*
X150114333Y-78083333D01*
X150081000Y-78116666D01*
X150014333Y-78149999D01*
X149847667Y-78149999D01*
X149781000Y-78116666D01*
X149747667Y-78083333D01*
X149714333Y-78016666D01*
X149714333Y-77883333D01*
X149747667Y-77816666D01*
X149781000Y-77783333D01*
X149847667Y-77749999D01*
X149881000Y-78450000D02*
X149881000Y-78983333D01*
X149447667Y-79450000D02*
X149447667Y-79516667D01*
X149481000Y-79583333D01*
X149514333Y-79616667D01*
X149581000Y-79650000D01*
X149714333Y-79683333D01*
X149881000Y-79683333D01*
X150014333Y-79650000D01*
X150081000Y-79616667D01*
X150114333Y-79583333D01*
X150147667Y-79516667D01*
X150147667Y-79450000D01*
X150114333Y-79383333D01*
X150081000Y-79350000D01*
X150014333Y-79316667D01*
X149881000Y-79283333D01*
X149714333Y-79283333D01*
X149581000Y-79316667D01*
X149514333Y-79350000D01*
X149481000Y-79383333D01*
X149447667Y-79450000D01*
X149447667Y-79916667D02*
X149447667Y-80350000D01*
X149714333Y-80116667D01*
X149714333Y-80216667D01*
X149747667Y-80283334D01*
X149781000Y-80316667D01*
X149847667Y-80350000D01*
X150014333Y-80350000D01*
X150081000Y-80316667D01*
X150114333Y-80283334D01*
X150147667Y-80216667D01*
X150147667Y-80016667D01*
X150114333Y-79950000D01*
X150081000Y-79916667D01*
X149881000Y-80650001D02*
X149881000Y-81183334D01*
X149514333Y-81483334D02*
X149481000Y-81516668D01*
X149447667Y-81583334D01*
X149447667Y-81750001D01*
X149481000Y-81816668D01*
X149514333Y-81850001D01*
X149581000Y-81883334D01*
X149647667Y-81883334D01*
X149747667Y-81850001D01*
X150147667Y-81450001D01*
X150147667Y-81883334D01*
X149447667Y-82316668D02*
X149447667Y-82383335D01*
X149481000Y-82450001D01*
X149514333Y-82483335D01*
X149581000Y-82516668D01*
X149714333Y-82550001D01*
X149881000Y-82550001D01*
X150014333Y-82516668D01*
X150081000Y-82483335D01*
X150114333Y-82450001D01*
X150147667Y-82383335D01*
X150147667Y-82316668D01*
X150114333Y-82250001D01*
X150081000Y-82216668D01*
X150014333Y-82183335D01*
X149881000Y-82150001D01*
X149714333Y-82150001D01*
X149581000Y-82183335D01*
X149514333Y-82216668D01*
X149481000Y-82250001D01*
X149447667Y-82316668D01*
X150147667Y-83216668D02*
X150147667Y-82816668D01*
X150147667Y-83016668D02*
X149447667Y-83016668D01*
X149547667Y-82950002D01*
X149614333Y-82883335D01*
X149647667Y-82816668D01*
X149447667Y-83816669D02*
X149447667Y-83683335D01*
X149481000Y-83616669D01*
X149514333Y-83583335D01*
X149614333Y-83516669D01*
X149747667Y-83483335D01*
X150014333Y-83483335D01*
X150081000Y-83516669D01*
X150114333Y-83550002D01*
X150147667Y-83616669D01*
X150147667Y-83750002D01*
X150114333Y-83816669D01*
X150081000Y-83850002D01*
X150014333Y-83883335D01*
X149847667Y-83883335D01*
X149781000Y-83850002D01*
X149747667Y-83816669D01*
X149714333Y-83750002D01*
X149714333Y-83616669D01*
X149747667Y-83550002D01*
X149781000Y-83516669D01*
X149847667Y-83483335D01*
M02*
