G04 #@! TF.FileFunction,Copper,L2,Bot,Signal*
%FSLAX46Y46*%
G04 Gerber Fmt 4.6, Leading zero omitted, Abs format (unit mm)*
G04 Created by KiCad (PCBNEW 4.0.1-stable) date 07/03/2016 22:46:51*
%MOMM*%
G01*
G04 APERTURE LIST*
%ADD10C,0.100000*%
%ADD11C,4.500120*%
%ADD12C,1.000000*%
%ADD13R,1.727200X2.032000*%
%ADD14O,1.727200X2.032000*%
%ADD15R,1.699260X1.198880*%
%ADD16O,1.699260X1.198880*%
%ADD17R,2.032000X1.727200*%
%ADD18O,2.032000X1.727200*%
%ADD19R,1.300000X1.300000*%
%ADD20C,1.300000*%
%ADD21C,1.500000*%
%ADD22R,4.500000X1.500000*%
%ADD23R,1.198880X1.699260*%
%ADD24O,1.198880X1.699260*%
%ADD25R,2.000000X2.000000*%
%ADD26C,2.000000*%
%ADD27C,1.699260*%
%ADD28R,1.699260X1.699260*%
%ADD29C,0.600000*%
%ADD30C,0.400000*%
%ADD31C,0.500000*%
%ADD32C,0.254000*%
G04 APERTURE END LIST*
D10*
D11*
X121066000Y-116200000D03*
X121066000Y-76400000D03*
X165866000Y-76400000D03*
X165866000Y-116200000D03*
D12*
X120366000Y-93780000D03*
X122906000Y-91240000D03*
X117826000Y-91240000D03*
D13*
X126366000Y-108550000D03*
D14*
X128906000Y-108550000D03*
X131446000Y-108550000D03*
D12*
X120366000Y-85980000D03*
X122906000Y-83440000D03*
X117826000Y-83440000D03*
D13*
X126366000Y-118550000D03*
D14*
X128906000Y-118550000D03*
X131446000Y-118550000D03*
D12*
X145266000Y-84650000D03*
X140266000Y-84650000D03*
D15*
X167866000Y-110350760D03*
D16*
X167866000Y-108349240D03*
D13*
X131466000Y-113550000D03*
D14*
X128926000Y-113550000D03*
X126386000Y-113550000D03*
D15*
X167866000Y-102050760D03*
D16*
X167866000Y-100049240D03*
D17*
X126066000Y-97250000D03*
D18*
X126066000Y-99790000D03*
X126066000Y-102330000D03*
D19*
X161036000Y-99314000D03*
D20*
X161036000Y-101814000D03*
D21*
X160966000Y-85250000D03*
X160966000Y-90250000D03*
D22*
X160466000Y-94600000D03*
X160466000Y-80900000D03*
D23*
X134066760Y-74750000D03*
D24*
X132065240Y-74750000D03*
D25*
X121166000Y-97850000D03*
D26*
X118626000Y-97850000D03*
D25*
X121166000Y-103850000D03*
D26*
X118626000Y-103850000D03*
D17*
X155366000Y-109550000D03*
D18*
X155366000Y-107010000D03*
X155366000Y-104470000D03*
D23*
X144566760Y-74750000D03*
D24*
X142565240Y-74750000D03*
D27*
X152168540Y-101510520D03*
D28*
X152168540Y-91350520D03*
D29*
X147766000Y-102050000D03*
X147766000Y-98550000D03*
X150666000Y-99350000D03*
X138666000Y-100850000D03*
X138666000Y-96550000D03*
X133066000Y-92750000D03*
X146966000Y-103250000D03*
D30*
X131466000Y-113550000D02*
X132066000Y-113550000D01*
X132066000Y-113550000D02*
X137466000Y-108150000D01*
X137466000Y-108150000D02*
X137466000Y-103250000D01*
X133066000Y-92750000D02*
X130766000Y-92750000D01*
X118626000Y-96390000D02*
X118626000Y-97850000D01*
X119966000Y-95050000D02*
X118626000Y-96390000D01*
X128466000Y-95050000D02*
X119966000Y-95050000D01*
X130766000Y-92750000D02*
X128466000Y-95050000D01*
X118626000Y-103850000D02*
X118626000Y-97850000D01*
D31*
X133066000Y-98850000D02*
X133066000Y-92750000D01*
X137466000Y-103250000D02*
X133066000Y-98850000D01*
X146966000Y-103250000D02*
X137466000Y-103250000D01*
D30*
X126386000Y-113550000D02*
X125066000Y-113550000D01*
X123866000Y-104530000D02*
X126066000Y-102330000D01*
X123866000Y-112350000D02*
X123866000Y-104530000D01*
X125066000Y-113550000D02*
X123866000Y-112350000D01*
D31*
X155366000Y-107010000D02*
X155906000Y-107010000D01*
X155906000Y-107010000D02*
X158466000Y-104450000D01*
X158466000Y-104450000D02*
X158466000Y-101884000D01*
X158466000Y-101884000D02*
X161036000Y-99314000D01*
D32*
G36*
X170356000Y-120840000D02*
X116576000Y-120840000D01*
X116576000Y-116771356D01*
X118180440Y-116771356D01*
X118618739Y-117832120D01*
X119429611Y-118644409D01*
X120489608Y-119084558D01*
X121637356Y-119085560D01*
X122241942Y-118835750D01*
X124867400Y-118835750D01*
X124867400Y-119692309D01*
X124964073Y-119925698D01*
X125142701Y-120104327D01*
X125376090Y-120201000D01*
X126080250Y-120201000D01*
X126239000Y-120042250D01*
X126239000Y-118677000D01*
X125026150Y-118677000D01*
X124867400Y-118835750D01*
X122241942Y-118835750D01*
X122698120Y-118647261D01*
X123510409Y-117836389D01*
X123688419Y-117407691D01*
X124867400Y-117407691D01*
X124867400Y-118264250D01*
X125026150Y-118423000D01*
X126239000Y-118423000D01*
X126239000Y-117057750D01*
X126493000Y-117057750D01*
X126493000Y-118423000D01*
X126513000Y-118423000D01*
X126513000Y-118677000D01*
X126493000Y-118677000D01*
X126493000Y-120042250D01*
X126651750Y-120201000D01*
X127355910Y-120201000D01*
X127589299Y-120104327D01*
X127767927Y-119925698D01*
X127831500Y-119772220D01*
X127846330Y-119794415D01*
X128332511Y-120119271D01*
X128906000Y-120233345D01*
X129479489Y-120119271D01*
X129965670Y-119794415D01*
X130176000Y-119479634D01*
X130386330Y-119794415D01*
X130872511Y-120119271D01*
X131446000Y-120233345D01*
X132019489Y-120119271D01*
X132505670Y-119794415D01*
X132830526Y-119308234D01*
X132944600Y-118734745D01*
X132944600Y-118365255D01*
X132830526Y-117791766D01*
X132505670Y-117305585D01*
X132019489Y-116980729D01*
X131446000Y-116866655D01*
X130872511Y-116980729D01*
X130386330Y-117305585D01*
X130176000Y-117620366D01*
X129965670Y-117305585D01*
X129479489Y-116980729D01*
X128906000Y-116866655D01*
X128332511Y-116980729D01*
X127846330Y-117305585D01*
X127831500Y-117327780D01*
X127767927Y-117174302D01*
X127589299Y-116995673D01*
X127355910Y-116899000D01*
X126651750Y-116899000D01*
X126493000Y-117057750D01*
X126239000Y-117057750D01*
X126080250Y-116899000D01*
X125376090Y-116899000D01*
X125142701Y-116995673D01*
X124964073Y-117174302D01*
X124867400Y-117407691D01*
X123688419Y-117407691D01*
X123950558Y-116776392D01*
X123950562Y-116771356D01*
X162980440Y-116771356D01*
X163418739Y-117832120D01*
X164229611Y-118644409D01*
X165289608Y-119084558D01*
X166437356Y-119085560D01*
X167498120Y-118647261D01*
X168310409Y-117836389D01*
X168750558Y-116776392D01*
X168751560Y-115628644D01*
X168313261Y-114567880D01*
X167502389Y-113755591D01*
X166442392Y-113315442D01*
X165294644Y-113314440D01*
X164233880Y-113752739D01*
X163421591Y-114563611D01*
X162981442Y-115623608D01*
X162980440Y-116771356D01*
X123950562Y-116771356D01*
X123951560Y-115628644D01*
X123513261Y-114567880D01*
X122702389Y-113755591D01*
X121642392Y-113315442D01*
X120494644Y-113314440D01*
X119433880Y-113752739D01*
X118621591Y-114563611D01*
X118181442Y-115623608D01*
X118180440Y-116771356D01*
X116576000Y-116771356D01*
X116576000Y-98173795D01*
X116990716Y-98173795D01*
X117239106Y-98774943D01*
X117698637Y-99235278D01*
X117791000Y-99273630D01*
X117791000Y-102425942D01*
X117701057Y-102463106D01*
X117240722Y-102922637D01*
X116991284Y-103523352D01*
X116990716Y-104173795D01*
X117239106Y-104774943D01*
X117698637Y-105235278D01*
X118299352Y-105484716D01*
X118949795Y-105485284D01*
X119550943Y-105236894D01*
X119617574Y-105170379D01*
X119701910Y-105301441D01*
X119914110Y-105446431D01*
X120166000Y-105497440D01*
X122166000Y-105497440D01*
X122401317Y-105453162D01*
X122617441Y-105314090D01*
X122762431Y-105101890D01*
X122813440Y-104850000D01*
X122813440Y-102850000D01*
X122769162Y-102614683D01*
X122630090Y-102398559D01*
X122417890Y-102253569D01*
X122166000Y-102202560D01*
X120166000Y-102202560D01*
X119930683Y-102246838D01*
X119714559Y-102385910D01*
X119617090Y-102528561D01*
X119553363Y-102464722D01*
X119461000Y-102426370D01*
X119461000Y-99274058D01*
X119550943Y-99236894D01*
X119617574Y-99170379D01*
X119701910Y-99301441D01*
X119914110Y-99446431D01*
X120166000Y-99497440D01*
X122166000Y-99497440D01*
X122401317Y-99453162D01*
X122617441Y-99314090D01*
X122762431Y-99101890D01*
X122813440Y-98850000D01*
X122813440Y-96850000D01*
X122769162Y-96614683D01*
X122630090Y-96398559D01*
X122417890Y-96253569D01*
X122166000Y-96202560D01*
X120166000Y-96202560D01*
X119954514Y-96242354D01*
X120311868Y-95885000D01*
X124656540Y-95885000D01*
X124598559Y-95922310D01*
X124453569Y-96134510D01*
X124402560Y-96386400D01*
X124402560Y-98113600D01*
X124446838Y-98348917D01*
X124585910Y-98565041D01*
X124798110Y-98710031D01*
X124839439Y-98718400D01*
X124821585Y-98730330D01*
X124496729Y-99216511D01*
X124382655Y-99790000D01*
X124496729Y-100363489D01*
X124821585Y-100849670D01*
X125136366Y-101060000D01*
X124821585Y-101270330D01*
X124496729Y-101756511D01*
X124382655Y-102330000D01*
X124466021Y-102749111D01*
X123275566Y-103939566D01*
X123094561Y-104210459D01*
X123031000Y-104530000D01*
X123031000Y-112350000D01*
X123094561Y-112669541D01*
X123275566Y-112940434D01*
X124475566Y-114140434D01*
X124746459Y-114321439D01*
X125050739Y-114381964D01*
X125326330Y-114794415D01*
X125812511Y-115119271D01*
X126386000Y-115233345D01*
X126959489Y-115119271D01*
X127445670Y-114794415D01*
X127656000Y-114479634D01*
X127866330Y-114794415D01*
X128352511Y-115119271D01*
X128926000Y-115233345D01*
X129499489Y-115119271D01*
X129985670Y-114794415D01*
X129995243Y-114780087D01*
X129999238Y-114801317D01*
X130138310Y-115017441D01*
X130350510Y-115162431D01*
X130602400Y-115213440D01*
X132329600Y-115213440D01*
X132564917Y-115169162D01*
X132781041Y-115030090D01*
X132926031Y-114817890D01*
X132977040Y-114566000D01*
X132977040Y-113819828D01*
X138056434Y-108740434D01*
X138105661Y-108666761D01*
X138237439Y-108469541D01*
X138301000Y-108150000D01*
X138301000Y-104470000D01*
X153682655Y-104470000D01*
X153796729Y-105043489D01*
X154121585Y-105529670D01*
X154436366Y-105740000D01*
X154121585Y-105950330D01*
X153796729Y-106436511D01*
X153682655Y-107010000D01*
X153796729Y-107583489D01*
X154121585Y-108069670D01*
X154135913Y-108079243D01*
X154114683Y-108083238D01*
X153898559Y-108222310D01*
X153753569Y-108434510D01*
X153702560Y-108686400D01*
X153702560Y-110413600D01*
X153746838Y-110648917D01*
X153885910Y-110865041D01*
X154098110Y-111010031D01*
X154350000Y-111061040D01*
X156382000Y-111061040D01*
X156617317Y-111016762D01*
X156833441Y-110877690D01*
X156978431Y-110665490D01*
X157029440Y-110413600D01*
X157029440Y-109751320D01*
X166368930Y-109751320D01*
X166368930Y-110950200D01*
X166413208Y-111185517D01*
X166552280Y-111401641D01*
X166764480Y-111546631D01*
X167016370Y-111597640D01*
X168715630Y-111597640D01*
X168950947Y-111553362D01*
X169167071Y-111414290D01*
X169312061Y-111202090D01*
X169363070Y-110950200D01*
X169363070Y-109751320D01*
X169318792Y-109516003D01*
X169179720Y-109299879D01*
X169025757Y-109194681D01*
X169047568Y-109178197D01*
X169293899Y-108758673D01*
X169309095Y-108666761D01*
X169184357Y-108476240D01*
X167993000Y-108476240D01*
X167993000Y-108496240D01*
X167739000Y-108496240D01*
X167739000Y-108476240D01*
X166547643Y-108476240D01*
X166422905Y-108666761D01*
X166438101Y-108758673D01*
X166684432Y-109178197D01*
X166707398Y-109195554D01*
X166564929Y-109287230D01*
X166419939Y-109499430D01*
X166368930Y-109751320D01*
X157029440Y-109751320D01*
X157029440Y-108686400D01*
X156985162Y-108451083D01*
X156846090Y-108234959D01*
X156633890Y-108089969D01*
X156592561Y-108081600D01*
X156610415Y-108069670D01*
X156635773Y-108031719D01*
X166422905Y-108031719D01*
X166547643Y-108222240D01*
X167739000Y-108222240D01*
X167739000Y-107267240D01*
X167993000Y-107267240D01*
X167993000Y-108222240D01*
X169184357Y-108222240D01*
X169309095Y-108031719D01*
X169293899Y-107939807D01*
X169047568Y-107520283D01*
X168659443Y-107226961D01*
X168188613Y-107104495D01*
X167993000Y-107267240D01*
X167739000Y-107267240D01*
X167543387Y-107104495D01*
X167072557Y-107226961D01*
X166684432Y-107520283D01*
X166438101Y-107939807D01*
X166422905Y-108031719D01*
X156635773Y-108031719D01*
X156935271Y-107583489D01*
X157022470Y-107145110D01*
X159091787Y-105075792D01*
X159091790Y-105075790D01*
X159283633Y-104788675D01*
X159294810Y-104732484D01*
X159351001Y-104450000D01*
X159351000Y-104449995D01*
X159351000Y-102713016D01*
X160316590Y-102713016D01*
X160372271Y-102943611D01*
X160855078Y-103111622D01*
X161365428Y-103082083D01*
X161699729Y-102943611D01*
X161755410Y-102713016D01*
X161036000Y-101993605D01*
X160316590Y-102713016D01*
X159351000Y-102713016D01*
X159351000Y-102250580D01*
X159750969Y-101850611D01*
X159767917Y-102143428D01*
X159906389Y-102477729D01*
X160136984Y-102533410D01*
X160856395Y-101814000D01*
X161215605Y-101814000D01*
X161935016Y-102533410D01*
X162165611Y-102477729D01*
X162333622Y-101994922D01*
X162304083Y-101484572D01*
X162290310Y-101451320D01*
X166368930Y-101451320D01*
X166368930Y-102650200D01*
X166413208Y-102885517D01*
X166552280Y-103101641D01*
X166764480Y-103246631D01*
X167016370Y-103297640D01*
X168715630Y-103297640D01*
X168950947Y-103253362D01*
X169167071Y-103114290D01*
X169312061Y-102902090D01*
X169363070Y-102650200D01*
X169363070Y-101451320D01*
X169318792Y-101216003D01*
X169179720Y-100999879D01*
X169025757Y-100894681D01*
X169047568Y-100878197D01*
X169293899Y-100458673D01*
X169309095Y-100366761D01*
X169184357Y-100176240D01*
X167993000Y-100176240D01*
X167993000Y-100196240D01*
X167739000Y-100196240D01*
X167739000Y-100176240D01*
X166547643Y-100176240D01*
X166422905Y-100366761D01*
X166438101Y-100458673D01*
X166684432Y-100878197D01*
X166707398Y-100895554D01*
X166564929Y-100987230D01*
X166419939Y-101199430D01*
X166368930Y-101451320D01*
X162290310Y-101451320D01*
X162165611Y-101150271D01*
X161935016Y-101094590D01*
X161215605Y-101814000D01*
X160856395Y-101814000D01*
X160842252Y-101799858D01*
X161021858Y-101620252D01*
X161036000Y-101634395D01*
X161755410Y-100914984D01*
X161699729Y-100684389D01*
X161490098Y-100611440D01*
X161686000Y-100611440D01*
X161921317Y-100567162D01*
X162137441Y-100428090D01*
X162282431Y-100215890D01*
X162333440Y-99964000D01*
X162333440Y-99731719D01*
X166422905Y-99731719D01*
X166547643Y-99922240D01*
X167739000Y-99922240D01*
X167739000Y-98967240D01*
X167993000Y-98967240D01*
X167993000Y-99922240D01*
X169184357Y-99922240D01*
X169309095Y-99731719D01*
X169293899Y-99639807D01*
X169047568Y-99220283D01*
X168659443Y-98926961D01*
X168188613Y-98804495D01*
X167993000Y-98967240D01*
X167739000Y-98967240D01*
X167543387Y-98804495D01*
X167072557Y-98926961D01*
X166684432Y-99220283D01*
X166438101Y-99639807D01*
X166422905Y-99731719D01*
X162333440Y-99731719D01*
X162333440Y-98664000D01*
X162289162Y-98428683D01*
X162150090Y-98212559D01*
X161937890Y-98067569D01*
X161686000Y-98016560D01*
X160386000Y-98016560D01*
X160150683Y-98060838D01*
X159934559Y-98199910D01*
X159789569Y-98412110D01*
X159738560Y-98664000D01*
X159738560Y-99359861D01*
X157840210Y-101258210D01*
X157648367Y-101545325D01*
X157648367Y-101545326D01*
X157580999Y-101884000D01*
X157581000Y-101884005D01*
X157581000Y-104083421D01*
X157013322Y-104651098D01*
X157049345Y-104470000D01*
X156935271Y-103896511D01*
X156610415Y-103410330D01*
X156124234Y-103085474D01*
X155550745Y-102971400D01*
X155181255Y-102971400D01*
X154607766Y-103085474D01*
X154121585Y-103410330D01*
X153796729Y-103896511D01*
X153682655Y-104470000D01*
X138301000Y-104470000D01*
X138301000Y-104135000D01*
X146659178Y-104135000D01*
X146779201Y-104184838D01*
X147151167Y-104185162D01*
X147494943Y-104043117D01*
X147758192Y-103780327D01*
X147900838Y-103436799D01*
X147901162Y-103064833D01*
X147759117Y-102721057D01*
X147496327Y-102457808D01*
X147152799Y-102315162D01*
X146780833Y-102314838D01*
X146659431Y-102365000D01*
X137832579Y-102365000D01*
X137272116Y-101804536D01*
X150683652Y-101804536D01*
X150909198Y-102350397D01*
X151326466Y-102768394D01*
X151871933Y-102994892D01*
X152462556Y-102995408D01*
X153008417Y-102769862D01*
X153426414Y-102352594D01*
X153652912Y-101807127D01*
X153653428Y-101216504D01*
X153427882Y-100670643D01*
X153010614Y-100252646D01*
X152465147Y-100026148D01*
X151874524Y-100025632D01*
X151328663Y-100251178D01*
X150910666Y-100668446D01*
X150684168Y-101213913D01*
X150683652Y-101804536D01*
X137272116Y-101804536D01*
X133951000Y-98483420D01*
X133951000Y-93850000D01*
X157568560Y-93850000D01*
X157568560Y-95350000D01*
X157612838Y-95585317D01*
X157751910Y-95801441D01*
X157964110Y-95946431D01*
X158216000Y-95997440D01*
X162716000Y-95997440D01*
X162951317Y-95953162D01*
X163167441Y-95814090D01*
X163312431Y-95601890D01*
X163363440Y-95350000D01*
X163363440Y-93850000D01*
X163319162Y-93614683D01*
X163180090Y-93398559D01*
X162967890Y-93253569D01*
X162716000Y-93202560D01*
X158216000Y-93202560D01*
X157980683Y-93246838D01*
X157764559Y-93385910D01*
X157619569Y-93598110D01*
X157568560Y-93850000D01*
X133951000Y-93850000D01*
X133951000Y-93056822D01*
X134000838Y-92936799D01*
X134001162Y-92564833D01*
X133859117Y-92221057D01*
X133596327Y-91957808D01*
X133252799Y-91815162D01*
X132880833Y-91814838D01*
X132638422Y-91915000D01*
X130766000Y-91915000D01*
X130446459Y-91978561D01*
X130228480Y-92124210D01*
X130175566Y-92159566D01*
X128120132Y-94215000D01*
X121414332Y-94215000D01*
X121500803Y-94006756D01*
X121501197Y-93555225D01*
X121328767Y-93137914D01*
X121009765Y-92818355D01*
X120592756Y-92645197D01*
X120141225Y-92644803D01*
X119723914Y-92817233D01*
X119404355Y-93136235D01*
X119231197Y-93553244D01*
X119230803Y-94004775D01*
X119403233Y-94422086D01*
X119414607Y-94433480D01*
X119375566Y-94459566D01*
X118035566Y-95799566D01*
X117854561Y-96070459D01*
X117791000Y-96390000D01*
X117791000Y-96425942D01*
X117701057Y-96463106D01*
X117240722Y-96922637D01*
X116991284Y-97523352D01*
X116990716Y-98173795D01*
X116576000Y-98173795D01*
X116576000Y-91464775D01*
X116690803Y-91464775D01*
X116863233Y-91882086D01*
X117182235Y-92201645D01*
X117599244Y-92374803D01*
X118050775Y-92375197D01*
X118468086Y-92202767D01*
X118787645Y-91883765D01*
X118960803Y-91466756D01*
X118960804Y-91464775D01*
X121770803Y-91464775D01*
X121943233Y-91882086D01*
X122262235Y-92201645D01*
X122679244Y-92374803D01*
X123130775Y-92375197D01*
X123548086Y-92202767D01*
X123867645Y-91883765D01*
X124040803Y-91466756D01*
X124041197Y-91015225D01*
X123868767Y-90597914D01*
X123771913Y-90500890D01*
X150671470Y-90500890D01*
X150671470Y-92200150D01*
X150715748Y-92435467D01*
X150854820Y-92651591D01*
X151067020Y-92796581D01*
X151318910Y-92847590D01*
X153018170Y-92847590D01*
X153253487Y-92803312D01*
X153469611Y-92664240D01*
X153614601Y-92452040D01*
X153665610Y-92200150D01*
X153665610Y-90524285D01*
X159580760Y-90524285D01*
X159791169Y-91033515D01*
X160180436Y-91423461D01*
X160689298Y-91634759D01*
X161240285Y-91635240D01*
X161749515Y-91424831D01*
X162139461Y-91035564D01*
X162350759Y-90526702D01*
X162351240Y-89975715D01*
X162140831Y-89466485D01*
X161751564Y-89076539D01*
X161242702Y-88865241D01*
X160691715Y-88864760D01*
X160182485Y-89075169D01*
X159792539Y-89464436D01*
X159581241Y-89973298D01*
X159580760Y-90524285D01*
X153665610Y-90524285D01*
X153665610Y-90500890D01*
X153621332Y-90265573D01*
X153482260Y-90049449D01*
X153270060Y-89904459D01*
X153018170Y-89853450D01*
X151318910Y-89853450D01*
X151083593Y-89897728D01*
X150867469Y-90036800D01*
X150722479Y-90249000D01*
X150671470Y-90500890D01*
X123771913Y-90500890D01*
X123549765Y-90278355D01*
X123132756Y-90105197D01*
X122681225Y-90104803D01*
X122263914Y-90277233D01*
X121944355Y-90596235D01*
X121771197Y-91013244D01*
X121770803Y-91464775D01*
X118960804Y-91464775D01*
X118961197Y-91015225D01*
X118788767Y-90597914D01*
X118469765Y-90278355D01*
X118052756Y-90105197D01*
X117601225Y-90104803D01*
X117183914Y-90277233D01*
X116864355Y-90596235D01*
X116691197Y-91013244D01*
X116690803Y-91464775D01*
X116576000Y-91464775D01*
X116576000Y-86204775D01*
X119230803Y-86204775D01*
X119403233Y-86622086D01*
X119722235Y-86941645D01*
X120139244Y-87114803D01*
X120590775Y-87115197D01*
X121008086Y-86942767D01*
X121327645Y-86623765D01*
X121500803Y-86206756D01*
X121501197Y-85755225D01*
X121328767Y-85337914D01*
X121009765Y-85018355D01*
X120663988Y-84874775D01*
X139130803Y-84874775D01*
X139303233Y-85292086D01*
X139622235Y-85611645D01*
X140039244Y-85784803D01*
X140490775Y-85785197D01*
X140908086Y-85612767D01*
X141227645Y-85293765D01*
X141400803Y-84876756D01*
X141400804Y-84874775D01*
X144130803Y-84874775D01*
X144303233Y-85292086D01*
X144622235Y-85611645D01*
X145039244Y-85784803D01*
X145490775Y-85785197D01*
X145908086Y-85612767D01*
X145996722Y-85524285D01*
X159580760Y-85524285D01*
X159791169Y-86033515D01*
X160180436Y-86423461D01*
X160689298Y-86634759D01*
X161240285Y-86635240D01*
X161749515Y-86424831D01*
X162139461Y-86035564D01*
X162350759Y-85526702D01*
X162351240Y-84975715D01*
X162140831Y-84466485D01*
X161751564Y-84076539D01*
X161242702Y-83865241D01*
X160691715Y-83864760D01*
X160182485Y-84075169D01*
X159792539Y-84464436D01*
X159581241Y-84973298D01*
X159580760Y-85524285D01*
X145996722Y-85524285D01*
X146227645Y-85293765D01*
X146400803Y-84876756D01*
X146401197Y-84425225D01*
X146228767Y-84007914D01*
X145909765Y-83688355D01*
X145492756Y-83515197D01*
X145041225Y-83514803D01*
X144623914Y-83687233D01*
X144304355Y-84006235D01*
X144131197Y-84423244D01*
X144130803Y-84874775D01*
X141400804Y-84874775D01*
X141401197Y-84425225D01*
X141228767Y-84007914D01*
X140909765Y-83688355D01*
X140492756Y-83515197D01*
X140041225Y-83514803D01*
X139623914Y-83687233D01*
X139304355Y-84006235D01*
X139131197Y-84423244D01*
X139130803Y-84874775D01*
X120663988Y-84874775D01*
X120592756Y-84845197D01*
X120141225Y-84844803D01*
X119723914Y-85017233D01*
X119404355Y-85336235D01*
X119231197Y-85753244D01*
X119230803Y-86204775D01*
X116576000Y-86204775D01*
X116576000Y-83664775D01*
X116690803Y-83664775D01*
X116863233Y-84082086D01*
X117182235Y-84401645D01*
X117599244Y-84574803D01*
X118050775Y-84575197D01*
X118468086Y-84402767D01*
X118787645Y-84083765D01*
X118960803Y-83666756D01*
X118960804Y-83664775D01*
X121770803Y-83664775D01*
X121943233Y-84082086D01*
X122262235Y-84401645D01*
X122679244Y-84574803D01*
X123130775Y-84575197D01*
X123548086Y-84402767D01*
X123867645Y-84083765D01*
X124040803Y-83666756D01*
X124041197Y-83215225D01*
X123868767Y-82797914D01*
X123549765Y-82478355D01*
X123132756Y-82305197D01*
X122681225Y-82304803D01*
X122263914Y-82477233D01*
X121944355Y-82796235D01*
X121771197Y-83213244D01*
X121770803Y-83664775D01*
X118960804Y-83664775D01*
X118961197Y-83215225D01*
X118788767Y-82797914D01*
X118469765Y-82478355D01*
X118052756Y-82305197D01*
X117601225Y-82304803D01*
X117183914Y-82477233D01*
X116864355Y-82796235D01*
X116691197Y-83213244D01*
X116690803Y-83664775D01*
X116576000Y-83664775D01*
X116576000Y-80150000D01*
X157568560Y-80150000D01*
X157568560Y-81650000D01*
X157612838Y-81885317D01*
X157751910Y-82101441D01*
X157964110Y-82246431D01*
X158216000Y-82297440D01*
X162716000Y-82297440D01*
X162951317Y-82253162D01*
X163167441Y-82114090D01*
X163312431Y-81901890D01*
X163363440Y-81650000D01*
X163363440Y-80150000D01*
X163319162Y-79914683D01*
X163180090Y-79698559D01*
X162967890Y-79553569D01*
X162716000Y-79502560D01*
X158216000Y-79502560D01*
X157980683Y-79546838D01*
X157764559Y-79685910D01*
X157619569Y-79898110D01*
X157568560Y-80150000D01*
X116576000Y-80150000D01*
X116576000Y-76971356D01*
X118180440Y-76971356D01*
X118618739Y-78032120D01*
X119429611Y-78844409D01*
X120489608Y-79284558D01*
X121637356Y-79285560D01*
X122698120Y-78847261D01*
X123510409Y-78036389D01*
X123950558Y-76976392D01*
X123950562Y-76971356D01*
X162980440Y-76971356D01*
X163418739Y-78032120D01*
X164229611Y-78844409D01*
X165289608Y-79284558D01*
X166437356Y-79285560D01*
X167498120Y-78847261D01*
X168310409Y-78036389D01*
X168750558Y-76976392D01*
X168751560Y-75828644D01*
X168313261Y-74767880D01*
X167502389Y-73955591D01*
X166442392Y-73515442D01*
X165294644Y-73514440D01*
X164233880Y-73952739D01*
X163421591Y-74763611D01*
X162981442Y-75823608D01*
X162980440Y-76971356D01*
X123950562Y-76971356D01*
X123951560Y-75828644D01*
X123639175Y-75072613D01*
X130820495Y-75072613D01*
X130942961Y-75543443D01*
X131236283Y-75931568D01*
X131655807Y-76177899D01*
X131747719Y-76193095D01*
X131938240Y-76068357D01*
X131938240Y-74877000D01*
X130983240Y-74877000D01*
X130820495Y-75072613D01*
X123639175Y-75072613D01*
X123513261Y-74767880D01*
X123173362Y-74427387D01*
X130820495Y-74427387D01*
X130983240Y-74623000D01*
X131938240Y-74623000D01*
X131938240Y-73431643D01*
X132192240Y-73431643D01*
X132192240Y-74623000D01*
X132212240Y-74623000D01*
X132212240Y-74877000D01*
X132192240Y-74877000D01*
X132192240Y-76068357D01*
X132382761Y-76193095D01*
X132474673Y-76177899D01*
X132894197Y-75931568D01*
X132911554Y-75908602D01*
X133003230Y-76051071D01*
X133215430Y-76196061D01*
X133467320Y-76247070D01*
X134666200Y-76247070D01*
X134901517Y-76202792D01*
X135117641Y-76063720D01*
X135262631Y-75851520D01*
X135313640Y-75599630D01*
X135313640Y-75072613D01*
X141320495Y-75072613D01*
X141442961Y-75543443D01*
X141736283Y-75931568D01*
X142155807Y-76177899D01*
X142247719Y-76193095D01*
X142438240Y-76068357D01*
X142438240Y-74877000D01*
X141483240Y-74877000D01*
X141320495Y-75072613D01*
X135313640Y-75072613D01*
X135313640Y-74427387D01*
X141320495Y-74427387D01*
X141483240Y-74623000D01*
X142438240Y-74623000D01*
X142438240Y-73431643D01*
X142692240Y-73431643D01*
X142692240Y-74623000D01*
X142712240Y-74623000D01*
X142712240Y-74877000D01*
X142692240Y-74877000D01*
X142692240Y-76068357D01*
X142882761Y-76193095D01*
X142974673Y-76177899D01*
X143394197Y-75931568D01*
X143411554Y-75908602D01*
X143503230Y-76051071D01*
X143715430Y-76196061D01*
X143967320Y-76247070D01*
X145166200Y-76247070D01*
X145401517Y-76202792D01*
X145617641Y-76063720D01*
X145762631Y-75851520D01*
X145813640Y-75599630D01*
X145813640Y-73900370D01*
X145769362Y-73665053D01*
X145630290Y-73448929D01*
X145418090Y-73303939D01*
X145166200Y-73252930D01*
X143967320Y-73252930D01*
X143732003Y-73297208D01*
X143515879Y-73436280D01*
X143410681Y-73590243D01*
X143394197Y-73568432D01*
X142974673Y-73322101D01*
X142882761Y-73306905D01*
X142692240Y-73431643D01*
X142438240Y-73431643D01*
X142247719Y-73306905D01*
X142155807Y-73322101D01*
X141736283Y-73568432D01*
X141442961Y-73956557D01*
X141320495Y-74427387D01*
X135313640Y-74427387D01*
X135313640Y-73900370D01*
X135269362Y-73665053D01*
X135130290Y-73448929D01*
X134918090Y-73303939D01*
X134666200Y-73252930D01*
X133467320Y-73252930D01*
X133232003Y-73297208D01*
X133015879Y-73436280D01*
X132910681Y-73590243D01*
X132894197Y-73568432D01*
X132474673Y-73322101D01*
X132382761Y-73306905D01*
X132192240Y-73431643D01*
X131938240Y-73431643D01*
X131747719Y-73306905D01*
X131655807Y-73322101D01*
X131236283Y-73568432D01*
X130942961Y-73956557D01*
X130820495Y-74427387D01*
X123173362Y-74427387D01*
X122702389Y-73955591D01*
X121642392Y-73515442D01*
X120494644Y-73514440D01*
X119433880Y-73952739D01*
X118621591Y-74763611D01*
X118181442Y-75823608D01*
X118180440Y-76971356D01*
X116576000Y-76971356D01*
X116576000Y-71960000D01*
X170356000Y-71960000D01*
X170356000Y-120840000D01*
X170356000Y-120840000D01*
G37*
X170356000Y-120840000D02*
X116576000Y-120840000D01*
X116576000Y-116771356D01*
X118180440Y-116771356D01*
X118618739Y-117832120D01*
X119429611Y-118644409D01*
X120489608Y-119084558D01*
X121637356Y-119085560D01*
X122241942Y-118835750D01*
X124867400Y-118835750D01*
X124867400Y-119692309D01*
X124964073Y-119925698D01*
X125142701Y-120104327D01*
X125376090Y-120201000D01*
X126080250Y-120201000D01*
X126239000Y-120042250D01*
X126239000Y-118677000D01*
X125026150Y-118677000D01*
X124867400Y-118835750D01*
X122241942Y-118835750D01*
X122698120Y-118647261D01*
X123510409Y-117836389D01*
X123688419Y-117407691D01*
X124867400Y-117407691D01*
X124867400Y-118264250D01*
X125026150Y-118423000D01*
X126239000Y-118423000D01*
X126239000Y-117057750D01*
X126493000Y-117057750D01*
X126493000Y-118423000D01*
X126513000Y-118423000D01*
X126513000Y-118677000D01*
X126493000Y-118677000D01*
X126493000Y-120042250D01*
X126651750Y-120201000D01*
X127355910Y-120201000D01*
X127589299Y-120104327D01*
X127767927Y-119925698D01*
X127831500Y-119772220D01*
X127846330Y-119794415D01*
X128332511Y-120119271D01*
X128906000Y-120233345D01*
X129479489Y-120119271D01*
X129965670Y-119794415D01*
X130176000Y-119479634D01*
X130386330Y-119794415D01*
X130872511Y-120119271D01*
X131446000Y-120233345D01*
X132019489Y-120119271D01*
X132505670Y-119794415D01*
X132830526Y-119308234D01*
X132944600Y-118734745D01*
X132944600Y-118365255D01*
X132830526Y-117791766D01*
X132505670Y-117305585D01*
X132019489Y-116980729D01*
X131446000Y-116866655D01*
X130872511Y-116980729D01*
X130386330Y-117305585D01*
X130176000Y-117620366D01*
X129965670Y-117305585D01*
X129479489Y-116980729D01*
X128906000Y-116866655D01*
X128332511Y-116980729D01*
X127846330Y-117305585D01*
X127831500Y-117327780D01*
X127767927Y-117174302D01*
X127589299Y-116995673D01*
X127355910Y-116899000D01*
X126651750Y-116899000D01*
X126493000Y-117057750D01*
X126239000Y-117057750D01*
X126080250Y-116899000D01*
X125376090Y-116899000D01*
X125142701Y-116995673D01*
X124964073Y-117174302D01*
X124867400Y-117407691D01*
X123688419Y-117407691D01*
X123950558Y-116776392D01*
X123950562Y-116771356D01*
X162980440Y-116771356D01*
X163418739Y-117832120D01*
X164229611Y-118644409D01*
X165289608Y-119084558D01*
X166437356Y-119085560D01*
X167498120Y-118647261D01*
X168310409Y-117836389D01*
X168750558Y-116776392D01*
X168751560Y-115628644D01*
X168313261Y-114567880D01*
X167502389Y-113755591D01*
X166442392Y-113315442D01*
X165294644Y-113314440D01*
X164233880Y-113752739D01*
X163421591Y-114563611D01*
X162981442Y-115623608D01*
X162980440Y-116771356D01*
X123950562Y-116771356D01*
X123951560Y-115628644D01*
X123513261Y-114567880D01*
X122702389Y-113755591D01*
X121642392Y-113315442D01*
X120494644Y-113314440D01*
X119433880Y-113752739D01*
X118621591Y-114563611D01*
X118181442Y-115623608D01*
X118180440Y-116771356D01*
X116576000Y-116771356D01*
X116576000Y-98173795D01*
X116990716Y-98173795D01*
X117239106Y-98774943D01*
X117698637Y-99235278D01*
X117791000Y-99273630D01*
X117791000Y-102425942D01*
X117701057Y-102463106D01*
X117240722Y-102922637D01*
X116991284Y-103523352D01*
X116990716Y-104173795D01*
X117239106Y-104774943D01*
X117698637Y-105235278D01*
X118299352Y-105484716D01*
X118949795Y-105485284D01*
X119550943Y-105236894D01*
X119617574Y-105170379D01*
X119701910Y-105301441D01*
X119914110Y-105446431D01*
X120166000Y-105497440D01*
X122166000Y-105497440D01*
X122401317Y-105453162D01*
X122617441Y-105314090D01*
X122762431Y-105101890D01*
X122813440Y-104850000D01*
X122813440Y-102850000D01*
X122769162Y-102614683D01*
X122630090Y-102398559D01*
X122417890Y-102253569D01*
X122166000Y-102202560D01*
X120166000Y-102202560D01*
X119930683Y-102246838D01*
X119714559Y-102385910D01*
X119617090Y-102528561D01*
X119553363Y-102464722D01*
X119461000Y-102426370D01*
X119461000Y-99274058D01*
X119550943Y-99236894D01*
X119617574Y-99170379D01*
X119701910Y-99301441D01*
X119914110Y-99446431D01*
X120166000Y-99497440D01*
X122166000Y-99497440D01*
X122401317Y-99453162D01*
X122617441Y-99314090D01*
X122762431Y-99101890D01*
X122813440Y-98850000D01*
X122813440Y-96850000D01*
X122769162Y-96614683D01*
X122630090Y-96398559D01*
X122417890Y-96253569D01*
X122166000Y-96202560D01*
X120166000Y-96202560D01*
X119954514Y-96242354D01*
X120311868Y-95885000D01*
X124656540Y-95885000D01*
X124598559Y-95922310D01*
X124453569Y-96134510D01*
X124402560Y-96386400D01*
X124402560Y-98113600D01*
X124446838Y-98348917D01*
X124585910Y-98565041D01*
X124798110Y-98710031D01*
X124839439Y-98718400D01*
X124821585Y-98730330D01*
X124496729Y-99216511D01*
X124382655Y-99790000D01*
X124496729Y-100363489D01*
X124821585Y-100849670D01*
X125136366Y-101060000D01*
X124821585Y-101270330D01*
X124496729Y-101756511D01*
X124382655Y-102330000D01*
X124466021Y-102749111D01*
X123275566Y-103939566D01*
X123094561Y-104210459D01*
X123031000Y-104530000D01*
X123031000Y-112350000D01*
X123094561Y-112669541D01*
X123275566Y-112940434D01*
X124475566Y-114140434D01*
X124746459Y-114321439D01*
X125050739Y-114381964D01*
X125326330Y-114794415D01*
X125812511Y-115119271D01*
X126386000Y-115233345D01*
X126959489Y-115119271D01*
X127445670Y-114794415D01*
X127656000Y-114479634D01*
X127866330Y-114794415D01*
X128352511Y-115119271D01*
X128926000Y-115233345D01*
X129499489Y-115119271D01*
X129985670Y-114794415D01*
X129995243Y-114780087D01*
X129999238Y-114801317D01*
X130138310Y-115017441D01*
X130350510Y-115162431D01*
X130602400Y-115213440D01*
X132329600Y-115213440D01*
X132564917Y-115169162D01*
X132781041Y-115030090D01*
X132926031Y-114817890D01*
X132977040Y-114566000D01*
X132977040Y-113819828D01*
X138056434Y-108740434D01*
X138105661Y-108666761D01*
X138237439Y-108469541D01*
X138301000Y-108150000D01*
X138301000Y-104470000D01*
X153682655Y-104470000D01*
X153796729Y-105043489D01*
X154121585Y-105529670D01*
X154436366Y-105740000D01*
X154121585Y-105950330D01*
X153796729Y-106436511D01*
X153682655Y-107010000D01*
X153796729Y-107583489D01*
X154121585Y-108069670D01*
X154135913Y-108079243D01*
X154114683Y-108083238D01*
X153898559Y-108222310D01*
X153753569Y-108434510D01*
X153702560Y-108686400D01*
X153702560Y-110413600D01*
X153746838Y-110648917D01*
X153885910Y-110865041D01*
X154098110Y-111010031D01*
X154350000Y-111061040D01*
X156382000Y-111061040D01*
X156617317Y-111016762D01*
X156833441Y-110877690D01*
X156978431Y-110665490D01*
X157029440Y-110413600D01*
X157029440Y-109751320D01*
X166368930Y-109751320D01*
X166368930Y-110950200D01*
X166413208Y-111185517D01*
X166552280Y-111401641D01*
X166764480Y-111546631D01*
X167016370Y-111597640D01*
X168715630Y-111597640D01*
X168950947Y-111553362D01*
X169167071Y-111414290D01*
X169312061Y-111202090D01*
X169363070Y-110950200D01*
X169363070Y-109751320D01*
X169318792Y-109516003D01*
X169179720Y-109299879D01*
X169025757Y-109194681D01*
X169047568Y-109178197D01*
X169293899Y-108758673D01*
X169309095Y-108666761D01*
X169184357Y-108476240D01*
X167993000Y-108476240D01*
X167993000Y-108496240D01*
X167739000Y-108496240D01*
X167739000Y-108476240D01*
X166547643Y-108476240D01*
X166422905Y-108666761D01*
X166438101Y-108758673D01*
X166684432Y-109178197D01*
X166707398Y-109195554D01*
X166564929Y-109287230D01*
X166419939Y-109499430D01*
X166368930Y-109751320D01*
X157029440Y-109751320D01*
X157029440Y-108686400D01*
X156985162Y-108451083D01*
X156846090Y-108234959D01*
X156633890Y-108089969D01*
X156592561Y-108081600D01*
X156610415Y-108069670D01*
X156635773Y-108031719D01*
X166422905Y-108031719D01*
X166547643Y-108222240D01*
X167739000Y-108222240D01*
X167739000Y-107267240D01*
X167993000Y-107267240D01*
X167993000Y-108222240D01*
X169184357Y-108222240D01*
X169309095Y-108031719D01*
X169293899Y-107939807D01*
X169047568Y-107520283D01*
X168659443Y-107226961D01*
X168188613Y-107104495D01*
X167993000Y-107267240D01*
X167739000Y-107267240D01*
X167543387Y-107104495D01*
X167072557Y-107226961D01*
X166684432Y-107520283D01*
X166438101Y-107939807D01*
X166422905Y-108031719D01*
X156635773Y-108031719D01*
X156935271Y-107583489D01*
X157022470Y-107145110D01*
X159091787Y-105075792D01*
X159091790Y-105075790D01*
X159283633Y-104788675D01*
X159294810Y-104732484D01*
X159351001Y-104450000D01*
X159351000Y-104449995D01*
X159351000Y-102713016D01*
X160316590Y-102713016D01*
X160372271Y-102943611D01*
X160855078Y-103111622D01*
X161365428Y-103082083D01*
X161699729Y-102943611D01*
X161755410Y-102713016D01*
X161036000Y-101993605D01*
X160316590Y-102713016D01*
X159351000Y-102713016D01*
X159351000Y-102250580D01*
X159750969Y-101850611D01*
X159767917Y-102143428D01*
X159906389Y-102477729D01*
X160136984Y-102533410D01*
X160856395Y-101814000D01*
X161215605Y-101814000D01*
X161935016Y-102533410D01*
X162165611Y-102477729D01*
X162333622Y-101994922D01*
X162304083Y-101484572D01*
X162290310Y-101451320D01*
X166368930Y-101451320D01*
X166368930Y-102650200D01*
X166413208Y-102885517D01*
X166552280Y-103101641D01*
X166764480Y-103246631D01*
X167016370Y-103297640D01*
X168715630Y-103297640D01*
X168950947Y-103253362D01*
X169167071Y-103114290D01*
X169312061Y-102902090D01*
X169363070Y-102650200D01*
X169363070Y-101451320D01*
X169318792Y-101216003D01*
X169179720Y-100999879D01*
X169025757Y-100894681D01*
X169047568Y-100878197D01*
X169293899Y-100458673D01*
X169309095Y-100366761D01*
X169184357Y-100176240D01*
X167993000Y-100176240D01*
X167993000Y-100196240D01*
X167739000Y-100196240D01*
X167739000Y-100176240D01*
X166547643Y-100176240D01*
X166422905Y-100366761D01*
X166438101Y-100458673D01*
X166684432Y-100878197D01*
X166707398Y-100895554D01*
X166564929Y-100987230D01*
X166419939Y-101199430D01*
X166368930Y-101451320D01*
X162290310Y-101451320D01*
X162165611Y-101150271D01*
X161935016Y-101094590D01*
X161215605Y-101814000D01*
X160856395Y-101814000D01*
X160842252Y-101799858D01*
X161021858Y-101620252D01*
X161036000Y-101634395D01*
X161755410Y-100914984D01*
X161699729Y-100684389D01*
X161490098Y-100611440D01*
X161686000Y-100611440D01*
X161921317Y-100567162D01*
X162137441Y-100428090D01*
X162282431Y-100215890D01*
X162333440Y-99964000D01*
X162333440Y-99731719D01*
X166422905Y-99731719D01*
X166547643Y-99922240D01*
X167739000Y-99922240D01*
X167739000Y-98967240D01*
X167993000Y-98967240D01*
X167993000Y-99922240D01*
X169184357Y-99922240D01*
X169309095Y-99731719D01*
X169293899Y-99639807D01*
X169047568Y-99220283D01*
X168659443Y-98926961D01*
X168188613Y-98804495D01*
X167993000Y-98967240D01*
X167739000Y-98967240D01*
X167543387Y-98804495D01*
X167072557Y-98926961D01*
X166684432Y-99220283D01*
X166438101Y-99639807D01*
X166422905Y-99731719D01*
X162333440Y-99731719D01*
X162333440Y-98664000D01*
X162289162Y-98428683D01*
X162150090Y-98212559D01*
X161937890Y-98067569D01*
X161686000Y-98016560D01*
X160386000Y-98016560D01*
X160150683Y-98060838D01*
X159934559Y-98199910D01*
X159789569Y-98412110D01*
X159738560Y-98664000D01*
X159738560Y-99359861D01*
X157840210Y-101258210D01*
X157648367Y-101545325D01*
X157648367Y-101545326D01*
X157580999Y-101884000D01*
X157581000Y-101884005D01*
X157581000Y-104083421D01*
X157013322Y-104651098D01*
X157049345Y-104470000D01*
X156935271Y-103896511D01*
X156610415Y-103410330D01*
X156124234Y-103085474D01*
X155550745Y-102971400D01*
X155181255Y-102971400D01*
X154607766Y-103085474D01*
X154121585Y-103410330D01*
X153796729Y-103896511D01*
X153682655Y-104470000D01*
X138301000Y-104470000D01*
X138301000Y-104135000D01*
X146659178Y-104135000D01*
X146779201Y-104184838D01*
X147151167Y-104185162D01*
X147494943Y-104043117D01*
X147758192Y-103780327D01*
X147900838Y-103436799D01*
X147901162Y-103064833D01*
X147759117Y-102721057D01*
X147496327Y-102457808D01*
X147152799Y-102315162D01*
X146780833Y-102314838D01*
X146659431Y-102365000D01*
X137832579Y-102365000D01*
X137272116Y-101804536D01*
X150683652Y-101804536D01*
X150909198Y-102350397D01*
X151326466Y-102768394D01*
X151871933Y-102994892D01*
X152462556Y-102995408D01*
X153008417Y-102769862D01*
X153426414Y-102352594D01*
X153652912Y-101807127D01*
X153653428Y-101216504D01*
X153427882Y-100670643D01*
X153010614Y-100252646D01*
X152465147Y-100026148D01*
X151874524Y-100025632D01*
X151328663Y-100251178D01*
X150910666Y-100668446D01*
X150684168Y-101213913D01*
X150683652Y-101804536D01*
X137272116Y-101804536D01*
X133951000Y-98483420D01*
X133951000Y-93850000D01*
X157568560Y-93850000D01*
X157568560Y-95350000D01*
X157612838Y-95585317D01*
X157751910Y-95801441D01*
X157964110Y-95946431D01*
X158216000Y-95997440D01*
X162716000Y-95997440D01*
X162951317Y-95953162D01*
X163167441Y-95814090D01*
X163312431Y-95601890D01*
X163363440Y-95350000D01*
X163363440Y-93850000D01*
X163319162Y-93614683D01*
X163180090Y-93398559D01*
X162967890Y-93253569D01*
X162716000Y-93202560D01*
X158216000Y-93202560D01*
X157980683Y-93246838D01*
X157764559Y-93385910D01*
X157619569Y-93598110D01*
X157568560Y-93850000D01*
X133951000Y-93850000D01*
X133951000Y-93056822D01*
X134000838Y-92936799D01*
X134001162Y-92564833D01*
X133859117Y-92221057D01*
X133596327Y-91957808D01*
X133252799Y-91815162D01*
X132880833Y-91814838D01*
X132638422Y-91915000D01*
X130766000Y-91915000D01*
X130446459Y-91978561D01*
X130228480Y-92124210D01*
X130175566Y-92159566D01*
X128120132Y-94215000D01*
X121414332Y-94215000D01*
X121500803Y-94006756D01*
X121501197Y-93555225D01*
X121328767Y-93137914D01*
X121009765Y-92818355D01*
X120592756Y-92645197D01*
X120141225Y-92644803D01*
X119723914Y-92817233D01*
X119404355Y-93136235D01*
X119231197Y-93553244D01*
X119230803Y-94004775D01*
X119403233Y-94422086D01*
X119414607Y-94433480D01*
X119375566Y-94459566D01*
X118035566Y-95799566D01*
X117854561Y-96070459D01*
X117791000Y-96390000D01*
X117791000Y-96425942D01*
X117701057Y-96463106D01*
X117240722Y-96922637D01*
X116991284Y-97523352D01*
X116990716Y-98173795D01*
X116576000Y-98173795D01*
X116576000Y-91464775D01*
X116690803Y-91464775D01*
X116863233Y-91882086D01*
X117182235Y-92201645D01*
X117599244Y-92374803D01*
X118050775Y-92375197D01*
X118468086Y-92202767D01*
X118787645Y-91883765D01*
X118960803Y-91466756D01*
X118960804Y-91464775D01*
X121770803Y-91464775D01*
X121943233Y-91882086D01*
X122262235Y-92201645D01*
X122679244Y-92374803D01*
X123130775Y-92375197D01*
X123548086Y-92202767D01*
X123867645Y-91883765D01*
X124040803Y-91466756D01*
X124041197Y-91015225D01*
X123868767Y-90597914D01*
X123771913Y-90500890D01*
X150671470Y-90500890D01*
X150671470Y-92200150D01*
X150715748Y-92435467D01*
X150854820Y-92651591D01*
X151067020Y-92796581D01*
X151318910Y-92847590D01*
X153018170Y-92847590D01*
X153253487Y-92803312D01*
X153469611Y-92664240D01*
X153614601Y-92452040D01*
X153665610Y-92200150D01*
X153665610Y-90524285D01*
X159580760Y-90524285D01*
X159791169Y-91033515D01*
X160180436Y-91423461D01*
X160689298Y-91634759D01*
X161240285Y-91635240D01*
X161749515Y-91424831D01*
X162139461Y-91035564D01*
X162350759Y-90526702D01*
X162351240Y-89975715D01*
X162140831Y-89466485D01*
X161751564Y-89076539D01*
X161242702Y-88865241D01*
X160691715Y-88864760D01*
X160182485Y-89075169D01*
X159792539Y-89464436D01*
X159581241Y-89973298D01*
X159580760Y-90524285D01*
X153665610Y-90524285D01*
X153665610Y-90500890D01*
X153621332Y-90265573D01*
X153482260Y-90049449D01*
X153270060Y-89904459D01*
X153018170Y-89853450D01*
X151318910Y-89853450D01*
X151083593Y-89897728D01*
X150867469Y-90036800D01*
X150722479Y-90249000D01*
X150671470Y-90500890D01*
X123771913Y-90500890D01*
X123549765Y-90278355D01*
X123132756Y-90105197D01*
X122681225Y-90104803D01*
X122263914Y-90277233D01*
X121944355Y-90596235D01*
X121771197Y-91013244D01*
X121770803Y-91464775D01*
X118960804Y-91464775D01*
X118961197Y-91015225D01*
X118788767Y-90597914D01*
X118469765Y-90278355D01*
X118052756Y-90105197D01*
X117601225Y-90104803D01*
X117183914Y-90277233D01*
X116864355Y-90596235D01*
X116691197Y-91013244D01*
X116690803Y-91464775D01*
X116576000Y-91464775D01*
X116576000Y-86204775D01*
X119230803Y-86204775D01*
X119403233Y-86622086D01*
X119722235Y-86941645D01*
X120139244Y-87114803D01*
X120590775Y-87115197D01*
X121008086Y-86942767D01*
X121327645Y-86623765D01*
X121500803Y-86206756D01*
X121501197Y-85755225D01*
X121328767Y-85337914D01*
X121009765Y-85018355D01*
X120663988Y-84874775D01*
X139130803Y-84874775D01*
X139303233Y-85292086D01*
X139622235Y-85611645D01*
X140039244Y-85784803D01*
X140490775Y-85785197D01*
X140908086Y-85612767D01*
X141227645Y-85293765D01*
X141400803Y-84876756D01*
X141400804Y-84874775D01*
X144130803Y-84874775D01*
X144303233Y-85292086D01*
X144622235Y-85611645D01*
X145039244Y-85784803D01*
X145490775Y-85785197D01*
X145908086Y-85612767D01*
X145996722Y-85524285D01*
X159580760Y-85524285D01*
X159791169Y-86033515D01*
X160180436Y-86423461D01*
X160689298Y-86634759D01*
X161240285Y-86635240D01*
X161749515Y-86424831D01*
X162139461Y-86035564D01*
X162350759Y-85526702D01*
X162351240Y-84975715D01*
X162140831Y-84466485D01*
X161751564Y-84076539D01*
X161242702Y-83865241D01*
X160691715Y-83864760D01*
X160182485Y-84075169D01*
X159792539Y-84464436D01*
X159581241Y-84973298D01*
X159580760Y-85524285D01*
X145996722Y-85524285D01*
X146227645Y-85293765D01*
X146400803Y-84876756D01*
X146401197Y-84425225D01*
X146228767Y-84007914D01*
X145909765Y-83688355D01*
X145492756Y-83515197D01*
X145041225Y-83514803D01*
X144623914Y-83687233D01*
X144304355Y-84006235D01*
X144131197Y-84423244D01*
X144130803Y-84874775D01*
X141400804Y-84874775D01*
X141401197Y-84425225D01*
X141228767Y-84007914D01*
X140909765Y-83688355D01*
X140492756Y-83515197D01*
X140041225Y-83514803D01*
X139623914Y-83687233D01*
X139304355Y-84006235D01*
X139131197Y-84423244D01*
X139130803Y-84874775D01*
X120663988Y-84874775D01*
X120592756Y-84845197D01*
X120141225Y-84844803D01*
X119723914Y-85017233D01*
X119404355Y-85336235D01*
X119231197Y-85753244D01*
X119230803Y-86204775D01*
X116576000Y-86204775D01*
X116576000Y-83664775D01*
X116690803Y-83664775D01*
X116863233Y-84082086D01*
X117182235Y-84401645D01*
X117599244Y-84574803D01*
X118050775Y-84575197D01*
X118468086Y-84402767D01*
X118787645Y-84083765D01*
X118960803Y-83666756D01*
X118960804Y-83664775D01*
X121770803Y-83664775D01*
X121943233Y-84082086D01*
X122262235Y-84401645D01*
X122679244Y-84574803D01*
X123130775Y-84575197D01*
X123548086Y-84402767D01*
X123867645Y-84083765D01*
X124040803Y-83666756D01*
X124041197Y-83215225D01*
X123868767Y-82797914D01*
X123549765Y-82478355D01*
X123132756Y-82305197D01*
X122681225Y-82304803D01*
X122263914Y-82477233D01*
X121944355Y-82796235D01*
X121771197Y-83213244D01*
X121770803Y-83664775D01*
X118960804Y-83664775D01*
X118961197Y-83215225D01*
X118788767Y-82797914D01*
X118469765Y-82478355D01*
X118052756Y-82305197D01*
X117601225Y-82304803D01*
X117183914Y-82477233D01*
X116864355Y-82796235D01*
X116691197Y-83213244D01*
X116690803Y-83664775D01*
X116576000Y-83664775D01*
X116576000Y-80150000D01*
X157568560Y-80150000D01*
X157568560Y-81650000D01*
X157612838Y-81885317D01*
X157751910Y-82101441D01*
X157964110Y-82246431D01*
X158216000Y-82297440D01*
X162716000Y-82297440D01*
X162951317Y-82253162D01*
X163167441Y-82114090D01*
X163312431Y-81901890D01*
X163363440Y-81650000D01*
X163363440Y-80150000D01*
X163319162Y-79914683D01*
X163180090Y-79698559D01*
X162967890Y-79553569D01*
X162716000Y-79502560D01*
X158216000Y-79502560D01*
X157980683Y-79546838D01*
X157764559Y-79685910D01*
X157619569Y-79898110D01*
X157568560Y-80150000D01*
X116576000Y-80150000D01*
X116576000Y-76971356D01*
X118180440Y-76971356D01*
X118618739Y-78032120D01*
X119429611Y-78844409D01*
X120489608Y-79284558D01*
X121637356Y-79285560D01*
X122698120Y-78847261D01*
X123510409Y-78036389D01*
X123950558Y-76976392D01*
X123950562Y-76971356D01*
X162980440Y-76971356D01*
X163418739Y-78032120D01*
X164229611Y-78844409D01*
X165289608Y-79284558D01*
X166437356Y-79285560D01*
X167498120Y-78847261D01*
X168310409Y-78036389D01*
X168750558Y-76976392D01*
X168751560Y-75828644D01*
X168313261Y-74767880D01*
X167502389Y-73955591D01*
X166442392Y-73515442D01*
X165294644Y-73514440D01*
X164233880Y-73952739D01*
X163421591Y-74763611D01*
X162981442Y-75823608D01*
X162980440Y-76971356D01*
X123950562Y-76971356D01*
X123951560Y-75828644D01*
X123639175Y-75072613D01*
X130820495Y-75072613D01*
X130942961Y-75543443D01*
X131236283Y-75931568D01*
X131655807Y-76177899D01*
X131747719Y-76193095D01*
X131938240Y-76068357D01*
X131938240Y-74877000D01*
X130983240Y-74877000D01*
X130820495Y-75072613D01*
X123639175Y-75072613D01*
X123513261Y-74767880D01*
X123173362Y-74427387D01*
X130820495Y-74427387D01*
X130983240Y-74623000D01*
X131938240Y-74623000D01*
X131938240Y-73431643D01*
X132192240Y-73431643D01*
X132192240Y-74623000D01*
X132212240Y-74623000D01*
X132212240Y-74877000D01*
X132192240Y-74877000D01*
X132192240Y-76068357D01*
X132382761Y-76193095D01*
X132474673Y-76177899D01*
X132894197Y-75931568D01*
X132911554Y-75908602D01*
X133003230Y-76051071D01*
X133215430Y-76196061D01*
X133467320Y-76247070D01*
X134666200Y-76247070D01*
X134901517Y-76202792D01*
X135117641Y-76063720D01*
X135262631Y-75851520D01*
X135313640Y-75599630D01*
X135313640Y-75072613D01*
X141320495Y-75072613D01*
X141442961Y-75543443D01*
X141736283Y-75931568D01*
X142155807Y-76177899D01*
X142247719Y-76193095D01*
X142438240Y-76068357D01*
X142438240Y-74877000D01*
X141483240Y-74877000D01*
X141320495Y-75072613D01*
X135313640Y-75072613D01*
X135313640Y-74427387D01*
X141320495Y-74427387D01*
X141483240Y-74623000D01*
X142438240Y-74623000D01*
X142438240Y-73431643D01*
X142692240Y-73431643D01*
X142692240Y-74623000D01*
X142712240Y-74623000D01*
X142712240Y-74877000D01*
X142692240Y-74877000D01*
X142692240Y-76068357D01*
X142882761Y-76193095D01*
X142974673Y-76177899D01*
X143394197Y-75931568D01*
X143411554Y-75908602D01*
X143503230Y-76051071D01*
X143715430Y-76196061D01*
X143967320Y-76247070D01*
X145166200Y-76247070D01*
X145401517Y-76202792D01*
X145617641Y-76063720D01*
X145762631Y-75851520D01*
X145813640Y-75599630D01*
X145813640Y-73900370D01*
X145769362Y-73665053D01*
X145630290Y-73448929D01*
X145418090Y-73303939D01*
X145166200Y-73252930D01*
X143967320Y-73252930D01*
X143732003Y-73297208D01*
X143515879Y-73436280D01*
X143410681Y-73590243D01*
X143394197Y-73568432D01*
X142974673Y-73322101D01*
X142882761Y-73306905D01*
X142692240Y-73431643D01*
X142438240Y-73431643D01*
X142247719Y-73306905D01*
X142155807Y-73322101D01*
X141736283Y-73568432D01*
X141442961Y-73956557D01*
X141320495Y-74427387D01*
X135313640Y-74427387D01*
X135313640Y-73900370D01*
X135269362Y-73665053D01*
X135130290Y-73448929D01*
X134918090Y-73303939D01*
X134666200Y-73252930D01*
X133467320Y-73252930D01*
X133232003Y-73297208D01*
X133015879Y-73436280D01*
X132910681Y-73590243D01*
X132894197Y-73568432D01*
X132474673Y-73322101D01*
X132382761Y-73306905D01*
X132192240Y-73431643D01*
X131938240Y-73431643D01*
X131747719Y-73306905D01*
X131655807Y-73322101D01*
X131236283Y-73568432D01*
X130942961Y-73956557D01*
X130820495Y-74427387D01*
X123173362Y-74427387D01*
X122702389Y-73955591D01*
X121642392Y-73515442D01*
X120494644Y-73514440D01*
X119433880Y-73952739D01*
X118621591Y-74763611D01*
X118181442Y-75823608D01*
X118180440Y-76971356D01*
X116576000Y-76971356D01*
X116576000Y-71960000D01*
X170356000Y-71960000D01*
X170356000Y-120840000D01*
M02*
