G04 #@! TF.FileFunction,Legend,Top*
%FSLAX46Y46*%
G04 Gerber Fmt 4.6, Leading zero omitted, Abs format (unit mm)*
G04 Created by KiCad (PCBNEW 4.0.1-stable) date 07/03/2016 22:46:51*
%MOMM*%
G01*
G04 APERTURE LIST*
%ADD10C,0.100000*%
%ADD11C,0.200000*%
%ADD12C,0.150000*%
%ADD13C,0.381000*%
%ADD14C,0.075000*%
G04 APERTURE END LIST*
D10*
D11*
X162666000Y-120550000D02*
X161366000Y-120550000D01*
X162666000Y-112350000D02*
X162666000Y-120550000D01*
X161366000Y-112350000D02*
X162666000Y-112350000D01*
X148066000Y-112350000D02*
X148066000Y-120550000D01*
X140566000Y-120550000D02*
X140566000Y-112350000D01*
X161366000Y-120550000D02*
X140566000Y-120550000D01*
X140566000Y-112350000D02*
X161366000Y-112350000D01*
D12*
X152694571Y-110388095D02*
X152742190Y-110245238D01*
X152789810Y-110197619D01*
X152885048Y-110150000D01*
X153027905Y-110150000D01*
X153123143Y-110197619D01*
X153170762Y-110245238D01*
X153218381Y-110340476D01*
X153218381Y-110721429D01*
X152218381Y-110721429D01*
X152218381Y-110388095D01*
X152266000Y-110292857D01*
X152313619Y-110245238D01*
X152408857Y-110197619D01*
X152504095Y-110197619D01*
X152599333Y-110245238D01*
X152646952Y-110292857D01*
X152694571Y-110388095D01*
X152694571Y-110721429D01*
X152932667Y-109769048D02*
X152932667Y-109292857D01*
X153218381Y-109864286D02*
X152218381Y-109530953D01*
X153218381Y-109197619D01*
X152218381Y-109007143D02*
X152218381Y-108435714D01*
X153218381Y-108721429D02*
X152218381Y-108721429D01*
X152218381Y-105545238D02*
X153218381Y-105211905D01*
X152218381Y-104878571D01*
X153218381Y-104545238D02*
X152218381Y-104545238D01*
X153218381Y-104069048D02*
X152218381Y-104069048D01*
X153218381Y-103497619D01*
X152218381Y-103497619D01*
X118051715Y-101207143D02*
X118004096Y-101254762D01*
X117861239Y-101302381D01*
X117766001Y-101302381D01*
X117623143Y-101254762D01*
X117527905Y-101159524D01*
X117480286Y-101064286D01*
X117432667Y-100873810D01*
X117432667Y-100730952D01*
X117480286Y-100540476D01*
X117527905Y-100445238D01*
X117623143Y-100350000D01*
X117766001Y-100302381D01*
X117861239Y-100302381D01*
X118004096Y-100350000D01*
X118051715Y-100397619D01*
X118480286Y-101302381D02*
X118480286Y-100302381D01*
X118480286Y-100778571D02*
X119051715Y-100778571D01*
X119051715Y-101302381D02*
X119051715Y-100302381D01*
X120099334Y-101302381D02*
X119766000Y-100826190D01*
X119527905Y-101302381D02*
X119527905Y-100302381D01*
X119908858Y-100302381D01*
X120004096Y-100350000D01*
X120051715Y-100397619D01*
X120099334Y-100492857D01*
X120099334Y-100635714D01*
X120051715Y-100730952D01*
X120004096Y-100778571D01*
X119908858Y-100826190D01*
X119527905Y-100826190D01*
X121051715Y-100350000D02*
X120956477Y-100302381D01*
X120813620Y-100302381D01*
X120670762Y-100350000D01*
X120575524Y-100445238D01*
X120527905Y-100540476D01*
X120480286Y-100730952D01*
X120480286Y-100873810D01*
X120527905Y-101064286D01*
X120575524Y-101159524D01*
X120670762Y-101254762D01*
X120813620Y-101302381D01*
X120908858Y-101302381D01*
X121051715Y-101254762D01*
X121099334Y-101207143D01*
X121099334Y-100873810D01*
X120908858Y-100873810D01*
X117770762Y-106878571D02*
X117437428Y-106878571D01*
X117437428Y-107402381D02*
X117437428Y-106402381D01*
X117913619Y-106402381D01*
X118246952Y-107116667D02*
X118723143Y-107116667D01*
X118151714Y-107402381D02*
X118485047Y-106402381D01*
X118818381Y-107402381D01*
X119151714Y-106402381D02*
X119151714Y-107211905D01*
X119199333Y-107307143D01*
X119246952Y-107354762D01*
X119342190Y-107402381D01*
X119532667Y-107402381D01*
X119627905Y-107354762D01*
X119675524Y-107307143D01*
X119723143Y-107211905D01*
X119723143Y-106402381D01*
X120675524Y-107402381D02*
X120199333Y-107402381D01*
X120199333Y-106402381D01*
X120866000Y-106402381D02*
X121437429Y-106402381D01*
X121151714Y-107402381D02*
X121151714Y-106402381D01*
X125523143Y-116507143D02*
X125475524Y-116554762D01*
X125332667Y-116602381D01*
X125237429Y-116602381D01*
X125094571Y-116554762D01*
X124999333Y-116459524D01*
X124951714Y-116364286D01*
X124904095Y-116173810D01*
X124904095Y-116030952D01*
X124951714Y-115840476D01*
X124999333Y-115745238D01*
X125094571Y-115650000D01*
X125237429Y-115602381D01*
X125332667Y-115602381D01*
X125475524Y-115650000D01*
X125523143Y-115697619D01*
X126475524Y-116602381D02*
X125904095Y-116602381D01*
X126189809Y-116602381D02*
X126189809Y-115602381D01*
X126094571Y-115745238D01*
X125999333Y-115840476D01*
X125904095Y-115888095D01*
X127094571Y-115602381D02*
X127189810Y-115602381D01*
X127285048Y-115650000D01*
X127332667Y-115697619D01*
X127380286Y-115792857D01*
X127427905Y-115983333D01*
X127427905Y-116221429D01*
X127380286Y-116411905D01*
X127332667Y-116507143D01*
X127285048Y-116554762D01*
X127189810Y-116602381D01*
X127094571Y-116602381D01*
X126999333Y-116554762D01*
X126951714Y-116507143D01*
X126904095Y-116411905D01*
X126856476Y-116221429D01*
X126856476Y-115983333D01*
X126904095Y-115792857D01*
X126951714Y-115697619D01*
X126999333Y-115650000D01*
X127094571Y-115602381D01*
X130108857Y-115602381D02*
X130727905Y-115602381D01*
X130394571Y-115983333D01*
X130537429Y-115983333D01*
X130632667Y-116030952D01*
X130680286Y-116078571D01*
X130727905Y-116173810D01*
X130727905Y-116411905D01*
X130680286Y-116507143D01*
X130632667Y-116554762D01*
X130537429Y-116602381D01*
X130251714Y-116602381D01*
X130156476Y-116554762D01*
X130108857Y-116507143D01*
X131156476Y-116602381D02*
X131156476Y-115602381D01*
X131156476Y-116078571D02*
X131727905Y-116078571D01*
X131727905Y-116602381D02*
X131727905Y-115602381D01*
X132775524Y-116602381D02*
X132442190Y-116126190D01*
X132204095Y-116602381D02*
X132204095Y-115602381D01*
X132585048Y-115602381D01*
X132680286Y-115650000D01*
X132727905Y-115697619D01*
X132775524Y-115792857D01*
X132775524Y-115935714D01*
X132727905Y-116030952D01*
X132680286Y-116078571D01*
X132585048Y-116126190D01*
X132204095Y-116126190D01*
D11*
X149723143Y-115112857D02*
X149151714Y-115112857D01*
X149151714Y-113912857D01*
X149951715Y-113912857D02*
X150637429Y-113912857D01*
X150294572Y-115112857D02*
X150294572Y-113912857D01*
X150923144Y-113912857D02*
X151666001Y-113912857D01*
X151266001Y-114370000D01*
X151437429Y-114370000D01*
X151551715Y-114427143D01*
X151608858Y-114484286D01*
X151666001Y-114598571D01*
X151666001Y-114884286D01*
X151608858Y-114998571D01*
X151551715Y-115055714D01*
X151437429Y-115112857D01*
X151094572Y-115112857D01*
X150980286Y-115055714D01*
X150923144Y-114998571D01*
X152694572Y-113912857D02*
X152466001Y-113912857D01*
X152351715Y-113970000D01*
X152294572Y-114027143D01*
X152180286Y-114198571D01*
X152123143Y-114427143D01*
X152123143Y-114884286D01*
X152180286Y-114998571D01*
X152237429Y-115055714D01*
X152351715Y-115112857D01*
X152580286Y-115112857D01*
X152694572Y-115055714D01*
X152751715Y-114998571D01*
X152808858Y-114884286D01*
X152808858Y-114598571D01*
X152751715Y-114484286D01*
X152694572Y-114427143D01*
X152580286Y-114370000D01*
X152351715Y-114370000D01*
X152237429Y-114427143D01*
X152180286Y-114484286D01*
X152123143Y-114598571D01*
X153894572Y-113912857D02*
X153323143Y-113912857D01*
X153266000Y-114484286D01*
X153323143Y-114427143D01*
X153437429Y-114370000D01*
X153723143Y-114370000D01*
X153837429Y-114427143D01*
X153894572Y-114484286D01*
X153951715Y-114598571D01*
X153951715Y-114884286D01*
X153894572Y-114998571D01*
X153837429Y-115055714D01*
X153723143Y-115112857D01*
X153437429Y-115112857D01*
X153323143Y-115055714D01*
X153266000Y-114998571D01*
X154408857Y-114027143D02*
X154466000Y-113970000D01*
X154580286Y-113912857D01*
X154866000Y-113912857D01*
X154980286Y-113970000D01*
X155037429Y-114027143D01*
X155094572Y-114141429D01*
X155094572Y-114255714D01*
X155037429Y-114427143D01*
X154351715Y-115112857D01*
X155094572Y-115112857D01*
X149094571Y-116935714D02*
X149266000Y-116992857D01*
X149551714Y-116992857D01*
X149666000Y-116935714D01*
X149723143Y-116878571D01*
X149780286Y-116764286D01*
X149780286Y-116650000D01*
X149723143Y-116535714D01*
X149666000Y-116478571D01*
X149551714Y-116421429D01*
X149323143Y-116364286D01*
X149208857Y-116307143D01*
X149151714Y-116250000D01*
X149094571Y-116135714D01*
X149094571Y-116021429D01*
X149151714Y-115907143D01*
X149208857Y-115850000D01*
X149323143Y-115792857D01*
X149608857Y-115792857D01*
X149780286Y-115850000D01*
X150466000Y-116992857D02*
X150351714Y-116935714D01*
X150294571Y-116878571D01*
X150237428Y-116764286D01*
X150237428Y-116421429D01*
X150294571Y-116307143D01*
X150351714Y-116250000D01*
X150466000Y-116192857D01*
X150637428Y-116192857D01*
X150751714Y-116250000D01*
X150808857Y-116307143D01*
X150866000Y-116421429D01*
X150866000Y-116764286D01*
X150808857Y-116878571D01*
X150751714Y-116935714D01*
X150637428Y-116992857D01*
X150466000Y-116992857D01*
X151551714Y-116992857D02*
X151437428Y-116935714D01*
X151380285Y-116821429D01*
X151380285Y-115792857D01*
X152523142Y-116992857D02*
X152523142Y-116364286D01*
X152465999Y-116250000D01*
X152351713Y-116192857D01*
X152123142Y-116192857D01*
X152008856Y-116250000D01*
X152523142Y-116935714D02*
X152408856Y-116992857D01*
X152123142Y-116992857D01*
X152008856Y-116935714D01*
X151951713Y-116821429D01*
X151951713Y-116707143D01*
X152008856Y-116592857D01*
X152123142Y-116535714D01*
X152408856Y-116535714D01*
X152523142Y-116478571D01*
X153094570Y-116992857D02*
X153094570Y-116192857D01*
X153094570Y-116421429D02*
X153151713Y-116307143D01*
X153208856Y-116250000D01*
X153323142Y-116192857D01*
X153437427Y-116192857D01*
X155437428Y-116878571D02*
X155380285Y-116935714D01*
X155208856Y-116992857D01*
X155094570Y-116992857D01*
X154923142Y-116935714D01*
X154808856Y-116821429D01*
X154751713Y-116707143D01*
X154694570Y-116478571D01*
X154694570Y-116307143D01*
X154751713Y-116078571D01*
X154808856Y-115964286D01*
X154923142Y-115850000D01*
X155094570Y-115792857D01*
X155208856Y-115792857D01*
X155380285Y-115850000D01*
X155437428Y-115907143D01*
X155951713Y-116992857D02*
X155951713Y-115792857D01*
X156465999Y-116992857D02*
X156465999Y-116364286D01*
X156408856Y-116250000D01*
X156294570Y-116192857D01*
X156123142Y-116192857D01*
X156008856Y-116250000D01*
X155951713Y-116307143D01*
X157551713Y-116992857D02*
X157551713Y-116364286D01*
X157494570Y-116250000D01*
X157380284Y-116192857D01*
X157151713Y-116192857D01*
X157037427Y-116250000D01*
X157551713Y-116935714D02*
X157437427Y-116992857D01*
X157151713Y-116992857D01*
X157037427Y-116935714D01*
X156980284Y-116821429D01*
X156980284Y-116707143D01*
X157037427Y-116592857D01*
X157151713Y-116535714D01*
X157437427Y-116535714D01*
X157551713Y-116478571D01*
X158123141Y-116992857D02*
X158123141Y-116192857D01*
X158123141Y-116421429D02*
X158180284Y-116307143D01*
X158237427Y-116250000D01*
X158351713Y-116192857D01*
X158465998Y-116192857D01*
X159380284Y-116192857D02*
X159380284Y-117164286D01*
X159323141Y-117278571D01*
X159265998Y-117335714D01*
X159151713Y-117392857D01*
X158980284Y-117392857D01*
X158865998Y-117335714D01*
X159380284Y-116935714D02*
X159265998Y-116992857D01*
X159037427Y-116992857D01*
X158923141Y-116935714D01*
X158865998Y-116878571D01*
X158808855Y-116764286D01*
X158808855Y-116421429D01*
X158865998Y-116307143D01*
X158923141Y-116250000D01*
X159037427Y-116192857D01*
X159265998Y-116192857D01*
X159380284Y-116250000D01*
X160408855Y-116935714D02*
X160294569Y-116992857D01*
X160065998Y-116992857D01*
X159951712Y-116935714D01*
X159894569Y-116821429D01*
X159894569Y-116364286D01*
X159951712Y-116250000D01*
X160065998Y-116192857D01*
X160294569Y-116192857D01*
X160408855Y-116250000D01*
X160465998Y-116364286D01*
X160465998Y-116478571D01*
X159894569Y-116592857D01*
X160980283Y-116992857D02*
X160980283Y-116192857D01*
X160980283Y-116421429D02*
X161037426Y-116307143D01*
X161094569Y-116250000D01*
X161208855Y-116192857D01*
X161323140Y-116192857D01*
X149837429Y-118872857D02*
X149437429Y-118301429D01*
X149151714Y-118872857D02*
X149151714Y-117672857D01*
X149608857Y-117672857D01*
X149723143Y-117730000D01*
X149780286Y-117787143D01*
X149837429Y-117901429D01*
X149837429Y-118072857D01*
X149780286Y-118187143D01*
X149723143Y-118244286D01*
X149608857Y-118301429D01*
X149151714Y-118301429D01*
X150808857Y-118815714D02*
X150694571Y-118872857D01*
X150466000Y-118872857D01*
X150351714Y-118815714D01*
X150294571Y-118701429D01*
X150294571Y-118244286D01*
X150351714Y-118130000D01*
X150466000Y-118072857D01*
X150694571Y-118072857D01*
X150808857Y-118130000D01*
X150866000Y-118244286D01*
X150866000Y-118358571D01*
X150294571Y-118472857D01*
X151266000Y-118072857D02*
X151551714Y-118872857D01*
X151837428Y-118072857D01*
X153437429Y-117672857D02*
X153551714Y-117672857D01*
X153666000Y-117730000D01*
X153723143Y-117787143D01*
X153780286Y-117901429D01*
X153837429Y-118130000D01*
X153837429Y-118415714D01*
X153780286Y-118644286D01*
X153723143Y-118758571D01*
X153666000Y-118815714D01*
X153551714Y-118872857D01*
X153437429Y-118872857D01*
X153323143Y-118815714D01*
X153266000Y-118758571D01*
X153208857Y-118644286D01*
X153151714Y-118415714D01*
X153151714Y-118130000D01*
X153208857Y-117901429D01*
X153266000Y-117787143D01*
X153323143Y-117730000D01*
X153437429Y-117672857D01*
X154351714Y-118758571D02*
X154408857Y-118815714D01*
X154351714Y-118872857D01*
X154294571Y-118815714D01*
X154351714Y-118758571D01*
X154351714Y-118872857D01*
X154808858Y-117672857D02*
X155551715Y-117672857D01*
X155151715Y-118130000D01*
X155323143Y-118130000D01*
X155437429Y-118187143D01*
X155494572Y-118244286D01*
X155551715Y-118358571D01*
X155551715Y-118644286D01*
X155494572Y-118758571D01*
X155437429Y-118815714D01*
X155323143Y-118872857D01*
X154980286Y-118872857D01*
X154866000Y-118815714D01*
X154808858Y-118758571D01*
D12*
X127636000Y-109820000D02*
X132716000Y-109820000D01*
X132716000Y-109820000D02*
X132716000Y-107280000D01*
X132716000Y-107280000D02*
X127636000Y-107280000D01*
X124816000Y-107000000D02*
X126366000Y-107000000D01*
X127636000Y-107280000D02*
X127636000Y-109820000D01*
X126366000Y-110100000D02*
X124816000Y-110100000D01*
X124816000Y-110100000D02*
X124816000Y-107000000D01*
X131366000Y-97975000D02*
X132366000Y-97975000D01*
X132366000Y-99325000D02*
X131366000Y-99325000D01*
X131366000Y-100475000D02*
X132366000Y-100475000D01*
X132366000Y-101825000D02*
X131366000Y-101825000D01*
X143166000Y-96000000D02*
X143166000Y-95300000D01*
X144366000Y-95300000D02*
X144366000Y-96000000D01*
X139766000Y-93050000D02*
X138266000Y-93050000D01*
X138266000Y-93050000D02*
X138266000Y-94450000D01*
X138266000Y-94450000D02*
X141266000Y-94450000D01*
X141266000Y-94450000D02*
X141266000Y-93050000D01*
X141266000Y-93050000D02*
X139766000Y-93050000D01*
X139766000Y-93050000D02*
X139716000Y-93050000D01*
X133066000Y-79250000D02*
X131566000Y-79250000D01*
X131566000Y-79250000D02*
X131566000Y-80650000D01*
X131566000Y-80650000D02*
X134566000Y-80650000D01*
X134566000Y-80650000D02*
X134566000Y-79250000D01*
X134566000Y-79250000D02*
X133066000Y-79250000D01*
X133066000Y-79250000D02*
X133016000Y-79250000D01*
X127636000Y-119820000D02*
X132716000Y-119820000D01*
X132716000Y-119820000D02*
X132716000Y-117280000D01*
X132716000Y-117280000D02*
X127636000Y-117280000D01*
X124816000Y-117000000D02*
X126366000Y-117000000D01*
X127636000Y-117280000D02*
X127636000Y-119820000D01*
X126366000Y-120100000D02*
X124816000Y-120100000D01*
X124816000Y-120100000D02*
X124816000Y-117000000D01*
X147516000Y-84650000D02*
G75*
G03X147516000Y-84650000I-4750000J0D01*
G01*
D13*
X170167240Y-109449060D02*
X169666860Y-109449060D01*
X169666860Y-109449060D02*
X169666860Y-109250940D01*
X169666860Y-109250940D02*
X170167240Y-109250940D01*
X167365620Y-106350260D02*
X167365620Y-106850640D01*
X168666100Y-106850640D02*
X168666100Y-106350260D01*
X168666100Y-111849360D02*
X168666100Y-112349740D01*
X167365620Y-111849360D02*
X167365620Y-112349740D01*
X166166740Y-109850380D02*
X166667120Y-109850380D01*
X166667120Y-109850380D02*
X166667120Y-111849360D01*
X166667120Y-111849360D02*
X170167240Y-111849360D01*
X170167240Y-111849360D02*
X170167240Y-106850640D01*
X170167240Y-106850640D02*
X166667120Y-106850640D01*
X166667120Y-106850640D02*
X166667120Y-108849620D01*
X166667120Y-108849620D02*
X166166740Y-108849620D01*
X166166740Y-112349740D02*
X170665080Y-112349740D01*
X166166740Y-106350260D02*
X170665080Y-106350260D01*
X166166740Y-110650480D02*
X165966080Y-110650480D01*
X165966080Y-110650480D02*
X165966080Y-110950200D01*
X165966080Y-110950200D02*
X166166740Y-110950200D01*
X166166740Y-106350260D02*
X166166740Y-112349740D01*
X170665080Y-112349740D02*
X170665080Y-106350260D01*
D12*
X130196000Y-112280000D02*
X125116000Y-112280000D01*
X125116000Y-112280000D02*
X125116000Y-114820000D01*
X125116000Y-114820000D02*
X130196000Y-114820000D01*
X133016000Y-115100000D02*
X131466000Y-115100000D01*
X130196000Y-114820000D02*
X130196000Y-112280000D01*
X131466000Y-112000000D02*
X133016000Y-112000000D01*
X133016000Y-112000000D02*
X133016000Y-115100000D01*
D13*
X170167240Y-101149060D02*
X169666860Y-101149060D01*
X169666860Y-101149060D02*
X169666860Y-100950940D01*
X169666860Y-100950940D02*
X170167240Y-100950940D01*
X167365620Y-98050260D02*
X167365620Y-98550640D01*
X168666100Y-98550640D02*
X168666100Y-98050260D01*
X168666100Y-103549360D02*
X168666100Y-104049740D01*
X167365620Y-103549360D02*
X167365620Y-104049740D01*
X166166740Y-101550380D02*
X166667120Y-101550380D01*
X166667120Y-101550380D02*
X166667120Y-103549360D01*
X166667120Y-103549360D02*
X170167240Y-103549360D01*
X170167240Y-103549360D02*
X170167240Y-98550640D01*
X170167240Y-98550640D02*
X166667120Y-98550640D01*
X166667120Y-98550640D02*
X166667120Y-100549620D01*
X166667120Y-100549620D02*
X166166740Y-100549620D01*
X166166740Y-104049740D02*
X170665080Y-104049740D01*
X166166740Y-98050260D02*
X170665080Y-98050260D01*
X166166740Y-102350480D02*
X165966080Y-102350480D01*
X165966080Y-102350480D02*
X165966080Y-102650200D01*
X165966080Y-102650200D02*
X166166740Y-102650200D01*
X166166740Y-98050260D02*
X166166740Y-104049740D01*
X170665080Y-104049740D02*
X170665080Y-98050260D01*
D12*
X143391000Y-107850000D02*
X143391000Y-106850000D01*
X144741000Y-106850000D02*
X144741000Y-107850000D01*
X140591000Y-107850000D02*
X140591000Y-106850000D01*
X141941000Y-106850000D02*
X141941000Y-107850000D01*
X139241000Y-103850000D02*
X139241000Y-104850000D01*
X137891000Y-104850000D02*
X137891000Y-103850000D01*
X124796000Y-98520000D02*
X124796000Y-103600000D01*
X124796000Y-103600000D02*
X127336000Y-103600000D01*
X127336000Y-103600000D02*
X127336000Y-98520000D01*
X127616000Y-95700000D02*
X127616000Y-97250000D01*
X127336000Y-98520000D02*
X124796000Y-98520000D01*
X124516000Y-97250000D02*
X124516000Y-95700000D01*
X124516000Y-95700000D02*
X127616000Y-95700000D01*
X143416000Y-104550000D02*
X142716000Y-104550000D01*
X142716000Y-103350000D02*
X143416000Y-103350000D01*
X163535000Y-100639000D02*
X158537000Y-100639000D01*
X163527000Y-100779000D02*
X158545000Y-100779000D01*
X163511000Y-100919000D02*
X161131000Y-100919000D01*
X160941000Y-100919000D02*
X158561000Y-100919000D01*
X163487000Y-101059000D02*
X161526000Y-101059000D01*
X160546000Y-101059000D02*
X158585000Y-101059000D01*
X163454000Y-101199000D02*
X161693000Y-101199000D01*
X160379000Y-101199000D02*
X158618000Y-101199000D01*
X163413000Y-101339000D02*
X161800000Y-101339000D01*
X160272000Y-101339000D02*
X158659000Y-101339000D01*
X163363000Y-101479000D02*
X161871000Y-101479000D01*
X160201000Y-101479000D02*
X158709000Y-101479000D01*
X163302000Y-101619000D02*
X161915000Y-101619000D01*
X160157000Y-101619000D02*
X158770000Y-101619000D01*
X163232000Y-101759000D02*
X161934000Y-101759000D01*
X160138000Y-101759000D02*
X158840000Y-101759000D01*
X163150000Y-101899000D02*
X161932000Y-101899000D01*
X160140000Y-101899000D02*
X158922000Y-101899000D01*
X163055000Y-102039000D02*
X161907000Y-102039000D01*
X160165000Y-102039000D02*
X159017000Y-102039000D01*
X162944000Y-102179000D02*
X161859000Y-102179000D01*
X160213000Y-102179000D02*
X159128000Y-102179000D01*
X162816000Y-102319000D02*
X161781000Y-102319000D01*
X160291000Y-102319000D02*
X159256000Y-102319000D01*
X162667000Y-102459000D02*
X161664000Y-102459000D01*
X160408000Y-102459000D02*
X159405000Y-102459000D01*
X162488000Y-102599000D02*
X161476000Y-102599000D01*
X160596000Y-102599000D02*
X159584000Y-102599000D01*
X162269000Y-102739000D02*
X159803000Y-102739000D01*
X161980000Y-102879000D02*
X160092000Y-102879000D01*
X161508000Y-103019000D02*
X160564000Y-103019000D01*
X161936000Y-101814000D02*
G75*
G03X161936000Y-101814000I-900000J0D01*
G01*
X163573500Y-100564000D02*
G75*
G03X163573500Y-100564000I-2537500J0D01*
G01*
X157966000Y-95650000D02*
X170916000Y-95650000D01*
X158066000Y-80000000D02*
X170916000Y-80000000D01*
X170916000Y-80000000D02*
X170916000Y-89000000D01*
X158066000Y-80000000D02*
X158066000Y-83500000D01*
X170916000Y-95600000D02*
X170916000Y-90600000D01*
X157966000Y-95650000D02*
X157966000Y-92050000D01*
X170916000Y-90600000D02*
X170916000Y-89000000D01*
X147366000Y-99225000D02*
X145366000Y-99225000D01*
X145366000Y-101275000D02*
X147366000Y-101275000D01*
X134666000Y-118900000D02*
X134666000Y-118200000D01*
X135866000Y-118200000D02*
X135866000Y-118900000D01*
X136791000Y-93550000D02*
X136791000Y-91550000D01*
X134741000Y-91550000D02*
X134741000Y-93550000D01*
D13*
X133165060Y-72448760D02*
X133165060Y-72949140D01*
X133165060Y-72949140D02*
X132966940Y-72949140D01*
X132966940Y-72949140D02*
X132966940Y-72448760D01*
X130066260Y-75250380D02*
X130566640Y-75250380D01*
X130566640Y-73949900D02*
X130066260Y-73949900D01*
X135565360Y-73949900D02*
X136065740Y-73949900D01*
X135565360Y-75250380D02*
X136065740Y-75250380D01*
X133566380Y-76449260D02*
X133566380Y-75948880D01*
X133566380Y-75948880D02*
X135565360Y-75948880D01*
X135565360Y-75948880D02*
X135565360Y-72448760D01*
X135565360Y-72448760D02*
X130566640Y-72448760D01*
X130566640Y-72448760D02*
X130566640Y-75948880D01*
X130566640Y-75948880D02*
X132565620Y-75948880D01*
X132565620Y-75948880D02*
X132565620Y-76449260D01*
X136065740Y-76449260D02*
X136065740Y-71950920D01*
X130066260Y-76449260D02*
X130066260Y-71950920D01*
X134366480Y-76449260D02*
X134366480Y-76649920D01*
X134366480Y-76649920D02*
X134666200Y-76649920D01*
X134666200Y-76649920D02*
X134666200Y-76449260D01*
X130066260Y-76449260D02*
X136065740Y-76449260D01*
X136065740Y-71950920D02*
X130066260Y-71950920D01*
D12*
X148116000Y-95750000D02*
X148116000Y-94750000D01*
X146416000Y-94750000D02*
X146416000Y-95750000D01*
X121365000Y-96536000D02*
X121365000Y-96736000D01*
X121365000Y-99130000D02*
X121365000Y-98950000D01*
X118137256Y-98819643D02*
G75*
G03X121365000Y-99136000I1727744J1003643D01*
G01*
X118812994Y-98949068D02*
G75*
G03X120916000Y-98950000I1052006J1133068D01*
G01*
X121352220Y-96509274D02*
G75*
G03X118115000Y-96856000I-1497220J-1306726D01*
G01*
X120878889Y-96736747D02*
G75*
G03X118831000Y-96756000I-1013889J-1079253D01*
G01*
X121365000Y-102536000D02*
X121365000Y-102736000D01*
X121365000Y-105130000D02*
X121365000Y-104950000D01*
X118137256Y-104819643D02*
G75*
G03X121365000Y-105136000I1727744J1003643D01*
G01*
X118812994Y-104949068D02*
G75*
G03X120916000Y-104950000I1052006J1133068D01*
G01*
X121352220Y-102509274D02*
G75*
G03X118115000Y-102856000I-1497220J-1306726D01*
G01*
X120878889Y-102736747D02*
G75*
G03X118831000Y-102756000I-1013889J-1079253D01*
G01*
X149066000Y-104950000D02*
X150566000Y-104950000D01*
X150566000Y-104950000D02*
X150566000Y-103550000D01*
X150566000Y-103550000D02*
X147566000Y-103550000D01*
X147566000Y-103550000D02*
X147566000Y-104950000D01*
X147566000Y-104950000D02*
X149066000Y-104950000D01*
X149066000Y-104950000D02*
X149116000Y-104950000D01*
X156636000Y-108280000D02*
X156636000Y-103200000D01*
X156636000Y-103200000D02*
X154096000Y-103200000D01*
X154096000Y-103200000D02*
X154096000Y-108280000D01*
X153816000Y-111100000D02*
X153816000Y-109550000D01*
X154096000Y-108280000D02*
X156636000Y-108280000D01*
X156916000Y-109550000D02*
X156916000Y-111100000D01*
X156916000Y-111100000D02*
X153816000Y-111100000D01*
X145934780Y-118339860D02*
X146295460Y-119810520D01*
X146295460Y-119810520D02*
X146574860Y-118748800D01*
X146574860Y-118748800D02*
X146884740Y-119820680D01*
X146884740Y-119820680D02*
X147225100Y-118370340D01*
X144514920Y-119030740D02*
X145304860Y-119020580D01*
X145304860Y-119020580D02*
X145315020Y-119030740D01*
X145315020Y-119030740D02*
X145315020Y-119020580D01*
X145355660Y-118309380D02*
X145355660Y-119851160D01*
X144466660Y-118299220D02*
X144466660Y-119868940D01*
X144466660Y-119868940D02*
X144476820Y-119858780D01*
X143915480Y-118400820D02*
X143564960Y-118319540D01*
X143564960Y-118319540D02*
X143244920Y-118309380D01*
X143244920Y-118309380D02*
X143006160Y-118510040D01*
X143006160Y-118510040D02*
X142975680Y-118779280D01*
X142975680Y-118779280D02*
X143216980Y-119020580D01*
X143216980Y-119020580D02*
X143605600Y-119150120D01*
X143605600Y-119150120D02*
X143785940Y-119310140D01*
X143785940Y-119310140D02*
X143826580Y-119609860D01*
X143826580Y-119609860D02*
X143595440Y-119830840D01*
X143595440Y-119830840D02*
X143275400Y-119858780D01*
X143275400Y-119858780D02*
X142924880Y-119749560D01*
X141886020Y-118299220D02*
X141637100Y-118319540D01*
X141637100Y-118319540D02*
X141395800Y-118560840D01*
X141395800Y-118560840D02*
X141306900Y-119051060D01*
X141306900Y-119051060D02*
X141334840Y-119399040D01*
X141334840Y-119399040D02*
X141535500Y-119719080D01*
X141535500Y-119719080D02*
X141786960Y-119841000D01*
X141786960Y-119841000D02*
X142096840Y-119769880D01*
X142096840Y-119769880D02*
X142315280Y-119589540D01*
X142315280Y-119589540D02*
X142386400Y-119129800D01*
X142386400Y-119129800D02*
X142335600Y-118720860D01*
X142335600Y-118720860D02*
X142226380Y-118438920D01*
X142226380Y-118438920D02*
X141865700Y-118309380D01*
X142485460Y-116579640D02*
X142226380Y-117140980D01*
X142226380Y-117140980D02*
X142764860Y-117659140D01*
X142764860Y-117659140D02*
X143285560Y-117389900D01*
X143285560Y-117389900D02*
X143564960Y-117549920D01*
X145005140Y-117529600D02*
X145335340Y-117339100D01*
X145335340Y-117339100D02*
X145774760Y-117669300D01*
X145774760Y-117669300D02*
X146247200Y-117179080D01*
X146247200Y-117179080D02*
X145965260Y-116699020D01*
X145965260Y-116699020D02*
X146155760Y-116229120D01*
X146155760Y-116229120D02*
X146765360Y-116041160D01*
X146765360Y-116041160D02*
X146765360Y-115360440D01*
X146765360Y-115360440D02*
X146206560Y-115220740D01*
X146206560Y-115220740D02*
X146005900Y-114649240D01*
X146005900Y-114649240D02*
X146275140Y-114179340D01*
X146275140Y-114179340D02*
X145805240Y-113668800D01*
X145805240Y-113668800D02*
X145287080Y-113930420D01*
X145287080Y-113930420D02*
X144817180Y-113729760D01*
X144817180Y-113729760D02*
X144647000Y-113188740D01*
X144647000Y-113188740D02*
X143956120Y-113170960D01*
X143956120Y-113170960D02*
X143745300Y-113719600D01*
X143745300Y-113719600D02*
X143326200Y-113889780D01*
X143326200Y-113889780D02*
X142775020Y-113620540D01*
X142775020Y-113620540D02*
X142256860Y-114148860D01*
X142256860Y-114148860D02*
X142505780Y-114689880D01*
X142505780Y-114689880D02*
X142335600Y-115169940D01*
X142335600Y-115169940D02*
X141786960Y-115269000D01*
X141786960Y-115269000D02*
X141776800Y-115970040D01*
X141776800Y-115970040D02*
X142335600Y-116170700D01*
X142335600Y-116170700D02*
X142475300Y-116569480D01*
X144616520Y-116549160D02*
X144916240Y-116399300D01*
X144916240Y-116399300D02*
X145116900Y-116201180D01*
X145116900Y-116201180D02*
X145266760Y-115799860D01*
X145266760Y-115799860D02*
X145266760Y-115401080D01*
X145266760Y-115401080D02*
X145116900Y-115050560D01*
X145116900Y-115050560D02*
X144664780Y-114700040D01*
X144664780Y-114700040D02*
X144215200Y-114649240D01*
X144215200Y-114649240D02*
X143816420Y-114750840D01*
X143816420Y-114750840D02*
X143415100Y-115098820D01*
X143415100Y-115098820D02*
X143265240Y-115550940D01*
X143265240Y-115550940D02*
X143316040Y-116048780D01*
X143316040Y-116048780D02*
X143564960Y-116351040D01*
X143564960Y-116351040D02*
X143915480Y-116549160D01*
X143915480Y-116549160D02*
X143564960Y-117549920D01*
X144616520Y-116549160D02*
X145015300Y-117549920D01*
D13*
X143665060Y-72448760D02*
X143665060Y-72949140D01*
X143665060Y-72949140D02*
X143466940Y-72949140D01*
X143466940Y-72949140D02*
X143466940Y-72448760D01*
X140566260Y-75250380D02*
X141066640Y-75250380D01*
X141066640Y-73949900D02*
X140566260Y-73949900D01*
X146065360Y-73949900D02*
X146565740Y-73949900D01*
X146065360Y-75250380D02*
X146565740Y-75250380D01*
X144066380Y-76449260D02*
X144066380Y-75948880D01*
X144066380Y-75948880D02*
X146065360Y-75948880D01*
X146065360Y-75948880D02*
X146065360Y-72448760D01*
X146065360Y-72448760D02*
X141066640Y-72448760D01*
X141066640Y-72448760D02*
X141066640Y-75948880D01*
X141066640Y-75948880D02*
X143065620Y-75948880D01*
X143065620Y-75948880D02*
X143065620Y-76449260D01*
X146565740Y-76449260D02*
X146565740Y-71950920D01*
X140566260Y-76449260D02*
X140566260Y-71950920D01*
X144866480Y-76449260D02*
X144866480Y-76649920D01*
X144866480Y-76649920D02*
X145166200Y-76649920D01*
X145166200Y-76649920D02*
X145166200Y-76449260D01*
X140566260Y-76449260D02*
X146565740Y-76449260D01*
X146565740Y-71950920D02*
X140566260Y-71950920D01*
D12*
X127041000Y-90650000D02*
X127041000Y-91650000D01*
X125691000Y-91650000D02*
X125691000Y-90650000D01*
X127041000Y-82950000D02*
X127041000Y-83950000D01*
X125691000Y-83950000D02*
X125691000Y-82950000D01*
X152168540Y-98716520D02*
X152168540Y-100113520D01*
X152168540Y-94271520D02*
X152168540Y-92747520D01*
X152930540Y-94652520D02*
X151406540Y-94652520D01*
X152930540Y-94398520D02*
X151406540Y-94398520D01*
X152168540Y-94144520D02*
X151406540Y-94144520D01*
X151406540Y-94144520D02*
X151406540Y-98716520D01*
X151406540Y-98716520D02*
X152930540Y-98716520D01*
X152930540Y-98716520D02*
X152930540Y-94144520D01*
X152930540Y-94144520D02*
X152168540Y-94144520D01*
X125118381Y-89645238D02*
X124642190Y-89978572D01*
X125118381Y-90216667D02*
X124118381Y-90216667D01*
X124118381Y-89835714D01*
X124166000Y-89740476D01*
X124213619Y-89692857D01*
X124308857Y-89645238D01*
X124451714Y-89645238D01*
X124546952Y-89692857D01*
X124594571Y-89740476D01*
X124642190Y-89835714D01*
X124642190Y-90216667D01*
X124118381Y-89359524D02*
X125118381Y-89026191D01*
X124118381Y-88692857D01*
X124213619Y-88407143D02*
X124166000Y-88359524D01*
X124118381Y-88264286D01*
X124118381Y-88026190D01*
X124166000Y-87930952D01*
X124213619Y-87883333D01*
X124308857Y-87835714D01*
X124404095Y-87835714D01*
X124546952Y-87883333D01*
X125118381Y-88454762D01*
X125118381Y-87835714D01*
X133518381Y-109383333D02*
X134232667Y-109383333D01*
X134375524Y-109430953D01*
X134470762Y-109526191D01*
X134518381Y-109669048D01*
X134518381Y-109764286D01*
X134518381Y-108907143D02*
X133518381Y-108907143D01*
X133518381Y-108526190D01*
X133566000Y-108430952D01*
X133613619Y-108383333D01*
X133708857Y-108335714D01*
X133851714Y-108335714D01*
X133946952Y-108383333D01*
X133994571Y-108430952D01*
X134042190Y-108526190D01*
X134042190Y-108907143D01*
X133613619Y-107954762D02*
X133566000Y-107907143D01*
X133518381Y-107811905D01*
X133518381Y-107573809D01*
X133566000Y-107478571D01*
X133613619Y-107430952D01*
X133708857Y-107383333D01*
X133804095Y-107383333D01*
X133946952Y-107430952D01*
X134518381Y-108002381D01*
X134518381Y-107383333D01*
X117670762Y-79602381D02*
X117337428Y-79126190D01*
X117099333Y-79602381D02*
X117099333Y-78602381D01*
X117480286Y-78602381D01*
X117575524Y-78650000D01*
X117623143Y-78697619D01*
X117670762Y-78792857D01*
X117670762Y-78935714D01*
X117623143Y-79030952D01*
X117575524Y-79078571D01*
X117480286Y-79126190D01*
X117099333Y-79126190D01*
X117956476Y-78602381D02*
X118289809Y-79602381D01*
X118623143Y-78602381D01*
X119480286Y-79602381D02*
X118908857Y-79602381D01*
X119194571Y-79602381D02*
X119194571Y-78602381D01*
X119099333Y-78745238D01*
X119004095Y-78840476D01*
X118908857Y-78888095D01*
X129618381Y-98816666D02*
X129142190Y-99150000D01*
X129618381Y-99388095D02*
X128618381Y-99388095D01*
X128618381Y-99007142D01*
X128666000Y-98911904D01*
X128713619Y-98864285D01*
X128808857Y-98816666D01*
X128951714Y-98816666D01*
X129046952Y-98864285D01*
X129094571Y-98911904D01*
X129142190Y-99007142D01*
X129142190Y-99388095D01*
X129618381Y-97864285D02*
X129618381Y-98435714D01*
X129618381Y-98150000D02*
X128618381Y-98150000D01*
X128761238Y-98245238D01*
X128856476Y-98340476D01*
X128904095Y-98435714D01*
X129618381Y-101316666D02*
X129142190Y-101650000D01*
X129618381Y-101888095D02*
X128618381Y-101888095D01*
X128618381Y-101507142D01*
X128666000Y-101411904D01*
X128713619Y-101364285D01*
X128808857Y-101316666D01*
X128951714Y-101316666D01*
X129046952Y-101364285D01*
X129094571Y-101411904D01*
X129142190Y-101507142D01*
X129142190Y-101888095D01*
X128713619Y-100935714D02*
X128666000Y-100888095D01*
X128618381Y-100792857D01*
X128618381Y-100554761D01*
X128666000Y-100459523D01*
X128713619Y-100411904D01*
X128808857Y-100364285D01*
X128904095Y-100364285D01*
X129046952Y-100411904D01*
X129618381Y-100983333D01*
X129618381Y-100364285D01*
X142623143Y-96673809D02*
X142670762Y-96721428D01*
X142718381Y-96864285D01*
X142718381Y-96959523D01*
X142670762Y-97102381D01*
X142575524Y-97197619D01*
X142480286Y-97245238D01*
X142289810Y-97292857D01*
X142146952Y-97292857D01*
X141956476Y-97245238D01*
X141861238Y-97197619D01*
X141766000Y-97102381D01*
X141718381Y-96959523D01*
X141718381Y-96864285D01*
X141766000Y-96721428D01*
X141813619Y-96673809D01*
X142718381Y-96245238D02*
X141718381Y-96245238D01*
X142099333Y-96245238D02*
X142051714Y-96150000D01*
X142051714Y-95959523D01*
X142099333Y-95864285D01*
X142146952Y-95816666D01*
X142242190Y-95769047D01*
X142527905Y-95769047D01*
X142623143Y-95816666D01*
X142670762Y-95864285D01*
X142718381Y-95959523D01*
X142718381Y-96150000D01*
X142670762Y-96245238D01*
X142670762Y-95388095D02*
X142718381Y-95292857D01*
X142718381Y-95102381D01*
X142670762Y-95007142D01*
X142575524Y-94959523D01*
X142527905Y-94959523D01*
X142432667Y-95007142D01*
X142385048Y-95102381D01*
X142385048Y-95245238D01*
X142337429Y-95340476D01*
X142242190Y-95388095D01*
X142194571Y-95388095D01*
X142099333Y-95340476D01*
X142051714Y-95245238D01*
X142051714Y-95102381D01*
X142099333Y-95007142D01*
X142718381Y-94007142D02*
X142718381Y-94578571D01*
X142718381Y-94292857D02*
X141718381Y-94292857D01*
X141861238Y-94388095D01*
X141956476Y-94483333D01*
X142004095Y-94578571D01*
X137642190Y-91702381D02*
X137642190Y-90702381D01*
X137880285Y-90702381D01*
X138023143Y-90750000D01*
X138118381Y-90845238D01*
X138166000Y-90940476D01*
X138213619Y-91130952D01*
X138213619Y-91273810D01*
X138166000Y-91464286D01*
X138118381Y-91559524D01*
X138023143Y-91654762D01*
X137880285Y-91702381D01*
X137642190Y-91702381D01*
X138499333Y-91035714D02*
X138880285Y-91035714D01*
X138642190Y-91702381D02*
X138642190Y-90845238D01*
X138689809Y-90750000D01*
X138785047Y-90702381D01*
X138880285Y-90702381D01*
X139356476Y-91702381D02*
X139261238Y-91654762D01*
X139213619Y-91559524D01*
X139213619Y-90702381D01*
X139642191Y-91035714D02*
X139880286Y-91702381D01*
X140118382Y-91035714D02*
X139880286Y-91702381D01*
X139785048Y-91940476D01*
X139737429Y-91988095D01*
X139642191Y-92035714D01*
X140499334Y-91702381D02*
X140499334Y-90702381D01*
X140499334Y-91083333D02*
X140594572Y-91035714D01*
X140785049Y-91035714D01*
X140880287Y-91083333D01*
X140927906Y-91130952D01*
X140975525Y-91226190D01*
X140975525Y-91511905D01*
X140927906Y-91607143D01*
X140880287Y-91654762D01*
X140785049Y-91702381D01*
X140594572Y-91702381D01*
X140499334Y-91654762D01*
X141404096Y-91702381D02*
X141404096Y-90702381D01*
X141499334Y-91321429D02*
X141785049Y-91702381D01*
X141785049Y-91035714D02*
X141404096Y-91416667D01*
X142737430Y-91702381D02*
X142166001Y-91702381D01*
X142451715Y-91702381D02*
X142451715Y-90702381D01*
X142356477Y-90845238D01*
X142261239Y-90940476D01*
X142166001Y-90988095D01*
X131118381Y-81759524D02*
X130118381Y-81759524D01*
X130118381Y-81521429D01*
X130166000Y-81378571D01*
X130261238Y-81283333D01*
X130356476Y-81235714D01*
X130546952Y-81188095D01*
X130689810Y-81188095D01*
X130880286Y-81235714D01*
X130975524Y-81283333D01*
X131070762Y-81378571D01*
X131118381Y-81521429D01*
X131118381Y-81759524D01*
X130451714Y-80854762D02*
X131118381Y-80616667D01*
X130451714Y-80378571D01*
X131118381Y-79997619D02*
X130451714Y-79997619D01*
X130118381Y-79997619D02*
X130166000Y-80045238D01*
X130213619Y-79997619D01*
X130166000Y-79950000D01*
X130118381Y-79997619D01*
X130213619Y-79997619D01*
X130451714Y-79521429D02*
X131118381Y-79521429D01*
X130546952Y-79521429D02*
X130499333Y-79473810D01*
X130451714Y-79378572D01*
X130451714Y-79235714D01*
X130499333Y-79140476D01*
X130594571Y-79092857D01*
X131118381Y-79092857D01*
X131118381Y-78092857D02*
X131118381Y-78664286D01*
X131118381Y-78378572D02*
X130118381Y-78378572D01*
X130261238Y-78473810D01*
X130356476Y-78569048D01*
X130404095Y-78664286D01*
X123318381Y-119383333D02*
X124032667Y-119383333D01*
X124175524Y-119430953D01*
X124270762Y-119526191D01*
X124318381Y-119669048D01*
X124318381Y-119764286D01*
X124318381Y-118907143D02*
X123318381Y-118907143D01*
X123318381Y-118526190D01*
X123366000Y-118430952D01*
X123413619Y-118383333D01*
X123508857Y-118335714D01*
X123651714Y-118335714D01*
X123746952Y-118383333D01*
X123794571Y-118430952D01*
X123842190Y-118526190D01*
X123842190Y-118907143D01*
X124318381Y-117383333D02*
X124318381Y-117954762D01*
X124318381Y-117669048D02*
X123318381Y-117669048D01*
X123461238Y-117764286D01*
X123556476Y-117859524D01*
X123604095Y-117954762D01*
X137518381Y-85745238D02*
X137518381Y-86221429D01*
X136518381Y-86221429D01*
X137470762Y-85459524D02*
X137518381Y-85364286D01*
X137518381Y-85173810D01*
X137470762Y-85078571D01*
X137375524Y-85030952D01*
X137327905Y-85030952D01*
X137232667Y-85078571D01*
X137185048Y-85173810D01*
X137185048Y-85316667D01*
X137137429Y-85411905D01*
X137042190Y-85459524D01*
X136994571Y-85459524D01*
X136899333Y-85411905D01*
X136851714Y-85316667D01*
X136851714Y-85173810D01*
X136899333Y-85078571D01*
X136851714Y-84697619D02*
X137518381Y-84507143D01*
X137042190Y-84316666D01*
X137518381Y-84126190D01*
X136851714Y-83935714D01*
X137518381Y-83030952D02*
X137518381Y-83602381D01*
X137518381Y-83316667D02*
X136518381Y-83316667D01*
X136661238Y-83411905D01*
X136756476Y-83507143D01*
X136804095Y-83602381D01*
X165318381Y-111278572D02*
X164318381Y-111278572D01*
X164318381Y-110897619D01*
X164366000Y-110802381D01*
X164413619Y-110754762D01*
X164508857Y-110707143D01*
X164651714Y-110707143D01*
X164746952Y-110754762D01*
X164794571Y-110802381D01*
X164842190Y-110897619D01*
X164842190Y-111278572D01*
X165318381Y-110278572D02*
X164318381Y-110278572D01*
X164699333Y-110278572D02*
X164651714Y-110183334D01*
X164651714Y-109992857D01*
X164699333Y-109897619D01*
X164746952Y-109850000D01*
X164842190Y-109802381D01*
X165127905Y-109802381D01*
X165223143Y-109850000D01*
X165270762Y-109897619D01*
X165318381Y-109992857D01*
X165318381Y-110183334D01*
X165270762Y-110278572D01*
X165318381Y-108945238D02*
X164794571Y-108945238D01*
X164699333Y-108992857D01*
X164651714Y-109088095D01*
X164651714Y-109278572D01*
X164699333Y-109373810D01*
X165270762Y-108945238D02*
X165318381Y-109040476D01*
X165318381Y-109278572D01*
X165270762Y-109373810D01*
X165175524Y-109421429D01*
X165080286Y-109421429D01*
X164985048Y-109373810D01*
X164937429Y-109278572D01*
X164937429Y-109040476D01*
X164889810Y-108945238D01*
X164651714Y-108611905D02*
X164651714Y-108230953D01*
X164318381Y-108469048D02*
X165175524Y-108469048D01*
X165270762Y-108421429D01*
X165318381Y-108326191D01*
X165318381Y-108230953D01*
X165318381Y-107373809D02*
X165318381Y-107945238D01*
X165318381Y-107659524D02*
X164318381Y-107659524D01*
X164461238Y-107754762D01*
X164556476Y-107850000D01*
X164604095Y-107945238D01*
X134518381Y-115430953D02*
X133518381Y-115430953D01*
X133518381Y-115050000D01*
X133566000Y-114954762D01*
X133613619Y-114907143D01*
X133708857Y-114859524D01*
X133851714Y-114859524D01*
X133946952Y-114907143D01*
X133994571Y-114954762D01*
X134042190Y-115050000D01*
X134042190Y-115430953D01*
X134518381Y-114288096D02*
X134470762Y-114383334D01*
X134375524Y-114430953D01*
X133518381Y-114430953D01*
X134470762Y-113526190D02*
X134518381Y-113621428D01*
X134518381Y-113811905D01*
X134470762Y-113907143D01*
X134375524Y-113954762D01*
X133994571Y-113954762D01*
X133899333Y-113907143D01*
X133851714Y-113811905D01*
X133851714Y-113621428D01*
X133899333Y-113526190D01*
X133994571Y-113478571D01*
X134089810Y-113478571D01*
X134185048Y-113954762D01*
X134518381Y-112621428D02*
X133518381Y-112621428D01*
X134470762Y-112621428D02*
X134518381Y-112716666D01*
X134518381Y-112907143D01*
X134470762Y-113002381D01*
X134423143Y-113050000D01*
X134327905Y-113097619D01*
X134042190Y-113097619D01*
X133946952Y-113050000D01*
X133899333Y-113002381D01*
X133851714Y-112907143D01*
X133851714Y-112716666D01*
X133899333Y-112621428D01*
X134518381Y-111621428D02*
X134518381Y-112192857D01*
X134518381Y-111907143D02*
X133518381Y-111907143D01*
X133661238Y-112002381D01*
X133756476Y-112097619D01*
X133804095Y-112192857D01*
X165418381Y-103407143D02*
X164418381Y-103407143D01*
X164418381Y-103026190D01*
X164466000Y-102930952D01*
X164513619Y-102883333D01*
X164608857Y-102835714D01*
X164751714Y-102835714D01*
X164846952Y-102883333D01*
X164894571Y-102930952D01*
X164942190Y-103026190D01*
X164942190Y-103407143D01*
X165418381Y-102264286D02*
X165370762Y-102359524D01*
X165275524Y-102407143D01*
X164418381Y-102407143D01*
X165418381Y-101740476D02*
X165370762Y-101835714D01*
X165323143Y-101883333D01*
X165227905Y-101930952D01*
X164942190Y-101930952D01*
X164846952Y-101883333D01*
X164799333Y-101835714D01*
X164751714Y-101740476D01*
X164751714Y-101597618D01*
X164799333Y-101502380D01*
X164846952Y-101454761D01*
X164942190Y-101407142D01*
X165227905Y-101407142D01*
X165323143Y-101454761D01*
X165370762Y-101502380D01*
X165418381Y-101597618D01*
X165418381Y-101740476D01*
X165418381Y-100549999D02*
X164894571Y-100549999D01*
X164799333Y-100597618D01*
X164751714Y-100692856D01*
X164751714Y-100883333D01*
X164799333Y-100978571D01*
X165370762Y-100549999D02*
X165418381Y-100645237D01*
X165418381Y-100883333D01*
X165370762Y-100978571D01*
X165275524Y-101026190D01*
X165180286Y-101026190D01*
X165085048Y-100978571D01*
X165037429Y-100883333D01*
X165037429Y-100645237D01*
X164989810Y-100549999D01*
X165418381Y-99645237D02*
X164418381Y-99645237D01*
X165370762Y-99645237D02*
X165418381Y-99740475D01*
X165418381Y-99930952D01*
X165370762Y-100026190D01*
X165323143Y-100073809D01*
X165227905Y-100121428D01*
X164942190Y-100121428D01*
X164846952Y-100073809D01*
X164799333Y-100026190D01*
X164751714Y-99930952D01*
X164751714Y-99740475D01*
X164799333Y-99645237D01*
X165418381Y-98645237D02*
X165418381Y-99216666D01*
X165418381Y-98930952D02*
X164418381Y-98930952D01*
X164561238Y-99026190D01*
X164656476Y-99121428D01*
X164704095Y-99216666D01*
X146318381Y-108254762D02*
X145842190Y-108588096D01*
X146318381Y-108826191D02*
X145318381Y-108826191D01*
X145318381Y-108445238D01*
X145366000Y-108350000D01*
X145413619Y-108302381D01*
X145508857Y-108254762D01*
X145651714Y-108254762D01*
X145746952Y-108302381D01*
X145794571Y-108350000D01*
X145842190Y-108445238D01*
X145842190Y-108826191D01*
X145651714Y-107969048D02*
X145651714Y-107588096D01*
X146318381Y-107826191D02*
X145461238Y-107826191D01*
X145366000Y-107778572D01*
X145318381Y-107683334D01*
X145318381Y-107588096D01*
X146318381Y-107254762D02*
X145318381Y-107254762D01*
X145699333Y-107254762D02*
X145651714Y-107159524D01*
X145651714Y-106969047D01*
X145699333Y-106873809D01*
X145746952Y-106826190D01*
X145842190Y-106778571D01*
X146127905Y-106778571D01*
X146223143Y-106826190D01*
X146270762Y-106873809D01*
X146318381Y-106969047D01*
X146318381Y-107159524D01*
X146270762Y-107254762D01*
X146318381Y-105826190D02*
X146318381Y-106397619D01*
X146318381Y-106111905D02*
X145318381Y-106111905D01*
X145461238Y-106207143D01*
X145556476Y-106302381D01*
X145604095Y-106397619D01*
X141161238Y-111202381D02*
X140827904Y-110726190D01*
X140589809Y-111202381D02*
X140589809Y-110202381D01*
X140970762Y-110202381D01*
X141066000Y-110250000D01*
X141113619Y-110297619D01*
X141161238Y-110392857D01*
X141161238Y-110535714D01*
X141113619Y-110630952D01*
X141066000Y-110678571D01*
X140970762Y-110726190D01*
X140589809Y-110726190D01*
X141446952Y-110535714D02*
X141827904Y-110535714D01*
X141589809Y-111202381D02*
X141589809Y-110345238D01*
X141637428Y-110250000D01*
X141732666Y-110202381D01*
X141827904Y-110202381D01*
X142161238Y-111202381D02*
X142161238Y-110202381D01*
X142161238Y-110583333D02*
X142256476Y-110535714D01*
X142446953Y-110535714D01*
X142542191Y-110583333D01*
X142589810Y-110630952D01*
X142637429Y-110726190D01*
X142637429Y-111011905D01*
X142589810Y-111107143D01*
X142542191Y-111154762D01*
X142446953Y-111202381D01*
X142256476Y-111202381D01*
X142161238Y-111154762D01*
X143018381Y-110297619D02*
X143066000Y-110250000D01*
X143161238Y-110202381D01*
X143399334Y-110202381D01*
X143494572Y-110250000D01*
X143542191Y-110297619D01*
X143589810Y-110392857D01*
X143589810Y-110488095D01*
X143542191Y-110630952D01*
X142970762Y-111202381D01*
X143589810Y-111202381D01*
X137418381Y-105254762D02*
X136942190Y-105588096D01*
X137418381Y-105826191D02*
X136418381Y-105826191D01*
X136418381Y-105445238D01*
X136466000Y-105350000D01*
X136513619Y-105302381D01*
X136608857Y-105254762D01*
X136751714Y-105254762D01*
X136846952Y-105302381D01*
X136894571Y-105350000D01*
X136942190Y-105445238D01*
X136942190Y-105826191D01*
X136751714Y-104969048D02*
X136751714Y-104588096D01*
X137418381Y-104826191D02*
X136561238Y-104826191D01*
X136466000Y-104778572D01*
X136418381Y-104683334D01*
X136418381Y-104588096D01*
X137418381Y-104254762D02*
X136418381Y-104254762D01*
X136799333Y-104254762D02*
X136751714Y-104159524D01*
X136751714Y-103969047D01*
X136799333Y-103873809D01*
X136846952Y-103826190D01*
X136942190Y-103778571D01*
X137227905Y-103778571D01*
X137323143Y-103826190D01*
X137370762Y-103873809D01*
X137418381Y-103969047D01*
X137418381Y-104159524D01*
X137370762Y-104254762D01*
X136418381Y-103445238D02*
X136418381Y-102826190D01*
X136799333Y-103159524D01*
X136799333Y-103016666D01*
X136846952Y-102921428D01*
X136894571Y-102873809D01*
X136989810Y-102826190D01*
X137227905Y-102826190D01*
X137323143Y-102873809D01*
X137370762Y-102921428D01*
X137418381Y-103016666D01*
X137418381Y-103302381D01*
X137370762Y-103397619D01*
X137323143Y-103445238D01*
X158870762Y-108802381D02*
X159108857Y-109802381D01*
X159299334Y-109088095D01*
X159489810Y-109802381D01*
X159727905Y-108802381D01*
X160108857Y-109802381D02*
X160108857Y-108802381D01*
X160108857Y-109183333D02*
X160204095Y-109135714D01*
X160394572Y-109135714D01*
X160489810Y-109183333D01*
X160537429Y-109230952D01*
X160585048Y-109326190D01*
X160585048Y-109611905D01*
X160537429Y-109707143D01*
X160489810Y-109754762D01*
X160394572Y-109802381D01*
X160204095Y-109802381D01*
X160108857Y-109754762D01*
X161442191Y-109802381D02*
X161442191Y-109278571D01*
X161394572Y-109183333D01*
X161299334Y-109135714D01*
X161108857Y-109135714D01*
X161013619Y-109183333D01*
X161442191Y-109754762D02*
X161346953Y-109802381D01*
X161108857Y-109802381D01*
X161013619Y-109754762D01*
X160966000Y-109659524D01*
X160966000Y-109564286D01*
X161013619Y-109469048D01*
X161108857Y-109421429D01*
X161346953Y-109421429D01*
X161442191Y-109373810D01*
X161775524Y-109135714D02*
X162156476Y-109135714D01*
X161918381Y-108802381D02*
X161918381Y-109659524D01*
X161966000Y-109754762D01*
X162061238Y-109802381D01*
X162156476Y-109802381D01*
X163013620Y-109802381D02*
X162442191Y-109802381D01*
X162727905Y-109802381D02*
X162727905Y-108802381D01*
X162632667Y-108945238D01*
X162537429Y-109040476D01*
X162442191Y-109088095D01*
X155404095Y-72602381D02*
X155642190Y-73602381D01*
X155832667Y-72888095D01*
X156023143Y-73602381D01*
X156261238Y-72602381D01*
X157070762Y-72935714D02*
X157070762Y-73745238D01*
X157023143Y-73840476D01*
X156975524Y-73888095D01*
X156880285Y-73935714D01*
X156737428Y-73935714D01*
X156642190Y-73888095D01*
X157070762Y-73554762D02*
X156975524Y-73602381D01*
X156785047Y-73602381D01*
X156689809Y-73554762D01*
X156642190Y-73507143D01*
X156594571Y-73411905D01*
X156594571Y-73126190D01*
X156642190Y-73030952D01*
X156689809Y-72983333D01*
X156785047Y-72935714D01*
X156975524Y-72935714D01*
X157070762Y-72983333D01*
X157546952Y-72935714D02*
X157546952Y-73602381D01*
X157546952Y-73030952D02*
X157594571Y-72983333D01*
X157689809Y-72935714D01*
X157832667Y-72935714D01*
X157927905Y-72983333D01*
X157975524Y-73078571D01*
X157975524Y-73602381D01*
X158880286Y-73602381D02*
X158880286Y-72602381D01*
X158880286Y-73554762D02*
X158785048Y-73602381D01*
X158594571Y-73602381D01*
X158499333Y-73554762D01*
X158451714Y-73507143D01*
X158404095Y-73411905D01*
X158404095Y-73126190D01*
X158451714Y-73030952D01*
X158499333Y-72983333D01*
X158594571Y-72935714D01*
X158785048Y-72935714D01*
X158880286Y-72983333D01*
X159880286Y-73602381D02*
X159308857Y-73602381D01*
X159594571Y-73602381D02*
X159594571Y-72602381D01*
X159499333Y-72745238D01*
X159404095Y-72840476D01*
X159308857Y-72888095D01*
X131818381Y-93816667D02*
X132818381Y-93578572D01*
X132104095Y-93388095D01*
X132818381Y-93197619D01*
X131818381Y-92959524D01*
X132770762Y-92626191D02*
X132818381Y-92530953D01*
X132818381Y-92340477D01*
X132770762Y-92245238D01*
X132675524Y-92197619D01*
X132627905Y-92197619D01*
X132532667Y-92245238D01*
X132485048Y-92340477D01*
X132485048Y-92483334D01*
X132437429Y-92578572D01*
X132342190Y-92626191D01*
X132294571Y-92626191D01*
X132199333Y-92578572D01*
X132151714Y-92483334D01*
X132151714Y-92340477D01*
X132199333Y-92245238D01*
X132818381Y-91769048D02*
X131818381Y-91769048D01*
X132818381Y-91340476D02*
X132294571Y-91340476D01*
X132199333Y-91388095D01*
X132151714Y-91483333D01*
X132151714Y-91626191D01*
X132199333Y-91721429D01*
X132246952Y-91769048D01*
X132818381Y-90435714D02*
X131818381Y-90435714D01*
X132770762Y-90435714D02*
X132818381Y-90530952D01*
X132818381Y-90721429D01*
X132770762Y-90816667D01*
X132723143Y-90864286D01*
X132627905Y-90911905D01*
X132342190Y-90911905D01*
X132246952Y-90864286D01*
X132199333Y-90816667D01*
X132151714Y-90721429D01*
X132151714Y-90530952D01*
X132199333Y-90435714D01*
X132151714Y-89959524D02*
X132818381Y-89959524D01*
X132246952Y-89959524D02*
X132199333Y-89911905D01*
X132151714Y-89816667D01*
X132151714Y-89673809D01*
X132199333Y-89578571D01*
X132294571Y-89530952D01*
X132818381Y-89530952D01*
X132818381Y-88530952D02*
X132818381Y-89102381D01*
X132818381Y-88816667D02*
X131818381Y-88816667D01*
X131961238Y-88911905D01*
X132056476Y-89007143D01*
X132104095Y-89102381D01*
X149232667Y-85402381D02*
X149470762Y-86402381D01*
X149661239Y-85688095D01*
X149851715Y-86402381D01*
X150089810Y-85402381D01*
X150423143Y-86354762D02*
X150518381Y-86402381D01*
X150708857Y-86402381D01*
X150804096Y-86354762D01*
X150851715Y-86259524D01*
X150851715Y-86211905D01*
X150804096Y-86116667D01*
X150708857Y-86069048D01*
X150566000Y-86069048D01*
X150470762Y-86021429D01*
X150423143Y-85926190D01*
X150423143Y-85878571D01*
X150470762Y-85783333D01*
X150566000Y-85735714D01*
X150708857Y-85735714D01*
X150804096Y-85783333D01*
X151185048Y-85735714D02*
X151375524Y-86402381D01*
X151566001Y-85926190D01*
X151756477Y-86402381D01*
X151946953Y-85735714D01*
X152851715Y-86402381D02*
X152280286Y-86402381D01*
X152566000Y-86402381D02*
X152566000Y-85402381D01*
X152470762Y-85545238D01*
X152375524Y-85640476D01*
X152280286Y-85688095D01*
X136118381Y-111673810D02*
X137118381Y-111435715D01*
X136404095Y-111245238D01*
X137118381Y-111054762D01*
X136118381Y-110816667D01*
X136451714Y-110530953D02*
X137118381Y-110292858D01*
X136451714Y-110054762D01*
X136451714Y-109816667D02*
X136451714Y-109435715D01*
X137118381Y-109673810D02*
X136261238Y-109673810D01*
X136166000Y-109626191D01*
X136118381Y-109530953D01*
X136118381Y-109435715D01*
X137118381Y-109102381D02*
X136118381Y-109102381D01*
X136499333Y-109102381D02*
X136451714Y-109007143D01*
X136451714Y-108816666D01*
X136499333Y-108721428D01*
X136546952Y-108673809D01*
X136642190Y-108626190D01*
X136927905Y-108626190D01*
X137023143Y-108673809D01*
X137070762Y-108721428D01*
X137118381Y-108816666D01*
X137118381Y-109007143D01*
X137070762Y-109102381D01*
X137118381Y-107673809D02*
X137118381Y-108245238D01*
X137118381Y-107959524D02*
X136118381Y-107959524D01*
X136261238Y-108054762D01*
X136356476Y-108150000D01*
X136404095Y-108245238D01*
X131618381Y-87626191D02*
X132618381Y-87388096D01*
X131904095Y-87197619D01*
X132618381Y-87007143D01*
X131618381Y-86769048D01*
X131951714Y-86483334D02*
X132618381Y-86245239D01*
X131951714Y-86007143D01*
X132618381Y-85626191D02*
X131951714Y-85626191D01*
X132142190Y-85626191D02*
X132046952Y-85578572D01*
X131999333Y-85530953D01*
X131951714Y-85435715D01*
X131951714Y-85340476D01*
X132570762Y-84626190D02*
X132618381Y-84721428D01*
X132618381Y-84911905D01*
X132570762Y-85007143D01*
X132475524Y-85054762D01*
X132094571Y-85054762D01*
X131999333Y-85007143D01*
X131951714Y-84911905D01*
X131951714Y-84721428D01*
X131999333Y-84626190D01*
X132094571Y-84578571D01*
X132189810Y-84578571D01*
X132285048Y-85054762D01*
X131951714Y-83721428D02*
X132761238Y-83721428D01*
X132856476Y-83769047D01*
X132904095Y-83816666D01*
X132951714Y-83911905D01*
X132951714Y-84054762D01*
X132904095Y-84150000D01*
X132570762Y-83721428D02*
X132618381Y-83816666D01*
X132618381Y-84007143D01*
X132570762Y-84102381D01*
X132523143Y-84150000D01*
X132427905Y-84197619D01*
X132142190Y-84197619D01*
X132046952Y-84150000D01*
X131999333Y-84102381D01*
X131951714Y-84007143D01*
X131951714Y-83816666D01*
X131999333Y-83721428D01*
X132618381Y-82721428D02*
X132618381Y-83292857D01*
X132618381Y-83007143D02*
X131618381Y-83007143D01*
X131761238Y-83102381D01*
X131856476Y-83197619D01*
X131904095Y-83292857D01*
X125232667Y-94202381D02*
X125232667Y-94916667D01*
X125185047Y-95059524D01*
X125089809Y-95154762D01*
X124946952Y-95202381D01*
X124851714Y-95202381D01*
X125708857Y-95202381D02*
X125708857Y-94202381D01*
X126089810Y-94202381D01*
X126185048Y-94250000D01*
X126232667Y-94297619D01*
X126280286Y-94392857D01*
X126280286Y-94535714D01*
X126232667Y-94630952D01*
X126185048Y-94678571D01*
X126089810Y-94726190D01*
X125708857Y-94726190D01*
X126613619Y-94202381D02*
X127232667Y-94202381D01*
X126899333Y-94583333D01*
X127042191Y-94583333D01*
X127137429Y-94630952D01*
X127185048Y-94678571D01*
X127232667Y-94773810D01*
X127232667Y-95011905D01*
X127185048Y-95107143D01*
X127137429Y-95154762D01*
X127042191Y-95202381D01*
X126756476Y-95202381D01*
X126661238Y-95154762D01*
X126613619Y-95107143D01*
X141042190Y-102807143D02*
X140994571Y-102854762D01*
X140851714Y-102902381D01*
X140756476Y-102902381D01*
X140613618Y-102854762D01*
X140518380Y-102759524D01*
X140470761Y-102664286D01*
X140423142Y-102473810D01*
X140423142Y-102330952D01*
X140470761Y-102140476D01*
X140518380Y-102045238D01*
X140613618Y-101950000D01*
X140756476Y-101902381D01*
X140851714Y-101902381D01*
X140994571Y-101950000D01*
X141042190Y-101997619D01*
X141375523Y-102235714D02*
X141613618Y-102902381D01*
X141851714Y-102235714D01*
X142089809Y-102235714D02*
X142470761Y-102235714D01*
X142232666Y-102902381D02*
X142232666Y-102045238D01*
X142280285Y-101950000D01*
X142375523Y-101902381D01*
X142470761Y-101902381D01*
X142804095Y-102902381D02*
X142804095Y-101902381D01*
X142804095Y-102283333D02*
X142899333Y-102235714D01*
X143089810Y-102235714D01*
X143185048Y-102283333D01*
X143232667Y-102330952D01*
X143280286Y-102426190D01*
X143280286Y-102711905D01*
X143232667Y-102807143D01*
X143185048Y-102854762D01*
X143089810Y-102902381D01*
X142899333Y-102902381D01*
X142804095Y-102854762D01*
X144137429Y-102902381D02*
X144137429Y-102378571D01*
X144089810Y-102283333D01*
X143994572Y-102235714D01*
X143804095Y-102235714D01*
X143708857Y-102283333D01*
X144137429Y-102854762D02*
X144042191Y-102902381D01*
X143804095Y-102902381D01*
X143708857Y-102854762D01*
X143661238Y-102759524D01*
X143661238Y-102664286D01*
X143708857Y-102569048D01*
X143804095Y-102521429D01*
X144042191Y-102521429D01*
X144137429Y-102473810D01*
X144470762Y-102235714D02*
X144851714Y-102235714D01*
X144613619Y-101902381D02*
X144613619Y-102759524D01*
X144661238Y-102854762D01*
X144756476Y-102902381D01*
X144851714Y-102902381D01*
X145708858Y-102902381D02*
X145137429Y-102902381D01*
X145423143Y-102902381D02*
X145423143Y-101902381D01*
X145327905Y-102045238D01*
X145232667Y-102140476D01*
X145137429Y-102188095D01*
X159708857Y-104507143D02*
X159661238Y-104554762D01*
X159518381Y-104602381D01*
X159423143Y-104602381D01*
X159280285Y-104554762D01*
X159185047Y-104459524D01*
X159137428Y-104364286D01*
X159089809Y-104173810D01*
X159089809Y-104030952D01*
X159137428Y-103840476D01*
X159185047Y-103745238D01*
X159280285Y-103650000D01*
X159423143Y-103602381D01*
X159518381Y-103602381D01*
X159661238Y-103650000D01*
X159708857Y-103697619D01*
X160137428Y-104602381D02*
X160137428Y-103602381D01*
X160137428Y-103983333D02*
X160232666Y-103935714D01*
X160423143Y-103935714D01*
X160518381Y-103983333D01*
X160566000Y-104030952D01*
X160613619Y-104126190D01*
X160613619Y-104411905D01*
X160566000Y-104507143D01*
X160518381Y-104554762D01*
X160423143Y-104602381D01*
X160232666Y-104602381D01*
X160137428Y-104554762D01*
X161470762Y-104602381D02*
X161470762Y-104078571D01*
X161423143Y-103983333D01*
X161327905Y-103935714D01*
X161137428Y-103935714D01*
X161042190Y-103983333D01*
X161470762Y-104554762D02*
X161375524Y-104602381D01*
X161137428Y-104602381D01*
X161042190Y-104554762D01*
X160994571Y-104459524D01*
X160994571Y-104364286D01*
X161042190Y-104269048D01*
X161137428Y-104221429D01*
X161375524Y-104221429D01*
X161470762Y-104173810D01*
X161804095Y-103935714D02*
X162185047Y-103935714D01*
X161946952Y-103602381D02*
X161946952Y-104459524D01*
X161994571Y-104554762D01*
X162089809Y-104602381D01*
X162185047Y-104602381D01*
X163042191Y-104602381D02*
X162470762Y-104602381D01*
X162756476Y-104602381D02*
X162756476Y-103602381D01*
X162661238Y-103745238D01*
X162566000Y-103840476D01*
X162470762Y-103888095D01*
X158208857Y-79602381D02*
X158208857Y-78602381D01*
X158589810Y-78602381D01*
X158685048Y-78650000D01*
X158732667Y-78697619D01*
X158780286Y-78792857D01*
X158780286Y-78935714D01*
X158732667Y-79030952D01*
X158685048Y-79078571D01*
X158589810Y-79126190D01*
X158208857Y-79126190D01*
X159351714Y-79602381D02*
X159256476Y-79554762D01*
X159208857Y-79459524D01*
X159208857Y-78602381D01*
X159875524Y-79602381D02*
X159780286Y-79554762D01*
X159732667Y-79507143D01*
X159685048Y-79411905D01*
X159685048Y-79126190D01*
X159732667Y-79030952D01*
X159780286Y-78983333D01*
X159875524Y-78935714D01*
X160018382Y-78935714D01*
X160113620Y-78983333D01*
X160161239Y-79030952D01*
X160208858Y-79126190D01*
X160208858Y-79411905D01*
X160161239Y-79507143D01*
X160113620Y-79554762D01*
X160018382Y-79602381D01*
X159875524Y-79602381D01*
X161066001Y-79602381D02*
X161066001Y-79078571D01*
X161018382Y-78983333D01*
X160923144Y-78935714D01*
X160732667Y-78935714D01*
X160637429Y-78983333D01*
X161066001Y-79554762D02*
X160970763Y-79602381D01*
X160732667Y-79602381D01*
X160637429Y-79554762D01*
X160589810Y-79459524D01*
X160589810Y-79364286D01*
X160637429Y-79269048D01*
X160732667Y-79221429D01*
X160970763Y-79221429D01*
X161066001Y-79173810D01*
X161970763Y-79602381D02*
X161970763Y-78602381D01*
X161970763Y-79554762D02*
X161875525Y-79602381D01*
X161685048Y-79602381D01*
X161589810Y-79554762D01*
X161542191Y-79507143D01*
X161494572Y-79411905D01*
X161494572Y-79126190D01*
X161542191Y-79030952D01*
X161589810Y-78983333D01*
X161685048Y-78935714D01*
X161875525Y-78935714D01*
X161970763Y-78983333D01*
X162399334Y-78697619D02*
X162446953Y-78650000D01*
X162542191Y-78602381D01*
X162780287Y-78602381D01*
X162875525Y-78650000D01*
X162923144Y-78697619D01*
X162970763Y-78792857D01*
X162970763Y-78888095D01*
X162923144Y-79030952D01*
X162351715Y-79602381D01*
X162970763Y-79602381D01*
X150823143Y-100416666D02*
X150870762Y-100464285D01*
X150918381Y-100607142D01*
X150918381Y-100702380D01*
X150870762Y-100845238D01*
X150775524Y-100940476D01*
X150680286Y-100988095D01*
X150489810Y-101035714D01*
X150346952Y-101035714D01*
X150156476Y-100988095D01*
X150061238Y-100940476D01*
X149966000Y-100845238D01*
X149918381Y-100702380D01*
X149918381Y-100607142D01*
X149966000Y-100464285D01*
X150013619Y-100416666D01*
X149918381Y-100083333D02*
X149918381Y-99464285D01*
X150299333Y-99797619D01*
X150299333Y-99654761D01*
X150346952Y-99559523D01*
X150394571Y-99511904D01*
X150489810Y-99464285D01*
X150727905Y-99464285D01*
X150823143Y-99511904D01*
X150870762Y-99559523D01*
X150918381Y-99654761D01*
X150918381Y-99940476D01*
X150870762Y-100035714D01*
X150823143Y-100083333D01*
X137423143Y-119978571D02*
X137470762Y-120026190D01*
X137518381Y-120169047D01*
X137518381Y-120264285D01*
X137470762Y-120407143D01*
X137375524Y-120502381D01*
X137280286Y-120550000D01*
X137089810Y-120597619D01*
X136946952Y-120597619D01*
X136756476Y-120550000D01*
X136661238Y-120502381D01*
X136566000Y-120407143D01*
X136518381Y-120264285D01*
X136518381Y-120169047D01*
X136566000Y-120026190D01*
X136613619Y-119978571D01*
X136851714Y-119692857D02*
X136851714Y-119311905D01*
X136518381Y-119550000D02*
X137375524Y-119550000D01*
X137470762Y-119502381D01*
X137518381Y-119407143D01*
X137518381Y-119311905D01*
X137518381Y-118978571D02*
X136851714Y-118978571D01*
X136946952Y-118978571D02*
X136899333Y-118930952D01*
X136851714Y-118835714D01*
X136851714Y-118692856D01*
X136899333Y-118597618D01*
X136994571Y-118549999D01*
X137518381Y-118549999D01*
X136994571Y-118549999D02*
X136899333Y-118502380D01*
X136851714Y-118407142D01*
X136851714Y-118264285D01*
X136899333Y-118169047D01*
X136994571Y-118121428D01*
X137518381Y-118121428D01*
X137518381Y-117645238D02*
X136851714Y-117645238D01*
X137042190Y-117645238D02*
X136946952Y-117597619D01*
X136899333Y-117550000D01*
X136851714Y-117454762D01*
X136851714Y-117359523D01*
X137518381Y-116502380D02*
X137518381Y-117073809D01*
X137518381Y-116788095D02*
X136518381Y-116788095D01*
X136661238Y-116883333D01*
X136756476Y-116978571D01*
X136804095Y-117073809D01*
X134527905Y-88807143D02*
X134480286Y-88854762D01*
X134337429Y-88902381D01*
X134242191Y-88902381D01*
X134099333Y-88854762D01*
X134004095Y-88759524D01*
X133956476Y-88664286D01*
X133908857Y-88473810D01*
X133908857Y-88330952D01*
X133956476Y-88140476D01*
X134004095Y-88045238D01*
X134099333Y-87950000D01*
X134242191Y-87902381D01*
X134337429Y-87902381D01*
X134480286Y-87950000D01*
X134527905Y-87997619D01*
X134861238Y-88235714D02*
X135099333Y-88902381D01*
X135337429Y-88235714D01*
X135718381Y-88902381D02*
X135718381Y-88235714D01*
X135718381Y-87902381D02*
X135670762Y-87950000D01*
X135718381Y-87997619D01*
X135766000Y-87950000D01*
X135718381Y-87902381D01*
X135718381Y-87997619D01*
X136194571Y-88235714D02*
X136194571Y-88902381D01*
X136194571Y-88330952D02*
X136242190Y-88283333D01*
X136337428Y-88235714D01*
X136480286Y-88235714D01*
X136575524Y-88283333D01*
X136623143Y-88378571D01*
X136623143Y-88902381D01*
X137051714Y-87997619D02*
X137099333Y-87950000D01*
X137194571Y-87902381D01*
X137432667Y-87902381D01*
X137527905Y-87950000D01*
X137575524Y-87997619D01*
X137623143Y-88092857D01*
X137623143Y-88188095D01*
X137575524Y-88330952D01*
X137004095Y-88902381D01*
X137623143Y-88902381D01*
X137718381Y-76464286D02*
X136718381Y-76464286D01*
X136718381Y-76083333D01*
X136766000Y-75988095D01*
X136813619Y-75940476D01*
X136908857Y-75892857D01*
X137051714Y-75892857D01*
X137146952Y-75940476D01*
X137194571Y-75988095D01*
X137242190Y-76083333D01*
X137242190Y-76464286D01*
X137670762Y-75511905D02*
X137718381Y-75416667D01*
X137718381Y-75226191D01*
X137670762Y-75130952D01*
X137575524Y-75083333D01*
X137527905Y-75083333D01*
X137432667Y-75130952D01*
X137385048Y-75226191D01*
X137385048Y-75369048D01*
X137337429Y-75464286D01*
X137242190Y-75511905D01*
X137194571Y-75511905D01*
X137099333Y-75464286D01*
X137051714Y-75369048D01*
X137051714Y-75226191D01*
X137099333Y-75130952D01*
X137718381Y-74511905D02*
X137670762Y-74607143D01*
X137575524Y-74654762D01*
X136718381Y-74654762D01*
X137718381Y-74130952D02*
X137051714Y-74130952D01*
X137242190Y-74130952D02*
X137146952Y-74083333D01*
X137099333Y-74035714D01*
X137051714Y-73940476D01*
X137051714Y-73845237D01*
X137718381Y-72988094D02*
X137718381Y-73559523D01*
X137718381Y-73273809D02*
X136718381Y-73273809D01*
X136861238Y-73369047D01*
X136956476Y-73464285D01*
X137004095Y-73559523D01*
X149418381Y-97535714D02*
X148942190Y-97869048D01*
X149418381Y-98107143D02*
X148418381Y-98107143D01*
X148418381Y-97726190D01*
X148466000Y-97630952D01*
X148513619Y-97583333D01*
X148608857Y-97535714D01*
X148751714Y-97535714D01*
X148846952Y-97583333D01*
X148894571Y-97630952D01*
X148942190Y-97726190D01*
X148942190Y-98107143D01*
X149370762Y-97154762D02*
X149418381Y-97059524D01*
X149418381Y-96869048D01*
X149370762Y-96773809D01*
X149275524Y-96726190D01*
X149227905Y-96726190D01*
X149132667Y-96773809D01*
X149085048Y-96869048D01*
X149085048Y-97011905D01*
X149037429Y-97107143D01*
X148942190Y-97154762D01*
X148894571Y-97154762D01*
X148799333Y-97107143D01*
X148751714Y-97011905D01*
X148751714Y-96869048D01*
X148799333Y-96773809D01*
X149370762Y-95916666D02*
X149418381Y-96011904D01*
X149418381Y-96202381D01*
X149370762Y-96297619D01*
X149275524Y-96345238D01*
X148894571Y-96345238D01*
X148799333Y-96297619D01*
X148751714Y-96202381D01*
X148751714Y-96011904D01*
X148799333Y-95916666D01*
X148894571Y-95869047D01*
X148989810Y-95869047D01*
X149085048Y-96345238D01*
X148751714Y-95440476D02*
X149418381Y-95440476D01*
X148846952Y-95440476D02*
X148799333Y-95392857D01*
X148751714Y-95297619D01*
X148751714Y-95154761D01*
X148799333Y-95059523D01*
X148894571Y-95011904D01*
X149418381Y-95011904D01*
X149370762Y-94583333D02*
X149418381Y-94488095D01*
X149418381Y-94297619D01*
X149370762Y-94202380D01*
X149275524Y-94154761D01*
X149227905Y-94154761D01*
X149132667Y-94202380D01*
X149085048Y-94297619D01*
X149085048Y-94440476D01*
X149037429Y-94535714D01*
X148942190Y-94583333D01*
X148894571Y-94583333D01*
X148799333Y-94535714D01*
X148751714Y-94440476D01*
X148751714Y-94297619D01*
X148799333Y-94202380D01*
X149370762Y-93345237D02*
X149418381Y-93440475D01*
X149418381Y-93630952D01*
X149370762Y-93726190D01*
X149275524Y-93773809D01*
X148894571Y-93773809D01*
X148799333Y-93726190D01*
X148751714Y-93630952D01*
X148751714Y-93440475D01*
X148799333Y-93345237D01*
X148894571Y-93297618D01*
X148989810Y-93297618D01*
X149085048Y-93773809D01*
X149418381Y-92345237D02*
X149418381Y-92916666D01*
X149418381Y-92630952D02*
X148418381Y-92630952D01*
X148561238Y-92726190D01*
X148656476Y-92821428D01*
X148704095Y-92916666D01*
X123718381Y-99988095D02*
X122718381Y-99988095D01*
X122718381Y-99750000D01*
X122766000Y-99607142D01*
X122861238Y-99511904D01*
X122956476Y-99464285D01*
X123146952Y-99416666D01*
X123289810Y-99416666D01*
X123480286Y-99464285D01*
X123575524Y-99511904D01*
X123670762Y-99607142D01*
X123718381Y-99750000D01*
X123718381Y-99988095D01*
X123718381Y-98464285D02*
X123718381Y-99035714D01*
X123718381Y-98750000D02*
X122718381Y-98750000D01*
X122861238Y-98845238D01*
X122956476Y-98940476D01*
X123004095Y-99035714D01*
D10*
X122725048Y-96336190D02*
X122725048Y-95836190D01*
X123010762Y-96336190D02*
X122796476Y-96050476D01*
X123010762Y-95836190D02*
X122725048Y-96121905D01*
D12*
X123718381Y-105988095D02*
X122718381Y-105988095D01*
X122718381Y-105750000D01*
X122766000Y-105607142D01*
X122861238Y-105511904D01*
X122956476Y-105464285D01*
X123146952Y-105416666D01*
X123289810Y-105416666D01*
X123480286Y-105464285D01*
X123575524Y-105511904D01*
X123670762Y-105607142D01*
X123718381Y-105750000D01*
X123718381Y-105988095D01*
X122813619Y-105035714D02*
X122766000Y-104988095D01*
X122718381Y-104892857D01*
X122718381Y-104654761D01*
X122766000Y-104559523D01*
X122813619Y-104511904D01*
X122908857Y-104464285D01*
X123004095Y-104464285D01*
X123146952Y-104511904D01*
X123718381Y-105083333D01*
X123718381Y-104464285D01*
D10*
X122725048Y-102336190D02*
X122725048Y-101836190D01*
X123010762Y-102336190D02*
X122796476Y-102050476D01*
X123010762Y-101836190D02*
X122725048Y-102121905D01*
D12*
X147137428Y-106952381D02*
X147137428Y-105952381D01*
X147375523Y-105952381D01*
X147518381Y-106000000D01*
X147613619Y-106095238D01*
X147661238Y-106190476D01*
X147708857Y-106380952D01*
X147708857Y-106523810D01*
X147661238Y-106714286D01*
X147613619Y-106809524D01*
X147518381Y-106904762D01*
X147375523Y-106952381D01*
X147137428Y-106952381D01*
X148137428Y-106952381D02*
X148137428Y-105952381D01*
X148137428Y-106333333D02*
X148232666Y-106285714D01*
X148423143Y-106285714D01*
X148518381Y-106333333D01*
X148566000Y-106380952D01*
X148613619Y-106476190D01*
X148613619Y-106761905D01*
X148566000Y-106857143D01*
X148518381Y-106904762D01*
X148423143Y-106952381D01*
X148232666Y-106952381D01*
X148137428Y-106904762D01*
X149470762Y-106952381D02*
X149470762Y-106428571D01*
X149423143Y-106333333D01*
X149327905Y-106285714D01*
X149137428Y-106285714D01*
X149042190Y-106333333D01*
X149470762Y-106904762D02*
X149375524Y-106952381D01*
X149137428Y-106952381D01*
X149042190Y-106904762D01*
X148994571Y-106809524D01*
X148994571Y-106714286D01*
X149042190Y-106619048D01*
X149137428Y-106571429D01*
X149375524Y-106571429D01*
X149470762Y-106523810D01*
X149804095Y-106285714D02*
X150185047Y-106285714D01*
X149946952Y-105952381D02*
X149946952Y-106809524D01*
X149994571Y-106904762D01*
X150089809Y-106952381D01*
X150185047Y-106952381D01*
X151042191Y-106952381D02*
X150470762Y-106952381D01*
X150756476Y-106952381D02*
X150756476Y-105952381D01*
X150661238Y-106095238D01*
X150566000Y-106190476D01*
X150470762Y-106238095D01*
X157418381Y-109402381D02*
X158132667Y-109402381D01*
X158275524Y-109450001D01*
X158370762Y-109545239D01*
X158418381Y-109688096D01*
X158418381Y-109783334D01*
X158418381Y-108926191D02*
X157418381Y-108926191D01*
X157418381Y-108545238D01*
X157466000Y-108450000D01*
X157513619Y-108402381D01*
X157608857Y-108354762D01*
X157751714Y-108354762D01*
X157846952Y-108402381D01*
X157894571Y-108450000D01*
X157942190Y-108545238D01*
X157942190Y-108926191D01*
X158418381Y-107783334D02*
X158370762Y-107878572D01*
X158275524Y-107926191D01*
X157418381Y-107926191D01*
X158418381Y-107259524D02*
X158370762Y-107354762D01*
X158323143Y-107402381D01*
X158227905Y-107450000D01*
X157942190Y-107450000D01*
X157846952Y-107402381D01*
X157799333Y-107354762D01*
X157751714Y-107259524D01*
X157751714Y-107116666D01*
X157799333Y-107021428D01*
X157846952Y-106973809D01*
X157942190Y-106926190D01*
X158227905Y-106926190D01*
X158323143Y-106973809D01*
X158370762Y-107021428D01*
X158418381Y-107116666D01*
X158418381Y-107259524D01*
X158418381Y-106069047D02*
X157894571Y-106069047D01*
X157799333Y-106116666D01*
X157751714Y-106211904D01*
X157751714Y-106402381D01*
X157799333Y-106497619D01*
X158370762Y-106069047D02*
X158418381Y-106164285D01*
X158418381Y-106402381D01*
X158370762Y-106497619D01*
X158275524Y-106545238D01*
X158180286Y-106545238D01*
X158085048Y-106497619D01*
X158037429Y-106402381D01*
X158037429Y-106164285D01*
X157989810Y-106069047D01*
X158418381Y-105164285D02*
X157418381Y-105164285D01*
X158370762Y-105164285D02*
X158418381Y-105259523D01*
X158418381Y-105450000D01*
X158370762Y-105545238D01*
X158323143Y-105592857D01*
X158227905Y-105640476D01*
X157942190Y-105640476D01*
X157846952Y-105592857D01*
X157799333Y-105545238D01*
X157751714Y-105450000D01*
X157751714Y-105259523D01*
X157799333Y-105164285D01*
X158418381Y-104164285D02*
X158418381Y-104735714D01*
X158418381Y-104450000D02*
X157418381Y-104450000D01*
X157561238Y-104545238D01*
X157656476Y-104640476D01*
X157704095Y-104735714D01*
X148218381Y-76464286D02*
X147218381Y-76464286D01*
X147218381Y-76083333D01*
X147266000Y-75988095D01*
X147313619Y-75940476D01*
X147408857Y-75892857D01*
X147551714Y-75892857D01*
X147646952Y-75940476D01*
X147694571Y-75988095D01*
X147742190Y-76083333D01*
X147742190Y-76464286D01*
X148170762Y-75511905D02*
X148218381Y-75416667D01*
X148218381Y-75226191D01*
X148170762Y-75130952D01*
X148075524Y-75083333D01*
X148027905Y-75083333D01*
X147932667Y-75130952D01*
X147885048Y-75226191D01*
X147885048Y-75369048D01*
X147837429Y-75464286D01*
X147742190Y-75511905D01*
X147694571Y-75511905D01*
X147599333Y-75464286D01*
X147551714Y-75369048D01*
X147551714Y-75226191D01*
X147599333Y-75130952D01*
X148218381Y-74511905D02*
X148170762Y-74607143D01*
X148075524Y-74654762D01*
X147218381Y-74654762D01*
X148218381Y-74130952D02*
X147551714Y-74130952D01*
X147742190Y-74130952D02*
X147646952Y-74083333D01*
X147599333Y-74035714D01*
X147551714Y-73940476D01*
X147551714Y-73845237D01*
X147313619Y-73559523D02*
X147266000Y-73511904D01*
X147218381Y-73416666D01*
X147218381Y-73178570D01*
X147266000Y-73083332D01*
X147313619Y-73035713D01*
X147408857Y-72988094D01*
X147504095Y-72988094D01*
X147646952Y-73035713D01*
X148218381Y-73607142D01*
X148218381Y-72988094D01*
X128518381Y-93078571D02*
X128042190Y-93411905D01*
X128518381Y-93650000D02*
X127518381Y-93650000D01*
X127518381Y-93269047D01*
X127566000Y-93173809D01*
X127613619Y-93126190D01*
X127708857Y-93078571D01*
X127851714Y-93078571D01*
X127946952Y-93126190D01*
X127994571Y-93173809D01*
X128042190Y-93269047D01*
X128042190Y-93650000D01*
X128470762Y-92697619D02*
X128518381Y-92602381D01*
X128518381Y-92411905D01*
X128470762Y-92316666D01*
X128375524Y-92269047D01*
X128327905Y-92269047D01*
X128232667Y-92316666D01*
X128185048Y-92411905D01*
X128185048Y-92554762D01*
X128137429Y-92650000D01*
X128042190Y-92697619D01*
X127994571Y-92697619D01*
X127899333Y-92650000D01*
X127851714Y-92554762D01*
X127851714Y-92411905D01*
X127899333Y-92316666D01*
X128518381Y-91840476D02*
X127518381Y-91840476D01*
X128518381Y-91411904D02*
X127994571Y-91411904D01*
X127899333Y-91459523D01*
X127851714Y-91554761D01*
X127851714Y-91697619D01*
X127899333Y-91792857D01*
X127946952Y-91840476D01*
X128518381Y-90507142D02*
X127518381Y-90507142D01*
X128470762Y-90507142D02*
X128518381Y-90602380D01*
X128518381Y-90792857D01*
X128470762Y-90888095D01*
X128423143Y-90935714D01*
X128327905Y-90983333D01*
X128042190Y-90983333D01*
X127946952Y-90935714D01*
X127899333Y-90888095D01*
X127851714Y-90792857D01*
X127851714Y-90602380D01*
X127899333Y-90507142D01*
X127851714Y-90030952D02*
X128518381Y-90030952D01*
X127946952Y-90030952D02*
X127899333Y-89983333D01*
X127851714Y-89888095D01*
X127851714Y-89745237D01*
X127899333Y-89649999D01*
X127994571Y-89602380D01*
X128518381Y-89602380D01*
X128518381Y-88602380D02*
X128518381Y-89173809D01*
X128518381Y-88888095D02*
X127518381Y-88888095D01*
X127661238Y-88983333D01*
X127756476Y-89078571D01*
X127804095Y-89173809D01*
X128418381Y-84759524D02*
X127942190Y-85092858D01*
X128418381Y-85330953D02*
X127418381Y-85330953D01*
X127418381Y-84950000D01*
X127466000Y-84854762D01*
X127513619Y-84807143D01*
X127608857Y-84759524D01*
X127751714Y-84759524D01*
X127846952Y-84807143D01*
X127894571Y-84854762D01*
X127942190Y-84950000D01*
X127942190Y-85330953D01*
X127751714Y-84426191D02*
X128418381Y-84188096D01*
X127751714Y-83950000D01*
X128418381Y-83569048D02*
X127751714Y-83569048D01*
X127942190Y-83569048D02*
X127846952Y-83521429D01*
X127799333Y-83473810D01*
X127751714Y-83378572D01*
X127751714Y-83283333D01*
X127751714Y-82521428D02*
X128561238Y-82521428D01*
X128656476Y-82569047D01*
X128704095Y-82616666D01*
X128751714Y-82711905D01*
X128751714Y-82854762D01*
X128704095Y-82950000D01*
X128370762Y-82521428D02*
X128418381Y-82616666D01*
X128418381Y-82807143D01*
X128370762Y-82902381D01*
X128323143Y-82950000D01*
X128227905Y-82997619D01*
X127942190Y-82997619D01*
X127846952Y-82950000D01*
X127799333Y-82902381D01*
X127751714Y-82807143D01*
X127751714Y-82616666D01*
X127799333Y-82521428D01*
X128418381Y-81521428D02*
X128418381Y-82092857D01*
X128418381Y-81807143D02*
X127418381Y-81807143D01*
X127561238Y-81902381D01*
X127656476Y-81997619D01*
X127704095Y-82092857D01*
X154418381Y-99621429D02*
X153418381Y-99621429D01*
X153418381Y-99383334D01*
X153466000Y-99240476D01*
X153561238Y-99145238D01*
X153656476Y-99097619D01*
X153846952Y-99050000D01*
X153989810Y-99050000D01*
X154180286Y-99097619D01*
X154275524Y-99145238D01*
X154370762Y-99240476D01*
X154418381Y-99383334D01*
X154418381Y-99621429D01*
X154418381Y-98621429D02*
X153418381Y-98621429D01*
X153799333Y-98621429D02*
X153751714Y-98526191D01*
X153751714Y-98335714D01*
X153799333Y-98240476D01*
X153846952Y-98192857D01*
X153942190Y-98145238D01*
X154227905Y-98145238D01*
X154323143Y-98192857D01*
X154370762Y-98240476D01*
X154418381Y-98335714D01*
X154418381Y-98526191D01*
X154370762Y-98621429D01*
X154418381Y-97288095D02*
X153894571Y-97288095D01*
X153799333Y-97335714D01*
X153751714Y-97430952D01*
X153751714Y-97621429D01*
X153799333Y-97716667D01*
X154370762Y-97288095D02*
X154418381Y-97383333D01*
X154418381Y-97621429D01*
X154370762Y-97716667D01*
X154275524Y-97764286D01*
X154180286Y-97764286D01*
X154085048Y-97716667D01*
X154037429Y-97621429D01*
X154037429Y-97383333D01*
X153989810Y-97288095D01*
X153751714Y-96954762D02*
X153751714Y-96573810D01*
X153418381Y-96811905D02*
X154275524Y-96811905D01*
X154370762Y-96764286D01*
X154418381Y-96669048D01*
X154418381Y-96573810D01*
X154418381Y-96240476D02*
X153418381Y-96240476D01*
X153799333Y-96240476D02*
X153751714Y-96145238D01*
X153751714Y-95954761D01*
X153799333Y-95859523D01*
X153846952Y-95811904D01*
X153942190Y-95764285D01*
X154227905Y-95764285D01*
X154323143Y-95811904D01*
X154370762Y-95859523D01*
X154418381Y-95954761D01*
X154418381Y-96145238D01*
X154370762Y-96240476D01*
X154370762Y-95383333D02*
X154418381Y-95288095D01*
X154418381Y-95097619D01*
X154370762Y-95002380D01*
X154275524Y-94954761D01*
X154227905Y-94954761D01*
X154132667Y-95002380D01*
X154085048Y-95097619D01*
X154085048Y-95240476D01*
X154037429Y-95335714D01*
X153942190Y-95383333D01*
X153894571Y-95383333D01*
X153799333Y-95335714D01*
X153751714Y-95240476D01*
X153751714Y-95097619D01*
X153799333Y-95002380D01*
X153751714Y-94669047D02*
X153751714Y-94288095D01*
X153418381Y-94526190D02*
X154275524Y-94526190D01*
X154370762Y-94478571D01*
X154418381Y-94383333D01*
X154418381Y-94288095D01*
X154418381Y-93430951D02*
X154418381Y-94002380D01*
X154418381Y-93716666D02*
X153418381Y-93716666D01*
X153561238Y-93811904D01*
X153656476Y-93907142D01*
X153704095Y-94002380D01*
D14*
X138305048Y-101966190D02*
X138305048Y-102370952D01*
X138328857Y-102418571D01*
X138352667Y-102442381D01*
X138400286Y-102466190D01*
X138495524Y-102466190D01*
X138543143Y-102442381D01*
X138566952Y-102418571D01*
X138590762Y-102370952D01*
X138590762Y-101966190D01*
X139090762Y-102466190D02*
X138805048Y-102466190D01*
X138947905Y-102466190D02*
X138947905Y-101966190D01*
X138900286Y-102037619D01*
X138852667Y-102085238D01*
X138805048Y-102109048D01*
M02*
