M48
;DRILL file {KiCad 4.0.1-stable} date 02/03/2016 22:00:22
;FORMAT={3:3/ absolute / metric / suppress leading zeros}
FMAT,2
METRIC,TZ
T1C0.400
T2C0.460
T3C0.700
T4C0.701
T5C0.800
T6C1.001
T7C1.016
T8C1.200
T9C1.270
T10C2.000
%
G90
G05
M71
T1
X123816Y-107250
X124616Y-84400
X135266Y-117600
X135766Y-90550
X135766Y-94550
X138666Y-95950
X138666Y-101400
X138679Y-98712
X140716Y-92750
X141266Y-108450
X146166Y-103250
X147266Y-90400
X147266Y-92250
X148366Y-100250
X157266Y-84250
X157566Y-75350
T2
X117836Y-91350
X117936Y-83450
X120376Y-88810
X120376Y-93890
X120476Y-80910
X120476Y-85990
T3
X140266Y-84650
X145266Y-84650
T4
X132065Y-74750
X134067Y-74750
X167866Y-100049
X167866Y-102051
X167866Y-108349
X167866Y-110351
T5
X161036Y-99314
X161036Y-101814
T6
X118626Y-97850
X118626Y-103850
X121166Y-97850
X121166Y-103850
X152166Y-91350
T7
X126066Y-97250
X126066Y-99790
X126066Y-102330
X126366Y-108550
X126366Y-118550
X126386Y-113550
X128906Y-108550
X128906Y-118550
X128926Y-113550
X131446Y-108550
X131446Y-118550
X131466Y-113550
X154432Y-100076
X154432Y-102616
X154432Y-105156
T8
X160966Y-85250
X160966Y-90250
T9
X152166Y-95160
T10
X121066Y-76400
X121066Y-116200
X165866Y-76400
X165866Y-116200
T8
X158966Y-80900G85X161966Y-80900
G05
X158966Y-94600G85X161966Y-94600
G05
T0
M30
