M48
;DRILL file {KiCad 4.0.1-stable} date 07/03/2016 22:47:03
;FORMAT={3:3/ absolute / metric / suppress leading zeros}
FMAT,2
METRIC,TZ
T1C0.400
T2C0.460
T3C0.700
T4C0.701
T5C0.800
T6C1.001
T7C1.016
T8C1.200
T9C2.000
%
G90
G05
M71
T1
X133066Y-92750
X138666Y-96550
X138666Y-100850
X146966Y-103250
X147766Y-98550
X147766Y-102050
X150666Y-99350
T2
X117826Y-83440
X117826Y-91240
X120366Y-85980
X120366Y-93780
X122906Y-83440
X122906Y-91240
T3
X140266Y-84650
X145266Y-84650
T4
X132065Y-74750
X134067Y-74750
X142565Y-74750
X144567Y-74750
X152169Y-91351
X152169Y-101511
X167866Y-100049
X167866Y-102051
X167866Y-108349
X167866Y-110351
T5
X161036Y-99314
X161036Y-101814
T6
X118626Y-97850
X118626Y-103850
X121166Y-97850
X121166Y-103850
T7
X126066Y-97250
X126066Y-99790
X126066Y-102330
X126366Y-108550
X126366Y-118550
X126386Y-113550
X128906Y-108550
X128906Y-118550
X128926Y-113550
X131446Y-108550
X131446Y-118550
X131466Y-113550
X155366Y-104470
X155366Y-107010
X155366Y-109550
T8
X160966Y-85250
X160966Y-90250
T9
X121066Y-76400
X121066Y-116200
X165866Y-76400
X165866Y-116200
T8
X158966Y-80900G85X161966Y-80900
G05
X158966Y-94600G85X161966Y-94600
G05
T0
M30
