G04 #@! TF.FileFunction,Copper,L2,Bot,Signal*
%FSLAX46Y46*%
G04 Gerber Fmt 4.6, Leading zero omitted, Abs format (unit mm)*
G04 Created by KiCad (PCBNEW 4.0.1-stable) date 02/03/2016 22:00:12*
%MOMM*%
G01*
G04 APERTURE LIST*
%ADD10C,0.100000*%
%ADD11C,4.500120*%
%ADD12C,1.000000*%
%ADD13R,1.727200X2.032000*%
%ADD14O,1.727200X2.032000*%
%ADD15R,1.699260X1.198880*%
%ADD16O,1.699260X1.198880*%
%ADD17R,2.032000X1.727200*%
%ADD18O,2.032000X1.727200*%
%ADD19R,1.300000X1.300000*%
%ADD20C,1.300000*%
%ADD21C,1.500000*%
%ADD22R,4.500000X1.500000*%
%ADD23R,1.198880X1.699260*%
%ADD24O,1.198880X1.699260*%
%ADD25R,2.000000X2.000000*%
%ADD26C,2.000000*%
%ADD27C,1.998980*%
%ADD28R,1.998980X1.998980*%
%ADD29C,0.600000*%
%ADD30C,0.300000*%
%ADD31C,0.254000*%
G04 APERTURE END LIST*
D10*
D11*
X121066000Y-116200000D03*
X121066000Y-76400000D03*
X165866000Y-76400000D03*
X165866000Y-116200000D03*
D12*
X117836000Y-91350000D03*
X120376000Y-93890000D03*
X120376000Y-88810000D03*
D13*
X126366000Y-108550000D03*
D14*
X128906000Y-108550000D03*
X131446000Y-108550000D03*
D12*
X117936000Y-83450000D03*
X120476000Y-85990000D03*
X120476000Y-80910000D03*
D13*
X126366000Y-118550000D03*
D14*
X128906000Y-118550000D03*
X131446000Y-118550000D03*
D12*
X145266000Y-84650000D03*
X140266000Y-84650000D03*
D15*
X167866000Y-110350760D03*
D16*
X167866000Y-108349240D03*
D13*
X131466000Y-113550000D03*
D14*
X128926000Y-113550000D03*
X126386000Y-113550000D03*
D15*
X167866000Y-102050760D03*
D16*
X167866000Y-100049240D03*
D17*
X126066000Y-97250000D03*
D18*
X126066000Y-99790000D03*
X126066000Y-102330000D03*
D19*
X161036000Y-99314000D03*
D20*
X161036000Y-101814000D03*
D21*
X160966000Y-85250000D03*
X160966000Y-90250000D03*
D22*
X160466000Y-94600000D03*
X160466000Y-80900000D03*
D23*
X134066760Y-74750000D03*
D24*
X132065240Y-74750000D03*
D25*
X121166000Y-97850000D03*
D26*
X118626000Y-97850000D03*
D25*
X121166000Y-103850000D03*
D26*
X118626000Y-103850000D03*
D27*
X152166000Y-95160000D03*
D28*
X152166000Y-91350000D03*
D17*
X154432000Y-105156000D03*
D18*
X154432000Y-102616000D03*
X154432000Y-100076000D03*
D29*
X138678500Y-98712500D03*
X141266000Y-108450000D03*
X157566000Y-75350000D03*
X157266000Y-84250000D03*
X148366000Y-100250000D03*
X138666000Y-101400000D03*
X138666000Y-95950000D03*
X140716000Y-92750000D03*
X135766000Y-90550000D03*
X135266000Y-117600000D03*
X135766000Y-94550000D03*
X146166000Y-103250000D03*
X123816000Y-107250000D03*
X147266000Y-92250000D03*
X147266000Y-90400000D03*
X124616000Y-84400000D03*
D30*
X138666000Y-98750000D02*
X138666000Y-98725000D01*
X138666000Y-98725000D02*
X138678500Y-98712500D01*
X137966000Y-103250000D02*
X146166000Y-103250000D01*
X135766000Y-101050000D02*
X137966000Y-103250000D01*
X135766000Y-101050000D02*
X135766000Y-94550000D01*
X123816000Y-107250000D02*
X123816000Y-104050000D01*
X123816000Y-104050000D02*
X125536000Y-102330000D01*
X125536000Y-102330000D02*
X126066000Y-102330000D01*
X147266000Y-92250000D02*
X147266000Y-90400000D01*
X124616000Y-84400000D02*
X121126000Y-80910000D01*
X121126000Y-80910000D02*
X120476000Y-80910000D01*
D31*
G36*
X170356000Y-120840000D02*
X116576000Y-120840000D01*
X116576000Y-116771356D01*
X118180440Y-116771356D01*
X118618739Y-117832120D01*
X119429611Y-118644409D01*
X120489608Y-119084558D01*
X121637356Y-119085560D01*
X122241942Y-118835750D01*
X124867400Y-118835750D01*
X124867400Y-119692309D01*
X124964073Y-119925698D01*
X125142701Y-120104327D01*
X125376090Y-120201000D01*
X126080250Y-120201000D01*
X126239000Y-120042250D01*
X126239000Y-118677000D01*
X125026150Y-118677000D01*
X124867400Y-118835750D01*
X122241942Y-118835750D01*
X122698120Y-118647261D01*
X123510409Y-117836389D01*
X123688419Y-117407691D01*
X124867400Y-117407691D01*
X124867400Y-118264250D01*
X125026150Y-118423000D01*
X126239000Y-118423000D01*
X126239000Y-117057750D01*
X126493000Y-117057750D01*
X126493000Y-118423000D01*
X126513000Y-118423000D01*
X126513000Y-118677000D01*
X126493000Y-118677000D01*
X126493000Y-120042250D01*
X126651750Y-120201000D01*
X127355910Y-120201000D01*
X127589299Y-120104327D01*
X127767927Y-119925698D01*
X127831500Y-119772220D01*
X127846330Y-119794415D01*
X128332511Y-120119271D01*
X128906000Y-120233345D01*
X129479489Y-120119271D01*
X129965670Y-119794415D01*
X130176000Y-119479634D01*
X130386330Y-119794415D01*
X130872511Y-120119271D01*
X131446000Y-120233345D01*
X132019489Y-120119271D01*
X132505670Y-119794415D01*
X132830526Y-119308234D01*
X132944600Y-118734745D01*
X132944600Y-118365255D01*
X132830526Y-117791766D01*
X132505670Y-117305585D01*
X132019489Y-116980729D01*
X131446000Y-116866655D01*
X130872511Y-116980729D01*
X130386330Y-117305585D01*
X130176000Y-117620366D01*
X129965670Y-117305585D01*
X129479489Y-116980729D01*
X128906000Y-116866655D01*
X128332511Y-116980729D01*
X127846330Y-117305585D01*
X127831500Y-117327780D01*
X127767927Y-117174302D01*
X127589299Y-116995673D01*
X127355910Y-116899000D01*
X126651750Y-116899000D01*
X126493000Y-117057750D01*
X126239000Y-117057750D01*
X126080250Y-116899000D01*
X125376090Y-116899000D01*
X125142701Y-116995673D01*
X124964073Y-117174302D01*
X124867400Y-117407691D01*
X123688419Y-117407691D01*
X123950558Y-116776392D01*
X123950562Y-116771356D01*
X162980440Y-116771356D01*
X163418739Y-117832120D01*
X164229611Y-118644409D01*
X165289608Y-119084558D01*
X166437356Y-119085560D01*
X167498120Y-118647261D01*
X168310409Y-117836389D01*
X168750558Y-116776392D01*
X168751560Y-115628644D01*
X168313261Y-114567880D01*
X167502389Y-113755591D01*
X166442392Y-113315442D01*
X165294644Y-113314440D01*
X164233880Y-113752739D01*
X163421591Y-114563611D01*
X162981442Y-115623608D01*
X162980440Y-116771356D01*
X123950562Y-116771356D01*
X123951560Y-115628644D01*
X123513261Y-114567880D01*
X122702389Y-113755591D01*
X121762356Y-113365255D01*
X124887400Y-113365255D01*
X124887400Y-113734745D01*
X125001474Y-114308234D01*
X125326330Y-114794415D01*
X125812511Y-115119271D01*
X126386000Y-115233345D01*
X126959489Y-115119271D01*
X127445670Y-114794415D01*
X127656000Y-114479634D01*
X127866330Y-114794415D01*
X128352511Y-115119271D01*
X128926000Y-115233345D01*
X129499489Y-115119271D01*
X129985670Y-114794415D01*
X130000500Y-114772220D01*
X130064073Y-114925698D01*
X130242701Y-115104327D01*
X130476090Y-115201000D01*
X131180250Y-115201000D01*
X131339000Y-115042250D01*
X131339000Y-113677000D01*
X131593000Y-113677000D01*
X131593000Y-115042250D01*
X131751750Y-115201000D01*
X132455910Y-115201000D01*
X132689299Y-115104327D01*
X132867927Y-114925698D01*
X132964600Y-114692309D01*
X132964600Y-113835750D01*
X132805850Y-113677000D01*
X131593000Y-113677000D01*
X131339000Y-113677000D01*
X131319000Y-113677000D01*
X131319000Y-113423000D01*
X131339000Y-113423000D01*
X131339000Y-112057750D01*
X131593000Y-112057750D01*
X131593000Y-113423000D01*
X132805850Y-113423000D01*
X132964600Y-113264250D01*
X132964600Y-112407691D01*
X132867927Y-112174302D01*
X132689299Y-111995673D01*
X132455910Y-111899000D01*
X131751750Y-111899000D01*
X131593000Y-112057750D01*
X131339000Y-112057750D01*
X131180250Y-111899000D01*
X130476090Y-111899000D01*
X130242701Y-111995673D01*
X130064073Y-112174302D01*
X130000500Y-112327780D01*
X129985670Y-112305585D01*
X129499489Y-111980729D01*
X128926000Y-111866655D01*
X128352511Y-111980729D01*
X127866330Y-112305585D01*
X127656000Y-112620366D01*
X127445670Y-112305585D01*
X126959489Y-111980729D01*
X126386000Y-111866655D01*
X125812511Y-111980729D01*
X125326330Y-112305585D01*
X125001474Y-112791766D01*
X124887400Y-113365255D01*
X121762356Y-113365255D01*
X121642392Y-113315442D01*
X120494644Y-113314440D01*
X119433880Y-113752739D01*
X118621591Y-114563611D01*
X118181442Y-115623608D01*
X118180440Y-116771356D01*
X116576000Y-116771356D01*
X116576000Y-107435167D01*
X122880838Y-107435167D01*
X123022883Y-107778943D01*
X123285673Y-108042192D01*
X123629201Y-108184838D01*
X124001167Y-108185162D01*
X124344943Y-108043117D01*
X124608192Y-107780327D01*
X124710476Y-107534000D01*
X124854960Y-107534000D01*
X124854960Y-109566000D01*
X124899238Y-109801317D01*
X125038310Y-110017441D01*
X125250510Y-110162431D01*
X125502400Y-110213440D01*
X127229600Y-110213440D01*
X127464917Y-110169162D01*
X127681041Y-110030090D01*
X127826031Y-109817890D01*
X127834400Y-109776561D01*
X127846330Y-109794415D01*
X128332511Y-110119271D01*
X128906000Y-110233345D01*
X129479489Y-110119271D01*
X129965670Y-109794415D01*
X130176000Y-109479634D01*
X130386330Y-109794415D01*
X130872511Y-110119271D01*
X131446000Y-110233345D01*
X132019489Y-110119271D01*
X132505670Y-109794415D01*
X132534465Y-109751320D01*
X166368930Y-109751320D01*
X166368930Y-110950200D01*
X166413208Y-111185517D01*
X166552280Y-111401641D01*
X166764480Y-111546631D01*
X167016370Y-111597640D01*
X168715630Y-111597640D01*
X168950947Y-111553362D01*
X169167071Y-111414290D01*
X169312061Y-111202090D01*
X169363070Y-110950200D01*
X169363070Y-109751320D01*
X169318792Y-109516003D01*
X169179720Y-109299879D01*
X169025757Y-109194681D01*
X169047568Y-109178197D01*
X169293899Y-108758673D01*
X169309095Y-108666761D01*
X169184357Y-108476240D01*
X167993000Y-108476240D01*
X167993000Y-108496240D01*
X167739000Y-108496240D01*
X167739000Y-108476240D01*
X166547643Y-108476240D01*
X166422905Y-108666761D01*
X166438101Y-108758673D01*
X166684432Y-109178197D01*
X166707398Y-109195554D01*
X166564929Y-109287230D01*
X166419939Y-109499430D01*
X166368930Y-109751320D01*
X132534465Y-109751320D01*
X132830526Y-109308234D01*
X132944600Y-108734745D01*
X132944600Y-108365255D01*
X132878256Y-108031719D01*
X166422905Y-108031719D01*
X166547643Y-108222240D01*
X167739000Y-108222240D01*
X167739000Y-107267240D01*
X167993000Y-107267240D01*
X167993000Y-108222240D01*
X169184357Y-108222240D01*
X169309095Y-108031719D01*
X169293899Y-107939807D01*
X169047568Y-107520283D01*
X168659443Y-107226961D01*
X168188613Y-107104495D01*
X167993000Y-107267240D01*
X167739000Y-107267240D01*
X167543387Y-107104495D01*
X167072557Y-107226961D01*
X166684432Y-107520283D01*
X166438101Y-107939807D01*
X166422905Y-108031719D01*
X132878256Y-108031719D01*
X132830526Y-107791766D01*
X132505670Y-107305585D01*
X132019489Y-106980729D01*
X131446000Y-106866655D01*
X130872511Y-106980729D01*
X130386330Y-107305585D01*
X130176000Y-107620366D01*
X129965670Y-107305585D01*
X129479489Y-106980729D01*
X128906000Y-106866655D01*
X128332511Y-106980729D01*
X127846330Y-107305585D01*
X127836757Y-107319913D01*
X127832762Y-107298683D01*
X127693690Y-107082559D01*
X127481490Y-106937569D01*
X127229600Y-106886560D01*
X125502400Y-106886560D01*
X125267083Y-106930838D01*
X125050959Y-107069910D01*
X124905969Y-107282110D01*
X124854960Y-107534000D01*
X124710476Y-107534000D01*
X124750838Y-107436799D01*
X124751162Y-107064833D01*
X124609117Y-106721057D01*
X124601000Y-106712926D01*
X124601000Y-104375158D01*
X125280111Y-103696047D01*
X125307766Y-103714526D01*
X125881255Y-103828600D01*
X126250745Y-103828600D01*
X126824234Y-103714526D01*
X127310415Y-103389670D01*
X127635271Y-102903489D01*
X127749345Y-102330000D01*
X127635271Y-101756511D01*
X127310415Y-101270330D01*
X126995634Y-101060000D01*
X127310415Y-100849670D01*
X127635271Y-100363489D01*
X127749345Y-99790000D01*
X127635271Y-99216511D01*
X127310415Y-98730330D01*
X127296087Y-98720757D01*
X127317317Y-98716762D01*
X127533441Y-98577690D01*
X127678431Y-98365490D01*
X127729440Y-98113600D01*
X127729440Y-96386400D01*
X127685162Y-96151083D01*
X127546090Y-95934959D01*
X127333890Y-95789969D01*
X127082000Y-95738960D01*
X125050000Y-95738960D01*
X124814683Y-95783238D01*
X124598559Y-95922310D01*
X124453569Y-96134510D01*
X124402560Y-96386400D01*
X124402560Y-98113600D01*
X124446838Y-98348917D01*
X124585910Y-98565041D01*
X124798110Y-98710031D01*
X124839439Y-98718400D01*
X124821585Y-98730330D01*
X124496729Y-99216511D01*
X124382655Y-99790000D01*
X124496729Y-100363489D01*
X124821585Y-100849670D01*
X125136366Y-101060000D01*
X124821585Y-101270330D01*
X124496729Y-101756511D01*
X124382655Y-102330000D01*
X124389820Y-102366022D01*
X123260921Y-103494921D01*
X123090755Y-103749593D01*
X123072581Y-103840959D01*
X123031000Y-104050000D01*
X123031000Y-106712494D01*
X123023808Y-106719673D01*
X122881162Y-107063201D01*
X122880838Y-107435167D01*
X116576000Y-107435167D01*
X116576000Y-103585461D01*
X116980092Y-103585461D01*
X117004144Y-104235460D01*
X117206613Y-104724264D01*
X117473468Y-104822927D01*
X118446395Y-103850000D01*
X117473468Y-102877073D01*
X117206613Y-102975736D01*
X116980092Y-103585461D01*
X116576000Y-103585461D01*
X116576000Y-102697468D01*
X117653073Y-102697468D01*
X118626000Y-103670395D01*
X118640143Y-103656253D01*
X118819748Y-103835858D01*
X118805605Y-103850000D01*
X118819748Y-103864143D01*
X118640143Y-104043748D01*
X118626000Y-104029605D01*
X117653073Y-105002532D01*
X117751736Y-105269387D01*
X118361461Y-105495908D01*
X119011460Y-105471856D01*
X119500264Y-105269387D01*
X119566319Y-105090727D01*
X119701910Y-105301441D01*
X119914110Y-105446431D01*
X120166000Y-105497440D01*
X122166000Y-105497440D01*
X122401317Y-105453162D01*
X122617441Y-105314090D01*
X122762431Y-105101890D01*
X122813440Y-104850000D01*
X122813440Y-102850000D01*
X122769162Y-102614683D01*
X122630090Y-102398559D01*
X122417890Y-102253569D01*
X122166000Y-102202560D01*
X120166000Y-102202560D01*
X119930683Y-102246838D01*
X119714559Y-102385910D01*
X119569569Y-102598110D01*
X119566958Y-102611002D01*
X119500264Y-102430613D01*
X118890539Y-102204092D01*
X118240540Y-102228144D01*
X117751736Y-102430613D01*
X117653073Y-102697468D01*
X116576000Y-102697468D01*
X116576000Y-97585461D01*
X116980092Y-97585461D01*
X117004144Y-98235460D01*
X117206613Y-98724264D01*
X117473468Y-98822927D01*
X118446395Y-97850000D01*
X117473468Y-96877073D01*
X117206613Y-96975736D01*
X116980092Y-97585461D01*
X116576000Y-97585461D01*
X116576000Y-96697468D01*
X117653073Y-96697468D01*
X118626000Y-97670395D01*
X118640143Y-97656253D01*
X118819748Y-97835858D01*
X118805605Y-97850000D01*
X118819748Y-97864143D01*
X118640143Y-98043748D01*
X118626000Y-98029605D01*
X117653073Y-99002532D01*
X117751736Y-99269387D01*
X118361461Y-99495908D01*
X119011460Y-99471856D01*
X119500264Y-99269387D01*
X119566319Y-99090727D01*
X119701910Y-99301441D01*
X119914110Y-99446431D01*
X120166000Y-99497440D01*
X122166000Y-99497440D01*
X122401317Y-99453162D01*
X122617441Y-99314090D01*
X122762431Y-99101890D01*
X122813440Y-98850000D01*
X122813440Y-96850000D01*
X122769162Y-96614683D01*
X122630090Y-96398559D01*
X122417890Y-96253569D01*
X122166000Y-96202560D01*
X120166000Y-96202560D01*
X119930683Y-96246838D01*
X119714559Y-96385910D01*
X119569569Y-96598110D01*
X119566958Y-96611002D01*
X119500264Y-96430613D01*
X118890539Y-96204092D01*
X118240540Y-96228144D01*
X117751736Y-96430613D01*
X117653073Y-96697468D01*
X116576000Y-96697468D01*
X116576000Y-94680104D01*
X119765501Y-94680104D01*
X119802648Y-94895217D01*
X120230972Y-95038112D01*
X120681375Y-95006217D01*
X120949352Y-94895217D01*
X120976990Y-94735167D01*
X134830838Y-94735167D01*
X134972883Y-95078943D01*
X134981000Y-95087074D01*
X134981000Y-101050000D01*
X135040755Y-101350407D01*
X135210921Y-101605079D01*
X137410921Y-103805079D01*
X137665594Y-103975245D01*
X137966000Y-104035000D01*
X145628494Y-104035000D01*
X145635673Y-104042192D01*
X145979201Y-104184838D01*
X146351167Y-104185162D01*
X146694943Y-104043117D01*
X146958192Y-103780327D01*
X147100838Y-103436799D01*
X147101162Y-103064833D01*
X146959117Y-102721057D01*
X146696327Y-102457808D01*
X146352799Y-102315162D01*
X145980833Y-102314838D01*
X145637057Y-102456883D01*
X145628926Y-102465000D01*
X138291158Y-102465000D01*
X136551000Y-100724842D01*
X136551000Y-100076000D01*
X152748655Y-100076000D01*
X152862729Y-100649489D01*
X153187585Y-101135670D01*
X153502366Y-101346000D01*
X153187585Y-101556330D01*
X152862729Y-102042511D01*
X152748655Y-102616000D01*
X152862729Y-103189489D01*
X153187585Y-103675670D01*
X153201913Y-103685243D01*
X153180683Y-103689238D01*
X152964559Y-103828310D01*
X152819569Y-104040510D01*
X152768560Y-104292400D01*
X152768560Y-106019600D01*
X152812838Y-106254917D01*
X152951910Y-106471041D01*
X153164110Y-106616031D01*
X153416000Y-106667040D01*
X155448000Y-106667040D01*
X155683317Y-106622762D01*
X155899441Y-106483690D01*
X156044431Y-106271490D01*
X156095440Y-106019600D01*
X156095440Y-104292400D01*
X156051162Y-104057083D01*
X155912090Y-103840959D01*
X155699890Y-103695969D01*
X155658561Y-103687600D01*
X155676415Y-103675670D01*
X156001271Y-103189489D01*
X156096047Y-102713016D01*
X160316590Y-102713016D01*
X160372271Y-102943611D01*
X160855078Y-103111622D01*
X161365428Y-103082083D01*
X161699729Y-102943611D01*
X161755410Y-102713016D01*
X161036000Y-101993605D01*
X160316590Y-102713016D01*
X156096047Y-102713016D01*
X156115345Y-102616000D01*
X156001271Y-102042511D01*
X155727697Y-101633078D01*
X159738378Y-101633078D01*
X159767917Y-102143428D01*
X159906389Y-102477729D01*
X160136984Y-102533410D01*
X160856395Y-101814000D01*
X161215605Y-101814000D01*
X161935016Y-102533410D01*
X162165611Y-102477729D01*
X162333622Y-101994922D01*
X162304083Y-101484572D01*
X162290310Y-101451320D01*
X166368930Y-101451320D01*
X166368930Y-102650200D01*
X166413208Y-102885517D01*
X166552280Y-103101641D01*
X166764480Y-103246631D01*
X167016370Y-103297640D01*
X168715630Y-103297640D01*
X168950947Y-103253362D01*
X169167071Y-103114290D01*
X169312061Y-102902090D01*
X169363070Y-102650200D01*
X169363070Y-101451320D01*
X169318792Y-101216003D01*
X169179720Y-100999879D01*
X169025757Y-100894681D01*
X169047568Y-100878197D01*
X169293899Y-100458673D01*
X169309095Y-100366761D01*
X169184357Y-100176240D01*
X167993000Y-100176240D01*
X167993000Y-100196240D01*
X167739000Y-100196240D01*
X167739000Y-100176240D01*
X166547643Y-100176240D01*
X166422905Y-100366761D01*
X166438101Y-100458673D01*
X166684432Y-100878197D01*
X166707398Y-100895554D01*
X166564929Y-100987230D01*
X166419939Y-101199430D01*
X166368930Y-101451320D01*
X162290310Y-101451320D01*
X162165611Y-101150271D01*
X161935016Y-101094590D01*
X161215605Y-101814000D01*
X160856395Y-101814000D01*
X160136984Y-101094590D01*
X159906389Y-101150271D01*
X159738378Y-101633078D01*
X155727697Y-101633078D01*
X155676415Y-101556330D01*
X155361634Y-101346000D01*
X155676415Y-101135670D01*
X156001271Y-100649489D01*
X156115345Y-100076000D01*
X156001271Y-99502511D01*
X155676415Y-99016330D01*
X155190234Y-98691474D01*
X155052113Y-98664000D01*
X159738560Y-98664000D01*
X159738560Y-99964000D01*
X159782838Y-100199317D01*
X159921910Y-100415441D01*
X160134110Y-100560431D01*
X160386000Y-100611440D01*
X160548385Y-100611440D01*
X160372271Y-100684389D01*
X160316590Y-100914984D01*
X161036000Y-101634395D01*
X161755410Y-100914984D01*
X161699729Y-100684389D01*
X161490098Y-100611440D01*
X161686000Y-100611440D01*
X161921317Y-100567162D01*
X162137441Y-100428090D01*
X162282431Y-100215890D01*
X162333440Y-99964000D01*
X162333440Y-99731719D01*
X166422905Y-99731719D01*
X166547643Y-99922240D01*
X167739000Y-99922240D01*
X167739000Y-98967240D01*
X167993000Y-98967240D01*
X167993000Y-99922240D01*
X169184357Y-99922240D01*
X169309095Y-99731719D01*
X169293899Y-99639807D01*
X169047568Y-99220283D01*
X168659443Y-98926961D01*
X168188613Y-98804495D01*
X167993000Y-98967240D01*
X167739000Y-98967240D01*
X167543387Y-98804495D01*
X167072557Y-98926961D01*
X166684432Y-99220283D01*
X166438101Y-99639807D01*
X166422905Y-99731719D01*
X162333440Y-99731719D01*
X162333440Y-98664000D01*
X162289162Y-98428683D01*
X162150090Y-98212559D01*
X161937890Y-98067569D01*
X161686000Y-98016560D01*
X160386000Y-98016560D01*
X160150683Y-98060838D01*
X159934559Y-98199910D01*
X159789569Y-98412110D01*
X159738560Y-98664000D01*
X155052113Y-98664000D01*
X154616745Y-98577400D01*
X154247255Y-98577400D01*
X153673766Y-98691474D01*
X153187585Y-99016330D01*
X152862729Y-99502511D01*
X152748655Y-100076000D01*
X136551000Y-100076000D01*
X136551000Y-95483694D01*
X150531226Y-95483694D01*
X150779538Y-96084655D01*
X151238927Y-96544846D01*
X151839453Y-96794206D01*
X152489694Y-96794774D01*
X153090655Y-96546462D01*
X153550846Y-96087073D01*
X153800206Y-95486547D01*
X153800774Y-94836306D01*
X153552462Y-94235345D01*
X153167789Y-93850000D01*
X157568560Y-93850000D01*
X157568560Y-95350000D01*
X157612838Y-95585317D01*
X157751910Y-95801441D01*
X157964110Y-95946431D01*
X158216000Y-95997440D01*
X162716000Y-95997440D01*
X162951317Y-95953162D01*
X163167441Y-95814090D01*
X163312431Y-95601890D01*
X163363440Y-95350000D01*
X163363440Y-93850000D01*
X163319162Y-93614683D01*
X163180090Y-93398559D01*
X162967890Y-93253569D01*
X162716000Y-93202560D01*
X158216000Y-93202560D01*
X157980683Y-93246838D01*
X157764559Y-93385910D01*
X157619569Y-93598110D01*
X157568560Y-93850000D01*
X153167789Y-93850000D01*
X153093073Y-93775154D01*
X152492547Y-93525794D01*
X151842306Y-93525226D01*
X151241345Y-93773538D01*
X150781154Y-94232927D01*
X150531794Y-94833453D01*
X150531226Y-95483694D01*
X136551000Y-95483694D01*
X136551000Y-95087506D01*
X136558192Y-95080327D01*
X136700838Y-94736799D01*
X136701162Y-94364833D01*
X136559117Y-94021057D01*
X136296327Y-93757808D01*
X135952799Y-93615162D01*
X135580833Y-93614838D01*
X135237057Y-93756883D01*
X134973808Y-94019673D01*
X134831162Y-94363201D01*
X134830838Y-94735167D01*
X120976990Y-94735167D01*
X120986499Y-94680104D01*
X120376000Y-94069605D01*
X119765501Y-94680104D01*
X116576000Y-94680104D01*
X116576000Y-93744972D01*
X119227888Y-93744972D01*
X119259783Y-94195375D01*
X119370783Y-94463352D01*
X119585896Y-94500499D01*
X120196395Y-93890000D01*
X120555605Y-93890000D01*
X121166104Y-94500499D01*
X121381217Y-94463352D01*
X121524112Y-94035028D01*
X121492217Y-93584625D01*
X121381217Y-93316648D01*
X121166104Y-93279501D01*
X120555605Y-93890000D01*
X120196395Y-93890000D01*
X119585896Y-93279501D01*
X119370783Y-93316648D01*
X119227888Y-93744972D01*
X116576000Y-93744972D01*
X116576000Y-93099896D01*
X119765501Y-93099896D01*
X120376000Y-93710395D01*
X120986499Y-93099896D01*
X120949352Y-92884783D01*
X120521028Y-92741888D01*
X120070625Y-92773783D01*
X119802648Y-92884783D01*
X119765501Y-93099896D01*
X116576000Y-93099896D01*
X116576000Y-91574775D01*
X116700803Y-91574775D01*
X116873233Y-91992086D01*
X117192235Y-92311645D01*
X117609244Y-92484803D01*
X118060775Y-92485197D01*
X118478086Y-92312767D01*
X118797645Y-91993765D01*
X118970803Y-91576756D01*
X118971197Y-91125225D01*
X118798767Y-90707914D01*
X118676234Y-90585167D01*
X146330838Y-90585167D01*
X146472883Y-90928943D01*
X146481000Y-90937074D01*
X146481000Y-91712494D01*
X146473808Y-91719673D01*
X146331162Y-92063201D01*
X146330838Y-92435167D01*
X146472883Y-92778943D01*
X146735673Y-93042192D01*
X147079201Y-93184838D01*
X147451167Y-93185162D01*
X147794943Y-93043117D01*
X148058192Y-92780327D01*
X148200838Y-92436799D01*
X148201162Y-92064833D01*
X148059117Y-91721057D01*
X148051000Y-91712926D01*
X148051000Y-90937506D01*
X148058192Y-90930327D01*
X148200838Y-90586799D01*
X148201043Y-90350510D01*
X150519070Y-90350510D01*
X150519070Y-92349490D01*
X150563348Y-92584807D01*
X150702420Y-92800931D01*
X150914620Y-92945921D01*
X151166510Y-92996930D01*
X153165490Y-92996930D01*
X153400807Y-92952652D01*
X153616931Y-92813580D01*
X153761921Y-92601380D01*
X153812930Y-92349490D01*
X153812930Y-90524285D01*
X159580760Y-90524285D01*
X159791169Y-91033515D01*
X160180436Y-91423461D01*
X160689298Y-91634759D01*
X161240285Y-91635240D01*
X161749515Y-91424831D01*
X162139461Y-91035564D01*
X162350759Y-90526702D01*
X162351240Y-89975715D01*
X162140831Y-89466485D01*
X161751564Y-89076539D01*
X161242702Y-88865241D01*
X160691715Y-88864760D01*
X160182485Y-89075169D01*
X159792539Y-89464436D01*
X159581241Y-89973298D01*
X159580760Y-90524285D01*
X153812930Y-90524285D01*
X153812930Y-90350510D01*
X153768652Y-90115193D01*
X153629580Y-89899069D01*
X153417380Y-89754079D01*
X153165490Y-89703070D01*
X151166510Y-89703070D01*
X150931193Y-89747348D01*
X150715069Y-89886420D01*
X150570079Y-90098620D01*
X150519070Y-90350510D01*
X148201043Y-90350510D01*
X148201162Y-90214833D01*
X148059117Y-89871057D01*
X147796327Y-89607808D01*
X147452799Y-89465162D01*
X147080833Y-89464838D01*
X146737057Y-89606883D01*
X146473808Y-89869673D01*
X146331162Y-90213201D01*
X146330838Y-90585167D01*
X118676234Y-90585167D01*
X118479765Y-90388355D01*
X118062756Y-90215197D01*
X117611225Y-90214803D01*
X117193914Y-90387233D01*
X116874355Y-90706235D01*
X116701197Y-91123244D01*
X116700803Y-91574775D01*
X116576000Y-91574775D01*
X116576000Y-89034775D01*
X119240803Y-89034775D01*
X119413233Y-89452086D01*
X119732235Y-89771645D01*
X120149244Y-89944803D01*
X120600775Y-89945197D01*
X121018086Y-89772767D01*
X121337645Y-89453765D01*
X121510803Y-89036756D01*
X121511197Y-88585225D01*
X121338767Y-88167914D01*
X121019765Y-87848355D01*
X120602756Y-87675197D01*
X120151225Y-87674803D01*
X119733914Y-87847233D01*
X119414355Y-88166235D01*
X119241197Y-88583244D01*
X119240803Y-89034775D01*
X116576000Y-89034775D01*
X116576000Y-86780104D01*
X119865501Y-86780104D01*
X119902648Y-86995217D01*
X120330972Y-87138112D01*
X120781375Y-87106217D01*
X121049352Y-86995217D01*
X121086499Y-86780104D01*
X120476000Y-86169605D01*
X119865501Y-86780104D01*
X116576000Y-86780104D01*
X116576000Y-85844972D01*
X119327888Y-85844972D01*
X119359783Y-86295375D01*
X119470783Y-86563352D01*
X119685896Y-86600499D01*
X120296395Y-85990000D01*
X120655605Y-85990000D01*
X121266104Y-86600499D01*
X121481217Y-86563352D01*
X121624112Y-86135028D01*
X121592217Y-85684625D01*
X121481217Y-85416648D01*
X121266104Y-85379501D01*
X120655605Y-85990000D01*
X120296395Y-85990000D01*
X119685896Y-85379501D01*
X119470783Y-85416648D01*
X119327888Y-85844972D01*
X116576000Y-85844972D01*
X116576000Y-85199896D01*
X119865501Y-85199896D01*
X120476000Y-85810395D01*
X121086499Y-85199896D01*
X121049352Y-84984783D01*
X120621028Y-84841888D01*
X120170625Y-84873783D01*
X119902648Y-84984783D01*
X119865501Y-85199896D01*
X116576000Y-85199896D01*
X116576000Y-83674775D01*
X116800803Y-83674775D01*
X116973233Y-84092086D01*
X117292235Y-84411645D01*
X117709244Y-84584803D01*
X118160775Y-84585197D01*
X118578086Y-84412767D01*
X118897645Y-84093765D01*
X119070803Y-83676756D01*
X119071197Y-83225225D01*
X118898767Y-82807914D01*
X118579765Y-82488355D01*
X118162756Y-82315197D01*
X117711225Y-82314803D01*
X117293914Y-82487233D01*
X116974355Y-82806235D01*
X116801197Y-83223244D01*
X116800803Y-83674775D01*
X116576000Y-83674775D01*
X116576000Y-81134775D01*
X119340803Y-81134775D01*
X119513233Y-81552086D01*
X119832235Y-81871645D01*
X120249244Y-82044803D01*
X120700775Y-82045197D01*
X121019390Y-81913548D01*
X123680847Y-84575005D01*
X123680838Y-84585167D01*
X123822883Y-84928943D01*
X124085673Y-85192192D01*
X124429201Y-85334838D01*
X124801167Y-85335162D01*
X125144943Y-85193117D01*
X125408192Y-84930327D01*
X125431259Y-84874775D01*
X139130803Y-84874775D01*
X139303233Y-85292086D01*
X139622235Y-85611645D01*
X140039244Y-85784803D01*
X140490775Y-85785197D01*
X140908086Y-85612767D01*
X141227645Y-85293765D01*
X141400803Y-84876756D01*
X141400804Y-84874775D01*
X144130803Y-84874775D01*
X144303233Y-85292086D01*
X144622235Y-85611645D01*
X145039244Y-85784803D01*
X145490775Y-85785197D01*
X145908086Y-85612767D01*
X145996722Y-85524285D01*
X159580760Y-85524285D01*
X159791169Y-86033515D01*
X160180436Y-86423461D01*
X160689298Y-86634759D01*
X161240285Y-86635240D01*
X161749515Y-86424831D01*
X162139461Y-86035564D01*
X162350759Y-85526702D01*
X162351240Y-84975715D01*
X162140831Y-84466485D01*
X161751564Y-84076539D01*
X161242702Y-83865241D01*
X160691715Y-83864760D01*
X160182485Y-84075169D01*
X159792539Y-84464436D01*
X159581241Y-84973298D01*
X159580760Y-85524285D01*
X145996722Y-85524285D01*
X146227645Y-85293765D01*
X146400803Y-84876756D01*
X146401197Y-84425225D01*
X146228767Y-84007914D01*
X145909765Y-83688355D01*
X145492756Y-83515197D01*
X145041225Y-83514803D01*
X144623914Y-83687233D01*
X144304355Y-84006235D01*
X144131197Y-84423244D01*
X144130803Y-84874775D01*
X141400804Y-84874775D01*
X141401197Y-84425225D01*
X141228767Y-84007914D01*
X140909765Y-83688355D01*
X140492756Y-83515197D01*
X140041225Y-83514803D01*
X139623914Y-83687233D01*
X139304355Y-84006235D01*
X139131197Y-84423244D01*
X139130803Y-84874775D01*
X125431259Y-84874775D01*
X125550838Y-84586799D01*
X125551162Y-84214833D01*
X125409117Y-83871057D01*
X125146327Y-83607808D01*
X124802799Y-83465162D01*
X124791310Y-83465152D01*
X121681079Y-80354921D01*
X121426407Y-80184755D01*
X121338247Y-80167219D01*
X121321059Y-80150000D01*
X157568560Y-80150000D01*
X157568560Y-81650000D01*
X157612838Y-81885317D01*
X157751910Y-82101441D01*
X157964110Y-82246431D01*
X158216000Y-82297440D01*
X162716000Y-82297440D01*
X162951317Y-82253162D01*
X163167441Y-82114090D01*
X163312431Y-81901890D01*
X163363440Y-81650000D01*
X163363440Y-80150000D01*
X163319162Y-79914683D01*
X163180090Y-79698559D01*
X162967890Y-79553569D01*
X162716000Y-79502560D01*
X158216000Y-79502560D01*
X157980683Y-79546838D01*
X157764559Y-79685910D01*
X157619569Y-79898110D01*
X157568560Y-80150000D01*
X121321059Y-80150000D01*
X121119765Y-79948355D01*
X120702756Y-79775197D01*
X120251225Y-79774803D01*
X119833914Y-79947233D01*
X119514355Y-80266235D01*
X119341197Y-80683244D01*
X119340803Y-81134775D01*
X116576000Y-81134775D01*
X116576000Y-76971356D01*
X118180440Y-76971356D01*
X118618739Y-78032120D01*
X119429611Y-78844409D01*
X120489608Y-79284558D01*
X121637356Y-79285560D01*
X122698120Y-78847261D01*
X123510409Y-78036389D01*
X123950558Y-76976392D01*
X123950562Y-76971356D01*
X162980440Y-76971356D01*
X163418739Y-78032120D01*
X164229611Y-78844409D01*
X165289608Y-79284558D01*
X166437356Y-79285560D01*
X167498120Y-78847261D01*
X168310409Y-78036389D01*
X168750558Y-76976392D01*
X168751560Y-75828644D01*
X168313261Y-74767880D01*
X167502389Y-73955591D01*
X166442392Y-73515442D01*
X165294644Y-73514440D01*
X164233880Y-73952739D01*
X163421591Y-74763611D01*
X162981442Y-75823608D01*
X162980440Y-76971356D01*
X123950562Y-76971356D01*
X123951560Y-75828644D01*
X123639175Y-75072613D01*
X130820495Y-75072613D01*
X130942961Y-75543443D01*
X131236283Y-75931568D01*
X131655807Y-76177899D01*
X131747719Y-76193095D01*
X131938240Y-76068357D01*
X131938240Y-74877000D01*
X130983240Y-74877000D01*
X130820495Y-75072613D01*
X123639175Y-75072613D01*
X123513261Y-74767880D01*
X123173362Y-74427387D01*
X130820495Y-74427387D01*
X130983240Y-74623000D01*
X131938240Y-74623000D01*
X131938240Y-73431643D01*
X132192240Y-73431643D01*
X132192240Y-74623000D01*
X132212240Y-74623000D01*
X132212240Y-74877000D01*
X132192240Y-74877000D01*
X132192240Y-76068357D01*
X132382761Y-76193095D01*
X132474673Y-76177899D01*
X132894197Y-75931568D01*
X132911554Y-75908602D01*
X133003230Y-76051071D01*
X133215430Y-76196061D01*
X133467320Y-76247070D01*
X134666200Y-76247070D01*
X134901517Y-76202792D01*
X135117641Y-76063720D01*
X135262631Y-75851520D01*
X135313640Y-75599630D01*
X135313640Y-73900370D01*
X135269362Y-73665053D01*
X135130290Y-73448929D01*
X134918090Y-73303939D01*
X134666200Y-73252930D01*
X133467320Y-73252930D01*
X133232003Y-73297208D01*
X133015879Y-73436280D01*
X132910681Y-73590243D01*
X132894197Y-73568432D01*
X132474673Y-73322101D01*
X132382761Y-73306905D01*
X132192240Y-73431643D01*
X131938240Y-73431643D01*
X131747719Y-73306905D01*
X131655807Y-73322101D01*
X131236283Y-73568432D01*
X130942961Y-73956557D01*
X130820495Y-74427387D01*
X123173362Y-74427387D01*
X122702389Y-73955591D01*
X121642392Y-73515442D01*
X120494644Y-73514440D01*
X119433880Y-73952739D01*
X118621591Y-74763611D01*
X118181442Y-75823608D01*
X118180440Y-76971356D01*
X116576000Y-76971356D01*
X116576000Y-71960000D01*
X170356000Y-71960000D01*
X170356000Y-120840000D01*
X170356000Y-120840000D01*
G37*
X170356000Y-120840000D02*
X116576000Y-120840000D01*
X116576000Y-116771356D01*
X118180440Y-116771356D01*
X118618739Y-117832120D01*
X119429611Y-118644409D01*
X120489608Y-119084558D01*
X121637356Y-119085560D01*
X122241942Y-118835750D01*
X124867400Y-118835750D01*
X124867400Y-119692309D01*
X124964073Y-119925698D01*
X125142701Y-120104327D01*
X125376090Y-120201000D01*
X126080250Y-120201000D01*
X126239000Y-120042250D01*
X126239000Y-118677000D01*
X125026150Y-118677000D01*
X124867400Y-118835750D01*
X122241942Y-118835750D01*
X122698120Y-118647261D01*
X123510409Y-117836389D01*
X123688419Y-117407691D01*
X124867400Y-117407691D01*
X124867400Y-118264250D01*
X125026150Y-118423000D01*
X126239000Y-118423000D01*
X126239000Y-117057750D01*
X126493000Y-117057750D01*
X126493000Y-118423000D01*
X126513000Y-118423000D01*
X126513000Y-118677000D01*
X126493000Y-118677000D01*
X126493000Y-120042250D01*
X126651750Y-120201000D01*
X127355910Y-120201000D01*
X127589299Y-120104327D01*
X127767927Y-119925698D01*
X127831500Y-119772220D01*
X127846330Y-119794415D01*
X128332511Y-120119271D01*
X128906000Y-120233345D01*
X129479489Y-120119271D01*
X129965670Y-119794415D01*
X130176000Y-119479634D01*
X130386330Y-119794415D01*
X130872511Y-120119271D01*
X131446000Y-120233345D01*
X132019489Y-120119271D01*
X132505670Y-119794415D01*
X132830526Y-119308234D01*
X132944600Y-118734745D01*
X132944600Y-118365255D01*
X132830526Y-117791766D01*
X132505670Y-117305585D01*
X132019489Y-116980729D01*
X131446000Y-116866655D01*
X130872511Y-116980729D01*
X130386330Y-117305585D01*
X130176000Y-117620366D01*
X129965670Y-117305585D01*
X129479489Y-116980729D01*
X128906000Y-116866655D01*
X128332511Y-116980729D01*
X127846330Y-117305585D01*
X127831500Y-117327780D01*
X127767927Y-117174302D01*
X127589299Y-116995673D01*
X127355910Y-116899000D01*
X126651750Y-116899000D01*
X126493000Y-117057750D01*
X126239000Y-117057750D01*
X126080250Y-116899000D01*
X125376090Y-116899000D01*
X125142701Y-116995673D01*
X124964073Y-117174302D01*
X124867400Y-117407691D01*
X123688419Y-117407691D01*
X123950558Y-116776392D01*
X123950562Y-116771356D01*
X162980440Y-116771356D01*
X163418739Y-117832120D01*
X164229611Y-118644409D01*
X165289608Y-119084558D01*
X166437356Y-119085560D01*
X167498120Y-118647261D01*
X168310409Y-117836389D01*
X168750558Y-116776392D01*
X168751560Y-115628644D01*
X168313261Y-114567880D01*
X167502389Y-113755591D01*
X166442392Y-113315442D01*
X165294644Y-113314440D01*
X164233880Y-113752739D01*
X163421591Y-114563611D01*
X162981442Y-115623608D01*
X162980440Y-116771356D01*
X123950562Y-116771356D01*
X123951560Y-115628644D01*
X123513261Y-114567880D01*
X122702389Y-113755591D01*
X121762356Y-113365255D01*
X124887400Y-113365255D01*
X124887400Y-113734745D01*
X125001474Y-114308234D01*
X125326330Y-114794415D01*
X125812511Y-115119271D01*
X126386000Y-115233345D01*
X126959489Y-115119271D01*
X127445670Y-114794415D01*
X127656000Y-114479634D01*
X127866330Y-114794415D01*
X128352511Y-115119271D01*
X128926000Y-115233345D01*
X129499489Y-115119271D01*
X129985670Y-114794415D01*
X130000500Y-114772220D01*
X130064073Y-114925698D01*
X130242701Y-115104327D01*
X130476090Y-115201000D01*
X131180250Y-115201000D01*
X131339000Y-115042250D01*
X131339000Y-113677000D01*
X131593000Y-113677000D01*
X131593000Y-115042250D01*
X131751750Y-115201000D01*
X132455910Y-115201000D01*
X132689299Y-115104327D01*
X132867927Y-114925698D01*
X132964600Y-114692309D01*
X132964600Y-113835750D01*
X132805850Y-113677000D01*
X131593000Y-113677000D01*
X131339000Y-113677000D01*
X131319000Y-113677000D01*
X131319000Y-113423000D01*
X131339000Y-113423000D01*
X131339000Y-112057750D01*
X131593000Y-112057750D01*
X131593000Y-113423000D01*
X132805850Y-113423000D01*
X132964600Y-113264250D01*
X132964600Y-112407691D01*
X132867927Y-112174302D01*
X132689299Y-111995673D01*
X132455910Y-111899000D01*
X131751750Y-111899000D01*
X131593000Y-112057750D01*
X131339000Y-112057750D01*
X131180250Y-111899000D01*
X130476090Y-111899000D01*
X130242701Y-111995673D01*
X130064073Y-112174302D01*
X130000500Y-112327780D01*
X129985670Y-112305585D01*
X129499489Y-111980729D01*
X128926000Y-111866655D01*
X128352511Y-111980729D01*
X127866330Y-112305585D01*
X127656000Y-112620366D01*
X127445670Y-112305585D01*
X126959489Y-111980729D01*
X126386000Y-111866655D01*
X125812511Y-111980729D01*
X125326330Y-112305585D01*
X125001474Y-112791766D01*
X124887400Y-113365255D01*
X121762356Y-113365255D01*
X121642392Y-113315442D01*
X120494644Y-113314440D01*
X119433880Y-113752739D01*
X118621591Y-114563611D01*
X118181442Y-115623608D01*
X118180440Y-116771356D01*
X116576000Y-116771356D01*
X116576000Y-107435167D01*
X122880838Y-107435167D01*
X123022883Y-107778943D01*
X123285673Y-108042192D01*
X123629201Y-108184838D01*
X124001167Y-108185162D01*
X124344943Y-108043117D01*
X124608192Y-107780327D01*
X124710476Y-107534000D01*
X124854960Y-107534000D01*
X124854960Y-109566000D01*
X124899238Y-109801317D01*
X125038310Y-110017441D01*
X125250510Y-110162431D01*
X125502400Y-110213440D01*
X127229600Y-110213440D01*
X127464917Y-110169162D01*
X127681041Y-110030090D01*
X127826031Y-109817890D01*
X127834400Y-109776561D01*
X127846330Y-109794415D01*
X128332511Y-110119271D01*
X128906000Y-110233345D01*
X129479489Y-110119271D01*
X129965670Y-109794415D01*
X130176000Y-109479634D01*
X130386330Y-109794415D01*
X130872511Y-110119271D01*
X131446000Y-110233345D01*
X132019489Y-110119271D01*
X132505670Y-109794415D01*
X132534465Y-109751320D01*
X166368930Y-109751320D01*
X166368930Y-110950200D01*
X166413208Y-111185517D01*
X166552280Y-111401641D01*
X166764480Y-111546631D01*
X167016370Y-111597640D01*
X168715630Y-111597640D01*
X168950947Y-111553362D01*
X169167071Y-111414290D01*
X169312061Y-111202090D01*
X169363070Y-110950200D01*
X169363070Y-109751320D01*
X169318792Y-109516003D01*
X169179720Y-109299879D01*
X169025757Y-109194681D01*
X169047568Y-109178197D01*
X169293899Y-108758673D01*
X169309095Y-108666761D01*
X169184357Y-108476240D01*
X167993000Y-108476240D01*
X167993000Y-108496240D01*
X167739000Y-108496240D01*
X167739000Y-108476240D01*
X166547643Y-108476240D01*
X166422905Y-108666761D01*
X166438101Y-108758673D01*
X166684432Y-109178197D01*
X166707398Y-109195554D01*
X166564929Y-109287230D01*
X166419939Y-109499430D01*
X166368930Y-109751320D01*
X132534465Y-109751320D01*
X132830526Y-109308234D01*
X132944600Y-108734745D01*
X132944600Y-108365255D01*
X132878256Y-108031719D01*
X166422905Y-108031719D01*
X166547643Y-108222240D01*
X167739000Y-108222240D01*
X167739000Y-107267240D01*
X167993000Y-107267240D01*
X167993000Y-108222240D01*
X169184357Y-108222240D01*
X169309095Y-108031719D01*
X169293899Y-107939807D01*
X169047568Y-107520283D01*
X168659443Y-107226961D01*
X168188613Y-107104495D01*
X167993000Y-107267240D01*
X167739000Y-107267240D01*
X167543387Y-107104495D01*
X167072557Y-107226961D01*
X166684432Y-107520283D01*
X166438101Y-107939807D01*
X166422905Y-108031719D01*
X132878256Y-108031719D01*
X132830526Y-107791766D01*
X132505670Y-107305585D01*
X132019489Y-106980729D01*
X131446000Y-106866655D01*
X130872511Y-106980729D01*
X130386330Y-107305585D01*
X130176000Y-107620366D01*
X129965670Y-107305585D01*
X129479489Y-106980729D01*
X128906000Y-106866655D01*
X128332511Y-106980729D01*
X127846330Y-107305585D01*
X127836757Y-107319913D01*
X127832762Y-107298683D01*
X127693690Y-107082559D01*
X127481490Y-106937569D01*
X127229600Y-106886560D01*
X125502400Y-106886560D01*
X125267083Y-106930838D01*
X125050959Y-107069910D01*
X124905969Y-107282110D01*
X124854960Y-107534000D01*
X124710476Y-107534000D01*
X124750838Y-107436799D01*
X124751162Y-107064833D01*
X124609117Y-106721057D01*
X124601000Y-106712926D01*
X124601000Y-104375158D01*
X125280111Y-103696047D01*
X125307766Y-103714526D01*
X125881255Y-103828600D01*
X126250745Y-103828600D01*
X126824234Y-103714526D01*
X127310415Y-103389670D01*
X127635271Y-102903489D01*
X127749345Y-102330000D01*
X127635271Y-101756511D01*
X127310415Y-101270330D01*
X126995634Y-101060000D01*
X127310415Y-100849670D01*
X127635271Y-100363489D01*
X127749345Y-99790000D01*
X127635271Y-99216511D01*
X127310415Y-98730330D01*
X127296087Y-98720757D01*
X127317317Y-98716762D01*
X127533441Y-98577690D01*
X127678431Y-98365490D01*
X127729440Y-98113600D01*
X127729440Y-96386400D01*
X127685162Y-96151083D01*
X127546090Y-95934959D01*
X127333890Y-95789969D01*
X127082000Y-95738960D01*
X125050000Y-95738960D01*
X124814683Y-95783238D01*
X124598559Y-95922310D01*
X124453569Y-96134510D01*
X124402560Y-96386400D01*
X124402560Y-98113600D01*
X124446838Y-98348917D01*
X124585910Y-98565041D01*
X124798110Y-98710031D01*
X124839439Y-98718400D01*
X124821585Y-98730330D01*
X124496729Y-99216511D01*
X124382655Y-99790000D01*
X124496729Y-100363489D01*
X124821585Y-100849670D01*
X125136366Y-101060000D01*
X124821585Y-101270330D01*
X124496729Y-101756511D01*
X124382655Y-102330000D01*
X124389820Y-102366022D01*
X123260921Y-103494921D01*
X123090755Y-103749593D01*
X123072581Y-103840959D01*
X123031000Y-104050000D01*
X123031000Y-106712494D01*
X123023808Y-106719673D01*
X122881162Y-107063201D01*
X122880838Y-107435167D01*
X116576000Y-107435167D01*
X116576000Y-103585461D01*
X116980092Y-103585461D01*
X117004144Y-104235460D01*
X117206613Y-104724264D01*
X117473468Y-104822927D01*
X118446395Y-103850000D01*
X117473468Y-102877073D01*
X117206613Y-102975736D01*
X116980092Y-103585461D01*
X116576000Y-103585461D01*
X116576000Y-102697468D01*
X117653073Y-102697468D01*
X118626000Y-103670395D01*
X118640143Y-103656253D01*
X118819748Y-103835858D01*
X118805605Y-103850000D01*
X118819748Y-103864143D01*
X118640143Y-104043748D01*
X118626000Y-104029605D01*
X117653073Y-105002532D01*
X117751736Y-105269387D01*
X118361461Y-105495908D01*
X119011460Y-105471856D01*
X119500264Y-105269387D01*
X119566319Y-105090727D01*
X119701910Y-105301441D01*
X119914110Y-105446431D01*
X120166000Y-105497440D01*
X122166000Y-105497440D01*
X122401317Y-105453162D01*
X122617441Y-105314090D01*
X122762431Y-105101890D01*
X122813440Y-104850000D01*
X122813440Y-102850000D01*
X122769162Y-102614683D01*
X122630090Y-102398559D01*
X122417890Y-102253569D01*
X122166000Y-102202560D01*
X120166000Y-102202560D01*
X119930683Y-102246838D01*
X119714559Y-102385910D01*
X119569569Y-102598110D01*
X119566958Y-102611002D01*
X119500264Y-102430613D01*
X118890539Y-102204092D01*
X118240540Y-102228144D01*
X117751736Y-102430613D01*
X117653073Y-102697468D01*
X116576000Y-102697468D01*
X116576000Y-97585461D01*
X116980092Y-97585461D01*
X117004144Y-98235460D01*
X117206613Y-98724264D01*
X117473468Y-98822927D01*
X118446395Y-97850000D01*
X117473468Y-96877073D01*
X117206613Y-96975736D01*
X116980092Y-97585461D01*
X116576000Y-97585461D01*
X116576000Y-96697468D01*
X117653073Y-96697468D01*
X118626000Y-97670395D01*
X118640143Y-97656253D01*
X118819748Y-97835858D01*
X118805605Y-97850000D01*
X118819748Y-97864143D01*
X118640143Y-98043748D01*
X118626000Y-98029605D01*
X117653073Y-99002532D01*
X117751736Y-99269387D01*
X118361461Y-99495908D01*
X119011460Y-99471856D01*
X119500264Y-99269387D01*
X119566319Y-99090727D01*
X119701910Y-99301441D01*
X119914110Y-99446431D01*
X120166000Y-99497440D01*
X122166000Y-99497440D01*
X122401317Y-99453162D01*
X122617441Y-99314090D01*
X122762431Y-99101890D01*
X122813440Y-98850000D01*
X122813440Y-96850000D01*
X122769162Y-96614683D01*
X122630090Y-96398559D01*
X122417890Y-96253569D01*
X122166000Y-96202560D01*
X120166000Y-96202560D01*
X119930683Y-96246838D01*
X119714559Y-96385910D01*
X119569569Y-96598110D01*
X119566958Y-96611002D01*
X119500264Y-96430613D01*
X118890539Y-96204092D01*
X118240540Y-96228144D01*
X117751736Y-96430613D01*
X117653073Y-96697468D01*
X116576000Y-96697468D01*
X116576000Y-94680104D01*
X119765501Y-94680104D01*
X119802648Y-94895217D01*
X120230972Y-95038112D01*
X120681375Y-95006217D01*
X120949352Y-94895217D01*
X120976990Y-94735167D01*
X134830838Y-94735167D01*
X134972883Y-95078943D01*
X134981000Y-95087074D01*
X134981000Y-101050000D01*
X135040755Y-101350407D01*
X135210921Y-101605079D01*
X137410921Y-103805079D01*
X137665594Y-103975245D01*
X137966000Y-104035000D01*
X145628494Y-104035000D01*
X145635673Y-104042192D01*
X145979201Y-104184838D01*
X146351167Y-104185162D01*
X146694943Y-104043117D01*
X146958192Y-103780327D01*
X147100838Y-103436799D01*
X147101162Y-103064833D01*
X146959117Y-102721057D01*
X146696327Y-102457808D01*
X146352799Y-102315162D01*
X145980833Y-102314838D01*
X145637057Y-102456883D01*
X145628926Y-102465000D01*
X138291158Y-102465000D01*
X136551000Y-100724842D01*
X136551000Y-100076000D01*
X152748655Y-100076000D01*
X152862729Y-100649489D01*
X153187585Y-101135670D01*
X153502366Y-101346000D01*
X153187585Y-101556330D01*
X152862729Y-102042511D01*
X152748655Y-102616000D01*
X152862729Y-103189489D01*
X153187585Y-103675670D01*
X153201913Y-103685243D01*
X153180683Y-103689238D01*
X152964559Y-103828310D01*
X152819569Y-104040510D01*
X152768560Y-104292400D01*
X152768560Y-106019600D01*
X152812838Y-106254917D01*
X152951910Y-106471041D01*
X153164110Y-106616031D01*
X153416000Y-106667040D01*
X155448000Y-106667040D01*
X155683317Y-106622762D01*
X155899441Y-106483690D01*
X156044431Y-106271490D01*
X156095440Y-106019600D01*
X156095440Y-104292400D01*
X156051162Y-104057083D01*
X155912090Y-103840959D01*
X155699890Y-103695969D01*
X155658561Y-103687600D01*
X155676415Y-103675670D01*
X156001271Y-103189489D01*
X156096047Y-102713016D01*
X160316590Y-102713016D01*
X160372271Y-102943611D01*
X160855078Y-103111622D01*
X161365428Y-103082083D01*
X161699729Y-102943611D01*
X161755410Y-102713016D01*
X161036000Y-101993605D01*
X160316590Y-102713016D01*
X156096047Y-102713016D01*
X156115345Y-102616000D01*
X156001271Y-102042511D01*
X155727697Y-101633078D01*
X159738378Y-101633078D01*
X159767917Y-102143428D01*
X159906389Y-102477729D01*
X160136984Y-102533410D01*
X160856395Y-101814000D01*
X161215605Y-101814000D01*
X161935016Y-102533410D01*
X162165611Y-102477729D01*
X162333622Y-101994922D01*
X162304083Y-101484572D01*
X162290310Y-101451320D01*
X166368930Y-101451320D01*
X166368930Y-102650200D01*
X166413208Y-102885517D01*
X166552280Y-103101641D01*
X166764480Y-103246631D01*
X167016370Y-103297640D01*
X168715630Y-103297640D01*
X168950947Y-103253362D01*
X169167071Y-103114290D01*
X169312061Y-102902090D01*
X169363070Y-102650200D01*
X169363070Y-101451320D01*
X169318792Y-101216003D01*
X169179720Y-100999879D01*
X169025757Y-100894681D01*
X169047568Y-100878197D01*
X169293899Y-100458673D01*
X169309095Y-100366761D01*
X169184357Y-100176240D01*
X167993000Y-100176240D01*
X167993000Y-100196240D01*
X167739000Y-100196240D01*
X167739000Y-100176240D01*
X166547643Y-100176240D01*
X166422905Y-100366761D01*
X166438101Y-100458673D01*
X166684432Y-100878197D01*
X166707398Y-100895554D01*
X166564929Y-100987230D01*
X166419939Y-101199430D01*
X166368930Y-101451320D01*
X162290310Y-101451320D01*
X162165611Y-101150271D01*
X161935016Y-101094590D01*
X161215605Y-101814000D01*
X160856395Y-101814000D01*
X160136984Y-101094590D01*
X159906389Y-101150271D01*
X159738378Y-101633078D01*
X155727697Y-101633078D01*
X155676415Y-101556330D01*
X155361634Y-101346000D01*
X155676415Y-101135670D01*
X156001271Y-100649489D01*
X156115345Y-100076000D01*
X156001271Y-99502511D01*
X155676415Y-99016330D01*
X155190234Y-98691474D01*
X155052113Y-98664000D01*
X159738560Y-98664000D01*
X159738560Y-99964000D01*
X159782838Y-100199317D01*
X159921910Y-100415441D01*
X160134110Y-100560431D01*
X160386000Y-100611440D01*
X160548385Y-100611440D01*
X160372271Y-100684389D01*
X160316590Y-100914984D01*
X161036000Y-101634395D01*
X161755410Y-100914984D01*
X161699729Y-100684389D01*
X161490098Y-100611440D01*
X161686000Y-100611440D01*
X161921317Y-100567162D01*
X162137441Y-100428090D01*
X162282431Y-100215890D01*
X162333440Y-99964000D01*
X162333440Y-99731719D01*
X166422905Y-99731719D01*
X166547643Y-99922240D01*
X167739000Y-99922240D01*
X167739000Y-98967240D01*
X167993000Y-98967240D01*
X167993000Y-99922240D01*
X169184357Y-99922240D01*
X169309095Y-99731719D01*
X169293899Y-99639807D01*
X169047568Y-99220283D01*
X168659443Y-98926961D01*
X168188613Y-98804495D01*
X167993000Y-98967240D01*
X167739000Y-98967240D01*
X167543387Y-98804495D01*
X167072557Y-98926961D01*
X166684432Y-99220283D01*
X166438101Y-99639807D01*
X166422905Y-99731719D01*
X162333440Y-99731719D01*
X162333440Y-98664000D01*
X162289162Y-98428683D01*
X162150090Y-98212559D01*
X161937890Y-98067569D01*
X161686000Y-98016560D01*
X160386000Y-98016560D01*
X160150683Y-98060838D01*
X159934559Y-98199910D01*
X159789569Y-98412110D01*
X159738560Y-98664000D01*
X155052113Y-98664000D01*
X154616745Y-98577400D01*
X154247255Y-98577400D01*
X153673766Y-98691474D01*
X153187585Y-99016330D01*
X152862729Y-99502511D01*
X152748655Y-100076000D01*
X136551000Y-100076000D01*
X136551000Y-95483694D01*
X150531226Y-95483694D01*
X150779538Y-96084655D01*
X151238927Y-96544846D01*
X151839453Y-96794206D01*
X152489694Y-96794774D01*
X153090655Y-96546462D01*
X153550846Y-96087073D01*
X153800206Y-95486547D01*
X153800774Y-94836306D01*
X153552462Y-94235345D01*
X153167789Y-93850000D01*
X157568560Y-93850000D01*
X157568560Y-95350000D01*
X157612838Y-95585317D01*
X157751910Y-95801441D01*
X157964110Y-95946431D01*
X158216000Y-95997440D01*
X162716000Y-95997440D01*
X162951317Y-95953162D01*
X163167441Y-95814090D01*
X163312431Y-95601890D01*
X163363440Y-95350000D01*
X163363440Y-93850000D01*
X163319162Y-93614683D01*
X163180090Y-93398559D01*
X162967890Y-93253569D01*
X162716000Y-93202560D01*
X158216000Y-93202560D01*
X157980683Y-93246838D01*
X157764559Y-93385910D01*
X157619569Y-93598110D01*
X157568560Y-93850000D01*
X153167789Y-93850000D01*
X153093073Y-93775154D01*
X152492547Y-93525794D01*
X151842306Y-93525226D01*
X151241345Y-93773538D01*
X150781154Y-94232927D01*
X150531794Y-94833453D01*
X150531226Y-95483694D01*
X136551000Y-95483694D01*
X136551000Y-95087506D01*
X136558192Y-95080327D01*
X136700838Y-94736799D01*
X136701162Y-94364833D01*
X136559117Y-94021057D01*
X136296327Y-93757808D01*
X135952799Y-93615162D01*
X135580833Y-93614838D01*
X135237057Y-93756883D01*
X134973808Y-94019673D01*
X134831162Y-94363201D01*
X134830838Y-94735167D01*
X120976990Y-94735167D01*
X120986499Y-94680104D01*
X120376000Y-94069605D01*
X119765501Y-94680104D01*
X116576000Y-94680104D01*
X116576000Y-93744972D01*
X119227888Y-93744972D01*
X119259783Y-94195375D01*
X119370783Y-94463352D01*
X119585896Y-94500499D01*
X120196395Y-93890000D01*
X120555605Y-93890000D01*
X121166104Y-94500499D01*
X121381217Y-94463352D01*
X121524112Y-94035028D01*
X121492217Y-93584625D01*
X121381217Y-93316648D01*
X121166104Y-93279501D01*
X120555605Y-93890000D01*
X120196395Y-93890000D01*
X119585896Y-93279501D01*
X119370783Y-93316648D01*
X119227888Y-93744972D01*
X116576000Y-93744972D01*
X116576000Y-93099896D01*
X119765501Y-93099896D01*
X120376000Y-93710395D01*
X120986499Y-93099896D01*
X120949352Y-92884783D01*
X120521028Y-92741888D01*
X120070625Y-92773783D01*
X119802648Y-92884783D01*
X119765501Y-93099896D01*
X116576000Y-93099896D01*
X116576000Y-91574775D01*
X116700803Y-91574775D01*
X116873233Y-91992086D01*
X117192235Y-92311645D01*
X117609244Y-92484803D01*
X118060775Y-92485197D01*
X118478086Y-92312767D01*
X118797645Y-91993765D01*
X118970803Y-91576756D01*
X118971197Y-91125225D01*
X118798767Y-90707914D01*
X118676234Y-90585167D01*
X146330838Y-90585167D01*
X146472883Y-90928943D01*
X146481000Y-90937074D01*
X146481000Y-91712494D01*
X146473808Y-91719673D01*
X146331162Y-92063201D01*
X146330838Y-92435167D01*
X146472883Y-92778943D01*
X146735673Y-93042192D01*
X147079201Y-93184838D01*
X147451167Y-93185162D01*
X147794943Y-93043117D01*
X148058192Y-92780327D01*
X148200838Y-92436799D01*
X148201162Y-92064833D01*
X148059117Y-91721057D01*
X148051000Y-91712926D01*
X148051000Y-90937506D01*
X148058192Y-90930327D01*
X148200838Y-90586799D01*
X148201043Y-90350510D01*
X150519070Y-90350510D01*
X150519070Y-92349490D01*
X150563348Y-92584807D01*
X150702420Y-92800931D01*
X150914620Y-92945921D01*
X151166510Y-92996930D01*
X153165490Y-92996930D01*
X153400807Y-92952652D01*
X153616931Y-92813580D01*
X153761921Y-92601380D01*
X153812930Y-92349490D01*
X153812930Y-90524285D01*
X159580760Y-90524285D01*
X159791169Y-91033515D01*
X160180436Y-91423461D01*
X160689298Y-91634759D01*
X161240285Y-91635240D01*
X161749515Y-91424831D01*
X162139461Y-91035564D01*
X162350759Y-90526702D01*
X162351240Y-89975715D01*
X162140831Y-89466485D01*
X161751564Y-89076539D01*
X161242702Y-88865241D01*
X160691715Y-88864760D01*
X160182485Y-89075169D01*
X159792539Y-89464436D01*
X159581241Y-89973298D01*
X159580760Y-90524285D01*
X153812930Y-90524285D01*
X153812930Y-90350510D01*
X153768652Y-90115193D01*
X153629580Y-89899069D01*
X153417380Y-89754079D01*
X153165490Y-89703070D01*
X151166510Y-89703070D01*
X150931193Y-89747348D01*
X150715069Y-89886420D01*
X150570079Y-90098620D01*
X150519070Y-90350510D01*
X148201043Y-90350510D01*
X148201162Y-90214833D01*
X148059117Y-89871057D01*
X147796327Y-89607808D01*
X147452799Y-89465162D01*
X147080833Y-89464838D01*
X146737057Y-89606883D01*
X146473808Y-89869673D01*
X146331162Y-90213201D01*
X146330838Y-90585167D01*
X118676234Y-90585167D01*
X118479765Y-90388355D01*
X118062756Y-90215197D01*
X117611225Y-90214803D01*
X117193914Y-90387233D01*
X116874355Y-90706235D01*
X116701197Y-91123244D01*
X116700803Y-91574775D01*
X116576000Y-91574775D01*
X116576000Y-89034775D01*
X119240803Y-89034775D01*
X119413233Y-89452086D01*
X119732235Y-89771645D01*
X120149244Y-89944803D01*
X120600775Y-89945197D01*
X121018086Y-89772767D01*
X121337645Y-89453765D01*
X121510803Y-89036756D01*
X121511197Y-88585225D01*
X121338767Y-88167914D01*
X121019765Y-87848355D01*
X120602756Y-87675197D01*
X120151225Y-87674803D01*
X119733914Y-87847233D01*
X119414355Y-88166235D01*
X119241197Y-88583244D01*
X119240803Y-89034775D01*
X116576000Y-89034775D01*
X116576000Y-86780104D01*
X119865501Y-86780104D01*
X119902648Y-86995217D01*
X120330972Y-87138112D01*
X120781375Y-87106217D01*
X121049352Y-86995217D01*
X121086499Y-86780104D01*
X120476000Y-86169605D01*
X119865501Y-86780104D01*
X116576000Y-86780104D01*
X116576000Y-85844972D01*
X119327888Y-85844972D01*
X119359783Y-86295375D01*
X119470783Y-86563352D01*
X119685896Y-86600499D01*
X120296395Y-85990000D01*
X120655605Y-85990000D01*
X121266104Y-86600499D01*
X121481217Y-86563352D01*
X121624112Y-86135028D01*
X121592217Y-85684625D01*
X121481217Y-85416648D01*
X121266104Y-85379501D01*
X120655605Y-85990000D01*
X120296395Y-85990000D01*
X119685896Y-85379501D01*
X119470783Y-85416648D01*
X119327888Y-85844972D01*
X116576000Y-85844972D01*
X116576000Y-85199896D01*
X119865501Y-85199896D01*
X120476000Y-85810395D01*
X121086499Y-85199896D01*
X121049352Y-84984783D01*
X120621028Y-84841888D01*
X120170625Y-84873783D01*
X119902648Y-84984783D01*
X119865501Y-85199896D01*
X116576000Y-85199896D01*
X116576000Y-83674775D01*
X116800803Y-83674775D01*
X116973233Y-84092086D01*
X117292235Y-84411645D01*
X117709244Y-84584803D01*
X118160775Y-84585197D01*
X118578086Y-84412767D01*
X118897645Y-84093765D01*
X119070803Y-83676756D01*
X119071197Y-83225225D01*
X118898767Y-82807914D01*
X118579765Y-82488355D01*
X118162756Y-82315197D01*
X117711225Y-82314803D01*
X117293914Y-82487233D01*
X116974355Y-82806235D01*
X116801197Y-83223244D01*
X116800803Y-83674775D01*
X116576000Y-83674775D01*
X116576000Y-81134775D01*
X119340803Y-81134775D01*
X119513233Y-81552086D01*
X119832235Y-81871645D01*
X120249244Y-82044803D01*
X120700775Y-82045197D01*
X121019390Y-81913548D01*
X123680847Y-84575005D01*
X123680838Y-84585167D01*
X123822883Y-84928943D01*
X124085673Y-85192192D01*
X124429201Y-85334838D01*
X124801167Y-85335162D01*
X125144943Y-85193117D01*
X125408192Y-84930327D01*
X125431259Y-84874775D01*
X139130803Y-84874775D01*
X139303233Y-85292086D01*
X139622235Y-85611645D01*
X140039244Y-85784803D01*
X140490775Y-85785197D01*
X140908086Y-85612767D01*
X141227645Y-85293765D01*
X141400803Y-84876756D01*
X141400804Y-84874775D01*
X144130803Y-84874775D01*
X144303233Y-85292086D01*
X144622235Y-85611645D01*
X145039244Y-85784803D01*
X145490775Y-85785197D01*
X145908086Y-85612767D01*
X145996722Y-85524285D01*
X159580760Y-85524285D01*
X159791169Y-86033515D01*
X160180436Y-86423461D01*
X160689298Y-86634759D01*
X161240285Y-86635240D01*
X161749515Y-86424831D01*
X162139461Y-86035564D01*
X162350759Y-85526702D01*
X162351240Y-84975715D01*
X162140831Y-84466485D01*
X161751564Y-84076539D01*
X161242702Y-83865241D01*
X160691715Y-83864760D01*
X160182485Y-84075169D01*
X159792539Y-84464436D01*
X159581241Y-84973298D01*
X159580760Y-85524285D01*
X145996722Y-85524285D01*
X146227645Y-85293765D01*
X146400803Y-84876756D01*
X146401197Y-84425225D01*
X146228767Y-84007914D01*
X145909765Y-83688355D01*
X145492756Y-83515197D01*
X145041225Y-83514803D01*
X144623914Y-83687233D01*
X144304355Y-84006235D01*
X144131197Y-84423244D01*
X144130803Y-84874775D01*
X141400804Y-84874775D01*
X141401197Y-84425225D01*
X141228767Y-84007914D01*
X140909765Y-83688355D01*
X140492756Y-83515197D01*
X140041225Y-83514803D01*
X139623914Y-83687233D01*
X139304355Y-84006235D01*
X139131197Y-84423244D01*
X139130803Y-84874775D01*
X125431259Y-84874775D01*
X125550838Y-84586799D01*
X125551162Y-84214833D01*
X125409117Y-83871057D01*
X125146327Y-83607808D01*
X124802799Y-83465162D01*
X124791310Y-83465152D01*
X121681079Y-80354921D01*
X121426407Y-80184755D01*
X121338247Y-80167219D01*
X121321059Y-80150000D01*
X157568560Y-80150000D01*
X157568560Y-81650000D01*
X157612838Y-81885317D01*
X157751910Y-82101441D01*
X157964110Y-82246431D01*
X158216000Y-82297440D01*
X162716000Y-82297440D01*
X162951317Y-82253162D01*
X163167441Y-82114090D01*
X163312431Y-81901890D01*
X163363440Y-81650000D01*
X163363440Y-80150000D01*
X163319162Y-79914683D01*
X163180090Y-79698559D01*
X162967890Y-79553569D01*
X162716000Y-79502560D01*
X158216000Y-79502560D01*
X157980683Y-79546838D01*
X157764559Y-79685910D01*
X157619569Y-79898110D01*
X157568560Y-80150000D01*
X121321059Y-80150000D01*
X121119765Y-79948355D01*
X120702756Y-79775197D01*
X120251225Y-79774803D01*
X119833914Y-79947233D01*
X119514355Y-80266235D01*
X119341197Y-80683244D01*
X119340803Y-81134775D01*
X116576000Y-81134775D01*
X116576000Y-76971356D01*
X118180440Y-76971356D01*
X118618739Y-78032120D01*
X119429611Y-78844409D01*
X120489608Y-79284558D01*
X121637356Y-79285560D01*
X122698120Y-78847261D01*
X123510409Y-78036389D01*
X123950558Y-76976392D01*
X123950562Y-76971356D01*
X162980440Y-76971356D01*
X163418739Y-78032120D01*
X164229611Y-78844409D01*
X165289608Y-79284558D01*
X166437356Y-79285560D01*
X167498120Y-78847261D01*
X168310409Y-78036389D01*
X168750558Y-76976392D01*
X168751560Y-75828644D01*
X168313261Y-74767880D01*
X167502389Y-73955591D01*
X166442392Y-73515442D01*
X165294644Y-73514440D01*
X164233880Y-73952739D01*
X163421591Y-74763611D01*
X162981442Y-75823608D01*
X162980440Y-76971356D01*
X123950562Y-76971356D01*
X123951560Y-75828644D01*
X123639175Y-75072613D01*
X130820495Y-75072613D01*
X130942961Y-75543443D01*
X131236283Y-75931568D01*
X131655807Y-76177899D01*
X131747719Y-76193095D01*
X131938240Y-76068357D01*
X131938240Y-74877000D01*
X130983240Y-74877000D01*
X130820495Y-75072613D01*
X123639175Y-75072613D01*
X123513261Y-74767880D01*
X123173362Y-74427387D01*
X130820495Y-74427387D01*
X130983240Y-74623000D01*
X131938240Y-74623000D01*
X131938240Y-73431643D01*
X132192240Y-73431643D01*
X132192240Y-74623000D01*
X132212240Y-74623000D01*
X132212240Y-74877000D01*
X132192240Y-74877000D01*
X132192240Y-76068357D01*
X132382761Y-76193095D01*
X132474673Y-76177899D01*
X132894197Y-75931568D01*
X132911554Y-75908602D01*
X133003230Y-76051071D01*
X133215430Y-76196061D01*
X133467320Y-76247070D01*
X134666200Y-76247070D01*
X134901517Y-76202792D01*
X135117641Y-76063720D01*
X135262631Y-75851520D01*
X135313640Y-75599630D01*
X135313640Y-73900370D01*
X135269362Y-73665053D01*
X135130290Y-73448929D01*
X134918090Y-73303939D01*
X134666200Y-73252930D01*
X133467320Y-73252930D01*
X133232003Y-73297208D01*
X133015879Y-73436280D01*
X132910681Y-73590243D01*
X132894197Y-73568432D01*
X132474673Y-73322101D01*
X132382761Y-73306905D01*
X132192240Y-73431643D01*
X131938240Y-73431643D01*
X131747719Y-73306905D01*
X131655807Y-73322101D01*
X131236283Y-73568432D01*
X130942961Y-73956557D01*
X130820495Y-74427387D01*
X123173362Y-74427387D01*
X122702389Y-73955591D01*
X121642392Y-73515442D01*
X120494644Y-73514440D01*
X119433880Y-73952739D01*
X118621591Y-74763611D01*
X118181442Y-75823608D01*
X118180440Y-76971356D01*
X116576000Y-76971356D01*
X116576000Y-71960000D01*
X170356000Y-71960000D01*
X170356000Y-120840000D01*
M02*
